G04 #@! TF.GenerationSoftware,KiCad,Pcbnew,5.1.5+dfsg1-2build2*
G04 #@! TF.CreationDate,2022-01-08T18:27:50+01:00*
G04 #@! TF.ProjectId,open_controler,6f70656e-5f63-46f6-9e74-726f6c65722e,rev?*
G04 #@! TF.SameCoordinates,Original*
G04 #@! TF.FileFunction,Legend,Top*
G04 #@! TF.FilePolarity,Positive*
%FSLAX46Y46*%
G04 Gerber Fmt 4.6, Leading zero omitted, Abs format (unit mm)*
G04 Created by KiCad (PCBNEW 5.1.5+dfsg1-2build2) date 2022-01-08 18:27:50*
%MOMM*%
%LPD*%
G04 APERTURE LIST*
%ADD10C,0.120000*%
%ADD11C,0.150000*%
G04 APERTURE END LIST*
D10*
X80432600Y-108721200D02*
X85632600Y-108721200D01*
X80432600Y-60401200D02*
X80432600Y-108721200D01*
X85632600Y-57801200D02*
X85632600Y-108721200D01*
X80432600Y-60401200D02*
X83032600Y-60401200D01*
X83032600Y-60401200D02*
X83032600Y-57801200D01*
X83032600Y-57801200D02*
X85632600Y-57801200D01*
X80432600Y-59131200D02*
X80432600Y-57801200D01*
X80432600Y-57801200D02*
X81762600Y-57801200D01*
X92954800Y-57801200D02*
X94284800Y-57801200D01*
X92954800Y-59131200D02*
X92954800Y-57801200D01*
X95554800Y-57801200D02*
X98154800Y-57801200D01*
X95554800Y-60401200D02*
X95554800Y-57801200D01*
X92954800Y-60401200D02*
X95554800Y-60401200D01*
X98154800Y-57801200D02*
X98154800Y-108721200D01*
X92954800Y-60401200D02*
X92954800Y-108721200D01*
X92954800Y-108721200D02*
X98154800Y-108721200D01*
X132985200Y-57801200D02*
X134315200Y-57801200D01*
X132985200Y-59131200D02*
X132985200Y-57801200D01*
X135585200Y-57801200D02*
X138185200Y-57801200D01*
X135585200Y-60401200D02*
X135585200Y-57801200D01*
X132985200Y-60401200D02*
X135585200Y-60401200D01*
X138185200Y-57801200D02*
X138185200Y-108721200D01*
X132985200Y-60401200D02*
X132985200Y-108721200D01*
X132985200Y-108721200D02*
X138185200Y-108721200D01*
X172964800Y-108721200D02*
X178164800Y-108721200D01*
X172964800Y-60401200D02*
X172964800Y-108721200D01*
X178164800Y-57801200D02*
X178164800Y-108721200D01*
X172964800Y-60401200D02*
X175564800Y-60401200D01*
X175564800Y-60401200D02*
X175564800Y-57801200D01*
X175564800Y-57801200D02*
X178164800Y-57801200D01*
X172964800Y-59131200D02*
X172964800Y-57801200D01*
X172964800Y-57801200D02*
X174294800Y-57801200D01*
D11*
X84680466Y-55891180D02*
X84680466Y-56605466D01*
X84632847Y-56748323D01*
X84537609Y-56843561D01*
X84394752Y-56891180D01*
X84299514Y-56891180D01*
X85680466Y-56891180D02*
X85109038Y-56891180D01*
X85394752Y-56891180D02*
X85394752Y-55891180D01*
X85299514Y-56034038D01*
X85204276Y-56129276D01*
X85109038Y-56176895D01*
X96999466Y-55941980D02*
X96999466Y-56656266D01*
X96951847Y-56799123D01*
X96856609Y-56894361D01*
X96713752Y-56941980D01*
X96618514Y-56941980D01*
X97428038Y-56037219D02*
X97475657Y-55989600D01*
X97570895Y-55941980D01*
X97808990Y-55941980D01*
X97904228Y-55989600D01*
X97951847Y-56037219D01*
X97999466Y-56132457D01*
X97999466Y-56227695D01*
X97951847Y-56370552D01*
X97380419Y-56941980D01*
X97999466Y-56941980D01*
X137207666Y-55738780D02*
X137207666Y-56453066D01*
X137160047Y-56595923D01*
X137064809Y-56691161D01*
X136921952Y-56738780D01*
X136826714Y-56738780D01*
X137588619Y-55738780D02*
X138207666Y-55738780D01*
X137874333Y-56119733D01*
X138017190Y-56119733D01*
X138112428Y-56167352D01*
X138160047Y-56214971D01*
X138207666Y-56310209D01*
X138207666Y-56548304D01*
X138160047Y-56643542D01*
X138112428Y-56691161D01*
X138017190Y-56738780D01*
X137731476Y-56738780D01*
X137636238Y-56691161D01*
X137588619Y-56643542D01*
X177060266Y-55662580D02*
X177060266Y-56376866D01*
X177012647Y-56519723D01*
X176917409Y-56614961D01*
X176774552Y-56662580D01*
X176679314Y-56662580D01*
X177965028Y-55995914D02*
X177965028Y-56662580D01*
X177726933Y-55614961D02*
X177488838Y-56329247D01*
X178107885Y-56329247D01*
M02*
