G04 #@! TF.GenerationSoftware,KiCad,Pcbnew,5.1.5+dfsg1-2build2*
G04 #@! TF.CreationDate,2022-01-08T18:27:50+01:00*
G04 #@! TF.ProjectId,open_controler,6f70656e-5f63-46f6-9e74-726f6c65722e,rev?*
G04 #@! TF.SameCoordinates,Original*
G04 #@! TF.FileFunction,Other,Fab,Top*
%FSLAX46Y46*%
G04 Gerber Fmt 4.6, Leading zero omitted, Abs format (unit mm)*
G04 Created by KiCad (PCBNEW 5.1.5+dfsg1-2build2) date 2022-01-08 18:27:50*
%MOMM*%
%LPD*%
G04 APERTURE LIST*
%ADD10C,0.100000*%
%ADD11C,0.150000*%
G04 APERTURE END LIST*
D10*
X81762600Y-57861200D02*
X85572600Y-57861200D01*
X85572600Y-57861200D02*
X85572600Y-108661200D01*
X85572600Y-108661200D02*
X80492600Y-108661200D01*
X80492600Y-108661200D02*
X80492600Y-59131200D01*
X80492600Y-59131200D02*
X81762600Y-57861200D01*
X93014800Y-59131200D02*
X94284800Y-57861200D01*
X93014800Y-108661200D02*
X93014800Y-59131200D01*
X98094800Y-108661200D02*
X93014800Y-108661200D01*
X98094800Y-57861200D02*
X98094800Y-108661200D01*
X94284800Y-57861200D02*
X98094800Y-57861200D01*
X133045200Y-59131200D02*
X134315200Y-57861200D01*
X133045200Y-108661200D02*
X133045200Y-59131200D01*
X138125200Y-108661200D02*
X133045200Y-108661200D01*
X138125200Y-57861200D02*
X138125200Y-108661200D01*
X134315200Y-57861200D02*
X138125200Y-57861200D01*
X174294800Y-57861200D02*
X178104800Y-57861200D01*
X178104800Y-57861200D02*
X178104800Y-108661200D01*
X178104800Y-108661200D02*
X173024800Y-108661200D01*
X173024800Y-108661200D02*
X173024800Y-59131200D01*
X173024800Y-59131200D02*
X174294800Y-57861200D01*
D11*
X80675457Y-109307380D02*
X80770695Y-109307380D01*
X80865933Y-109355000D01*
X80913552Y-109402619D01*
X80961171Y-109497857D01*
X81008790Y-109688333D01*
X81008790Y-109926428D01*
X80961171Y-110116904D01*
X80913552Y-110212142D01*
X80865933Y-110259761D01*
X80770695Y-110307380D01*
X80675457Y-110307380D01*
X80580219Y-110259761D01*
X80532600Y-110212142D01*
X80484980Y-110116904D01*
X80437361Y-109926428D01*
X80437361Y-109688333D01*
X80484980Y-109497857D01*
X80532600Y-109402619D01*
X80580219Y-109355000D01*
X80675457Y-109307380D01*
X81389742Y-109402619D02*
X81437361Y-109355000D01*
X81532600Y-109307380D01*
X81770695Y-109307380D01*
X81865933Y-109355000D01*
X81913552Y-109402619D01*
X81961171Y-109497857D01*
X81961171Y-109593095D01*
X81913552Y-109735952D01*
X81342123Y-110307380D01*
X81961171Y-110307380D01*
X82294504Y-110307380D02*
X82818314Y-109640714D01*
X82294504Y-109640714D02*
X82818314Y-110307380D01*
X83151647Y-109402619D02*
X83199266Y-109355000D01*
X83294504Y-109307380D01*
X83532600Y-109307380D01*
X83627838Y-109355000D01*
X83675457Y-109402619D01*
X83723076Y-109497857D01*
X83723076Y-109593095D01*
X83675457Y-109735952D01*
X83104028Y-110307380D01*
X83723076Y-110307380D01*
X84342123Y-109307380D02*
X84437361Y-109307380D01*
X84532600Y-109355000D01*
X84580219Y-109402619D01*
X84627838Y-109497857D01*
X84675457Y-109688333D01*
X84675457Y-109926428D01*
X84627838Y-110116904D01*
X84580219Y-110212142D01*
X84532600Y-110259761D01*
X84437361Y-110307380D01*
X84342123Y-110307380D01*
X84246885Y-110259761D01*
X84199266Y-110212142D01*
X84151647Y-110116904D01*
X84104028Y-109926428D01*
X84104028Y-109688333D01*
X84151647Y-109497857D01*
X84199266Y-109402619D01*
X84246885Y-109355000D01*
X84342123Y-109307380D01*
X85294504Y-109307380D02*
X85389742Y-109307380D01*
X85484980Y-109355000D01*
X85532600Y-109402619D01*
X85580219Y-109497857D01*
X85627838Y-109688333D01*
X85627838Y-109926428D01*
X85580219Y-110116904D01*
X85532600Y-110212142D01*
X85484980Y-110259761D01*
X85389742Y-110307380D01*
X85294504Y-110307380D01*
X85199266Y-110259761D01*
X85151647Y-110212142D01*
X85104028Y-110116904D01*
X85056409Y-109926428D01*
X85056409Y-109688333D01*
X85104028Y-109497857D01*
X85151647Y-109402619D01*
X85199266Y-109355000D01*
X85294504Y-109307380D01*
X80692666Y-55738780D02*
X80692666Y-56453066D01*
X80645047Y-56595923D01*
X80549809Y-56691161D01*
X80406952Y-56738780D01*
X80311714Y-56738780D01*
X81692666Y-56738780D02*
X81121238Y-56738780D01*
X81406952Y-56738780D02*
X81406952Y-55738780D01*
X81311714Y-55881638D01*
X81216476Y-55976876D01*
X81121238Y-56024495D01*
X93673847Y-109173580D02*
X93769085Y-109173580D01*
X93864323Y-109221200D01*
X93911942Y-109268819D01*
X93959561Y-109364057D01*
X94007180Y-109554533D01*
X94007180Y-109792628D01*
X93959561Y-109983104D01*
X93911942Y-110078342D01*
X93864323Y-110125961D01*
X93769085Y-110173580D01*
X93673847Y-110173580D01*
X93578609Y-110125961D01*
X93530990Y-110078342D01*
X93483371Y-109983104D01*
X93435752Y-109792628D01*
X93435752Y-109554533D01*
X93483371Y-109364057D01*
X93530990Y-109268819D01*
X93578609Y-109221200D01*
X93673847Y-109173580D01*
X94388133Y-109268819D02*
X94435752Y-109221200D01*
X94530990Y-109173580D01*
X94769085Y-109173580D01*
X94864323Y-109221200D01*
X94911942Y-109268819D01*
X94959561Y-109364057D01*
X94959561Y-109459295D01*
X94911942Y-109602152D01*
X94340514Y-110173580D01*
X94959561Y-110173580D01*
X95292895Y-110173580D02*
X95816704Y-109506914D01*
X95292895Y-109506914D02*
X95816704Y-110173580D01*
X96150038Y-109268819D02*
X96197657Y-109221200D01*
X96292895Y-109173580D01*
X96530990Y-109173580D01*
X96626228Y-109221200D01*
X96673847Y-109268819D01*
X96721466Y-109364057D01*
X96721466Y-109459295D01*
X96673847Y-109602152D01*
X96102419Y-110173580D01*
X96721466Y-110173580D01*
X97340514Y-109173580D02*
X97435752Y-109173580D01*
X97530990Y-109221200D01*
X97578609Y-109268819D01*
X97626228Y-109364057D01*
X97673847Y-109554533D01*
X97673847Y-109792628D01*
X97626228Y-109983104D01*
X97578609Y-110078342D01*
X97530990Y-110125961D01*
X97435752Y-110173580D01*
X97340514Y-110173580D01*
X97245276Y-110125961D01*
X97197657Y-110078342D01*
X97150038Y-109983104D01*
X97102419Y-109792628D01*
X97102419Y-109554533D01*
X97150038Y-109364057D01*
X97197657Y-109268819D01*
X97245276Y-109221200D01*
X97340514Y-109173580D01*
X93164066Y-55840380D02*
X93164066Y-56554666D01*
X93116447Y-56697523D01*
X93021209Y-56792761D01*
X92878352Y-56840380D01*
X92783114Y-56840380D01*
X93592638Y-55935619D02*
X93640257Y-55888000D01*
X93735495Y-55840380D01*
X93973590Y-55840380D01*
X94068828Y-55888000D01*
X94116447Y-55935619D01*
X94164066Y-56030857D01*
X94164066Y-56126095D01*
X94116447Y-56268952D01*
X93545019Y-56840380D01*
X94164066Y-56840380D01*
X133704247Y-109173580D02*
X133799485Y-109173580D01*
X133894723Y-109221200D01*
X133942342Y-109268819D01*
X133989961Y-109364057D01*
X134037580Y-109554533D01*
X134037580Y-109792628D01*
X133989961Y-109983104D01*
X133942342Y-110078342D01*
X133894723Y-110125961D01*
X133799485Y-110173580D01*
X133704247Y-110173580D01*
X133609009Y-110125961D01*
X133561390Y-110078342D01*
X133513771Y-109983104D01*
X133466152Y-109792628D01*
X133466152Y-109554533D01*
X133513771Y-109364057D01*
X133561390Y-109268819D01*
X133609009Y-109221200D01*
X133704247Y-109173580D01*
X134418533Y-109268819D02*
X134466152Y-109221200D01*
X134561390Y-109173580D01*
X134799485Y-109173580D01*
X134894723Y-109221200D01*
X134942342Y-109268819D01*
X134989961Y-109364057D01*
X134989961Y-109459295D01*
X134942342Y-109602152D01*
X134370914Y-110173580D01*
X134989961Y-110173580D01*
X135323295Y-110173580D02*
X135847104Y-109506914D01*
X135323295Y-109506914D02*
X135847104Y-110173580D01*
X136180438Y-109268819D02*
X136228057Y-109221200D01*
X136323295Y-109173580D01*
X136561390Y-109173580D01*
X136656628Y-109221200D01*
X136704247Y-109268819D01*
X136751866Y-109364057D01*
X136751866Y-109459295D01*
X136704247Y-109602152D01*
X136132819Y-110173580D01*
X136751866Y-110173580D01*
X137370914Y-109173580D02*
X137466152Y-109173580D01*
X137561390Y-109221200D01*
X137609009Y-109268819D01*
X137656628Y-109364057D01*
X137704247Y-109554533D01*
X137704247Y-109792628D01*
X137656628Y-109983104D01*
X137609009Y-110078342D01*
X137561390Y-110125961D01*
X137466152Y-110173580D01*
X137370914Y-110173580D01*
X137275676Y-110125961D01*
X137228057Y-110078342D01*
X137180438Y-109983104D01*
X137132819Y-109792628D01*
X137132819Y-109554533D01*
X137180438Y-109364057D01*
X137228057Y-109268819D01*
X137275676Y-109221200D01*
X137370914Y-109173580D01*
X133296066Y-55764180D02*
X133296066Y-56478466D01*
X133248447Y-56621323D01*
X133153209Y-56716561D01*
X133010352Y-56764180D01*
X132915114Y-56764180D01*
X133677019Y-55764180D02*
X134296066Y-55764180D01*
X133962733Y-56145133D01*
X134105590Y-56145133D01*
X134200828Y-56192752D01*
X134248447Y-56240371D01*
X134296066Y-56335609D01*
X134296066Y-56573704D01*
X134248447Y-56668942D01*
X134200828Y-56716561D01*
X134105590Y-56764180D01*
X133819876Y-56764180D01*
X133724638Y-56716561D01*
X133677019Y-56668942D01*
X173683847Y-109173580D02*
X173779085Y-109173580D01*
X173874323Y-109221200D01*
X173921942Y-109268819D01*
X173969561Y-109364057D01*
X174017180Y-109554533D01*
X174017180Y-109792628D01*
X173969561Y-109983104D01*
X173921942Y-110078342D01*
X173874323Y-110125961D01*
X173779085Y-110173580D01*
X173683847Y-110173580D01*
X173588609Y-110125961D01*
X173540990Y-110078342D01*
X173493371Y-109983104D01*
X173445752Y-109792628D01*
X173445752Y-109554533D01*
X173493371Y-109364057D01*
X173540990Y-109268819D01*
X173588609Y-109221200D01*
X173683847Y-109173580D01*
X174398133Y-109268819D02*
X174445752Y-109221200D01*
X174540990Y-109173580D01*
X174779085Y-109173580D01*
X174874323Y-109221200D01*
X174921942Y-109268819D01*
X174969561Y-109364057D01*
X174969561Y-109459295D01*
X174921942Y-109602152D01*
X174350514Y-110173580D01*
X174969561Y-110173580D01*
X175302895Y-110173580D02*
X175826704Y-109506914D01*
X175302895Y-109506914D02*
X175826704Y-110173580D01*
X176160038Y-109268819D02*
X176207657Y-109221200D01*
X176302895Y-109173580D01*
X176540990Y-109173580D01*
X176636228Y-109221200D01*
X176683847Y-109268819D01*
X176731466Y-109364057D01*
X176731466Y-109459295D01*
X176683847Y-109602152D01*
X176112419Y-110173580D01*
X176731466Y-110173580D01*
X177350514Y-109173580D02*
X177445752Y-109173580D01*
X177540990Y-109221200D01*
X177588609Y-109268819D01*
X177636228Y-109364057D01*
X177683847Y-109554533D01*
X177683847Y-109792628D01*
X177636228Y-109983104D01*
X177588609Y-110078342D01*
X177540990Y-110125961D01*
X177445752Y-110173580D01*
X177350514Y-110173580D01*
X177255276Y-110125961D01*
X177207657Y-110078342D01*
X177160038Y-109983104D01*
X177112419Y-109792628D01*
X177112419Y-109554533D01*
X177160038Y-109364057D01*
X177207657Y-109268819D01*
X177255276Y-109221200D01*
X177350514Y-109173580D01*
X173224866Y-55764180D02*
X173224866Y-56478466D01*
X173177247Y-56621323D01*
X173082009Y-56716561D01*
X172939152Y-56764180D01*
X172843914Y-56764180D01*
X174129628Y-56097514D02*
X174129628Y-56764180D01*
X173891533Y-55716561D02*
X173653438Y-56430847D01*
X174272485Y-56430847D01*
M02*
