M48
; DRILL file {KiCad 5.1.5+dfsg1-2build2} date jue 28 jul 2022 19:46:02
; FORMAT={-:-/ absolute / inch / decimal}
; #@! TF.CreationDate,2022-07-28T19:46:02+02:00
; #@! TF.GenerationSoftware,Kicad,Pcbnew,5.1.5+dfsg1-2build2
; #@! TF.FileFunction,Plated,1,2,PTH
FMAT,2
INCH
T1C0.0157
T2C0.0394
T3C0.0472
%
G90
G05
T1
X3.0118Y-4.7785
X3.0551Y-4.5756
X3.1122Y-4.7785
X3.1272Y-1.9555
X3.2254Y-2.4291
X3.2283Y-4.2165
X3.2293Y-4.1289
X3.2362Y-1.7894
X3.2372Y-2.8868
X3.2372Y-3.0659
X3.2382Y-2.1378
X3.2382Y-3.4813
X3.285Y-4.6685
X3.3632Y-4.5984
X3.4636Y-4.5984
X3.5638Y-4.3677
X3.6073Y-4.0443
X3.6073Y-4.1683
X3.6268Y-4.5157
X3.6272Y-4.3673
X3.7431Y-4.5974
X3.8425Y-4.5984
X3.9508Y-4.0561
X3.9764Y-4.2421
X4.0128Y-4.0561
X4.1112Y-4.5974
X4.1388Y-2.2923
X4.1398Y-1.9262
X4.1398Y-2.6683
X4.1427Y-3.062
X4.1427Y-3.4419
X4.1427Y-3.7933
X4.2146Y-4.6014
X4.313Y-4.0561
X4.3425Y-4.5213
X4.3878Y-4.0561
X4.4833Y-4.5994
X4.5837Y-4.6004
X4.7024Y-4.6441
X4.7799Y-2.9248
X4.8228Y-4.7746
X4.9193Y-4.7717
T2
X4.9045Y-1.9744
X4.9045Y-2.0744
X4.9045Y-2.1744
X4.9045Y-2.2744
X4.9045Y-2.3744
X4.9045Y-2.4744
X4.9045Y-2.5744
X4.9045Y-2.6744
X4.9045Y-2.7744
X4.9045Y-2.8744
X4.9045Y-2.9744
X4.9045Y-3.0744
X4.9045Y-3.1744
X4.9045Y-3.2744
X4.9045Y-3.3744
X4.9045Y-3.4744
X4.9045Y-3.5744
X4.9045Y-3.6744
X4.9045Y-3.7744
X4.9045Y-3.8744
X5.0045Y-1.9744
X5.0045Y-2.0744
X5.0045Y-2.1744
X5.0045Y-2.2744
X5.0045Y-2.3744
X5.0045Y-2.4744
X5.0045Y-2.5744
X5.0045Y-2.6744
X5.0045Y-2.7744
X5.0045Y-2.8744
X5.0045Y-2.9744
X5.0045Y-3.0744
X5.0045Y-3.1744
X5.0045Y-3.2744
X5.0045Y-3.3744
X5.0045Y-3.4744
X5.0045Y-3.5744
X5.0045Y-3.6744
X5.0045Y-3.7744
X5.0045Y-3.8744
T3
X2.9734Y-3.6122
X2.9734Y-3.75
X3.3632Y-4.8878
X3.501Y-4.8878
X3.6388Y-4.8878
X3.7766Y-4.8878
X3.9144Y-4.8878
X4.0522Y-4.8878
X4.19Y-4.8878
X4.3278Y-4.8878
X4.4656Y-4.8878
X4.6033Y-4.8878
X2.9803Y-2.0207
X2.9803Y-2.1585
X2.9803Y-2.2963
X2.9803Y-2.4341
X2.9803Y-2.5719
X2.9803Y-2.7096
X2.9803Y-2.8474
X2.9803Y-2.9852
X2.9803Y-3.123
X2.9803Y-3.2608
T0
M30
