G04 #@! TF.GenerationSoftware,KiCad,Pcbnew,5.1.5+dfsg1-2build2*
G04 #@! TF.CreationDate,2022-07-28T19:41:36+02:00*
G04 #@! TF.ProjectId,digital,64696769-7461-46c2-9e6b-696361645f70,rev?*
G04 #@! TF.SameCoordinates,Original*
G04 #@! TF.FileFunction,Other,Fab,Bot*
%FSLAX46Y46*%
G04 Gerber Fmt 4.6, Leading zero omitted, Abs format (unit mm)*
G04 Created by KiCad (PCBNEW 5.1.5+dfsg1-2build2) date 2022-07-28 19:41:36*
%MOMM*%
%LPD*%
G04 APERTURE LIST*
%ADD10C,0.100000*%
%ADD11C,0.150000*%
G04 APERTURE END LIST*
D10*
X122287500Y-122600000D02*
X122287500Y-124200000D01*
X122287500Y-124200000D02*
X125487500Y-124200000D01*
X125487500Y-124200000D02*
X125487500Y-122600000D01*
X125487500Y-122600000D02*
X122287500Y-122600000D01*
X80650000Y-95325000D02*
X82250000Y-95325000D01*
X82250000Y-95325000D02*
X82250000Y-92125000D01*
X82250000Y-92125000D02*
X80650000Y-92125000D01*
X80650000Y-92125000D02*
X80650000Y-95325000D01*
X85337500Y-93400000D02*
X89637500Y-93400000D01*
X89637500Y-93400000D02*
X90537500Y-94300000D01*
X90537500Y-94300000D02*
X90537500Y-97000000D01*
X90537500Y-97000000D02*
X85337500Y-97000000D01*
X85337500Y-97000000D02*
X85337500Y-93400000D01*
X116962500Y-117925000D02*
X113762500Y-117925000D01*
X116962500Y-119525000D02*
X116962500Y-117925000D01*
X113762500Y-119525000D02*
X116962500Y-119525000D01*
X113762500Y-117925000D02*
X113762500Y-119525000D01*
X104312500Y-117925000D02*
X104312500Y-119525000D01*
X104312500Y-119525000D02*
X107512500Y-119525000D01*
X107512500Y-119525000D02*
X107512500Y-117925000D01*
X107512500Y-117925000D02*
X104312500Y-117925000D01*
X98162500Y-117900000D02*
X94962500Y-117900000D01*
X98162500Y-119500000D02*
X98162500Y-117900000D01*
X94962500Y-119500000D02*
X98162500Y-119500000D01*
X94962500Y-117900000D02*
X94962500Y-119500000D01*
X85300000Y-117925000D02*
X85300000Y-119525000D01*
X85300000Y-119525000D02*
X88500000Y-119525000D01*
X88500000Y-119525000D02*
X88500000Y-117925000D01*
X88500000Y-117925000D02*
X85300000Y-117925000D01*
X79587500Y-122500000D02*
X76387500Y-122500000D01*
X79587500Y-124100000D02*
X79587500Y-122500000D01*
X76387500Y-124100000D02*
X79587500Y-124100000D01*
X76387500Y-122500000D02*
X76387500Y-124100000D01*
D11*
X127660476Y-124362380D02*
X128231904Y-124362380D01*
X127946190Y-124362380D02*
X127946190Y-123362380D01*
X128041428Y-123505238D01*
X128136666Y-123600476D01*
X128231904Y-123648095D01*
X127041428Y-123362380D02*
X126946190Y-123362380D01*
X126850952Y-123410000D01*
X126803333Y-123457619D01*
X126755714Y-123552857D01*
X126708095Y-123743333D01*
X126708095Y-123981428D01*
X126755714Y-124171904D01*
X126803333Y-124267142D01*
X126850952Y-124314761D01*
X126946190Y-124362380D01*
X127041428Y-124362380D01*
X127136666Y-124314761D01*
X127184285Y-124267142D01*
X127231904Y-124171904D01*
X127279523Y-123981428D01*
X127279523Y-123743333D01*
X127231904Y-123552857D01*
X127184285Y-123457619D01*
X127136666Y-123410000D01*
X127041428Y-123362380D01*
X81630476Y-97322380D02*
X82201904Y-97322380D01*
X81916190Y-97322380D02*
X81916190Y-96322380D01*
X82011428Y-96465238D01*
X82106666Y-96560476D01*
X82201904Y-96608095D01*
X81011428Y-96322380D02*
X80916190Y-96322380D01*
X80820952Y-96370000D01*
X80773333Y-96417619D01*
X80725714Y-96512857D01*
X80678095Y-96703333D01*
X80678095Y-96941428D01*
X80725714Y-97131904D01*
X80773333Y-97227142D01*
X80820952Y-97274761D01*
X80916190Y-97322380D01*
X81011428Y-97322380D01*
X81106666Y-97274761D01*
X81154285Y-97227142D01*
X81201904Y-97131904D01*
X81249523Y-96941428D01*
X81249523Y-96703333D01*
X81201904Y-96512857D01*
X81154285Y-96417619D01*
X81106666Y-96370000D01*
X81011428Y-96322380D01*
X91619523Y-98542380D02*
X91619523Y-97542380D01*
X91381428Y-97542380D01*
X91238571Y-97590000D01*
X91143333Y-97685238D01*
X91095714Y-97780476D01*
X91048095Y-97970952D01*
X91048095Y-98113809D01*
X91095714Y-98304285D01*
X91143333Y-98399523D01*
X91238571Y-98494761D01*
X91381428Y-98542380D01*
X91619523Y-98542380D01*
X90857619Y-98637619D02*
X90095714Y-98637619D01*
X89905238Y-98494761D02*
X89762380Y-98542380D01*
X89524285Y-98542380D01*
X89429047Y-98494761D01*
X89381428Y-98447142D01*
X89333809Y-98351904D01*
X89333809Y-98256666D01*
X89381428Y-98161428D01*
X89429047Y-98113809D01*
X89524285Y-98066190D01*
X89714761Y-98018571D01*
X89810000Y-97970952D01*
X89857619Y-97923333D01*
X89905238Y-97828095D01*
X89905238Y-97732857D01*
X89857619Y-97637619D01*
X89810000Y-97590000D01*
X89714761Y-97542380D01*
X89476666Y-97542380D01*
X89333809Y-97590000D01*
X88476666Y-98494761D02*
X88571904Y-98542380D01*
X88762380Y-98542380D01*
X88857619Y-98494761D01*
X88905238Y-98447142D01*
X88952857Y-98351904D01*
X88952857Y-98066190D01*
X88905238Y-97970952D01*
X88857619Y-97923333D01*
X88762380Y-97875714D01*
X88571904Y-97875714D01*
X88476666Y-97923333D01*
X88048095Y-98542380D02*
X88048095Y-97542380D01*
X87619523Y-98542380D02*
X87619523Y-98018571D01*
X87667142Y-97923333D01*
X87762380Y-97875714D01*
X87905238Y-97875714D01*
X88000476Y-97923333D01*
X88048095Y-97970952D01*
X87000476Y-98542380D02*
X87095714Y-98494761D01*
X87143333Y-98447142D01*
X87190952Y-98351904D01*
X87190952Y-98066190D01*
X87143333Y-97970952D01*
X87095714Y-97923333D01*
X87000476Y-97875714D01*
X86857619Y-97875714D01*
X86762380Y-97923333D01*
X86714761Y-97970952D01*
X86667142Y-98066190D01*
X86667142Y-98351904D01*
X86714761Y-98447142D01*
X86762380Y-98494761D01*
X86857619Y-98542380D01*
X87000476Y-98542380D01*
X86381428Y-97875714D02*
X86000476Y-97875714D01*
X86238571Y-97542380D02*
X86238571Y-98399523D01*
X86190952Y-98494761D01*
X86095714Y-98542380D01*
X86000476Y-98542380D01*
X85810000Y-97875714D02*
X85429047Y-97875714D01*
X85667142Y-97542380D02*
X85667142Y-98399523D01*
X85619523Y-98494761D01*
X85524285Y-98542380D01*
X85429047Y-98542380D01*
X85095714Y-98542380D02*
X85095714Y-97542380D01*
X85000476Y-98161428D02*
X84714761Y-98542380D01*
X84714761Y-97875714D02*
X85095714Y-98256666D01*
X84381428Y-97875714D02*
X84143333Y-98542380D01*
X83905238Y-97875714D02*
X84143333Y-98542380D01*
X84238571Y-98780476D01*
X84286190Y-98828095D01*
X84381428Y-98875714D01*
X118940476Y-119662380D02*
X119511904Y-119662380D01*
X119226190Y-119662380D02*
X119226190Y-118662380D01*
X119321428Y-118805238D01*
X119416666Y-118900476D01*
X119511904Y-118948095D01*
X118321428Y-118662380D02*
X118226190Y-118662380D01*
X118130952Y-118710000D01*
X118083333Y-118757619D01*
X118035714Y-118852857D01*
X117988095Y-119043333D01*
X117988095Y-119281428D01*
X118035714Y-119471904D01*
X118083333Y-119567142D01*
X118130952Y-119614761D01*
X118226190Y-119662380D01*
X118321428Y-119662380D01*
X118416666Y-119614761D01*
X118464285Y-119567142D01*
X118511904Y-119471904D01*
X118559523Y-119281428D01*
X118559523Y-119043333D01*
X118511904Y-118852857D01*
X118464285Y-118757619D01*
X118416666Y-118710000D01*
X118321428Y-118662380D01*
X109540476Y-119762380D02*
X110111904Y-119762380D01*
X109826190Y-119762380D02*
X109826190Y-118762380D01*
X109921428Y-118905238D01*
X110016666Y-119000476D01*
X110111904Y-119048095D01*
X108921428Y-118762380D02*
X108826190Y-118762380D01*
X108730952Y-118810000D01*
X108683333Y-118857619D01*
X108635714Y-118952857D01*
X108588095Y-119143333D01*
X108588095Y-119381428D01*
X108635714Y-119571904D01*
X108683333Y-119667142D01*
X108730952Y-119714761D01*
X108826190Y-119762380D01*
X108921428Y-119762380D01*
X109016666Y-119714761D01*
X109064285Y-119667142D01*
X109111904Y-119571904D01*
X109159523Y-119381428D01*
X109159523Y-119143333D01*
X109111904Y-118952857D01*
X109064285Y-118857619D01*
X109016666Y-118810000D01*
X108921428Y-118762380D01*
X100250476Y-119762380D02*
X100821904Y-119762380D01*
X100536190Y-119762380D02*
X100536190Y-118762380D01*
X100631428Y-118905238D01*
X100726666Y-119000476D01*
X100821904Y-119048095D01*
X99631428Y-118762380D02*
X99536190Y-118762380D01*
X99440952Y-118810000D01*
X99393333Y-118857619D01*
X99345714Y-118952857D01*
X99298095Y-119143333D01*
X99298095Y-119381428D01*
X99345714Y-119571904D01*
X99393333Y-119667142D01*
X99440952Y-119714761D01*
X99536190Y-119762380D01*
X99631428Y-119762380D01*
X99726666Y-119714761D01*
X99774285Y-119667142D01*
X99821904Y-119571904D01*
X99869523Y-119381428D01*
X99869523Y-119143333D01*
X99821904Y-118952857D01*
X99774285Y-118857619D01*
X99726666Y-118810000D01*
X99631428Y-118762380D01*
X90660476Y-119872380D02*
X91231904Y-119872380D01*
X90946190Y-119872380D02*
X90946190Y-118872380D01*
X91041428Y-119015238D01*
X91136666Y-119110476D01*
X91231904Y-119158095D01*
X90041428Y-118872380D02*
X89946190Y-118872380D01*
X89850952Y-118920000D01*
X89803333Y-118967619D01*
X89755714Y-119062857D01*
X89708095Y-119253333D01*
X89708095Y-119491428D01*
X89755714Y-119681904D01*
X89803333Y-119777142D01*
X89850952Y-119824761D01*
X89946190Y-119872380D01*
X90041428Y-119872380D01*
X90136666Y-119824761D01*
X90184285Y-119777142D01*
X90231904Y-119681904D01*
X90279523Y-119491428D01*
X90279523Y-119253333D01*
X90231904Y-119062857D01*
X90184285Y-118967619D01*
X90136666Y-118920000D01*
X90041428Y-118872380D01*
X76430476Y-125682380D02*
X77001904Y-125682380D01*
X76716190Y-125682380D02*
X76716190Y-124682380D01*
X76811428Y-124825238D01*
X76906666Y-124920476D01*
X77001904Y-124968095D01*
X75811428Y-124682380D02*
X75716190Y-124682380D01*
X75620952Y-124730000D01*
X75573333Y-124777619D01*
X75525714Y-124872857D01*
X75478095Y-125063333D01*
X75478095Y-125301428D01*
X75525714Y-125491904D01*
X75573333Y-125587142D01*
X75620952Y-125634761D01*
X75716190Y-125682380D01*
X75811428Y-125682380D01*
X75906666Y-125634761D01*
X75954285Y-125587142D01*
X76001904Y-125491904D01*
X76049523Y-125301428D01*
X76049523Y-125063333D01*
X76001904Y-124872857D01*
X75954285Y-124777619D01*
X75906666Y-124730000D01*
X75811428Y-124682380D01*
M02*
