G04 #@! TF.GenerationSoftware,KiCad,Pcbnew,5.1.5+dfsg1-2build2*
G04 #@! TF.CreationDate,2022-07-28T19:41:36+02:00*
G04 #@! TF.ProjectId,digital,64696769-7461-46c2-9e6b-696361645f70,rev?*
G04 #@! TF.SameCoordinates,Original*
G04 #@! TF.FileFunction,Other,User*
%FSLAX46Y46*%
G04 Gerber Fmt 4.6, Leading zero omitted, Abs format (unit mm)*
G04 Created by KiCad (PCBNEW 5.1.5+dfsg1-2build2) date 2022-07-28 19:41:36*
%MOMM*%
%LPD*%
G04 APERTURE LIST*
%ADD10C,0.050000*%
G04 APERTURE END LIST*
D10*
X121437500Y-122280000D02*
X121437500Y-124520000D01*
X121437500Y-124520000D02*
X126337500Y-124520000D01*
X126337500Y-124520000D02*
X126337500Y-122280000D01*
X126337500Y-122280000D02*
X121437500Y-122280000D01*
X80330000Y-96175000D02*
X82570000Y-96175000D01*
X82570000Y-96175000D02*
X82570000Y-91275000D01*
X82570000Y-91275000D02*
X80330000Y-91275000D01*
X80330000Y-91275000D02*
X80330000Y-96175000D01*
X91217500Y-97320000D02*
X91217500Y-93080000D01*
X91217500Y-93080000D02*
X84657500Y-93080000D01*
X84657500Y-93080000D02*
X84657500Y-97320000D01*
X84657500Y-97320000D02*
X91217500Y-97320000D01*
X117812500Y-117605000D02*
X112912500Y-117605000D01*
X117812500Y-119845000D02*
X117812500Y-117605000D01*
X112912500Y-119845000D02*
X117812500Y-119845000D01*
X112912500Y-117605000D02*
X112912500Y-119845000D01*
X103462500Y-117605000D02*
X103462500Y-119845000D01*
X103462500Y-119845000D02*
X108362500Y-119845000D01*
X108362500Y-119845000D02*
X108362500Y-117605000D01*
X108362500Y-117605000D02*
X103462500Y-117605000D01*
X99012500Y-117580000D02*
X94112500Y-117580000D01*
X99012500Y-119820000D02*
X99012500Y-117580000D01*
X94112500Y-119820000D02*
X99012500Y-119820000D01*
X94112500Y-117580000D02*
X94112500Y-119820000D01*
X84450000Y-117605000D02*
X84450000Y-119845000D01*
X84450000Y-119845000D02*
X89350000Y-119845000D01*
X89350000Y-119845000D02*
X89350000Y-117605000D01*
X89350000Y-117605000D02*
X84450000Y-117605000D01*
X80437500Y-122180000D02*
X75537500Y-122180000D01*
X80437500Y-124420000D02*
X80437500Y-122180000D01*
X75537500Y-124420000D02*
X80437500Y-124420000D01*
X75537500Y-122180000D02*
X75537500Y-124420000D01*
M02*
