G04 #@! TF.GenerationSoftware,KiCad,Pcbnew,5.1.5+dfsg1-2build2*
G04 #@! TF.CreationDate,2022-07-28T19:41:36+02:00*
G04 #@! TF.ProjectId,digital,64696769-7461-46c2-9e6b-696361645f70,rev?*
G04 #@! TF.SameCoordinates,Original*
G04 #@! TF.FileFunction,Other,Fab,Top*
%FSLAX46Y46*%
G04 Gerber Fmt 4.6, Leading zero omitted, Abs format (unit mm)*
G04 Created by KiCad (PCBNEW 5.1.5+dfsg1-2build2) date 2022-07-28 19:41:36*
%MOMM*%
%LPD*%
G04 APERTURE LIST*
%ADD10C,0.100000*%
%ADD11C,0.150000*%
%ADD12C,0.075000*%
%ADD13C,0.120000*%
G04 APERTURE END LIST*
D10*
X122300000Y-122575000D02*
X125500000Y-122575000D01*
X122300000Y-124175000D02*
X122300000Y-122575000D01*
X125500000Y-124175000D02*
X122300000Y-124175000D01*
X125500000Y-122575000D02*
X125500000Y-124175000D01*
X125012500Y-108325000D02*
X121812500Y-108325000D01*
X125012500Y-106725000D02*
X125012500Y-108325000D01*
X121812500Y-106725000D02*
X125012500Y-106725000D01*
X121812500Y-108325000D02*
X121812500Y-106725000D01*
X121080000Y-110440000D02*
X121080000Y-120600000D01*
X126280000Y-110440000D02*
X121080000Y-110440000D01*
X126280000Y-120600000D02*
X126280000Y-110440000D01*
X121080000Y-120600000D02*
X126280000Y-120600000D01*
X122140000Y-118695000D02*
X121140000Y-117695000D01*
X126220000Y-118695000D02*
X122140000Y-118695000D01*
X126220000Y-112345000D02*
X126220000Y-118695000D01*
X121140000Y-112345000D02*
X126220000Y-112345000D01*
X121140000Y-117695000D02*
X121140000Y-112345000D01*
X124575000Y-48880000D02*
X128385000Y-48880000D01*
X128385000Y-48880000D02*
X128385000Y-99680000D01*
X128385000Y-99680000D02*
X123305000Y-99680000D01*
X123305000Y-99680000D02*
X123305000Y-50150000D01*
X123305000Y-50150000D02*
X124575000Y-48880000D01*
X88375000Y-43587500D02*
X88375000Y-46787500D01*
X86775000Y-43587500D02*
X88375000Y-43587500D01*
X86775000Y-46787500D02*
X86775000Y-43587500D01*
X88375000Y-46787500D02*
X86775000Y-46787500D01*
X88375000Y-53087500D02*
X88375000Y-56287500D01*
X86775000Y-53087500D02*
X88375000Y-53087500D01*
X86775000Y-56287500D02*
X86775000Y-53087500D01*
X88375000Y-56287500D02*
X86775000Y-56287500D01*
X85275000Y-65787500D02*
X83675000Y-65787500D01*
X83675000Y-65787500D02*
X83675000Y-62587500D01*
X83675000Y-62587500D02*
X85275000Y-62587500D01*
X85275000Y-62587500D02*
X85275000Y-65787500D01*
X85175000Y-75400000D02*
X83575000Y-75400000D01*
X83575000Y-75400000D02*
X83575000Y-72200000D01*
X83575000Y-72200000D02*
X85175000Y-72200000D01*
X85175000Y-72200000D02*
X85175000Y-75400000D01*
X85225000Y-81687500D02*
X85225000Y-84887500D01*
X83625000Y-81687500D02*
X85225000Y-81687500D01*
X83625000Y-84887500D02*
X83625000Y-81687500D01*
X85225000Y-84887500D02*
X83625000Y-84887500D01*
X85175000Y-94337500D02*
X83575000Y-94337500D01*
X83575000Y-94337500D02*
X83575000Y-91137500D01*
X83575000Y-91137500D02*
X85175000Y-91137500D01*
X85175000Y-91137500D02*
X85175000Y-94337500D01*
X70950000Y-85775000D02*
X70950000Y-83775000D01*
X72200000Y-85775000D02*
X70950000Y-85775000D01*
X71450000Y-48875000D02*
X71450000Y-85275000D01*
X78700000Y-48875000D02*
X71450000Y-48875000D01*
X78700000Y-85275000D02*
X78700000Y-48875000D01*
X71450000Y-85275000D02*
X78700000Y-85275000D01*
X119375000Y-128400000D02*
X119375000Y-121150000D01*
X119375000Y-121150000D02*
X82975000Y-121150000D01*
X82975000Y-121150000D02*
X82975000Y-128400000D01*
X82975000Y-128400000D02*
X119375000Y-128400000D01*
X119875000Y-127650000D02*
X119875000Y-128900000D01*
X119875000Y-128900000D02*
X117875000Y-128900000D01*
X71275000Y-97700000D02*
X78525000Y-97700000D01*
X78525000Y-97700000D02*
X78525000Y-89300000D01*
X78525000Y-89300000D02*
X71275000Y-89300000D01*
X71275000Y-89300000D02*
X71275000Y-97700000D01*
X72025000Y-98200000D02*
X70775000Y-98200000D01*
X70775000Y-98200000D02*
X70775000Y-96200000D01*
X101922800Y-51108440D02*
X103322800Y-51108440D01*
X103322800Y-48068440D02*
X103322800Y-51108440D01*
X101922800Y-48638440D02*
X102472800Y-48068440D01*
X102472800Y-48068440D02*
X103322800Y-48068440D01*
X101922800Y-48638440D02*
X101922800Y-51088440D01*
X101975000Y-60620000D02*
X103375000Y-60620000D01*
X103375000Y-57580000D02*
X103375000Y-60620000D01*
X101975000Y-58150000D02*
X102525000Y-57580000D01*
X102525000Y-57580000D02*
X103375000Y-57580000D01*
X101975000Y-58150000D02*
X101975000Y-60600000D01*
X91575000Y-50401000D02*
X94025000Y-50401000D01*
X91005000Y-49851000D02*
X91005000Y-49001000D01*
X91575000Y-50401000D02*
X91005000Y-49851000D01*
X91005000Y-49001000D02*
X94045000Y-49001000D01*
X94045000Y-50401000D02*
X94045000Y-49001000D01*
X91525000Y-59900000D02*
X93975000Y-59900000D01*
X90955000Y-59350000D02*
X90955000Y-58500000D01*
X91525000Y-59900000D02*
X90955000Y-59350000D01*
X90955000Y-58500000D02*
X93995000Y-58500000D01*
X93995000Y-59900000D02*
X93995000Y-58500000D01*
X101875000Y-67700000D02*
X101875000Y-70150000D01*
X102425000Y-67130000D02*
X103275000Y-67130000D01*
X101875000Y-67700000D02*
X102425000Y-67130000D01*
X103275000Y-67130000D02*
X103275000Y-70170000D01*
X101875000Y-70170000D02*
X103275000Y-70170000D01*
X101975000Y-77200000D02*
X101975000Y-79650000D01*
X102525000Y-76630000D02*
X103375000Y-76630000D01*
X101975000Y-77200000D02*
X102525000Y-76630000D01*
X103375000Y-76630000D02*
X103375000Y-79670000D01*
X101975000Y-79670000D02*
X103375000Y-79670000D01*
X101900000Y-86675000D02*
X101900000Y-89125000D01*
X102450000Y-86105000D02*
X103300000Y-86105000D01*
X101900000Y-86675000D02*
X102450000Y-86105000D01*
X103300000Y-86105000D02*
X103300000Y-89145000D01*
X101900000Y-89145000D02*
X103300000Y-89145000D01*
X101950000Y-96225000D02*
X101950000Y-98675000D01*
X102500000Y-95655000D02*
X103350000Y-95655000D01*
X101950000Y-96225000D02*
X102500000Y-95655000D01*
X103350000Y-95655000D02*
X103350000Y-98695000D01*
X101950000Y-98695000D02*
X103350000Y-98695000D01*
X94045000Y-69400000D02*
X94045000Y-68000000D01*
X91005000Y-68000000D02*
X94045000Y-68000000D01*
X91575000Y-69400000D02*
X91005000Y-68850000D01*
X91005000Y-68850000D02*
X91005000Y-68000000D01*
X91575000Y-69400000D02*
X94025000Y-69400000D01*
X94045000Y-78900000D02*
X94045000Y-77500000D01*
X91005000Y-77500000D02*
X94045000Y-77500000D01*
X91575000Y-78900000D02*
X91005000Y-78350000D01*
X91005000Y-78350000D02*
X91005000Y-77500000D01*
X91575000Y-78900000D02*
X94025000Y-78900000D01*
X93995000Y-88400000D02*
X93995000Y-87000000D01*
X90955000Y-87000000D02*
X93995000Y-87000000D01*
X91525000Y-88400000D02*
X90955000Y-87850000D01*
X90955000Y-87850000D02*
X90955000Y-87000000D01*
X91525000Y-88400000D02*
X93975000Y-88400000D01*
X94020000Y-97900000D02*
X94020000Y-96500000D01*
X90980000Y-96500000D02*
X94020000Y-96500000D01*
X91550000Y-97900000D02*
X90980000Y-97350000D01*
X90980000Y-97350000D02*
X90980000Y-96500000D01*
X91550000Y-97900000D02*
X94000000Y-97900000D01*
X95887500Y-49500000D02*
X99087500Y-49500000D01*
X95887500Y-51100000D02*
X95887500Y-49500000D01*
X99087500Y-51100000D02*
X95887500Y-51100000D01*
X99087500Y-49500000D02*
X99087500Y-51100000D01*
X95987500Y-59000000D02*
X99187500Y-59000000D01*
X95987500Y-60600000D02*
X95987500Y-59000000D01*
X99187500Y-60600000D02*
X95987500Y-60600000D01*
X99187500Y-59000000D02*
X99187500Y-60600000D01*
X110040160Y-51104760D02*
X106840160Y-51104760D01*
X110040160Y-49504760D02*
X110040160Y-51104760D01*
X106840160Y-49504760D02*
X110040160Y-49504760D01*
X106840160Y-51104760D02*
X106840160Y-49504760D01*
X106887500Y-60600000D02*
X106887500Y-59000000D01*
X106887500Y-59000000D02*
X110087500Y-59000000D01*
X110087500Y-59000000D02*
X110087500Y-60600000D01*
X110087500Y-60600000D02*
X106887500Y-60600000D01*
X117615380Y-49479360D02*
X117615380Y-51079360D01*
X117615380Y-51079360D02*
X114415380Y-51079360D01*
X114415380Y-51079360D02*
X114415380Y-49479360D01*
X114415380Y-49479360D02*
X117615380Y-49479360D01*
X117662500Y-59000000D02*
X117662500Y-60600000D01*
X117662500Y-60600000D02*
X114462500Y-60600000D01*
X114462500Y-60600000D02*
X114462500Y-59000000D01*
X114462500Y-59000000D02*
X117662500Y-59000000D01*
X85175000Y-43587500D02*
X85175000Y-46787500D01*
X83575000Y-43587500D02*
X85175000Y-43587500D01*
X83575000Y-46787500D02*
X83575000Y-43587500D01*
X85175000Y-46787500D02*
X83575000Y-46787500D01*
X85175000Y-53112500D02*
X85175000Y-56312500D01*
X83575000Y-53112500D02*
X85175000Y-53112500D01*
X83575000Y-56312500D02*
X83575000Y-53112500D01*
X85175000Y-56312500D02*
X83575000Y-56312500D01*
X99162500Y-43100000D02*
X99162500Y-44700000D01*
X99162500Y-44700000D02*
X95962500Y-44700000D01*
X95962500Y-44700000D02*
X95962500Y-43100000D01*
X95962500Y-43100000D02*
X99162500Y-43100000D01*
X99087500Y-52600000D02*
X99087500Y-54200000D01*
X99087500Y-54200000D02*
X95887500Y-54200000D01*
X95887500Y-54200000D02*
X95887500Y-52600000D01*
X95887500Y-52600000D02*
X99087500Y-52600000D01*
X95962500Y-68500000D02*
X99162500Y-68500000D01*
X95962500Y-70100000D02*
X95962500Y-68500000D01*
X99162500Y-70100000D02*
X95962500Y-70100000D01*
X99162500Y-68500000D02*
X99162500Y-70100000D01*
X95962500Y-78000000D02*
X99162500Y-78000000D01*
X95962500Y-79600000D02*
X95962500Y-78000000D01*
X99162500Y-79600000D02*
X95962500Y-79600000D01*
X99162500Y-78000000D02*
X99162500Y-79600000D01*
X95900000Y-87500000D02*
X99100000Y-87500000D01*
X95900000Y-89100000D02*
X95900000Y-87500000D01*
X99100000Y-89100000D02*
X95900000Y-89100000D01*
X99100000Y-87500000D02*
X99100000Y-89100000D01*
X99162500Y-97025000D02*
X99162500Y-98625000D01*
X99162500Y-98625000D02*
X95962500Y-98625000D01*
X95962500Y-98625000D02*
X95962500Y-97025000D01*
X95962500Y-97025000D02*
X99162500Y-97025000D01*
X106875000Y-70100000D02*
X106875000Y-68500000D01*
X106875000Y-68500000D02*
X110075000Y-68500000D01*
X110075000Y-68500000D02*
X110075000Y-70100000D01*
X110075000Y-70100000D02*
X106875000Y-70100000D01*
X110062500Y-79500000D02*
X106862500Y-79500000D01*
X110062500Y-77900000D02*
X110062500Y-79500000D01*
X106862500Y-77900000D02*
X110062500Y-77900000D01*
X106862500Y-79500000D02*
X106862500Y-77900000D01*
X110025000Y-89075000D02*
X106825000Y-89075000D01*
X110025000Y-87475000D02*
X110025000Y-89075000D01*
X106825000Y-87475000D02*
X110025000Y-87475000D01*
X106825000Y-89075000D02*
X106825000Y-87475000D01*
X110012500Y-98625000D02*
X106812500Y-98625000D01*
X110012500Y-97025000D02*
X110012500Y-98625000D01*
X106812500Y-97025000D02*
X110012500Y-97025000D01*
X106812500Y-98625000D02*
X106812500Y-97025000D01*
X117662500Y-68500000D02*
X117662500Y-70100000D01*
X117662500Y-70100000D02*
X114462500Y-70100000D01*
X114462500Y-70100000D02*
X114462500Y-68500000D01*
X114462500Y-68500000D02*
X117662500Y-68500000D01*
X117625000Y-77950000D02*
X117625000Y-79550000D01*
X117625000Y-79550000D02*
X114425000Y-79550000D01*
X114425000Y-79550000D02*
X114425000Y-77950000D01*
X114425000Y-77950000D02*
X117625000Y-77950000D01*
X117625000Y-87450000D02*
X117625000Y-89050000D01*
X117625000Y-89050000D02*
X114425000Y-89050000D01*
X114425000Y-89050000D02*
X114425000Y-87450000D01*
X114425000Y-87450000D02*
X117625000Y-87450000D01*
X114437500Y-96950000D02*
X117637500Y-96950000D01*
X114437500Y-98550000D02*
X114437500Y-96950000D01*
X117637500Y-98550000D02*
X114437500Y-98550000D01*
X117637500Y-96950000D02*
X117637500Y-98550000D01*
X88375000Y-62587500D02*
X88375000Y-65787500D01*
X86775000Y-62587500D02*
X88375000Y-62587500D01*
X86775000Y-65787500D02*
X86775000Y-62587500D01*
X88375000Y-65787500D02*
X86775000Y-65787500D01*
X88425000Y-75337500D02*
X86825000Y-75337500D01*
X86825000Y-75337500D02*
X86825000Y-72137500D01*
X86825000Y-72137500D02*
X88425000Y-72137500D01*
X88425000Y-72137500D02*
X88425000Y-75337500D01*
X88375000Y-84762500D02*
X86775000Y-84762500D01*
X86775000Y-84762500D02*
X86775000Y-81562500D01*
X86775000Y-81562500D02*
X88375000Y-81562500D01*
X88375000Y-81562500D02*
X88375000Y-84762500D01*
X88350000Y-91137500D02*
X88350000Y-94337500D01*
X86750000Y-91137500D02*
X88350000Y-91137500D01*
X86750000Y-94337500D02*
X86750000Y-91137500D01*
X88350000Y-94337500D02*
X86750000Y-94337500D01*
X99162500Y-62100000D02*
X99162500Y-63700000D01*
X99162500Y-63700000D02*
X95962500Y-63700000D01*
X95962500Y-63700000D02*
X95962500Y-62100000D01*
X95962500Y-62100000D02*
X99162500Y-62100000D01*
X99187500Y-71650000D02*
X99187500Y-73250000D01*
X99187500Y-73250000D02*
X95987500Y-73250000D01*
X95987500Y-73250000D02*
X95987500Y-71650000D01*
X95987500Y-71650000D02*
X99187500Y-71650000D01*
X99125000Y-81125000D02*
X99125000Y-82725000D01*
X99125000Y-82725000D02*
X95925000Y-82725000D01*
X95925000Y-82725000D02*
X95925000Y-81125000D01*
X95925000Y-81125000D02*
X99125000Y-81125000D01*
X99137500Y-90625000D02*
X99137500Y-92225000D01*
X99137500Y-92225000D02*
X95937500Y-92225000D01*
X95937500Y-92225000D02*
X95937500Y-90625000D01*
X95937500Y-90625000D02*
X99137500Y-90625000D01*
X116975000Y-117900000D02*
X116975000Y-119500000D01*
X116975000Y-119500000D02*
X113775000Y-119500000D01*
X113775000Y-119500000D02*
X113775000Y-117900000D01*
X113775000Y-117900000D02*
X116975000Y-117900000D01*
X107512500Y-117925000D02*
X107512500Y-119525000D01*
X107512500Y-119525000D02*
X104312500Y-119525000D01*
X104312500Y-119525000D02*
X104312500Y-117925000D01*
X104312500Y-117925000D02*
X107512500Y-117925000D01*
X98162500Y-117900000D02*
X98162500Y-119500000D01*
X98162500Y-119500000D02*
X94962500Y-119500000D01*
X94962500Y-119500000D02*
X94962500Y-117900000D01*
X94962500Y-117900000D02*
X98162500Y-117900000D01*
X88512500Y-117900000D02*
X88512500Y-119500000D01*
X88512500Y-119500000D02*
X85312500Y-119500000D01*
X85312500Y-119500000D02*
X85312500Y-117900000D01*
X85312500Y-117900000D02*
X88512500Y-117900000D01*
X79587500Y-122500000D02*
X79587500Y-124100000D01*
X79587500Y-124100000D02*
X76387500Y-124100000D01*
X76387500Y-124100000D02*
X76387500Y-122500000D01*
X76387500Y-122500000D02*
X79587500Y-122500000D01*
X116537500Y-103700000D02*
X113337500Y-103700000D01*
X116537500Y-102100000D02*
X116537500Y-103700000D01*
X113337500Y-102100000D02*
X116537500Y-102100000D01*
X113337500Y-103700000D02*
X113337500Y-102100000D01*
X107062500Y-103725000D02*
X103862500Y-103725000D01*
X107062500Y-102125000D02*
X107062500Y-103725000D01*
X103862500Y-102125000D02*
X107062500Y-102125000D01*
X103862500Y-103725000D02*
X103862500Y-102125000D01*
X97712500Y-103700000D02*
X94512500Y-103700000D01*
X97712500Y-102100000D02*
X97712500Y-103700000D01*
X94512500Y-102100000D02*
X97712500Y-102100000D01*
X94512500Y-103700000D02*
X94512500Y-102100000D01*
X88000000Y-103700000D02*
X84800000Y-103700000D01*
X88000000Y-102100000D02*
X88000000Y-103700000D01*
X84800000Y-102100000D02*
X88000000Y-102100000D01*
X84800000Y-103700000D02*
X84800000Y-102100000D01*
X79137500Y-108300000D02*
X75937500Y-108300000D01*
X79137500Y-106700000D02*
X79137500Y-108300000D01*
X75937500Y-106700000D02*
X79137500Y-106700000D01*
X75937500Y-108300000D02*
X75937500Y-106700000D01*
X107121900Y-48348000D02*
X117281900Y-48348000D01*
X107121900Y-43148000D02*
X107121900Y-48348000D01*
X117281900Y-43148000D02*
X107121900Y-43148000D01*
X117281900Y-48348000D02*
X117281900Y-43148000D01*
X115376900Y-47288000D02*
X114376900Y-48288000D01*
X115376900Y-43208000D02*
X115376900Y-47288000D01*
X109026900Y-43208000D02*
X115376900Y-43208000D01*
X109026900Y-48288000D02*
X109026900Y-43208000D01*
X114376900Y-48288000D02*
X109026900Y-48288000D01*
X107050000Y-57730000D02*
X117210000Y-57730000D01*
X107050000Y-52530000D02*
X107050000Y-57730000D01*
X117210000Y-52530000D02*
X107050000Y-52530000D01*
X117210000Y-57730000D02*
X117210000Y-52530000D01*
X115305000Y-56670000D02*
X114305000Y-57670000D01*
X115305000Y-52590000D02*
X115305000Y-56670000D01*
X108955000Y-52590000D02*
X115305000Y-52590000D01*
X108955000Y-57670000D02*
X108955000Y-52590000D01*
X114305000Y-57670000D02*
X108955000Y-57670000D01*
X114395000Y-67210000D02*
X109045000Y-67210000D01*
X109045000Y-67210000D02*
X109045000Y-62130000D01*
X109045000Y-62130000D02*
X115395000Y-62130000D01*
X115395000Y-62130000D02*
X115395000Y-66210000D01*
X115395000Y-66210000D02*
X114395000Y-67210000D01*
X117300000Y-67270000D02*
X117300000Y-62070000D01*
X117300000Y-62070000D02*
X107140000Y-62070000D01*
X107140000Y-62070000D02*
X107140000Y-67270000D01*
X107140000Y-67270000D02*
X117300000Y-67270000D01*
X114405000Y-76660000D02*
X109055000Y-76660000D01*
X109055000Y-76660000D02*
X109055000Y-71580000D01*
X109055000Y-71580000D02*
X115405000Y-71580000D01*
X115405000Y-71580000D02*
X115405000Y-75660000D01*
X115405000Y-75660000D02*
X114405000Y-76660000D01*
X117310000Y-76720000D02*
X117310000Y-71520000D01*
X117310000Y-71520000D02*
X107150000Y-71520000D01*
X107150000Y-71520000D02*
X107150000Y-76720000D01*
X107150000Y-76720000D02*
X117310000Y-76720000D01*
X114400000Y-86215000D02*
X109050000Y-86215000D01*
X109050000Y-86215000D02*
X109050000Y-81135000D01*
X109050000Y-81135000D02*
X115400000Y-81135000D01*
X115400000Y-81135000D02*
X115400000Y-85215000D01*
X115400000Y-85215000D02*
X114400000Y-86215000D01*
X117305000Y-86275000D02*
X117305000Y-81075000D01*
X117305000Y-81075000D02*
X107145000Y-81075000D01*
X107145000Y-81075000D02*
X107145000Y-86275000D01*
X107145000Y-86275000D02*
X117305000Y-86275000D01*
X107120000Y-95800000D02*
X117280000Y-95800000D01*
X107120000Y-90600000D02*
X107120000Y-95800000D01*
X117280000Y-90600000D02*
X107120000Y-90600000D01*
X117280000Y-95800000D02*
X117280000Y-90600000D01*
X115375000Y-94740000D02*
X114375000Y-95740000D01*
X115375000Y-90660000D02*
X115375000Y-94740000D01*
X109025000Y-90660000D02*
X115375000Y-90660000D01*
X109025000Y-95740000D02*
X109025000Y-90660000D01*
X114375000Y-95740000D02*
X109025000Y-95740000D01*
X112555000Y-105840000D02*
X112555000Y-116000000D01*
X117755000Y-105840000D02*
X112555000Y-105840000D01*
X117755000Y-116000000D02*
X117755000Y-105840000D01*
X112555000Y-116000000D02*
X117755000Y-116000000D01*
X113615000Y-114095000D02*
X112615000Y-113095000D01*
X117695000Y-114095000D02*
X113615000Y-114095000D01*
X117695000Y-107745000D02*
X117695000Y-114095000D01*
X112615000Y-107745000D02*
X117695000Y-107745000D01*
X112615000Y-113095000D02*
X112615000Y-107745000D01*
X103159300Y-113120200D02*
X103159300Y-107770200D01*
X103159300Y-107770200D02*
X108239300Y-107770200D01*
X108239300Y-107770200D02*
X108239300Y-114120200D01*
X108239300Y-114120200D02*
X104159300Y-114120200D01*
X104159300Y-114120200D02*
X103159300Y-113120200D01*
X103099300Y-116025200D02*
X108299300Y-116025200D01*
X108299300Y-116025200D02*
X108299300Y-105865200D01*
X108299300Y-105865200D02*
X103099300Y-105865200D01*
X103099300Y-105865200D02*
X103099300Y-116025200D01*
X93790000Y-113120000D02*
X93790000Y-107770000D01*
X93790000Y-107770000D02*
X98870000Y-107770000D01*
X98870000Y-107770000D02*
X98870000Y-114120000D01*
X98870000Y-114120000D02*
X94790000Y-114120000D01*
X94790000Y-114120000D02*
X93790000Y-113120000D01*
X93730000Y-116025000D02*
X98930000Y-116025000D01*
X98930000Y-116025000D02*
X98930000Y-105865000D01*
X98930000Y-105865000D02*
X93730000Y-105865000D01*
X93730000Y-105865000D02*
X93730000Y-116025000D01*
X84101900Y-105878600D02*
X84101900Y-116038600D01*
X89301900Y-105878600D02*
X84101900Y-105878600D01*
X89301900Y-116038600D02*
X89301900Y-105878600D01*
X84101900Y-116038600D02*
X89301900Y-116038600D01*
X85161900Y-114133600D02*
X84161900Y-113133600D01*
X89241900Y-114133600D02*
X85161900Y-114133600D01*
X89241900Y-107783600D02*
X89241900Y-114133600D01*
X84161900Y-107783600D02*
X89241900Y-107783600D01*
X84161900Y-113133600D02*
X84161900Y-107783600D01*
X75230000Y-117695000D02*
X75230000Y-112345000D01*
X75230000Y-112345000D02*
X80310000Y-112345000D01*
X80310000Y-112345000D02*
X80310000Y-118695000D01*
X80310000Y-118695000D02*
X76230000Y-118695000D01*
X76230000Y-118695000D02*
X75230000Y-117695000D01*
X75170000Y-120600000D02*
X80370000Y-120600000D01*
X80370000Y-120600000D02*
X80370000Y-110440000D01*
X80370000Y-110440000D02*
X75170000Y-110440000D01*
X75170000Y-110440000D02*
X75170000Y-120600000D01*
D11*
X124824285Y-125265714D02*
X124824285Y-125932380D01*
X124586190Y-124884761D02*
X124348095Y-125599047D01*
X124967142Y-125599047D01*
X125348095Y-125932380D02*
X125348095Y-124932380D01*
X125919523Y-125932380D02*
X125490952Y-125360952D01*
X125919523Y-124932380D02*
X125348095Y-125503809D01*
X126252857Y-124932380D02*
X126919523Y-124932380D01*
X126490952Y-125932380D01*
X126514285Y-107295714D02*
X126514285Y-107962380D01*
X126276190Y-106914761D02*
X126038095Y-107629047D01*
X126657142Y-107629047D01*
X127038095Y-107962380D02*
X127038095Y-106962380D01*
X127609523Y-107962380D02*
X127180952Y-107390952D01*
X127609523Y-106962380D02*
X127038095Y-107533809D01*
X127942857Y-106962380D02*
X128609523Y-106962380D01*
X128180952Y-107962380D01*
X124652380Y-117860476D02*
X123652380Y-117860476D01*
X123652380Y-117479523D01*
X123700000Y-117384285D01*
X123747619Y-117336666D01*
X123842857Y-117289047D01*
X123985714Y-117289047D01*
X124080952Y-117336666D01*
X124128571Y-117384285D01*
X124176190Y-117479523D01*
X124176190Y-117860476D01*
X124557142Y-116289047D02*
X124604761Y-116336666D01*
X124652380Y-116479523D01*
X124652380Y-116574761D01*
X124604761Y-116717619D01*
X124509523Y-116812857D01*
X124414285Y-116860476D01*
X124223809Y-116908095D01*
X124080952Y-116908095D01*
X123890476Y-116860476D01*
X123795238Y-116812857D01*
X123700000Y-116717619D01*
X123652380Y-116574761D01*
X123652380Y-116479523D01*
X123700000Y-116336666D01*
X123747619Y-116289047D01*
X124080952Y-115717619D02*
X124033333Y-115812857D01*
X123985714Y-115860476D01*
X123890476Y-115908095D01*
X123842857Y-115908095D01*
X123747619Y-115860476D01*
X123700000Y-115812857D01*
X123652380Y-115717619D01*
X123652380Y-115527142D01*
X123700000Y-115431904D01*
X123747619Y-115384285D01*
X123842857Y-115336666D01*
X123890476Y-115336666D01*
X123985714Y-115384285D01*
X124033333Y-115431904D01*
X124080952Y-115527142D01*
X124080952Y-115717619D01*
X124128571Y-115812857D01*
X124176190Y-115860476D01*
X124271428Y-115908095D01*
X124461904Y-115908095D01*
X124557142Y-115860476D01*
X124604761Y-115812857D01*
X124652380Y-115717619D01*
X124652380Y-115527142D01*
X124604761Y-115431904D01*
X124557142Y-115384285D01*
X124461904Y-115336666D01*
X124271428Y-115336666D01*
X124176190Y-115384285D01*
X124128571Y-115431904D01*
X124080952Y-115527142D01*
X124652380Y-114384285D02*
X124652380Y-114955714D01*
X124652380Y-114670000D02*
X123652380Y-114670000D01*
X123795238Y-114765238D01*
X123890476Y-114860476D01*
X123938095Y-114955714D01*
X123652380Y-114050952D02*
X123652380Y-113384285D01*
X124652380Y-113812857D01*
X122437142Y-80182857D02*
X122484761Y-80230476D01*
X122532380Y-80373333D01*
X122532380Y-80468571D01*
X122484761Y-80611428D01*
X122389523Y-80706666D01*
X122294285Y-80754285D01*
X122103809Y-80801904D01*
X121960952Y-80801904D01*
X121770476Y-80754285D01*
X121675238Y-80706666D01*
X121580000Y-80611428D01*
X121532380Y-80468571D01*
X121532380Y-80373333D01*
X121580000Y-80230476D01*
X121627619Y-80182857D01*
X122532380Y-79611428D02*
X122484761Y-79706666D01*
X122437142Y-79754285D01*
X122341904Y-79801904D01*
X122056190Y-79801904D01*
X121960952Y-79754285D01*
X121913333Y-79706666D01*
X121865714Y-79611428D01*
X121865714Y-79468571D01*
X121913333Y-79373333D01*
X121960952Y-79325714D01*
X122056190Y-79278095D01*
X122341904Y-79278095D01*
X122437142Y-79325714D01*
X122484761Y-79373333D01*
X122532380Y-79468571D01*
X122532380Y-79611428D01*
X121865714Y-78849523D02*
X122532380Y-78849523D01*
X121960952Y-78849523D02*
X121913333Y-78801904D01*
X121865714Y-78706666D01*
X121865714Y-78563809D01*
X121913333Y-78468571D01*
X122008571Y-78420952D01*
X122532380Y-78420952D01*
X121865714Y-77944761D02*
X122532380Y-77944761D01*
X121960952Y-77944761D02*
X121913333Y-77897142D01*
X121865714Y-77801904D01*
X121865714Y-77659047D01*
X121913333Y-77563809D01*
X122008571Y-77516190D01*
X122532380Y-77516190D01*
X122627619Y-77278095D02*
X122627619Y-76516190D01*
X121532380Y-76087619D02*
X121532380Y-75992380D01*
X121580000Y-75897142D01*
X121627619Y-75849523D01*
X121722857Y-75801904D01*
X121913333Y-75754285D01*
X122151428Y-75754285D01*
X122341904Y-75801904D01*
X122437142Y-75849523D01*
X122484761Y-75897142D01*
X122532380Y-75992380D01*
X122532380Y-76087619D01*
X122484761Y-76182857D01*
X122437142Y-76230476D01*
X122341904Y-76278095D01*
X122151428Y-76325714D01*
X121913333Y-76325714D01*
X121722857Y-76278095D01*
X121627619Y-76230476D01*
X121580000Y-76182857D01*
X121532380Y-76087619D01*
X121627619Y-75373333D02*
X121580000Y-75325714D01*
X121532380Y-75230476D01*
X121532380Y-74992380D01*
X121580000Y-74897142D01*
X121627619Y-74849523D01*
X121722857Y-74801904D01*
X121818095Y-74801904D01*
X121960952Y-74849523D01*
X122532380Y-75420952D01*
X122532380Y-74801904D01*
X122532380Y-74468571D02*
X121865714Y-73944761D01*
X121865714Y-74468571D02*
X122532380Y-73944761D01*
X121627619Y-73611428D02*
X121580000Y-73563809D01*
X121532380Y-73468571D01*
X121532380Y-73230476D01*
X121580000Y-73135238D01*
X121627619Y-73087619D01*
X121722857Y-73040000D01*
X121818095Y-73040000D01*
X121960952Y-73087619D01*
X122532380Y-73659047D01*
X122532380Y-73040000D01*
X121532380Y-72420952D02*
X121532380Y-72325714D01*
X121580000Y-72230476D01*
X121627619Y-72182857D01*
X121722857Y-72135238D01*
X121913333Y-72087619D01*
X122151428Y-72087619D01*
X122341904Y-72135238D01*
X122437142Y-72182857D01*
X122484761Y-72230476D01*
X122532380Y-72325714D01*
X122532380Y-72420952D01*
X122484761Y-72516190D01*
X122437142Y-72563809D01*
X122341904Y-72611428D01*
X122151428Y-72659047D01*
X121913333Y-72659047D01*
X121722857Y-72611428D01*
X121627619Y-72563809D01*
X121580000Y-72516190D01*
X121532380Y-72420952D01*
X122627619Y-71897142D02*
X122627619Y-71135238D01*
X121532380Y-70706666D02*
X121532380Y-70516190D01*
X121580000Y-70420952D01*
X121675238Y-70325714D01*
X121865714Y-70278095D01*
X122199047Y-70278095D01*
X122389523Y-70325714D01*
X122484761Y-70420952D01*
X122532380Y-70516190D01*
X122532380Y-70706666D01*
X122484761Y-70801904D01*
X122389523Y-70897142D01*
X122199047Y-70944761D01*
X121865714Y-70944761D01*
X121675238Y-70897142D01*
X121580000Y-70801904D01*
X121532380Y-70706666D01*
X122532380Y-69420952D02*
X121532380Y-69420952D01*
X122484761Y-69420952D02*
X122532380Y-69516190D01*
X122532380Y-69706666D01*
X122484761Y-69801904D01*
X122437142Y-69849523D01*
X122341904Y-69897142D01*
X122056190Y-69897142D01*
X121960952Y-69849523D01*
X121913333Y-69801904D01*
X121865714Y-69706666D01*
X121865714Y-69516190D01*
X121913333Y-69420952D01*
X122532380Y-68516190D02*
X121532380Y-68516190D01*
X122484761Y-68516190D02*
X122532380Y-68611428D01*
X122532380Y-68801904D01*
X122484761Y-68897142D01*
X122437142Y-68944761D01*
X122341904Y-68992380D01*
X122056190Y-68992380D01*
X121960952Y-68944761D01*
X121913333Y-68897142D01*
X121865714Y-68801904D01*
X121865714Y-68611428D01*
X121913333Y-68516190D01*
X122627619Y-68278095D02*
X122627619Y-67516190D01*
X122008571Y-67278095D02*
X122008571Y-66944761D01*
X122532380Y-66801904D02*
X122532380Y-67278095D01*
X121532380Y-67278095D01*
X121532380Y-66801904D01*
X121865714Y-66468571D02*
X122532380Y-66230476D01*
X121865714Y-65992380D01*
X122484761Y-65230476D02*
X122532380Y-65325714D01*
X122532380Y-65516190D01*
X122484761Y-65611428D01*
X122389523Y-65659047D01*
X122008571Y-65659047D01*
X121913333Y-65611428D01*
X121865714Y-65516190D01*
X121865714Y-65325714D01*
X121913333Y-65230476D01*
X122008571Y-65182857D01*
X122103809Y-65182857D01*
X122199047Y-65659047D01*
X121865714Y-64754285D02*
X122532380Y-64754285D01*
X121960952Y-64754285D02*
X121913333Y-64706666D01*
X121865714Y-64611428D01*
X121865714Y-64468571D01*
X121913333Y-64373333D01*
X122008571Y-64325714D01*
X122532380Y-64325714D01*
X125297380Y-74613333D02*
X126011666Y-74613333D01*
X126154523Y-74660952D01*
X126249761Y-74756190D01*
X126297380Y-74899047D01*
X126297380Y-74994285D01*
X125297380Y-74232380D02*
X125297380Y-73613333D01*
X125678333Y-73946666D01*
X125678333Y-73803809D01*
X125725952Y-73708571D01*
X125773571Y-73660952D01*
X125868809Y-73613333D01*
X126106904Y-73613333D01*
X126202142Y-73660952D01*
X126249761Y-73708571D01*
X126297380Y-73803809D01*
X126297380Y-74089523D01*
X126249761Y-74184761D01*
X126202142Y-74232380D01*
X89852380Y-43730476D02*
X89852380Y-44301904D01*
X89852380Y-44016190D02*
X88852380Y-44016190D01*
X88995238Y-44111428D01*
X89090476Y-44206666D01*
X89138095Y-44301904D01*
X88852380Y-43111428D02*
X88852380Y-43016190D01*
X88900000Y-42920952D01*
X88947619Y-42873333D01*
X89042857Y-42825714D01*
X89233333Y-42778095D01*
X89471428Y-42778095D01*
X89661904Y-42825714D01*
X89757142Y-42873333D01*
X89804761Y-42920952D01*
X89852380Y-43016190D01*
X89852380Y-43111428D01*
X89804761Y-43206666D01*
X89757142Y-43254285D01*
X89661904Y-43301904D01*
X89471428Y-43349523D01*
X89233333Y-43349523D01*
X89042857Y-43301904D01*
X88947619Y-43254285D01*
X88900000Y-43206666D01*
X88852380Y-43111428D01*
X89952380Y-53260476D02*
X89952380Y-53831904D01*
X89952380Y-53546190D02*
X88952380Y-53546190D01*
X89095238Y-53641428D01*
X89190476Y-53736666D01*
X89238095Y-53831904D01*
X88952380Y-52641428D02*
X88952380Y-52546190D01*
X89000000Y-52450952D01*
X89047619Y-52403333D01*
X89142857Y-52355714D01*
X89333333Y-52308095D01*
X89571428Y-52308095D01*
X89761904Y-52355714D01*
X89857142Y-52403333D01*
X89904761Y-52450952D01*
X89952380Y-52546190D01*
X89952380Y-52641428D01*
X89904761Y-52736666D01*
X89857142Y-52784285D01*
X89761904Y-52831904D01*
X89571428Y-52879523D01*
X89333333Y-52879523D01*
X89142857Y-52831904D01*
X89047619Y-52784285D01*
X89000000Y-52736666D01*
X88952380Y-52641428D01*
X83062380Y-62740476D02*
X83062380Y-63311904D01*
X83062380Y-63026190D02*
X82062380Y-63026190D01*
X82205238Y-63121428D01*
X82300476Y-63216666D01*
X82348095Y-63311904D01*
X82062380Y-62121428D02*
X82062380Y-62026190D01*
X82110000Y-61930952D01*
X82157619Y-61883333D01*
X82252857Y-61835714D01*
X82443333Y-61788095D01*
X82681428Y-61788095D01*
X82871904Y-61835714D01*
X82967142Y-61883333D01*
X83014761Y-61930952D01*
X83062380Y-62026190D01*
X83062380Y-62121428D01*
X83014761Y-62216666D01*
X82967142Y-62264285D01*
X82871904Y-62311904D01*
X82681428Y-62359523D01*
X82443333Y-62359523D01*
X82252857Y-62311904D01*
X82157619Y-62264285D01*
X82110000Y-62216666D01*
X82062380Y-62121428D01*
X82872380Y-72480476D02*
X82872380Y-73051904D01*
X82872380Y-72766190D02*
X81872380Y-72766190D01*
X82015238Y-72861428D01*
X82110476Y-72956666D01*
X82158095Y-73051904D01*
X81872380Y-71861428D02*
X81872380Y-71766190D01*
X81920000Y-71670952D01*
X81967619Y-71623333D01*
X82062857Y-71575714D01*
X82253333Y-71528095D01*
X82491428Y-71528095D01*
X82681904Y-71575714D01*
X82777142Y-71623333D01*
X82824761Y-71670952D01*
X82872380Y-71766190D01*
X82872380Y-71861428D01*
X82824761Y-71956666D01*
X82777142Y-72004285D01*
X82681904Y-72051904D01*
X82491428Y-72099523D01*
X82253333Y-72099523D01*
X82062857Y-72051904D01*
X81967619Y-72004285D01*
X81920000Y-71956666D01*
X81872380Y-71861428D01*
X82932380Y-81700476D02*
X82932380Y-82271904D01*
X82932380Y-81986190D02*
X81932380Y-81986190D01*
X82075238Y-82081428D01*
X82170476Y-82176666D01*
X82218095Y-82271904D01*
X81932380Y-81081428D02*
X81932380Y-80986190D01*
X81980000Y-80890952D01*
X82027619Y-80843333D01*
X82122857Y-80795714D01*
X82313333Y-80748095D01*
X82551428Y-80748095D01*
X82741904Y-80795714D01*
X82837142Y-80843333D01*
X82884761Y-80890952D01*
X82932380Y-80986190D01*
X82932380Y-81081428D01*
X82884761Y-81176666D01*
X82837142Y-81224285D01*
X82741904Y-81271904D01*
X82551428Y-81319523D01*
X82313333Y-81319523D01*
X82122857Y-81271904D01*
X82027619Y-81224285D01*
X81980000Y-81176666D01*
X81932380Y-81081428D01*
X83042380Y-91230476D02*
X83042380Y-91801904D01*
X83042380Y-91516190D02*
X82042380Y-91516190D01*
X82185238Y-91611428D01*
X82280476Y-91706666D01*
X82328095Y-91801904D01*
X82042380Y-90611428D02*
X82042380Y-90516190D01*
X82090000Y-90420952D01*
X82137619Y-90373333D01*
X82232857Y-90325714D01*
X82423333Y-90278095D01*
X82661428Y-90278095D01*
X82851904Y-90325714D01*
X82947142Y-90373333D01*
X82994761Y-90420952D01*
X83042380Y-90516190D01*
X83042380Y-90611428D01*
X82994761Y-90706666D01*
X82947142Y-90754285D01*
X82851904Y-90801904D01*
X82661428Y-90849523D01*
X82423333Y-90849523D01*
X82232857Y-90801904D01*
X82137619Y-90754285D01*
X82090000Y-90706666D01*
X82042380Y-90611428D01*
X80352380Y-70384523D02*
X79352380Y-70384523D01*
X80304761Y-70384523D02*
X80352380Y-70479761D01*
X80352380Y-70670238D01*
X80304761Y-70765476D01*
X80257142Y-70813095D01*
X80161904Y-70860714D01*
X79876190Y-70860714D01*
X79780952Y-70813095D01*
X79733333Y-70765476D01*
X79685714Y-70670238D01*
X79685714Y-70479761D01*
X79733333Y-70384523D01*
X80447619Y-70146428D02*
X80447619Y-69384523D01*
X80352380Y-69003571D02*
X80304761Y-69098809D01*
X80257142Y-69146428D01*
X80161904Y-69194047D01*
X79876190Y-69194047D01*
X79780952Y-69146428D01*
X79733333Y-69098809D01*
X79685714Y-69003571D01*
X79685714Y-68860714D01*
X79733333Y-68765476D01*
X79780952Y-68717857D01*
X79876190Y-68670238D01*
X80161904Y-68670238D01*
X80257142Y-68717857D01*
X80304761Y-68765476D01*
X80352380Y-68860714D01*
X80352380Y-69003571D01*
X80447619Y-68479761D02*
X80447619Y-67717857D01*
X79352380Y-67289285D02*
X79352380Y-67194047D01*
X79400000Y-67098809D01*
X79447619Y-67051190D01*
X79542857Y-67003571D01*
X79733333Y-66955952D01*
X79971428Y-66955952D01*
X80161904Y-67003571D01*
X80257142Y-67051190D01*
X80304761Y-67098809D01*
X80352380Y-67194047D01*
X80352380Y-67289285D01*
X80304761Y-67384523D01*
X80257142Y-67432142D01*
X80161904Y-67479761D01*
X79971428Y-67527380D01*
X79733333Y-67527380D01*
X79542857Y-67479761D01*
X79447619Y-67432142D01*
X79400000Y-67384523D01*
X79352380Y-67289285D01*
X80352380Y-66003571D02*
X80352380Y-66575000D01*
X80352380Y-66289285D02*
X79352380Y-66289285D01*
X79495238Y-66384523D01*
X79590476Y-66479761D01*
X79638095Y-66575000D01*
X80352380Y-65670238D02*
X79685714Y-65146428D01*
X79685714Y-65670238D02*
X80352380Y-65146428D01*
X80352380Y-64241666D02*
X80352380Y-64813095D01*
X80352380Y-64527380D02*
X79352380Y-64527380D01*
X79495238Y-64622619D01*
X79590476Y-64717857D01*
X79638095Y-64813095D01*
X79352380Y-63622619D02*
X79352380Y-63527380D01*
X79400000Y-63432142D01*
X79447619Y-63384523D01*
X79542857Y-63336904D01*
X79733333Y-63289285D01*
X79971428Y-63289285D01*
X80161904Y-63336904D01*
X80257142Y-63384523D01*
X80304761Y-63432142D01*
X80352380Y-63527380D01*
X80352380Y-63622619D01*
X80304761Y-63717857D01*
X80257142Y-63765476D01*
X80161904Y-63813095D01*
X79971428Y-63860714D01*
X79733333Y-63860714D01*
X79542857Y-63813095D01*
X79447619Y-63765476D01*
X79400000Y-63717857D01*
X79352380Y-63622619D01*
X82922380Y-119765238D02*
X81922380Y-119765238D01*
X82874761Y-119765238D02*
X82922380Y-119860476D01*
X82922380Y-120050952D01*
X82874761Y-120146190D01*
X82827142Y-120193809D01*
X82731904Y-120241428D01*
X82446190Y-120241428D01*
X82350952Y-120193809D01*
X82303333Y-120146190D01*
X82255714Y-120050952D01*
X82255714Y-119860476D01*
X82303333Y-119765238D01*
X83017619Y-119527142D02*
X83017619Y-118765238D01*
X82922380Y-118527142D02*
X82255714Y-118527142D01*
X81922380Y-118527142D02*
X81970000Y-118574761D01*
X82017619Y-118527142D01*
X81970000Y-118479523D01*
X81922380Y-118527142D01*
X82017619Y-118527142D01*
X83017619Y-118289047D02*
X83017619Y-117527142D01*
X81922380Y-117098571D02*
X81922380Y-117003333D01*
X81970000Y-116908095D01*
X82017619Y-116860476D01*
X82112857Y-116812857D01*
X82303333Y-116765238D01*
X82541428Y-116765238D01*
X82731904Y-116812857D01*
X82827142Y-116860476D01*
X82874761Y-116908095D01*
X82922380Y-117003333D01*
X82922380Y-117098571D01*
X82874761Y-117193809D01*
X82827142Y-117241428D01*
X82731904Y-117289047D01*
X82541428Y-117336666D01*
X82303333Y-117336666D01*
X82112857Y-117289047D01*
X82017619Y-117241428D01*
X81970000Y-117193809D01*
X81922380Y-117098571D01*
X82922380Y-115812857D02*
X82922380Y-116384285D01*
X82922380Y-116098571D02*
X81922380Y-116098571D01*
X82065238Y-116193809D01*
X82160476Y-116289047D01*
X82208095Y-116384285D01*
X82922380Y-115479523D02*
X82255714Y-114955714D01*
X82255714Y-115479523D02*
X82922380Y-114955714D01*
X82922380Y-114050952D02*
X82922380Y-114622380D01*
X82922380Y-114336666D02*
X81922380Y-114336666D01*
X82065238Y-114431904D01*
X82160476Y-114527142D01*
X82208095Y-114622380D01*
X81922380Y-113431904D02*
X81922380Y-113336666D01*
X81970000Y-113241428D01*
X82017619Y-113193809D01*
X82112857Y-113146190D01*
X82303333Y-113098571D01*
X82541428Y-113098571D01*
X82731904Y-113146190D01*
X82827142Y-113193809D01*
X82874761Y-113241428D01*
X82922380Y-113336666D01*
X82922380Y-113431904D01*
X82874761Y-113527142D01*
X82827142Y-113574761D01*
X82731904Y-113622380D01*
X82541428Y-113670000D01*
X82303333Y-113670000D01*
X82112857Y-113622380D01*
X82017619Y-113574761D01*
X81970000Y-113527142D01*
X81922380Y-113431904D01*
X80167142Y-97168095D02*
X80214761Y-97215714D01*
X80262380Y-97358571D01*
X80262380Y-97453809D01*
X80214761Y-97596666D01*
X80119523Y-97691904D01*
X80024285Y-97739523D01*
X79833809Y-97787142D01*
X79690952Y-97787142D01*
X79500476Y-97739523D01*
X79405238Y-97691904D01*
X79310000Y-97596666D01*
X79262380Y-97453809D01*
X79262380Y-97358571D01*
X79310000Y-97215714D01*
X79357619Y-97168095D01*
X80262380Y-96596666D02*
X80214761Y-96691904D01*
X80167142Y-96739523D01*
X80071904Y-96787142D01*
X79786190Y-96787142D01*
X79690952Y-96739523D01*
X79643333Y-96691904D01*
X79595714Y-96596666D01*
X79595714Y-96453809D01*
X79643333Y-96358571D01*
X79690952Y-96310952D01*
X79786190Y-96263333D01*
X80071904Y-96263333D01*
X80167142Y-96310952D01*
X80214761Y-96358571D01*
X80262380Y-96453809D01*
X80262380Y-96596666D01*
X79595714Y-95834761D02*
X80262380Y-95834761D01*
X79690952Y-95834761D02*
X79643333Y-95787142D01*
X79595714Y-95691904D01*
X79595714Y-95549047D01*
X79643333Y-95453809D01*
X79738571Y-95406190D01*
X80262380Y-95406190D01*
X79595714Y-94930000D02*
X80262380Y-94930000D01*
X79690952Y-94930000D02*
X79643333Y-94882380D01*
X79595714Y-94787142D01*
X79595714Y-94644285D01*
X79643333Y-94549047D01*
X79738571Y-94501428D01*
X80262380Y-94501428D01*
X80357619Y-94263333D02*
X80357619Y-93501428D01*
X79262380Y-93072857D02*
X79262380Y-92977619D01*
X79310000Y-92882380D01*
X79357619Y-92834761D01*
X79452857Y-92787142D01*
X79643333Y-92739523D01*
X79881428Y-92739523D01*
X80071904Y-92787142D01*
X80167142Y-92834761D01*
X80214761Y-92882380D01*
X80262380Y-92977619D01*
X80262380Y-93072857D01*
X80214761Y-93168095D01*
X80167142Y-93215714D01*
X80071904Y-93263333D01*
X79881428Y-93310952D01*
X79643333Y-93310952D01*
X79452857Y-93263333D01*
X79357619Y-93215714D01*
X79310000Y-93168095D01*
X79262380Y-93072857D01*
X80262380Y-91787142D02*
X80262380Y-92358571D01*
X80262380Y-92072857D02*
X79262380Y-92072857D01*
X79405238Y-92168095D01*
X79500476Y-92263333D01*
X79548095Y-92358571D01*
X80262380Y-91453809D02*
X79595714Y-90930000D01*
X79595714Y-91453809D02*
X80262380Y-90930000D01*
X79262380Y-90358571D02*
X79262380Y-90263333D01*
X79310000Y-90168095D01*
X79357619Y-90120476D01*
X79452857Y-90072857D01*
X79643333Y-90025238D01*
X79881428Y-90025238D01*
X80071904Y-90072857D01*
X80167142Y-90120476D01*
X80214761Y-90168095D01*
X80262380Y-90263333D01*
X80262380Y-90358571D01*
X80214761Y-90453809D01*
X80167142Y-90501428D01*
X80071904Y-90549047D01*
X79881428Y-90596666D01*
X79643333Y-90596666D01*
X79452857Y-90549047D01*
X79357619Y-90501428D01*
X79310000Y-90453809D01*
X79262380Y-90358571D01*
X79357619Y-89644285D02*
X79310000Y-89596666D01*
X79262380Y-89501428D01*
X79262380Y-89263333D01*
X79310000Y-89168095D01*
X79357619Y-89120476D01*
X79452857Y-89072857D01*
X79548095Y-89072857D01*
X79690952Y-89120476D01*
X80262380Y-89691904D01*
X80262380Y-89072857D01*
X100982857Y-52038571D02*
X101125714Y-52086190D01*
X101173333Y-52133809D01*
X101220952Y-52229047D01*
X101220952Y-52371904D01*
X101173333Y-52467142D01*
X101125714Y-52514761D01*
X101030476Y-52562380D01*
X100649523Y-52562380D01*
X100649523Y-51562380D01*
X100982857Y-51562380D01*
X101078095Y-51610000D01*
X101125714Y-51657619D01*
X101173333Y-51752857D01*
X101173333Y-51848095D01*
X101125714Y-51943333D01*
X101078095Y-51990952D01*
X100982857Y-52038571D01*
X100649523Y-52038571D01*
X102220952Y-52467142D02*
X102173333Y-52514761D01*
X102030476Y-52562380D01*
X101935238Y-52562380D01*
X101792380Y-52514761D01*
X101697142Y-52419523D01*
X101649523Y-52324285D01*
X101601904Y-52133809D01*
X101601904Y-51990952D01*
X101649523Y-51800476D01*
X101697142Y-51705238D01*
X101792380Y-51610000D01*
X101935238Y-51562380D01*
X102030476Y-51562380D01*
X102173333Y-51610000D01*
X102220952Y-51657619D01*
X102792380Y-51990952D02*
X102697142Y-51943333D01*
X102649523Y-51895714D01*
X102601904Y-51800476D01*
X102601904Y-51752857D01*
X102649523Y-51657619D01*
X102697142Y-51610000D01*
X102792380Y-51562380D01*
X102982857Y-51562380D01*
X103078095Y-51610000D01*
X103125714Y-51657619D01*
X103173333Y-51752857D01*
X103173333Y-51800476D01*
X103125714Y-51895714D01*
X103078095Y-51943333D01*
X102982857Y-51990952D01*
X102792380Y-51990952D01*
X102697142Y-52038571D01*
X102649523Y-52086190D01*
X102601904Y-52181428D01*
X102601904Y-52371904D01*
X102649523Y-52467142D01*
X102697142Y-52514761D01*
X102792380Y-52562380D01*
X102982857Y-52562380D01*
X103078095Y-52514761D01*
X103125714Y-52467142D01*
X103173333Y-52371904D01*
X103173333Y-52181428D01*
X103125714Y-52086190D01*
X103078095Y-52038571D01*
X102982857Y-51990952D01*
X104078095Y-51562380D02*
X103601904Y-51562380D01*
X103554285Y-52038571D01*
X103601904Y-51990952D01*
X103697142Y-51943333D01*
X103935238Y-51943333D01*
X104030476Y-51990952D01*
X104078095Y-52038571D01*
X104125714Y-52133809D01*
X104125714Y-52371904D01*
X104078095Y-52467142D01*
X104030476Y-52514761D01*
X103935238Y-52562380D01*
X103697142Y-52562380D01*
X103601904Y-52514761D01*
X103554285Y-52467142D01*
X104982857Y-51562380D02*
X104792380Y-51562380D01*
X104697142Y-51610000D01*
X104649523Y-51657619D01*
X104554285Y-51800476D01*
X104506666Y-51990952D01*
X104506666Y-52371904D01*
X104554285Y-52467142D01*
X104601904Y-52514761D01*
X104697142Y-52562380D01*
X104887619Y-52562380D01*
X104982857Y-52514761D01*
X105030476Y-52467142D01*
X105078095Y-52371904D01*
X105078095Y-52133809D01*
X105030476Y-52038571D01*
X104982857Y-51990952D01*
X104887619Y-51943333D01*
X104697142Y-51943333D01*
X104601904Y-51990952D01*
X104554285Y-52038571D01*
X104506666Y-52133809D01*
X100882857Y-61618571D02*
X101025714Y-61666190D01*
X101073333Y-61713809D01*
X101120952Y-61809047D01*
X101120952Y-61951904D01*
X101073333Y-62047142D01*
X101025714Y-62094761D01*
X100930476Y-62142380D01*
X100549523Y-62142380D01*
X100549523Y-61142380D01*
X100882857Y-61142380D01*
X100978095Y-61190000D01*
X101025714Y-61237619D01*
X101073333Y-61332857D01*
X101073333Y-61428095D01*
X101025714Y-61523333D01*
X100978095Y-61570952D01*
X100882857Y-61618571D01*
X100549523Y-61618571D01*
X102120952Y-62047142D02*
X102073333Y-62094761D01*
X101930476Y-62142380D01*
X101835238Y-62142380D01*
X101692380Y-62094761D01*
X101597142Y-61999523D01*
X101549523Y-61904285D01*
X101501904Y-61713809D01*
X101501904Y-61570952D01*
X101549523Y-61380476D01*
X101597142Y-61285238D01*
X101692380Y-61190000D01*
X101835238Y-61142380D01*
X101930476Y-61142380D01*
X102073333Y-61190000D01*
X102120952Y-61237619D01*
X102692380Y-61570952D02*
X102597142Y-61523333D01*
X102549523Y-61475714D01*
X102501904Y-61380476D01*
X102501904Y-61332857D01*
X102549523Y-61237619D01*
X102597142Y-61190000D01*
X102692380Y-61142380D01*
X102882857Y-61142380D01*
X102978095Y-61190000D01*
X103025714Y-61237619D01*
X103073333Y-61332857D01*
X103073333Y-61380476D01*
X103025714Y-61475714D01*
X102978095Y-61523333D01*
X102882857Y-61570952D01*
X102692380Y-61570952D01*
X102597142Y-61618571D01*
X102549523Y-61666190D01*
X102501904Y-61761428D01*
X102501904Y-61951904D01*
X102549523Y-62047142D01*
X102597142Y-62094761D01*
X102692380Y-62142380D01*
X102882857Y-62142380D01*
X102978095Y-62094761D01*
X103025714Y-62047142D01*
X103073333Y-61951904D01*
X103073333Y-61761428D01*
X103025714Y-61666190D01*
X102978095Y-61618571D01*
X102882857Y-61570952D01*
X103978095Y-61142380D02*
X103501904Y-61142380D01*
X103454285Y-61618571D01*
X103501904Y-61570952D01*
X103597142Y-61523333D01*
X103835238Y-61523333D01*
X103930476Y-61570952D01*
X103978095Y-61618571D01*
X104025714Y-61713809D01*
X104025714Y-61951904D01*
X103978095Y-62047142D01*
X103930476Y-62094761D01*
X103835238Y-62142380D01*
X103597142Y-62142380D01*
X103501904Y-62094761D01*
X103454285Y-62047142D01*
X104882857Y-61142380D02*
X104692380Y-61142380D01*
X104597142Y-61190000D01*
X104549523Y-61237619D01*
X104454285Y-61380476D01*
X104406666Y-61570952D01*
X104406666Y-61951904D01*
X104454285Y-62047142D01*
X104501904Y-62094761D01*
X104597142Y-62142380D01*
X104787619Y-62142380D01*
X104882857Y-62094761D01*
X104930476Y-62047142D01*
X104978095Y-61951904D01*
X104978095Y-61713809D01*
X104930476Y-61618571D01*
X104882857Y-61570952D01*
X104787619Y-61523333D01*
X104597142Y-61523333D01*
X104501904Y-61570952D01*
X104454285Y-61618571D01*
X104406666Y-61713809D01*
X92101428Y-51692380D02*
X92101428Y-52406666D01*
X92053809Y-52549523D01*
X91958571Y-52644761D01*
X91815714Y-52692380D01*
X91720476Y-52692380D01*
X92577619Y-52692380D02*
X92577619Y-51692380D01*
X92910952Y-52406666D01*
X93244285Y-51692380D01*
X93244285Y-52692380D01*
X92051428Y-61052380D02*
X92051428Y-61766666D01*
X92003809Y-61909523D01*
X91908571Y-62004761D01*
X91765714Y-62052380D01*
X91670476Y-62052380D01*
X92527619Y-62052380D02*
X92527619Y-61052380D01*
X92860952Y-61766666D01*
X93194285Y-61052380D01*
X93194285Y-62052380D01*
X100717857Y-71078571D02*
X100860714Y-71126190D01*
X100908333Y-71173809D01*
X100955952Y-71269047D01*
X100955952Y-71411904D01*
X100908333Y-71507142D01*
X100860714Y-71554761D01*
X100765476Y-71602380D01*
X100384523Y-71602380D01*
X100384523Y-70602380D01*
X100717857Y-70602380D01*
X100813095Y-70650000D01*
X100860714Y-70697619D01*
X100908333Y-70792857D01*
X100908333Y-70888095D01*
X100860714Y-70983333D01*
X100813095Y-71030952D01*
X100717857Y-71078571D01*
X100384523Y-71078571D01*
X101955952Y-71507142D02*
X101908333Y-71554761D01*
X101765476Y-71602380D01*
X101670238Y-71602380D01*
X101527380Y-71554761D01*
X101432142Y-71459523D01*
X101384523Y-71364285D01*
X101336904Y-71173809D01*
X101336904Y-71030952D01*
X101384523Y-70840476D01*
X101432142Y-70745238D01*
X101527380Y-70650000D01*
X101670238Y-70602380D01*
X101765476Y-70602380D01*
X101908333Y-70650000D01*
X101955952Y-70697619D01*
X102527380Y-71030952D02*
X102432142Y-70983333D01*
X102384523Y-70935714D01*
X102336904Y-70840476D01*
X102336904Y-70792857D01*
X102384523Y-70697619D01*
X102432142Y-70650000D01*
X102527380Y-70602380D01*
X102717857Y-70602380D01*
X102813095Y-70650000D01*
X102860714Y-70697619D01*
X102908333Y-70792857D01*
X102908333Y-70840476D01*
X102860714Y-70935714D01*
X102813095Y-70983333D01*
X102717857Y-71030952D01*
X102527380Y-71030952D01*
X102432142Y-71078571D01*
X102384523Y-71126190D01*
X102336904Y-71221428D01*
X102336904Y-71411904D01*
X102384523Y-71507142D01*
X102432142Y-71554761D01*
X102527380Y-71602380D01*
X102717857Y-71602380D01*
X102813095Y-71554761D01*
X102860714Y-71507142D01*
X102908333Y-71411904D01*
X102908333Y-71221428D01*
X102860714Y-71126190D01*
X102813095Y-71078571D01*
X102717857Y-71030952D01*
X103813095Y-70602380D02*
X103336904Y-70602380D01*
X103289285Y-71078571D01*
X103336904Y-71030952D01*
X103432142Y-70983333D01*
X103670238Y-70983333D01*
X103765476Y-71030952D01*
X103813095Y-71078571D01*
X103860714Y-71173809D01*
X103860714Y-71411904D01*
X103813095Y-71507142D01*
X103765476Y-71554761D01*
X103670238Y-71602380D01*
X103432142Y-71602380D01*
X103336904Y-71554761D01*
X103289285Y-71507142D01*
X104717857Y-70602380D02*
X104527380Y-70602380D01*
X104432142Y-70650000D01*
X104384523Y-70697619D01*
X104289285Y-70840476D01*
X104241666Y-71030952D01*
X104241666Y-71411904D01*
X104289285Y-71507142D01*
X104336904Y-71554761D01*
X104432142Y-71602380D01*
X104622619Y-71602380D01*
X104717857Y-71554761D01*
X104765476Y-71507142D01*
X104813095Y-71411904D01*
X104813095Y-71173809D01*
X104765476Y-71078571D01*
X104717857Y-71030952D01*
X104622619Y-70983333D01*
X104432142Y-70983333D01*
X104336904Y-71030952D01*
X104289285Y-71078571D01*
X104241666Y-71173809D01*
D12*
X102848809Y-68697619D02*
X102825000Y-68745238D01*
X102777380Y-68792857D01*
X102705952Y-68864285D01*
X102682142Y-68911904D01*
X102682142Y-68959523D01*
X102801190Y-68935714D02*
X102777380Y-68983333D01*
X102729761Y-69030952D01*
X102634523Y-69054761D01*
X102467857Y-69054761D01*
X102372619Y-69030952D01*
X102325000Y-68983333D01*
X102301190Y-68935714D01*
X102301190Y-68840476D01*
X102325000Y-68792857D01*
X102372619Y-68745238D01*
X102467857Y-68721428D01*
X102634523Y-68721428D01*
X102729761Y-68745238D01*
X102777380Y-68792857D01*
X102801190Y-68840476D01*
X102801190Y-68935714D01*
X102301190Y-68269047D02*
X102301190Y-68507142D01*
X102539285Y-68530952D01*
X102515476Y-68507142D01*
X102491666Y-68459523D01*
X102491666Y-68340476D01*
X102515476Y-68292857D01*
X102539285Y-68269047D01*
X102586904Y-68245238D01*
X102705952Y-68245238D01*
X102753571Y-68269047D01*
X102777380Y-68292857D01*
X102801190Y-68340476D01*
X102801190Y-68459523D01*
X102777380Y-68507142D01*
X102753571Y-68530952D01*
D11*
X100817857Y-80578571D02*
X100960714Y-80626190D01*
X101008333Y-80673809D01*
X101055952Y-80769047D01*
X101055952Y-80911904D01*
X101008333Y-81007142D01*
X100960714Y-81054761D01*
X100865476Y-81102380D01*
X100484523Y-81102380D01*
X100484523Y-80102380D01*
X100817857Y-80102380D01*
X100913095Y-80150000D01*
X100960714Y-80197619D01*
X101008333Y-80292857D01*
X101008333Y-80388095D01*
X100960714Y-80483333D01*
X100913095Y-80530952D01*
X100817857Y-80578571D01*
X100484523Y-80578571D01*
X102055952Y-81007142D02*
X102008333Y-81054761D01*
X101865476Y-81102380D01*
X101770238Y-81102380D01*
X101627380Y-81054761D01*
X101532142Y-80959523D01*
X101484523Y-80864285D01*
X101436904Y-80673809D01*
X101436904Y-80530952D01*
X101484523Y-80340476D01*
X101532142Y-80245238D01*
X101627380Y-80150000D01*
X101770238Y-80102380D01*
X101865476Y-80102380D01*
X102008333Y-80150000D01*
X102055952Y-80197619D01*
X102627380Y-80530952D02*
X102532142Y-80483333D01*
X102484523Y-80435714D01*
X102436904Y-80340476D01*
X102436904Y-80292857D01*
X102484523Y-80197619D01*
X102532142Y-80150000D01*
X102627380Y-80102380D01*
X102817857Y-80102380D01*
X102913095Y-80150000D01*
X102960714Y-80197619D01*
X103008333Y-80292857D01*
X103008333Y-80340476D01*
X102960714Y-80435714D01*
X102913095Y-80483333D01*
X102817857Y-80530952D01*
X102627380Y-80530952D01*
X102532142Y-80578571D01*
X102484523Y-80626190D01*
X102436904Y-80721428D01*
X102436904Y-80911904D01*
X102484523Y-81007142D01*
X102532142Y-81054761D01*
X102627380Y-81102380D01*
X102817857Y-81102380D01*
X102913095Y-81054761D01*
X102960714Y-81007142D01*
X103008333Y-80911904D01*
X103008333Y-80721428D01*
X102960714Y-80626190D01*
X102913095Y-80578571D01*
X102817857Y-80530952D01*
X103913095Y-80102380D02*
X103436904Y-80102380D01*
X103389285Y-80578571D01*
X103436904Y-80530952D01*
X103532142Y-80483333D01*
X103770238Y-80483333D01*
X103865476Y-80530952D01*
X103913095Y-80578571D01*
X103960714Y-80673809D01*
X103960714Y-80911904D01*
X103913095Y-81007142D01*
X103865476Y-81054761D01*
X103770238Y-81102380D01*
X103532142Y-81102380D01*
X103436904Y-81054761D01*
X103389285Y-81007142D01*
X104817857Y-80102380D02*
X104627380Y-80102380D01*
X104532142Y-80150000D01*
X104484523Y-80197619D01*
X104389285Y-80340476D01*
X104341666Y-80530952D01*
X104341666Y-80911904D01*
X104389285Y-81007142D01*
X104436904Y-81054761D01*
X104532142Y-81102380D01*
X104722619Y-81102380D01*
X104817857Y-81054761D01*
X104865476Y-81007142D01*
X104913095Y-80911904D01*
X104913095Y-80673809D01*
X104865476Y-80578571D01*
X104817857Y-80530952D01*
X104722619Y-80483333D01*
X104532142Y-80483333D01*
X104436904Y-80530952D01*
X104389285Y-80578571D01*
X104341666Y-80673809D01*
X100742857Y-90053571D02*
X100885714Y-90101190D01*
X100933333Y-90148809D01*
X100980952Y-90244047D01*
X100980952Y-90386904D01*
X100933333Y-90482142D01*
X100885714Y-90529761D01*
X100790476Y-90577380D01*
X100409523Y-90577380D01*
X100409523Y-89577380D01*
X100742857Y-89577380D01*
X100838095Y-89625000D01*
X100885714Y-89672619D01*
X100933333Y-89767857D01*
X100933333Y-89863095D01*
X100885714Y-89958333D01*
X100838095Y-90005952D01*
X100742857Y-90053571D01*
X100409523Y-90053571D01*
X101980952Y-90482142D02*
X101933333Y-90529761D01*
X101790476Y-90577380D01*
X101695238Y-90577380D01*
X101552380Y-90529761D01*
X101457142Y-90434523D01*
X101409523Y-90339285D01*
X101361904Y-90148809D01*
X101361904Y-90005952D01*
X101409523Y-89815476D01*
X101457142Y-89720238D01*
X101552380Y-89625000D01*
X101695238Y-89577380D01*
X101790476Y-89577380D01*
X101933333Y-89625000D01*
X101980952Y-89672619D01*
X102552380Y-90005952D02*
X102457142Y-89958333D01*
X102409523Y-89910714D01*
X102361904Y-89815476D01*
X102361904Y-89767857D01*
X102409523Y-89672619D01*
X102457142Y-89625000D01*
X102552380Y-89577380D01*
X102742857Y-89577380D01*
X102838095Y-89625000D01*
X102885714Y-89672619D01*
X102933333Y-89767857D01*
X102933333Y-89815476D01*
X102885714Y-89910714D01*
X102838095Y-89958333D01*
X102742857Y-90005952D01*
X102552380Y-90005952D01*
X102457142Y-90053571D01*
X102409523Y-90101190D01*
X102361904Y-90196428D01*
X102361904Y-90386904D01*
X102409523Y-90482142D01*
X102457142Y-90529761D01*
X102552380Y-90577380D01*
X102742857Y-90577380D01*
X102838095Y-90529761D01*
X102885714Y-90482142D01*
X102933333Y-90386904D01*
X102933333Y-90196428D01*
X102885714Y-90101190D01*
X102838095Y-90053571D01*
X102742857Y-90005952D01*
X103838095Y-89577380D02*
X103361904Y-89577380D01*
X103314285Y-90053571D01*
X103361904Y-90005952D01*
X103457142Y-89958333D01*
X103695238Y-89958333D01*
X103790476Y-90005952D01*
X103838095Y-90053571D01*
X103885714Y-90148809D01*
X103885714Y-90386904D01*
X103838095Y-90482142D01*
X103790476Y-90529761D01*
X103695238Y-90577380D01*
X103457142Y-90577380D01*
X103361904Y-90529761D01*
X103314285Y-90482142D01*
X104742857Y-89577380D02*
X104552380Y-89577380D01*
X104457142Y-89625000D01*
X104409523Y-89672619D01*
X104314285Y-89815476D01*
X104266666Y-90005952D01*
X104266666Y-90386904D01*
X104314285Y-90482142D01*
X104361904Y-90529761D01*
X104457142Y-90577380D01*
X104647619Y-90577380D01*
X104742857Y-90529761D01*
X104790476Y-90482142D01*
X104838095Y-90386904D01*
X104838095Y-90148809D01*
X104790476Y-90053571D01*
X104742857Y-90005952D01*
X104647619Y-89958333D01*
X104457142Y-89958333D01*
X104361904Y-90005952D01*
X104314285Y-90053571D01*
X104266666Y-90148809D01*
X100792857Y-99603571D02*
X100935714Y-99651190D01*
X100983333Y-99698809D01*
X101030952Y-99794047D01*
X101030952Y-99936904D01*
X100983333Y-100032142D01*
X100935714Y-100079761D01*
X100840476Y-100127380D01*
X100459523Y-100127380D01*
X100459523Y-99127380D01*
X100792857Y-99127380D01*
X100888095Y-99175000D01*
X100935714Y-99222619D01*
X100983333Y-99317857D01*
X100983333Y-99413095D01*
X100935714Y-99508333D01*
X100888095Y-99555952D01*
X100792857Y-99603571D01*
X100459523Y-99603571D01*
X102030952Y-100032142D02*
X101983333Y-100079761D01*
X101840476Y-100127380D01*
X101745238Y-100127380D01*
X101602380Y-100079761D01*
X101507142Y-99984523D01*
X101459523Y-99889285D01*
X101411904Y-99698809D01*
X101411904Y-99555952D01*
X101459523Y-99365476D01*
X101507142Y-99270238D01*
X101602380Y-99175000D01*
X101745238Y-99127380D01*
X101840476Y-99127380D01*
X101983333Y-99175000D01*
X102030952Y-99222619D01*
X102602380Y-99555952D02*
X102507142Y-99508333D01*
X102459523Y-99460714D01*
X102411904Y-99365476D01*
X102411904Y-99317857D01*
X102459523Y-99222619D01*
X102507142Y-99175000D01*
X102602380Y-99127380D01*
X102792857Y-99127380D01*
X102888095Y-99175000D01*
X102935714Y-99222619D01*
X102983333Y-99317857D01*
X102983333Y-99365476D01*
X102935714Y-99460714D01*
X102888095Y-99508333D01*
X102792857Y-99555952D01*
X102602380Y-99555952D01*
X102507142Y-99603571D01*
X102459523Y-99651190D01*
X102411904Y-99746428D01*
X102411904Y-99936904D01*
X102459523Y-100032142D01*
X102507142Y-100079761D01*
X102602380Y-100127380D01*
X102792857Y-100127380D01*
X102888095Y-100079761D01*
X102935714Y-100032142D01*
X102983333Y-99936904D01*
X102983333Y-99746428D01*
X102935714Y-99651190D01*
X102888095Y-99603571D01*
X102792857Y-99555952D01*
X103888095Y-99127380D02*
X103411904Y-99127380D01*
X103364285Y-99603571D01*
X103411904Y-99555952D01*
X103507142Y-99508333D01*
X103745238Y-99508333D01*
X103840476Y-99555952D01*
X103888095Y-99603571D01*
X103935714Y-99698809D01*
X103935714Y-99936904D01*
X103888095Y-100032142D01*
X103840476Y-100079761D01*
X103745238Y-100127380D01*
X103507142Y-100127380D01*
X103411904Y-100079761D01*
X103364285Y-100032142D01*
X104792857Y-99127380D02*
X104602380Y-99127380D01*
X104507142Y-99175000D01*
X104459523Y-99222619D01*
X104364285Y-99365476D01*
X104316666Y-99555952D01*
X104316666Y-99936904D01*
X104364285Y-100032142D01*
X104411904Y-100079761D01*
X104507142Y-100127380D01*
X104697619Y-100127380D01*
X104792857Y-100079761D01*
X104840476Y-100032142D01*
X104888095Y-99936904D01*
X104888095Y-99698809D01*
X104840476Y-99603571D01*
X104792857Y-99555952D01*
X104697619Y-99508333D01*
X104507142Y-99508333D01*
X104411904Y-99555952D01*
X104364285Y-99603571D01*
X104316666Y-99698809D01*
X92101428Y-70552380D02*
X92101428Y-71266666D01*
X92053809Y-71409523D01*
X91958571Y-71504761D01*
X91815714Y-71552380D01*
X91720476Y-71552380D01*
X92577619Y-71552380D02*
X92577619Y-70552380D01*
X92910952Y-71266666D01*
X93244285Y-70552380D01*
X93244285Y-71552380D01*
X92081428Y-80062380D02*
X92081428Y-80776666D01*
X92033809Y-80919523D01*
X91938571Y-81014761D01*
X91795714Y-81062380D01*
X91700476Y-81062380D01*
X92557619Y-81062380D02*
X92557619Y-80062380D01*
X92890952Y-80776666D01*
X93224285Y-80062380D01*
X93224285Y-81062380D01*
X92061428Y-89552380D02*
X92061428Y-90266666D01*
X92013809Y-90409523D01*
X91918571Y-90504761D01*
X91775714Y-90552380D01*
X91680476Y-90552380D01*
X92537619Y-90552380D02*
X92537619Y-89552380D01*
X92870952Y-90266666D01*
X93204285Y-89552380D01*
X93204285Y-90552380D01*
X92101428Y-99072380D02*
X92101428Y-99786666D01*
X92053809Y-99929523D01*
X91958571Y-100024761D01*
X91815714Y-100072380D01*
X91720476Y-100072380D01*
X92577619Y-100072380D02*
X92577619Y-99072380D01*
X92910952Y-99786666D01*
X93244285Y-99072380D01*
X93244285Y-100072380D01*
X97906666Y-47882380D02*
X98573333Y-47882380D01*
X98144761Y-48882380D01*
X99525714Y-48882380D02*
X99192380Y-48406190D01*
X98954285Y-48882380D02*
X98954285Y-47882380D01*
X99335238Y-47882380D01*
X99430476Y-47930000D01*
X99478095Y-47977619D01*
X99525714Y-48072857D01*
X99525714Y-48215714D01*
X99478095Y-48310952D01*
X99430476Y-48358571D01*
X99335238Y-48406190D01*
X98954285Y-48406190D01*
X98056666Y-57172380D02*
X98723333Y-57172380D01*
X98294761Y-58172380D01*
X99675714Y-58172380D02*
X99342380Y-57696190D01*
X99104285Y-58172380D02*
X99104285Y-57172380D01*
X99485238Y-57172380D01*
X99580476Y-57220000D01*
X99628095Y-57267619D01*
X99675714Y-57362857D01*
X99675714Y-57505714D01*
X99628095Y-57600952D01*
X99580476Y-57648571D01*
X99485238Y-57696190D01*
X99104285Y-57696190D01*
X112162380Y-51070476D02*
X112162380Y-51641904D01*
X112162380Y-51356190D02*
X111162380Y-51356190D01*
X111305238Y-51451428D01*
X111400476Y-51546666D01*
X111448095Y-51641904D01*
X111162380Y-50451428D02*
X111162380Y-50356190D01*
X111210000Y-50260952D01*
X111257619Y-50213333D01*
X111352857Y-50165714D01*
X111543333Y-50118095D01*
X111781428Y-50118095D01*
X111971904Y-50165714D01*
X112067142Y-50213333D01*
X112114761Y-50260952D01*
X112162380Y-50356190D01*
X112162380Y-50451428D01*
X112114761Y-50546666D01*
X112067142Y-50594285D01*
X111971904Y-50641904D01*
X111781428Y-50689523D01*
X111543333Y-50689523D01*
X111352857Y-50641904D01*
X111257619Y-50594285D01*
X111210000Y-50546666D01*
X111162380Y-50451428D01*
X112162380Y-49689523D02*
X111162380Y-49689523D01*
X112162380Y-49118095D02*
X111590952Y-49546666D01*
X111162380Y-49118095D02*
X111733809Y-49689523D01*
X112172380Y-60420476D02*
X112172380Y-60991904D01*
X112172380Y-60706190D02*
X111172380Y-60706190D01*
X111315238Y-60801428D01*
X111410476Y-60896666D01*
X111458095Y-60991904D01*
X111172380Y-59801428D02*
X111172380Y-59706190D01*
X111220000Y-59610952D01*
X111267619Y-59563333D01*
X111362857Y-59515714D01*
X111553333Y-59468095D01*
X111791428Y-59468095D01*
X111981904Y-59515714D01*
X112077142Y-59563333D01*
X112124761Y-59610952D01*
X112172380Y-59706190D01*
X112172380Y-59801428D01*
X112124761Y-59896666D01*
X112077142Y-59944285D01*
X111981904Y-59991904D01*
X111791428Y-60039523D01*
X111553333Y-60039523D01*
X111362857Y-59991904D01*
X111267619Y-59944285D01*
X111220000Y-59896666D01*
X111172380Y-59801428D01*
X112172380Y-59039523D02*
X111172380Y-59039523D01*
X112172380Y-58468095D02*
X111600952Y-58896666D01*
X111172380Y-58468095D02*
X111743809Y-59039523D01*
D13*
X108354166Y-60161904D02*
X108087500Y-59780952D01*
X107897023Y-60161904D02*
X107897023Y-59361904D01*
X108201785Y-59361904D01*
X108277976Y-59400000D01*
X108316071Y-59438095D01*
X108354166Y-59514285D01*
X108354166Y-59628571D01*
X108316071Y-59704761D01*
X108277976Y-59742857D01*
X108201785Y-59780952D01*
X107897023Y-59780952D01*
X109039880Y-59628571D02*
X109039880Y-60161904D01*
X108849404Y-59323809D02*
X108658928Y-59895238D01*
X109154166Y-59895238D01*
D11*
X119229523Y-51372380D02*
X118658095Y-51372380D01*
X118943809Y-51372380D02*
X118943809Y-50372380D01*
X118848571Y-50515238D01*
X118753333Y-50610476D01*
X118658095Y-50658095D01*
X119658095Y-51372380D02*
X119658095Y-50372380D01*
X120229523Y-51372380D02*
X119800952Y-50800952D01*
X120229523Y-50372380D02*
X119658095Y-50943809D01*
X120610476Y-50467619D02*
X120658095Y-50420000D01*
X120753333Y-50372380D01*
X120991428Y-50372380D01*
X121086666Y-50420000D01*
X121134285Y-50467619D01*
X121181904Y-50562857D01*
X121181904Y-50658095D01*
X121134285Y-50800952D01*
X120562857Y-51372380D01*
X121181904Y-51372380D01*
X119279523Y-60772380D02*
X118708095Y-60772380D01*
X118993809Y-60772380D02*
X118993809Y-59772380D01*
X118898571Y-59915238D01*
X118803333Y-60010476D01*
X118708095Y-60058095D01*
X119708095Y-60772380D02*
X119708095Y-59772380D01*
X120279523Y-60772380D02*
X119850952Y-60200952D01*
X120279523Y-59772380D02*
X119708095Y-60343809D01*
X120660476Y-59867619D02*
X120708095Y-59820000D01*
X120803333Y-59772380D01*
X121041428Y-59772380D01*
X121136666Y-59820000D01*
X121184285Y-59867619D01*
X121231904Y-59962857D01*
X121231904Y-60058095D01*
X121184285Y-60200952D01*
X120612857Y-60772380D01*
X121231904Y-60772380D01*
X83052380Y-44770476D02*
X83052380Y-45341904D01*
X83052380Y-45056190D02*
X82052380Y-45056190D01*
X82195238Y-45151428D01*
X82290476Y-45246666D01*
X82338095Y-45341904D01*
X82052380Y-44151428D02*
X82052380Y-44056190D01*
X82100000Y-43960952D01*
X82147619Y-43913333D01*
X82242857Y-43865714D01*
X82433333Y-43818095D01*
X82671428Y-43818095D01*
X82861904Y-43865714D01*
X82957142Y-43913333D01*
X83004761Y-43960952D01*
X83052380Y-44056190D01*
X83052380Y-44151428D01*
X83004761Y-44246666D01*
X82957142Y-44294285D01*
X82861904Y-44341904D01*
X82671428Y-44389523D01*
X82433333Y-44389523D01*
X82242857Y-44341904D01*
X82147619Y-44294285D01*
X82100000Y-44246666D01*
X82052380Y-44151428D01*
X83052380Y-43389523D02*
X82052380Y-43389523D01*
X83052380Y-42818095D02*
X82480952Y-43246666D01*
X82052380Y-42818095D02*
X82623809Y-43389523D01*
X83027380Y-54290476D02*
X83027380Y-54861904D01*
X83027380Y-54576190D02*
X82027380Y-54576190D01*
X82170238Y-54671428D01*
X82265476Y-54766666D01*
X82313095Y-54861904D01*
X82027380Y-53671428D02*
X82027380Y-53576190D01*
X82075000Y-53480952D01*
X82122619Y-53433333D01*
X82217857Y-53385714D01*
X82408333Y-53338095D01*
X82646428Y-53338095D01*
X82836904Y-53385714D01*
X82932142Y-53433333D01*
X82979761Y-53480952D01*
X83027380Y-53576190D01*
X83027380Y-53671428D01*
X82979761Y-53766666D01*
X82932142Y-53814285D01*
X82836904Y-53861904D01*
X82646428Y-53909523D01*
X82408333Y-53909523D01*
X82217857Y-53861904D01*
X82122619Y-53814285D01*
X82075000Y-53766666D01*
X82027380Y-53671428D01*
X83027380Y-52909523D02*
X82027380Y-52909523D01*
X83027380Y-52338095D02*
X82455952Y-52766666D01*
X82027380Y-52338095D02*
X82598809Y-52909523D01*
X98079523Y-46252380D02*
X97508095Y-46252380D01*
X97793809Y-46252380D02*
X97793809Y-45252380D01*
X97698571Y-45395238D01*
X97603333Y-45490476D01*
X97508095Y-45538095D01*
X98508095Y-46252380D02*
X98508095Y-45252380D01*
X99079523Y-46252380D02*
X98650952Y-45680952D01*
X99079523Y-45252380D02*
X98508095Y-45823809D01*
X99984285Y-45252380D02*
X99508095Y-45252380D01*
X99460476Y-45728571D01*
X99508095Y-45680952D01*
X99603333Y-45633333D01*
X99841428Y-45633333D01*
X99936666Y-45680952D01*
X99984285Y-45728571D01*
X100031904Y-45823809D01*
X100031904Y-46061904D01*
X99984285Y-46157142D01*
X99936666Y-46204761D01*
X99841428Y-46252380D01*
X99603333Y-46252380D01*
X99508095Y-46204761D01*
X99460476Y-46157142D01*
X98479523Y-55822380D02*
X97908095Y-55822380D01*
X98193809Y-55822380D02*
X98193809Y-54822380D01*
X98098571Y-54965238D01*
X98003333Y-55060476D01*
X97908095Y-55108095D01*
X98908095Y-55822380D02*
X98908095Y-54822380D01*
X99479523Y-55822380D02*
X99050952Y-55250952D01*
X99479523Y-54822380D02*
X98908095Y-55393809D01*
X100384285Y-54822380D02*
X99908095Y-54822380D01*
X99860476Y-55298571D01*
X99908095Y-55250952D01*
X100003333Y-55203333D01*
X100241428Y-55203333D01*
X100336666Y-55250952D01*
X100384285Y-55298571D01*
X100431904Y-55393809D01*
X100431904Y-55631904D01*
X100384285Y-55727142D01*
X100336666Y-55774761D01*
X100241428Y-55822380D01*
X100003333Y-55822380D01*
X99908095Y-55774761D01*
X99860476Y-55727142D01*
X98216666Y-66842380D02*
X98883333Y-66842380D01*
X98454761Y-67842380D01*
X99835714Y-67842380D02*
X99502380Y-67366190D01*
X99264285Y-67842380D02*
X99264285Y-66842380D01*
X99645238Y-66842380D01*
X99740476Y-66890000D01*
X99788095Y-66937619D01*
X99835714Y-67032857D01*
X99835714Y-67175714D01*
X99788095Y-67270952D01*
X99740476Y-67318571D01*
X99645238Y-67366190D01*
X99264285Y-67366190D01*
X98296666Y-76402380D02*
X98963333Y-76402380D01*
X98534761Y-77402380D01*
X99915714Y-77402380D02*
X99582380Y-76926190D01*
X99344285Y-77402380D02*
X99344285Y-76402380D01*
X99725238Y-76402380D01*
X99820476Y-76450000D01*
X99868095Y-76497619D01*
X99915714Y-76592857D01*
X99915714Y-76735714D01*
X99868095Y-76830952D01*
X99820476Y-76878571D01*
X99725238Y-76926190D01*
X99344285Y-76926190D01*
X98216666Y-85982380D02*
X98883333Y-85982380D01*
X98454761Y-86982380D01*
X99835714Y-86982380D02*
X99502380Y-86506190D01*
X99264285Y-86982380D02*
X99264285Y-85982380D01*
X99645238Y-85982380D01*
X99740476Y-86030000D01*
X99788095Y-86077619D01*
X99835714Y-86172857D01*
X99835714Y-86315714D01*
X99788095Y-86410952D01*
X99740476Y-86458571D01*
X99645238Y-86506190D01*
X99264285Y-86506190D01*
X98316666Y-95457380D02*
X98983333Y-95457380D01*
X98554761Y-96457380D01*
X99935714Y-96457380D02*
X99602380Y-95981190D01*
X99364285Y-96457380D02*
X99364285Y-95457380D01*
X99745238Y-95457380D01*
X99840476Y-95505000D01*
X99888095Y-95552619D01*
X99935714Y-95647857D01*
X99935714Y-95790714D01*
X99888095Y-95885952D01*
X99840476Y-95933571D01*
X99745238Y-95981190D01*
X99364285Y-95981190D01*
X112142380Y-69880476D02*
X112142380Y-70451904D01*
X112142380Y-70166190D02*
X111142380Y-70166190D01*
X111285238Y-70261428D01*
X111380476Y-70356666D01*
X111428095Y-70451904D01*
X111142380Y-69261428D02*
X111142380Y-69166190D01*
X111190000Y-69070952D01*
X111237619Y-69023333D01*
X111332857Y-68975714D01*
X111523333Y-68928095D01*
X111761428Y-68928095D01*
X111951904Y-68975714D01*
X112047142Y-69023333D01*
X112094761Y-69070952D01*
X112142380Y-69166190D01*
X112142380Y-69261428D01*
X112094761Y-69356666D01*
X112047142Y-69404285D01*
X111951904Y-69451904D01*
X111761428Y-69499523D01*
X111523333Y-69499523D01*
X111332857Y-69451904D01*
X111237619Y-69404285D01*
X111190000Y-69356666D01*
X111142380Y-69261428D01*
X112142380Y-68499523D02*
X111142380Y-68499523D01*
X112142380Y-67928095D02*
X111570952Y-68356666D01*
X111142380Y-67928095D02*
X111713809Y-68499523D01*
X112082380Y-79470476D02*
X112082380Y-80041904D01*
X112082380Y-79756190D02*
X111082380Y-79756190D01*
X111225238Y-79851428D01*
X111320476Y-79946666D01*
X111368095Y-80041904D01*
X111082380Y-78851428D02*
X111082380Y-78756190D01*
X111130000Y-78660952D01*
X111177619Y-78613333D01*
X111272857Y-78565714D01*
X111463333Y-78518095D01*
X111701428Y-78518095D01*
X111891904Y-78565714D01*
X111987142Y-78613333D01*
X112034761Y-78660952D01*
X112082380Y-78756190D01*
X112082380Y-78851428D01*
X112034761Y-78946666D01*
X111987142Y-78994285D01*
X111891904Y-79041904D01*
X111701428Y-79089523D01*
X111463333Y-79089523D01*
X111272857Y-79041904D01*
X111177619Y-78994285D01*
X111130000Y-78946666D01*
X111082380Y-78851428D01*
X112082380Y-78089523D02*
X111082380Y-78089523D01*
X112082380Y-77518095D02*
X111510952Y-77946666D01*
X111082380Y-77518095D02*
X111653809Y-78089523D01*
X112022380Y-89010476D02*
X112022380Y-89581904D01*
X112022380Y-89296190D02*
X111022380Y-89296190D01*
X111165238Y-89391428D01*
X111260476Y-89486666D01*
X111308095Y-89581904D01*
X111022380Y-88391428D02*
X111022380Y-88296190D01*
X111070000Y-88200952D01*
X111117619Y-88153333D01*
X111212857Y-88105714D01*
X111403333Y-88058095D01*
X111641428Y-88058095D01*
X111831904Y-88105714D01*
X111927142Y-88153333D01*
X111974761Y-88200952D01*
X112022380Y-88296190D01*
X112022380Y-88391428D01*
X111974761Y-88486666D01*
X111927142Y-88534285D01*
X111831904Y-88581904D01*
X111641428Y-88629523D01*
X111403333Y-88629523D01*
X111212857Y-88581904D01*
X111117619Y-88534285D01*
X111070000Y-88486666D01*
X111022380Y-88391428D01*
X112022380Y-87629523D02*
X111022380Y-87629523D01*
X112022380Y-87058095D02*
X111450952Y-87486666D01*
X111022380Y-87058095D02*
X111593809Y-87629523D01*
X111992380Y-98540476D02*
X111992380Y-99111904D01*
X111992380Y-98826190D02*
X110992380Y-98826190D01*
X111135238Y-98921428D01*
X111230476Y-99016666D01*
X111278095Y-99111904D01*
X110992380Y-97921428D02*
X110992380Y-97826190D01*
X111040000Y-97730952D01*
X111087619Y-97683333D01*
X111182857Y-97635714D01*
X111373333Y-97588095D01*
X111611428Y-97588095D01*
X111801904Y-97635714D01*
X111897142Y-97683333D01*
X111944761Y-97730952D01*
X111992380Y-97826190D01*
X111992380Y-97921428D01*
X111944761Y-98016666D01*
X111897142Y-98064285D01*
X111801904Y-98111904D01*
X111611428Y-98159523D01*
X111373333Y-98159523D01*
X111182857Y-98111904D01*
X111087619Y-98064285D01*
X111040000Y-98016666D01*
X110992380Y-97921428D01*
X111992380Y-97159523D02*
X110992380Y-97159523D01*
X111992380Y-96588095D02*
X111420952Y-97016666D01*
X110992380Y-96588095D02*
X111563809Y-97159523D01*
X119279523Y-70522380D02*
X118708095Y-70522380D01*
X118993809Y-70522380D02*
X118993809Y-69522380D01*
X118898571Y-69665238D01*
X118803333Y-69760476D01*
X118708095Y-69808095D01*
X119708095Y-70522380D02*
X119708095Y-69522380D01*
X120279523Y-70522380D02*
X119850952Y-69950952D01*
X120279523Y-69522380D02*
X119708095Y-70093809D01*
X120660476Y-69617619D02*
X120708095Y-69570000D01*
X120803333Y-69522380D01*
X121041428Y-69522380D01*
X121136666Y-69570000D01*
X121184285Y-69617619D01*
X121231904Y-69712857D01*
X121231904Y-69808095D01*
X121184285Y-69950952D01*
X120612857Y-70522380D01*
X121231904Y-70522380D01*
X119279523Y-79852380D02*
X118708095Y-79852380D01*
X118993809Y-79852380D02*
X118993809Y-78852380D01*
X118898571Y-78995238D01*
X118803333Y-79090476D01*
X118708095Y-79138095D01*
X119708095Y-79852380D02*
X119708095Y-78852380D01*
X120279523Y-79852380D02*
X119850952Y-79280952D01*
X120279523Y-78852380D02*
X119708095Y-79423809D01*
X120660476Y-78947619D02*
X120708095Y-78900000D01*
X120803333Y-78852380D01*
X121041428Y-78852380D01*
X121136666Y-78900000D01*
X121184285Y-78947619D01*
X121231904Y-79042857D01*
X121231904Y-79138095D01*
X121184285Y-79280952D01*
X120612857Y-79852380D01*
X121231904Y-79852380D01*
X119169523Y-89362380D02*
X118598095Y-89362380D01*
X118883809Y-89362380D02*
X118883809Y-88362380D01*
X118788571Y-88505238D01*
X118693333Y-88600476D01*
X118598095Y-88648095D01*
X119598095Y-89362380D02*
X119598095Y-88362380D01*
X120169523Y-89362380D02*
X119740952Y-88790952D01*
X120169523Y-88362380D02*
X119598095Y-88933809D01*
X120550476Y-88457619D02*
X120598095Y-88410000D01*
X120693333Y-88362380D01*
X120931428Y-88362380D01*
X121026666Y-88410000D01*
X121074285Y-88457619D01*
X121121904Y-88552857D01*
X121121904Y-88648095D01*
X121074285Y-88790952D01*
X120502857Y-89362380D01*
X121121904Y-89362380D01*
X119299523Y-98902380D02*
X118728095Y-98902380D01*
X119013809Y-98902380D02*
X119013809Y-97902380D01*
X118918571Y-98045238D01*
X118823333Y-98140476D01*
X118728095Y-98188095D01*
X119728095Y-98902380D02*
X119728095Y-97902380D01*
X120299523Y-98902380D02*
X119870952Y-98330952D01*
X120299523Y-97902380D02*
X119728095Y-98473809D01*
X120680476Y-97997619D02*
X120728095Y-97950000D01*
X120823333Y-97902380D01*
X121061428Y-97902380D01*
X121156666Y-97950000D01*
X121204285Y-97997619D01*
X121251904Y-98092857D01*
X121251904Y-98188095D01*
X121204285Y-98330952D01*
X120632857Y-98902380D01*
X121251904Y-98902380D01*
X89902380Y-63400476D02*
X89902380Y-63971904D01*
X89902380Y-63686190D02*
X88902380Y-63686190D01*
X89045238Y-63781428D01*
X89140476Y-63876666D01*
X89188095Y-63971904D01*
X88902380Y-62781428D02*
X88902380Y-62686190D01*
X88950000Y-62590952D01*
X88997619Y-62543333D01*
X89092857Y-62495714D01*
X89283333Y-62448095D01*
X89521428Y-62448095D01*
X89711904Y-62495714D01*
X89807142Y-62543333D01*
X89854761Y-62590952D01*
X89902380Y-62686190D01*
X89902380Y-62781428D01*
X89854761Y-62876666D01*
X89807142Y-62924285D01*
X89711904Y-62971904D01*
X89521428Y-63019523D01*
X89283333Y-63019523D01*
X89092857Y-62971904D01*
X88997619Y-62924285D01*
X88950000Y-62876666D01*
X88902380Y-62781428D01*
X89902380Y-62019523D02*
X88902380Y-62019523D01*
X89902380Y-61448095D02*
X89330952Y-61876666D01*
X88902380Y-61448095D02*
X89473809Y-62019523D01*
X89942380Y-72950476D02*
X89942380Y-73521904D01*
X89942380Y-73236190D02*
X88942380Y-73236190D01*
X89085238Y-73331428D01*
X89180476Y-73426666D01*
X89228095Y-73521904D01*
X88942380Y-72331428D02*
X88942380Y-72236190D01*
X88990000Y-72140952D01*
X89037619Y-72093333D01*
X89132857Y-72045714D01*
X89323333Y-71998095D01*
X89561428Y-71998095D01*
X89751904Y-72045714D01*
X89847142Y-72093333D01*
X89894761Y-72140952D01*
X89942380Y-72236190D01*
X89942380Y-72331428D01*
X89894761Y-72426666D01*
X89847142Y-72474285D01*
X89751904Y-72521904D01*
X89561428Y-72569523D01*
X89323333Y-72569523D01*
X89132857Y-72521904D01*
X89037619Y-72474285D01*
X88990000Y-72426666D01*
X88942380Y-72331428D01*
X89942380Y-71569523D02*
X88942380Y-71569523D01*
X89942380Y-70998095D02*
X89370952Y-71426666D01*
X88942380Y-70998095D02*
X89513809Y-71569523D01*
X89962380Y-82430476D02*
X89962380Y-83001904D01*
X89962380Y-82716190D02*
X88962380Y-82716190D01*
X89105238Y-82811428D01*
X89200476Y-82906666D01*
X89248095Y-83001904D01*
X88962380Y-81811428D02*
X88962380Y-81716190D01*
X89010000Y-81620952D01*
X89057619Y-81573333D01*
X89152857Y-81525714D01*
X89343333Y-81478095D01*
X89581428Y-81478095D01*
X89771904Y-81525714D01*
X89867142Y-81573333D01*
X89914761Y-81620952D01*
X89962380Y-81716190D01*
X89962380Y-81811428D01*
X89914761Y-81906666D01*
X89867142Y-81954285D01*
X89771904Y-82001904D01*
X89581428Y-82049523D01*
X89343333Y-82049523D01*
X89152857Y-82001904D01*
X89057619Y-81954285D01*
X89010000Y-81906666D01*
X88962380Y-81811428D01*
X89962380Y-81049523D02*
X88962380Y-81049523D01*
X89962380Y-80478095D02*
X89390952Y-80906666D01*
X88962380Y-80478095D02*
X89533809Y-81049523D01*
X89792380Y-92020476D02*
X89792380Y-92591904D01*
X89792380Y-92306190D02*
X88792380Y-92306190D01*
X88935238Y-92401428D01*
X89030476Y-92496666D01*
X89078095Y-92591904D01*
X88792380Y-91401428D02*
X88792380Y-91306190D01*
X88840000Y-91210952D01*
X88887619Y-91163333D01*
X88982857Y-91115714D01*
X89173333Y-91068095D01*
X89411428Y-91068095D01*
X89601904Y-91115714D01*
X89697142Y-91163333D01*
X89744761Y-91210952D01*
X89792380Y-91306190D01*
X89792380Y-91401428D01*
X89744761Y-91496666D01*
X89697142Y-91544285D01*
X89601904Y-91591904D01*
X89411428Y-91639523D01*
X89173333Y-91639523D01*
X88982857Y-91591904D01*
X88887619Y-91544285D01*
X88840000Y-91496666D01*
X88792380Y-91401428D01*
X89792380Y-90639523D02*
X88792380Y-90639523D01*
X89792380Y-90068095D02*
X89220952Y-90496666D01*
X88792380Y-90068095D02*
X89363809Y-90639523D01*
X98148095Y-64447619D02*
X98195714Y-64400000D01*
X98290952Y-64352380D01*
X98529047Y-64352380D01*
X98624285Y-64400000D01*
X98671904Y-64447619D01*
X98719523Y-64542857D01*
X98719523Y-64638095D01*
X98671904Y-64780952D01*
X98100476Y-65352380D01*
X98719523Y-65352380D01*
X99148095Y-65352380D02*
X99148095Y-64352380D01*
X99719523Y-65352380D02*
X99290952Y-64780952D01*
X99719523Y-64352380D02*
X99148095Y-64923809D01*
X100100476Y-64447619D02*
X100148095Y-64400000D01*
X100243333Y-64352380D01*
X100481428Y-64352380D01*
X100576666Y-64400000D01*
X100624285Y-64447619D01*
X100671904Y-64542857D01*
X100671904Y-64638095D01*
X100624285Y-64780952D01*
X100052857Y-65352380D01*
X100671904Y-65352380D01*
X97758095Y-73867619D02*
X97805714Y-73820000D01*
X97900952Y-73772380D01*
X98139047Y-73772380D01*
X98234285Y-73820000D01*
X98281904Y-73867619D01*
X98329523Y-73962857D01*
X98329523Y-74058095D01*
X98281904Y-74200952D01*
X97710476Y-74772380D01*
X98329523Y-74772380D01*
X98758095Y-74772380D02*
X98758095Y-73772380D01*
X99329523Y-74772380D02*
X98900952Y-74200952D01*
X99329523Y-73772380D02*
X98758095Y-74343809D01*
X99710476Y-73867619D02*
X99758095Y-73820000D01*
X99853333Y-73772380D01*
X100091428Y-73772380D01*
X100186666Y-73820000D01*
X100234285Y-73867619D01*
X100281904Y-73962857D01*
X100281904Y-74058095D01*
X100234285Y-74200952D01*
X99662857Y-74772380D01*
X100281904Y-74772380D01*
X97738095Y-83447619D02*
X97785714Y-83400000D01*
X97880952Y-83352380D01*
X98119047Y-83352380D01*
X98214285Y-83400000D01*
X98261904Y-83447619D01*
X98309523Y-83542857D01*
X98309523Y-83638095D01*
X98261904Y-83780952D01*
X97690476Y-84352380D01*
X98309523Y-84352380D01*
X98738095Y-84352380D02*
X98738095Y-83352380D01*
X99309523Y-84352380D02*
X98880952Y-83780952D01*
X99309523Y-83352380D02*
X98738095Y-83923809D01*
X99690476Y-83447619D02*
X99738095Y-83400000D01*
X99833333Y-83352380D01*
X100071428Y-83352380D01*
X100166666Y-83400000D01*
X100214285Y-83447619D01*
X100261904Y-83542857D01*
X100261904Y-83638095D01*
X100214285Y-83780952D01*
X99642857Y-84352380D01*
X100261904Y-84352380D01*
X97628095Y-92807619D02*
X97675714Y-92760000D01*
X97770952Y-92712380D01*
X98009047Y-92712380D01*
X98104285Y-92760000D01*
X98151904Y-92807619D01*
X98199523Y-92902857D01*
X98199523Y-92998095D01*
X98151904Y-93140952D01*
X97580476Y-93712380D01*
X98199523Y-93712380D01*
X98628095Y-93712380D02*
X98628095Y-92712380D01*
X99199523Y-93712380D02*
X98770952Y-93140952D01*
X99199523Y-92712380D02*
X98628095Y-93283809D01*
X99580476Y-92807619D02*
X99628095Y-92760000D01*
X99723333Y-92712380D01*
X99961428Y-92712380D01*
X100056666Y-92760000D01*
X100104285Y-92807619D01*
X100151904Y-92902857D01*
X100151904Y-92998095D01*
X100104285Y-93140952D01*
X99532857Y-93712380D01*
X100151904Y-93712380D01*
X118464285Y-119045714D02*
X118464285Y-119712380D01*
X118226190Y-118664761D02*
X117988095Y-119379047D01*
X118607142Y-119379047D01*
X118988095Y-119712380D02*
X118988095Y-118712380D01*
X119559523Y-119712380D02*
X119130952Y-119140952D01*
X119559523Y-118712380D02*
X118988095Y-119283809D01*
X119892857Y-118712380D02*
X120559523Y-118712380D01*
X120130952Y-119712380D01*
X109094285Y-119135714D02*
X109094285Y-119802380D01*
X108856190Y-118754761D02*
X108618095Y-119469047D01*
X109237142Y-119469047D01*
X109618095Y-119802380D02*
X109618095Y-118802380D01*
X110189523Y-119802380D02*
X109760952Y-119230952D01*
X110189523Y-118802380D02*
X109618095Y-119373809D01*
X110522857Y-118802380D02*
X111189523Y-118802380D01*
X110760952Y-119802380D01*
X99814285Y-119045714D02*
X99814285Y-119712380D01*
X99576190Y-118664761D02*
X99338095Y-119379047D01*
X99957142Y-119379047D01*
X100338095Y-119712380D02*
X100338095Y-118712380D01*
X100909523Y-119712380D02*
X100480952Y-119140952D01*
X100909523Y-118712380D02*
X100338095Y-119283809D01*
X101242857Y-118712380D02*
X101909523Y-118712380D01*
X101480952Y-119712380D01*
X90164285Y-119045714D02*
X90164285Y-119712380D01*
X89926190Y-118664761D02*
X89688095Y-119379047D01*
X90307142Y-119379047D01*
X90688095Y-119712380D02*
X90688095Y-118712380D01*
X91259523Y-119712380D02*
X90830952Y-119140952D01*
X91259523Y-118712380D02*
X90688095Y-119283809D01*
X91592857Y-118712380D02*
X92259523Y-118712380D01*
X91830952Y-119712380D01*
X78544285Y-124925714D02*
X78544285Y-125592380D01*
X78306190Y-124544761D02*
X78068095Y-125259047D01*
X78687142Y-125259047D01*
X79068095Y-125592380D02*
X79068095Y-124592380D01*
X79639523Y-125592380D02*
X79210952Y-125020952D01*
X79639523Y-124592380D02*
X79068095Y-125163809D01*
X79972857Y-124592380D02*
X80639523Y-124592380D01*
X80210952Y-125592380D01*
X118124285Y-102805714D02*
X118124285Y-103472380D01*
X117886190Y-102424761D02*
X117648095Y-103139047D01*
X118267142Y-103139047D01*
X118648095Y-103472380D02*
X118648095Y-102472380D01*
X119219523Y-103472380D02*
X118790952Y-102900952D01*
X119219523Y-102472380D02*
X118648095Y-103043809D01*
X119552857Y-102472380D02*
X120219523Y-102472380D01*
X119790952Y-103472380D01*
X108584285Y-102805714D02*
X108584285Y-103472380D01*
X108346190Y-102424761D02*
X108108095Y-103139047D01*
X108727142Y-103139047D01*
X109108095Y-103472380D02*
X109108095Y-102472380D01*
X109679523Y-103472380D02*
X109250952Y-102900952D01*
X109679523Y-102472380D02*
X109108095Y-103043809D01*
X110012857Y-102472380D02*
X110679523Y-102472380D01*
X110250952Y-103472380D01*
X99274285Y-102865714D02*
X99274285Y-103532380D01*
X99036190Y-102484761D02*
X98798095Y-103199047D01*
X99417142Y-103199047D01*
X99798095Y-103532380D02*
X99798095Y-102532380D01*
X100369523Y-103532380D02*
X99940952Y-102960952D01*
X100369523Y-102532380D02*
X99798095Y-103103809D01*
X100702857Y-102532380D02*
X101369523Y-102532380D01*
X100940952Y-103532380D01*
X89614285Y-102805714D02*
X89614285Y-103472380D01*
X89376190Y-102424761D02*
X89138095Y-103139047D01*
X89757142Y-103139047D01*
X90138095Y-103472380D02*
X90138095Y-102472380D01*
X90709523Y-103472380D02*
X90280952Y-102900952D01*
X90709523Y-102472380D02*
X90138095Y-103043809D01*
X91042857Y-102472380D02*
X91709523Y-102472380D01*
X91280952Y-103472380D01*
X80704285Y-107295714D02*
X80704285Y-107962380D01*
X80466190Y-106914761D02*
X80228095Y-107629047D01*
X80847142Y-107629047D01*
X81228095Y-107962380D02*
X81228095Y-106962380D01*
X81799523Y-107962380D02*
X81370952Y-107390952D01*
X81799523Y-106962380D02*
X81228095Y-107533809D01*
X82132857Y-106962380D02*
X82799523Y-106962380D01*
X82370952Y-107962380D01*
X109989523Y-46132380D02*
X109989523Y-45132380D01*
X110370476Y-45132380D01*
X110465714Y-45180000D01*
X110513333Y-45227619D01*
X110560952Y-45322857D01*
X110560952Y-45465714D01*
X110513333Y-45560952D01*
X110465714Y-45608571D01*
X110370476Y-45656190D01*
X109989523Y-45656190D01*
X111560952Y-46037142D02*
X111513333Y-46084761D01*
X111370476Y-46132380D01*
X111275238Y-46132380D01*
X111132380Y-46084761D01*
X111037142Y-45989523D01*
X110989523Y-45894285D01*
X110941904Y-45703809D01*
X110941904Y-45560952D01*
X110989523Y-45370476D01*
X111037142Y-45275238D01*
X111132380Y-45180000D01*
X111275238Y-45132380D01*
X111370476Y-45132380D01*
X111513333Y-45180000D01*
X111560952Y-45227619D01*
X112132380Y-45560952D02*
X112037142Y-45513333D01*
X111989523Y-45465714D01*
X111941904Y-45370476D01*
X111941904Y-45322857D01*
X111989523Y-45227619D01*
X112037142Y-45180000D01*
X112132380Y-45132380D01*
X112322857Y-45132380D01*
X112418095Y-45180000D01*
X112465714Y-45227619D01*
X112513333Y-45322857D01*
X112513333Y-45370476D01*
X112465714Y-45465714D01*
X112418095Y-45513333D01*
X112322857Y-45560952D01*
X112132380Y-45560952D01*
X112037142Y-45608571D01*
X111989523Y-45656190D01*
X111941904Y-45751428D01*
X111941904Y-45941904D01*
X111989523Y-46037142D01*
X112037142Y-46084761D01*
X112132380Y-46132380D01*
X112322857Y-46132380D01*
X112418095Y-46084761D01*
X112465714Y-46037142D01*
X112513333Y-45941904D01*
X112513333Y-45751428D01*
X112465714Y-45656190D01*
X112418095Y-45608571D01*
X112322857Y-45560952D01*
X113465714Y-46132380D02*
X112894285Y-46132380D01*
X113180000Y-46132380D02*
X113180000Y-45132380D01*
X113084761Y-45275238D01*
X112989523Y-45370476D01*
X112894285Y-45418095D01*
X113799047Y-45132380D02*
X114465714Y-45132380D01*
X114037142Y-46132380D01*
X109909523Y-55542380D02*
X109909523Y-54542380D01*
X110290476Y-54542380D01*
X110385714Y-54590000D01*
X110433333Y-54637619D01*
X110480952Y-54732857D01*
X110480952Y-54875714D01*
X110433333Y-54970952D01*
X110385714Y-55018571D01*
X110290476Y-55066190D01*
X109909523Y-55066190D01*
X111480952Y-55447142D02*
X111433333Y-55494761D01*
X111290476Y-55542380D01*
X111195238Y-55542380D01*
X111052380Y-55494761D01*
X110957142Y-55399523D01*
X110909523Y-55304285D01*
X110861904Y-55113809D01*
X110861904Y-54970952D01*
X110909523Y-54780476D01*
X110957142Y-54685238D01*
X111052380Y-54590000D01*
X111195238Y-54542380D01*
X111290476Y-54542380D01*
X111433333Y-54590000D01*
X111480952Y-54637619D01*
X112052380Y-54970952D02*
X111957142Y-54923333D01*
X111909523Y-54875714D01*
X111861904Y-54780476D01*
X111861904Y-54732857D01*
X111909523Y-54637619D01*
X111957142Y-54590000D01*
X112052380Y-54542380D01*
X112242857Y-54542380D01*
X112338095Y-54590000D01*
X112385714Y-54637619D01*
X112433333Y-54732857D01*
X112433333Y-54780476D01*
X112385714Y-54875714D01*
X112338095Y-54923333D01*
X112242857Y-54970952D01*
X112052380Y-54970952D01*
X111957142Y-55018571D01*
X111909523Y-55066190D01*
X111861904Y-55161428D01*
X111861904Y-55351904D01*
X111909523Y-55447142D01*
X111957142Y-55494761D01*
X112052380Y-55542380D01*
X112242857Y-55542380D01*
X112338095Y-55494761D01*
X112385714Y-55447142D01*
X112433333Y-55351904D01*
X112433333Y-55161428D01*
X112385714Y-55066190D01*
X112338095Y-55018571D01*
X112242857Y-54970952D01*
X113385714Y-55542380D02*
X112814285Y-55542380D01*
X113100000Y-55542380D02*
X113100000Y-54542380D01*
X113004761Y-54685238D01*
X112909523Y-54780476D01*
X112814285Y-54828095D01*
X113719047Y-54542380D02*
X114385714Y-54542380D01*
X113957142Y-55542380D01*
X110039523Y-65032380D02*
X110039523Y-64032380D01*
X110420476Y-64032380D01*
X110515714Y-64080000D01*
X110563333Y-64127619D01*
X110610952Y-64222857D01*
X110610952Y-64365714D01*
X110563333Y-64460952D01*
X110515714Y-64508571D01*
X110420476Y-64556190D01*
X110039523Y-64556190D01*
X111610952Y-64937142D02*
X111563333Y-64984761D01*
X111420476Y-65032380D01*
X111325238Y-65032380D01*
X111182380Y-64984761D01*
X111087142Y-64889523D01*
X111039523Y-64794285D01*
X110991904Y-64603809D01*
X110991904Y-64460952D01*
X111039523Y-64270476D01*
X111087142Y-64175238D01*
X111182380Y-64080000D01*
X111325238Y-64032380D01*
X111420476Y-64032380D01*
X111563333Y-64080000D01*
X111610952Y-64127619D01*
X112182380Y-64460952D02*
X112087142Y-64413333D01*
X112039523Y-64365714D01*
X111991904Y-64270476D01*
X111991904Y-64222857D01*
X112039523Y-64127619D01*
X112087142Y-64080000D01*
X112182380Y-64032380D01*
X112372857Y-64032380D01*
X112468095Y-64080000D01*
X112515714Y-64127619D01*
X112563333Y-64222857D01*
X112563333Y-64270476D01*
X112515714Y-64365714D01*
X112468095Y-64413333D01*
X112372857Y-64460952D01*
X112182380Y-64460952D01*
X112087142Y-64508571D01*
X112039523Y-64556190D01*
X111991904Y-64651428D01*
X111991904Y-64841904D01*
X112039523Y-64937142D01*
X112087142Y-64984761D01*
X112182380Y-65032380D01*
X112372857Y-65032380D01*
X112468095Y-64984761D01*
X112515714Y-64937142D01*
X112563333Y-64841904D01*
X112563333Y-64651428D01*
X112515714Y-64556190D01*
X112468095Y-64508571D01*
X112372857Y-64460952D01*
X113515714Y-65032380D02*
X112944285Y-65032380D01*
X113230000Y-65032380D02*
X113230000Y-64032380D01*
X113134761Y-64175238D01*
X113039523Y-64270476D01*
X112944285Y-64318095D01*
X113849047Y-64032380D02*
X114515714Y-64032380D01*
X114087142Y-65032380D01*
X110039523Y-74672380D02*
X110039523Y-73672380D01*
X110420476Y-73672380D01*
X110515714Y-73720000D01*
X110563333Y-73767619D01*
X110610952Y-73862857D01*
X110610952Y-74005714D01*
X110563333Y-74100952D01*
X110515714Y-74148571D01*
X110420476Y-74196190D01*
X110039523Y-74196190D01*
X111610952Y-74577142D02*
X111563333Y-74624761D01*
X111420476Y-74672380D01*
X111325238Y-74672380D01*
X111182380Y-74624761D01*
X111087142Y-74529523D01*
X111039523Y-74434285D01*
X110991904Y-74243809D01*
X110991904Y-74100952D01*
X111039523Y-73910476D01*
X111087142Y-73815238D01*
X111182380Y-73720000D01*
X111325238Y-73672380D01*
X111420476Y-73672380D01*
X111563333Y-73720000D01*
X111610952Y-73767619D01*
X112182380Y-74100952D02*
X112087142Y-74053333D01*
X112039523Y-74005714D01*
X111991904Y-73910476D01*
X111991904Y-73862857D01*
X112039523Y-73767619D01*
X112087142Y-73720000D01*
X112182380Y-73672380D01*
X112372857Y-73672380D01*
X112468095Y-73720000D01*
X112515714Y-73767619D01*
X112563333Y-73862857D01*
X112563333Y-73910476D01*
X112515714Y-74005714D01*
X112468095Y-74053333D01*
X112372857Y-74100952D01*
X112182380Y-74100952D01*
X112087142Y-74148571D01*
X112039523Y-74196190D01*
X111991904Y-74291428D01*
X111991904Y-74481904D01*
X112039523Y-74577142D01*
X112087142Y-74624761D01*
X112182380Y-74672380D01*
X112372857Y-74672380D01*
X112468095Y-74624761D01*
X112515714Y-74577142D01*
X112563333Y-74481904D01*
X112563333Y-74291428D01*
X112515714Y-74196190D01*
X112468095Y-74148571D01*
X112372857Y-74100952D01*
X113515714Y-74672380D02*
X112944285Y-74672380D01*
X113230000Y-74672380D02*
X113230000Y-73672380D01*
X113134761Y-73815238D01*
X113039523Y-73910476D01*
X112944285Y-73958095D01*
X113849047Y-73672380D02*
X114515714Y-73672380D01*
X114087142Y-74672380D01*
X109959523Y-84092380D02*
X109959523Y-83092380D01*
X110340476Y-83092380D01*
X110435714Y-83140000D01*
X110483333Y-83187619D01*
X110530952Y-83282857D01*
X110530952Y-83425714D01*
X110483333Y-83520952D01*
X110435714Y-83568571D01*
X110340476Y-83616190D01*
X109959523Y-83616190D01*
X111530952Y-83997142D02*
X111483333Y-84044761D01*
X111340476Y-84092380D01*
X111245238Y-84092380D01*
X111102380Y-84044761D01*
X111007142Y-83949523D01*
X110959523Y-83854285D01*
X110911904Y-83663809D01*
X110911904Y-83520952D01*
X110959523Y-83330476D01*
X111007142Y-83235238D01*
X111102380Y-83140000D01*
X111245238Y-83092380D01*
X111340476Y-83092380D01*
X111483333Y-83140000D01*
X111530952Y-83187619D01*
X112102380Y-83520952D02*
X112007142Y-83473333D01*
X111959523Y-83425714D01*
X111911904Y-83330476D01*
X111911904Y-83282857D01*
X111959523Y-83187619D01*
X112007142Y-83140000D01*
X112102380Y-83092380D01*
X112292857Y-83092380D01*
X112388095Y-83140000D01*
X112435714Y-83187619D01*
X112483333Y-83282857D01*
X112483333Y-83330476D01*
X112435714Y-83425714D01*
X112388095Y-83473333D01*
X112292857Y-83520952D01*
X112102380Y-83520952D01*
X112007142Y-83568571D01*
X111959523Y-83616190D01*
X111911904Y-83711428D01*
X111911904Y-83901904D01*
X111959523Y-83997142D01*
X112007142Y-84044761D01*
X112102380Y-84092380D01*
X112292857Y-84092380D01*
X112388095Y-84044761D01*
X112435714Y-83997142D01*
X112483333Y-83901904D01*
X112483333Y-83711428D01*
X112435714Y-83616190D01*
X112388095Y-83568571D01*
X112292857Y-83520952D01*
X113435714Y-84092380D02*
X112864285Y-84092380D01*
X113150000Y-84092380D02*
X113150000Y-83092380D01*
X113054761Y-83235238D01*
X112959523Y-83330476D01*
X112864285Y-83378095D01*
X113769047Y-83092380D02*
X114435714Y-83092380D01*
X114007142Y-84092380D01*
X109999523Y-93672380D02*
X109999523Y-92672380D01*
X110380476Y-92672380D01*
X110475714Y-92720000D01*
X110523333Y-92767619D01*
X110570952Y-92862857D01*
X110570952Y-93005714D01*
X110523333Y-93100952D01*
X110475714Y-93148571D01*
X110380476Y-93196190D01*
X109999523Y-93196190D01*
X111570952Y-93577142D02*
X111523333Y-93624761D01*
X111380476Y-93672380D01*
X111285238Y-93672380D01*
X111142380Y-93624761D01*
X111047142Y-93529523D01*
X110999523Y-93434285D01*
X110951904Y-93243809D01*
X110951904Y-93100952D01*
X110999523Y-92910476D01*
X111047142Y-92815238D01*
X111142380Y-92720000D01*
X111285238Y-92672380D01*
X111380476Y-92672380D01*
X111523333Y-92720000D01*
X111570952Y-92767619D01*
X112142380Y-93100952D02*
X112047142Y-93053333D01*
X111999523Y-93005714D01*
X111951904Y-92910476D01*
X111951904Y-92862857D01*
X111999523Y-92767619D01*
X112047142Y-92720000D01*
X112142380Y-92672380D01*
X112332857Y-92672380D01*
X112428095Y-92720000D01*
X112475714Y-92767619D01*
X112523333Y-92862857D01*
X112523333Y-92910476D01*
X112475714Y-93005714D01*
X112428095Y-93053333D01*
X112332857Y-93100952D01*
X112142380Y-93100952D01*
X112047142Y-93148571D01*
X111999523Y-93196190D01*
X111951904Y-93291428D01*
X111951904Y-93481904D01*
X111999523Y-93577142D01*
X112047142Y-93624761D01*
X112142380Y-93672380D01*
X112332857Y-93672380D01*
X112428095Y-93624761D01*
X112475714Y-93577142D01*
X112523333Y-93481904D01*
X112523333Y-93291428D01*
X112475714Y-93196190D01*
X112428095Y-93148571D01*
X112332857Y-93100952D01*
X113475714Y-93672380D02*
X112904285Y-93672380D01*
X113190000Y-93672380D02*
X113190000Y-92672380D01*
X113094761Y-92815238D01*
X112999523Y-92910476D01*
X112904285Y-92958095D01*
X113809047Y-92672380D02*
X114475714Y-92672380D01*
X114047142Y-93672380D01*
X115742380Y-113150476D02*
X114742380Y-113150476D01*
X114742380Y-112769523D01*
X114790000Y-112674285D01*
X114837619Y-112626666D01*
X114932857Y-112579047D01*
X115075714Y-112579047D01*
X115170952Y-112626666D01*
X115218571Y-112674285D01*
X115266190Y-112769523D01*
X115266190Y-113150476D01*
X115647142Y-111579047D02*
X115694761Y-111626666D01*
X115742380Y-111769523D01*
X115742380Y-111864761D01*
X115694761Y-112007619D01*
X115599523Y-112102857D01*
X115504285Y-112150476D01*
X115313809Y-112198095D01*
X115170952Y-112198095D01*
X114980476Y-112150476D01*
X114885238Y-112102857D01*
X114790000Y-112007619D01*
X114742380Y-111864761D01*
X114742380Y-111769523D01*
X114790000Y-111626666D01*
X114837619Y-111579047D01*
X115170952Y-111007619D02*
X115123333Y-111102857D01*
X115075714Y-111150476D01*
X114980476Y-111198095D01*
X114932857Y-111198095D01*
X114837619Y-111150476D01*
X114790000Y-111102857D01*
X114742380Y-111007619D01*
X114742380Y-110817142D01*
X114790000Y-110721904D01*
X114837619Y-110674285D01*
X114932857Y-110626666D01*
X114980476Y-110626666D01*
X115075714Y-110674285D01*
X115123333Y-110721904D01*
X115170952Y-110817142D01*
X115170952Y-111007619D01*
X115218571Y-111102857D01*
X115266190Y-111150476D01*
X115361428Y-111198095D01*
X115551904Y-111198095D01*
X115647142Y-111150476D01*
X115694761Y-111102857D01*
X115742380Y-111007619D01*
X115742380Y-110817142D01*
X115694761Y-110721904D01*
X115647142Y-110674285D01*
X115551904Y-110626666D01*
X115361428Y-110626666D01*
X115266190Y-110674285D01*
X115218571Y-110721904D01*
X115170952Y-110817142D01*
X115742380Y-109674285D02*
X115742380Y-110245714D01*
X115742380Y-109960000D02*
X114742380Y-109960000D01*
X114885238Y-110055238D01*
X114980476Y-110150476D01*
X115028095Y-110245714D01*
X114742380Y-109340952D02*
X114742380Y-108674285D01*
X115742380Y-109102857D01*
X106202380Y-113200476D02*
X105202380Y-113200476D01*
X105202380Y-112819523D01*
X105250000Y-112724285D01*
X105297619Y-112676666D01*
X105392857Y-112629047D01*
X105535714Y-112629047D01*
X105630952Y-112676666D01*
X105678571Y-112724285D01*
X105726190Y-112819523D01*
X105726190Y-113200476D01*
X106107142Y-111629047D02*
X106154761Y-111676666D01*
X106202380Y-111819523D01*
X106202380Y-111914761D01*
X106154761Y-112057619D01*
X106059523Y-112152857D01*
X105964285Y-112200476D01*
X105773809Y-112248095D01*
X105630952Y-112248095D01*
X105440476Y-112200476D01*
X105345238Y-112152857D01*
X105250000Y-112057619D01*
X105202380Y-111914761D01*
X105202380Y-111819523D01*
X105250000Y-111676666D01*
X105297619Y-111629047D01*
X105630952Y-111057619D02*
X105583333Y-111152857D01*
X105535714Y-111200476D01*
X105440476Y-111248095D01*
X105392857Y-111248095D01*
X105297619Y-111200476D01*
X105250000Y-111152857D01*
X105202380Y-111057619D01*
X105202380Y-110867142D01*
X105250000Y-110771904D01*
X105297619Y-110724285D01*
X105392857Y-110676666D01*
X105440476Y-110676666D01*
X105535714Y-110724285D01*
X105583333Y-110771904D01*
X105630952Y-110867142D01*
X105630952Y-111057619D01*
X105678571Y-111152857D01*
X105726190Y-111200476D01*
X105821428Y-111248095D01*
X106011904Y-111248095D01*
X106107142Y-111200476D01*
X106154761Y-111152857D01*
X106202380Y-111057619D01*
X106202380Y-110867142D01*
X106154761Y-110771904D01*
X106107142Y-110724285D01*
X106011904Y-110676666D01*
X105821428Y-110676666D01*
X105726190Y-110724285D01*
X105678571Y-110771904D01*
X105630952Y-110867142D01*
X106202380Y-109724285D02*
X106202380Y-110295714D01*
X106202380Y-110010000D02*
X105202380Y-110010000D01*
X105345238Y-110105238D01*
X105440476Y-110200476D01*
X105488095Y-110295714D01*
X105202380Y-109390952D02*
X105202380Y-108724285D01*
X106202380Y-109152857D01*
X97062380Y-113150476D02*
X96062380Y-113150476D01*
X96062380Y-112769523D01*
X96110000Y-112674285D01*
X96157619Y-112626666D01*
X96252857Y-112579047D01*
X96395714Y-112579047D01*
X96490952Y-112626666D01*
X96538571Y-112674285D01*
X96586190Y-112769523D01*
X96586190Y-113150476D01*
X96967142Y-111579047D02*
X97014761Y-111626666D01*
X97062380Y-111769523D01*
X97062380Y-111864761D01*
X97014761Y-112007619D01*
X96919523Y-112102857D01*
X96824285Y-112150476D01*
X96633809Y-112198095D01*
X96490952Y-112198095D01*
X96300476Y-112150476D01*
X96205238Y-112102857D01*
X96110000Y-112007619D01*
X96062380Y-111864761D01*
X96062380Y-111769523D01*
X96110000Y-111626666D01*
X96157619Y-111579047D01*
X96490952Y-111007619D02*
X96443333Y-111102857D01*
X96395714Y-111150476D01*
X96300476Y-111198095D01*
X96252857Y-111198095D01*
X96157619Y-111150476D01*
X96110000Y-111102857D01*
X96062380Y-111007619D01*
X96062380Y-110817142D01*
X96110000Y-110721904D01*
X96157619Y-110674285D01*
X96252857Y-110626666D01*
X96300476Y-110626666D01*
X96395714Y-110674285D01*
X96443333Y-110721904D01*
X96490952Y-110817142D01*
X96490952Y-111007619D01*
X96538571Y-111102857D01*
X96586190Y-111150476D01*
X96681428Y-111198095D01*
X96871904Y-111198095D01*
X96967142Y-111150476D01*
X97014761Y-111102857D01*
X97062380Y-111007619D01*
X97062380Y-110817142D01*
X97014761Y-110721904D01*
X96967142Y-110674285D01*
X96871904Y-110626666D01*
X96681428Y-110626666D01*
X96586190Y-110674285D01*
X96538571Y-110721904D01*
X96490952Y-110817142D01*
X97062380Y-109674285D02*
X97062380Y-110245714D01*
X97062380Y-109960000D02*
X96062380Y-109960000D01*
X96205238Y-110055238D01*
X96300476Y-110150476D01*
X96348095Y-110245714D01*
X96062380Y-109340952D02*
X96062380Y-108674285D01*
X97062380Y-109102857D01*
X87522380Y-113090476D02*
X86522380Y-113090476D01*
X86522380Y-112709523D01*
X86570000Y-112614285D01*
X86617619Y-112566666D01*
X86712857Y-112519047D01*
X86855714Y-112519047D01*
X86950952Y-112566666D01*
X86998571Y-112614285D01*
X87046190Y-112709523D01*
X87046190Y-113090476D01*
X87427142Y-111519047D02*
X87474761Y-111566666D01*
X87522380Y-111709523D01*
X87522380Y-111804761D01*
X87474761Y-111947619D01*
X87379523Y-112042857D01*
X87284285Y-112090476D01*
X87093809Y-112138095D01*
X86950952Y-112138095D01*
X86760476Y-112090476D01*
X86665238Y-112042857D01*
X86570000Y-111947619D01*
X86522380Y-111804761D01*
X86522380Y-111709523D01*
X86570000Y-111566666D01*
X86617619Y-111519047D01*
X86950952Y-110947619D02*
X86903333Y-111042857D01*
X86855714Y-111090476D01*
X86760476Y-111138095D01*
X86712857Y-111138095D01*
X86617619Y-111090476D01*
X86570000Y-111042857D01*
X86522380Y-110947619D01*
X86522380Y-110757142D01*
X86570000Y-110661904D01*
X86617619Y-110614285D01*
X86712857Y-110566666D01*
X86760476Y-110566666D01*
X86855714Y-110614285D01*
X86903333Y-110661904D01*
X86950952Y-110757142D01*
X86950952Y-110947619D01*
X86998571Y-111042857D01*
X87046190Y-111090476D01*
X87141428Y-111138095D01*
X87331904Y-111138095D01*
X87427142Y-111090476D01*
X87474761Y-111042857D01*
X87522380Y-110947619D01*
X87522380Y-110757142D01*
X87474761Y-110661904D01*
X87427142Y-110614285D01*
X87331904Y-110566666D01*
X87141428Y-110566666D01*
X87046190Y-110614285D01*
X86998571Y-110661904D01*
X86950952Y-110757142D01*
X87522380Y-109614285D02*
X87522380Y-110185714D01*
X87522380Y-109900000D02*
X86522380Y-109900000D01*
X86665238Y-109995238D01*
X86760476Y-110090476D01*
X86808095Y-110185714D01*
X86522380Y-109280952D02*
X86522380Y-108614285D01*
X87522380Y-109042857D01*
X78382380Y-117630476D02*
X77382380Y-117630476D01*
X77382380Y-117249523D01*
X77430000Y-117154285D01*
X77477619Y-117106666D01*
X77572857Y-117059047D01*
X77715714Y-117059047D01*
X77810952Y-117106666D01*
X77858571Y-117154285D01*
X77906190Y-117249523D01*
X77906190Y-117630476D01*
X78287142Y-116059047D02*
X78334761Y-116106666D01*
X78382380Y-116249523D01*
X78382380Y-116344761D01*
X78334761Y-116487619D01*
X78239523Y-116582857D01*
X78144285Y-116630476D01*
X77953809Y-116678095D01*
X77810952Y-116678095D01*
X77620476Y-116630476D01*
X77525238Y-116582857D01*
X77430000Y-116487619D01*
X77382380Y-116344761D01*
X77382380Y-116249523D01*
X77430000Y-116106666D01*
X77477619Y-116059047D01*
X77810952Y-115487619D02*
X77763333Y-115582857D01*
X77715714Y-115630476D01*
X77620476Y-115678095D01*
X77572857Y-115678095D01*
X77477619Y-115630476D01*
X77430000Y-115582857D01*
X77382380Y-115487619D01*
X77382380Y-115297142D01*
X77430000Y-115201904D01*
X77477619Y-115154285D01*
X77572857Y-115106666D01*
X77620476Y-115106666D01*
X77715714Y-115154285D01*
X77763333Y-115201904D01*
X77810952Y-115297142D01*
X77810952Y-115487619D01*
X77858571Y-115582857D01*
X77906190Y-115630476D01*
X78001428Y-115678095D01*
X78191904Y-115678095D01*
X78287142Y-115630476D01*
X78334761Y-115582857D01*
X78382380Y-115487619D01*
X78382380Y-115297142D01*
X78334761Y-115201904D01*
X78287142Y-115154285D01*
X78191904Y-115106666D01*
X78001428Y-115106666D01*
X77906190Y-115154285D01*
X77858571Y-115201904D01*
X77810952Y-115297142D01*
X78382380Y-114154285D02*
X78382380Y-114725714D01*
X78382380Y-114440000D02*
X77382380Y-114440000D01*
X77525238Y-114535238D01*
X77620476Y-114630476D01*
X77668095Y-114725714D01*
X77382380Y-113820952D02*
X77382380Y-113154285D01*
X78382380Y-113582857D01*
M02*
