G04 #@! TF.GenerationSoftware,KiCad,Pcbnew,5.1.5+dfsg1-2build2*
G04 #@! TF.CreationDate,2022-07-28T19:41:36+02:00*
G04 #@! TF.ProjectId,digital,64696769-7461-46c2-9e6b-696361645f70,rev?*
G04 #@! TF.SameCoordinates,Original*
G04 #@! TF.FileFunction,Paste,Bot*
G04 #@! TF.FilePolarity,Positive*
%FSLAX46Y46*%
G04 Gerber Fmt 4.6, Leading zero omitted, Abs format (unit mm)*
G04 Created by KiCad (PCBNEW 5.1.5+dfsg1-2build2) date 2022-07-28 19:41:36*
%MOMM*%
%LPD*%
G04 APERTURE LIST*
%ADD10C,0.100000*%
G04 APERTURE END LIST*
D10*
G36*
X122887004Y-122526204D02*
G01*
X122911273Y-122529804D01*
X122935071Y-122535765D01*
X122958171Y-122544030D01*
X122980349Y-122554520D01*
X123001393Y-122567133D01*
X123021098Y-122581747D01*
X123039277Y-122598223D01*
X123055753Y-122616402D01*
X123070367Y-122636107D01*
X123082980Y-122657151D01*
X123093470Y-122679329D01*
X123101735Y-122702429D01*
X123107696Y-122726227D01*
X123111296Y-122750496D01*
X123112500Y-122775000D01*
X123112500Y-124025000D01*
X123111296Y-124049504D01*
X123107696Y-124073773D01*
X123101735Y-124097571D01*
X123093470Y-124120671D01*
X123082980Y-124142849D01*
X123070367Y-124163893D01*
X123055753Y-124183598D01*
X123039277Y-124201777D01*
X123021098Y-124218253D01*
X123001393Y-124232867D01*
X122980349Y-124245480D01*
X122958171Y-124255970D01*
X122935071Y-124264235D01*
X122911273Y-124270196D01*
X122887004Y-124273796D01*
X122862500Y-124275000D01*
X121937500Y-124275000D01*
X121912996Y-124273796D01*
X121888727Y-124270196D01*
X121864929Y-124264235D01*
X121841829Y-124255970D01*
X121819651Y-124245480D01*
X121798607Y-124232867D01*
X121778902Y-124218253D01*
X121760723Y-124201777D01*
X121744247Y-124183598D01*
X121729633Y-124163893D01*
X121717020Y-124142849D01*
X121706530Y-124120671D01*
X121698265Y-124097571D01*
X121692304Y-124073773D01*
X121688704Y-124049504D01*
X121687500Y-124025000D01*
X121687500Y-122775000D01*
X121688704Y-122750496D01*
X121692304Y-122726227D01*
X121698265Y-122702429D01*
X121706530Y-122679329D01*
X121717020Y-122657151D01*
X121729633Y-122636107D01*
X121744247Y-122616402D01*
X121760723Y-122598223D01*
X121778902Y-122581747D01*
X121798607Y-122567133D01*
X121819651Y-122554520D01*
X121841829Y-122544030D01*
X121864929Y-122535765D01*
X121888727Y-122529804D01*
X121912996Y-122526204D01*
X121937500Y-122525000D01*
X122862500Y-122525000D01*
X122887004Y-122526204D01*
G37*
G36*
X125862004Y-122526204D02*
G01*
X125886273Y-122529804D01*
X125910071Y-122535765D01*
X125933171Y-122544030D01*
X125955349Y-122554520D01*
X125976393Y-122567133D01*
X125996098Y-122581747D01*
X126014277Y-122598223D01*
X126030753Y-122616402D01*
X126045367Y-122636107D01*
X126057980Y-122657151D01*
X126068470Y-122679329D01*
X126076735Y-122702429D01*
X126082696Y-122726227D01*
X126086296Y-122750496D01*
X126087500Y-122775000D01*
X126087500Y-124025000D01*
X126086296Y-124049504D01*
X126082696Y-124073773D01*
X126076735Y-124097571D01*
X126068470Y-124120671D01*
X126057980Y-124142849D01*
X126045367Y-124163893D01*
X126030753Y-124183598D01*
X126014277Y-124201777D01*
X125996098Y-124218253D01*
X125976393Y-124232867D01*
X125955349Y-124245480D01*
X125933171Y-124255970D01*
X125910071Y-124264235D01*
X125886273Y-124270196D01*
X125862004Y-124273796D01*
X125837500Y-124275000D01*
X124912500Y-124275000D01*
X124887996Y-124273796D01*
X124863727Y-124270196D01*
X124839929Y-124264235D01*
X124816829Y-124255970D01*
X124794651Y-124245480D01*
X124773607Y-124232867D01*
X124753902Y-124218253D01*
X124735723Y-124201777D01*
X124719247Y-124183598D01*
X124704633Y-124163893D01*
X124692020Y-124142849D01*
X124681530Y-124120671D01*
X124673265Y-124097571D01*
X124667304Y-124073773D01*
X124663704Y-124049504D01*
X124662500Y-124025000D01*
X124662500Y-122775000D01*
X124663704Y-122750496D01*
X124667304Y-122726227D01*
X124673265Y-122702429D01*
X124681530Y-122679329D01*
X124692020Y-122657151D01*
X124704633Y-122636107D01*
X124719247Y-122616402D01*
X124735723Y-122598223D01*
X124753902Y-122581747D01*
X124773607Y-122567133D01*
X124794651Y-122554520D01*
X124816829Y-122544030D01*
X124839929Y-122535765D01*
X124863727Y-122529804D01*
X124887996Y-122526204D01*
X124912500Y-122525000D01*
X125837500Y-122525000D01*
X125862004Y-122526204D01*
G37*
G36*
X82099504Y-94501204D02*
G01*
X82123773Y-94504804D01*
X82147571Y-94510765D01*
X82170671Y-94519030D01*
X82192849Y-94529520D01*
X82213893Y-94542133D01*
X82233598Y-94556747D01*
X82251777Y-94573223D01*
X82268253Y-94591402D01*
X82282867Y-94611107D01*
X82295480Y-94632151D01*
X82305970Y-94654329D01*
X82314235Y-94677429D01*
X82320196Y-94701227D01*
X82323796Y-94725496D01*
X82325000Y-94750000D01*
X82325000Y-95675000D01*
X82323796Y-95699504D01*
X82320196Y-95723773D01*
X82314235Y-95747571D01*
X82305970Y-95770671D01*
X82295480Y-95792849D01*
X82282867Y-95813893D01*
X82268253Y-95833598D01*
X82251777Y-95851777D01*
X82233598Y-95868253D01*
X82213893Y-95882867D01*
X82192849Y-95895480D01*
X82170671Y-95905970D01*
X82147571Y-95914235D01*
X82123773Y-95920196D01*
X82099504Y-95923796D01*
X82075000Y-95925000D01*
X80825000Y-95925000D01*
X80800496Y-95923796D01*
X80776227Y-95920196D01*
X80752429Y-95914235D01*
X80729329Y-95905970D01*
X80707151Y-95895480D01*
X80686107Y-95882867D01*
X80666402Y-95868253D01*
X80648223Y-95851777D01*
X80631747Y-95833598D01*
X80617133Y-95813893D01*
X80604520Y-95792849D01*
X80594030Y-95770671D01*
X80585765Y-95747571D01*
X80579804Y-95723773D01*
X80576204Y-95699504D01*
X80575000Y-95675000D01*
X80575000Y-94750000D01*
X80576204Y-94725496D01*
X80579804Y-94701227D01*
X80585765Y-94677429D01*
X80594030Y-94654329D01*
X80604520Y-94632151D01*
X80617133Y-94611107D01*
X80631747Y-94591402D01*
X80648223Y-94573223D01*
X80666402Y-94556747D01*
X80686107Y-94542133D01*
X80707151Y-94529520D01*
X80729329Y-94519030D01*
X80752429Y-94510765D01*
X80776227Y-94504804D01*
X80800496Y-94501204D01*
X80825000Y-94500000D01*
X82075000Y-94500000D01*
X82099504Y-94501204D01*
G37*
G36*
X82099504Y-91526204D02*
G01*
X82123773Y-91529804D01*
X82147571Y-91535765D01*
X82170671Y-91544030D01*
X82192849Y-91554520D01*
X82213893Y-91567133D01*
X82233598Y-91581747D01*
X82251777Y-91598223D01*
X82268253Y-91616402D01*
X82282867Y-91636107D01*
X82295480Y-91657151D01*
X82305970Y-91679329D01*
X82314235Y-91702429D01*
X82320196Y-91726227D01*
X82323796Y-91750496D01*
X82325000Y-91775000D01*
X82325000Y-92700000D01*
X82323796Y-92724504D01*
X82320196Y-92748773D01*
X82314235Y-92772571D01*
X82305970Y-92795671D01*
X82295480Y-92817849D01*
X82282867Y-92838893D01*
X82268253Y-92858598D01*
X82251777Y-92876777D01*
X82233598Y-92893253D01*
X82213893Y-92907867D01*
X82192849Y-92920480D01*
X82170671Y-92930970D01*
X82147571Y-92939235D01*
X82123773Y-92945196D01*
X82099504Y-92948796D01*
X82075000Y-92950000D01*
X80825000Y-92950000D01*
X80800496Y-92948796D01*
X80776227Y-92945196D01*
X80752429Y-92939235D01*
X80729329Y-92930970D01*
X80707151Y-92920480D01*
X80686107Y-92907867D01*
X80666402Y-92893253D01*
X80648223Y-92876777D01*
X80631747Y-92858598D01*
X80617133Y-92838893D01*
X80604520Y-92817849D01*
X80594030Y-92795671D01*
X80585765Y-92772571D01*
X80579804Y-92748773D01*
X80576204Y-92724504D01*
X80575000Y-92700000D01*
X80575000Y-91775000D01*
X80576204Y-91750496D01*
X80579804Y-91726227D01*
X80585765Y-91702429D01*
X80594030Y-91679329D01*
X80604520Y-91657151D01*
X80617133Y-91636107D01*
X80631747Y-91616402D01*
X80648223Y-91598223D01*
X80666402Y-91581747D01*
X80686107Y-91567133D01*
X80707151Y-91554520D01*
X80729329Y-91544030D01*
X80752429Y-91535765D01*
X80776227Y-91529804D01*
X80800496Y-91526204D01*
X80825000Y-91525000D01*
X82075000Y-91525000D01*
X82099504Y-91526204D01*
G37*
G36*
X90737004Y-93326204D02*
G01*
X90761273Y-93329804D01*
X90785071Y-93335765D01*
X90808171Y-93344030D01*
X90830349Y-93354520D01*
X90851393Y-93367133D01*
X90871098Y-93381747D01*
X90889277Y-93398223D01*
X90905753Y-93416402D01*
X90920367Y-93436107D01*
X90932980Y-93457151D01*
X90943470Y-93479329D01*
X90951735Y-93502429D01*
X90957696Y-93526227D01*
X90961296Y-93550496D01*
X90962500Y-93575000D01*
X90962500Y-96825000D01*
X90961296Y-96849504D01*
X90957696Y-96873773D01*
X90951735Y-96897571D01*
X90943470Y-96920671D01*
X90932980Y-96942849D01*
X90920367Y-96963893D01*
X90905753Y-96983598D01*
X90889277Y-97001777D01*
X90871098Y-97018253D01*
X90851393Y-97032867D01*
X90830349Y-97045480D01*
X90808171Y-97055970D01*
X90785071Y-97064235D01*
X90761273Y-97070196D01*
X90737004Y-97073796D01*
X90712500Y-97075000D01*
X89537500Y-97075000D01*
X89512996Y-97073796D01*
X89488727Y-97070196D01*
X89464929Y-97064235D01*
X89441829Y-97055970D01*
X89419651Y-97045480D01*
X89398607Y-97032867D01*
X89378902Y-97018253D01*
X89360723Y-97001777D01*
X89344247Y-96983598D01*
X89329633Y-96963893D01*
X89317020Y-96942849D01*
X89306530Y-96920671D01*
X89298265Y-96897571D01*
X89292304Y-96873773D01*
X89288704Y-96849504D01*
X89287500Y-96825000D01*
X89287500Y-93575000D01*
X89288704Y-93550496D01*
X89292304Y-93526227D01*
X89298265Y-93502429D01*
X89306530Y-93479329D01*
X89317020Y-93457151D01*
X89329633Y-93436107D01*
X89344247Y-93416402D01*
X89360723Y-93398223D01*
X89378902Y-93381747D01*
X89398607Y-93367133D01*
X89419651Y-93354520D01*
X89441829Y-93344030D01*
X89464929Y-93335765D01*
X89488727Y-93329804D01*
X89512996Y-93326204D01*
X89537500Y-93325000D01*
X90712500Y-93325000D01*
X90737004Y-93326204D01*
G37*
G36*
X86362004Y-93326204D02*
G01*
X86386273Y-93329804D01*
X86410071Y-93335765D01*
X86433171Y-93344030D01*
X86455349Y-93354520D01*
X86476393Y-93367133D01*
X86496098Y-93381747D01*
X86514277Y-93398223D01*
X86530753Y-93416402D01*
X86545367Y-93436107D01*
X86557980Y-93457151D01*
X86568470Y-93479329D01*
X86576735Y-93502429D01*
X86582696Y-93526227D01*
X86586296Y-93550496D01*
X86587500Y-93575000D01*
X86587500Y-96825000D01*
X86586296Y-96849504D01*
X86582696Y-96873773D01*
X86576735Y-96897571D01*
X86568470Y-96920671D01*
X86557980Y-96942849D01*
X86545367Y-96963893D01*
X86530753Y-96983598D01*
X86514277Y-97001777D01*
X86496098Y-97018253D01*
X86476393Y-97032867D01*
X86455349Y-97045480D01*
X86433171Y-97055970D01*
X86410071Y-97064235D01*
X86386273Y-97070196D01*
X86362004Y-97073796D01*
X86337500Y-97075000D01*
X85162500Y-97075000D01*
X85137996Y-97073796D01*
X85113727Y-97070196D01*
X85089929Y-97064235D01*
X85066829Y-97055970D01*
X85044651Y-97045480D01*
X85023607Y-97032867D01*
X85003902Y-97018253D01*
X84985723Y-97001777D01*
X84969247Y-96983598D01*
X84954633Y-96963893D01*
X84942020Y-96942849D01*
X84931530Y-96920671D01*
X84923265Y-96897571D01*
X84917304Y-96873773D01*
X84913704Y-96849504D01*
X84912500Y-96825000D01*
X84912500Y-93575000D01*
X84913704Y-93550496D01*
X84917304Y-93526227D01*
X84923265Y-93502429D01*
X84931530Y-93479329D01*
X84942020Y-93457151D01*
X84954633Y-93436107D01*
X84969247Y-93416402D01*
X84985723Y-93398223D01*
X85003902Y-93381747D01*
X85023607Y-93367133D01*
X85044651Y-93354520D01*
X85066829Y-93344030D01*
X85089929Y-93335765D01*
X85113727Y-93329804D01*
X85137996Y-93326204D01*
X85162500Y-93325000D01*
X86337500Y-93325000D01*
X86362004Y-93326204D01*
G37*
G36*
X117337004Y-117851204D02*
G01*
X117361273Y-117854804D01*
X117385071Y-117860765D01*
X117408171Y-117869030D01*
X117430349Y-117879520D01*
X117451393Y-117892133D01*
X117471098Y-117906747D01*
X117489277Y-117923223D01*
X117505753Y-117941402D01*
X117520367Y-117961107D01*
X117532980Y-117982151D01*
X117543470Y-118004329D01*
X117551735Y-118027429D01*
X117557696Y-118051227D01*
X117561296Y-118075496D01*
X117562500Y-118100000D01*
X117562500Y-119350000D01*
X117561296Y-119374504D01*
X117557696Y-119398773D01*
X117551735Y-119422571D01*
X117543470Y-119445671D01*
X117532980Y-119467849D01*
X117520367Y-119488893D01*
X117505753Y-119508598D01*
X117489277Y-119526777D01*
X117471098Y-119543253D01*
X117451393Y-119557867D01*
X117430349Y-119570480D01*
X117408171Y-119580970D01*
X117385071Y-119589235D01*
X117361273Y-119595196D01*
X117337004Y-119598796D01*
X117312500Y-119600000D01*
X116387500Y-119600000D01*
X116362996Y-119598796D01*
X116338727Y-119595196D01*
X116314929Y-119589235D01*
X116291829Y-119580970D01*
X116269651Y-119570480D01*
X116248607Y-119557867D01*
X116228902Y-119543253D01*
X116210723Y-119526777D01*
X116194247Y-119508598D01*
X116179633Y-119488893D01*
X116167020Y-119467849D01*
X116156530Y-119445671D01*
X116148265Y-119422571D01*
X116142304Y-119398773D01*
X116138704Y-119374504D01*
X116137500Y-119350000D01*
X116137500Y-118100000D01*
X116138704Y-118075496D01*
X116142304Y-118051227D01*
X116148265Y-118027429D01*
X116156530Y-118004329D01*
X116167020Y-117982151D01*
X116179633Y-117961107D01*
X116194247Y-117941402D01*
X116210723Y-117923223D01*
X116228902Y-117906747D01*
X116248607Y-117892133D01*
X116269651Y-117879520D01*
X116291829Y-117869030D01*
X116314929Y-117860765D01*
X116338727Y-117854804D01*
X116362996Y-117851204D01*
X116387500Y-117850000D01*
X117312500Y-117850000D01*
X117337004Y-117851204D01*
G37*
G36*
X114362004Y-117851204D02*
G01*
X114386273Y-117854804D01*
X114410071Y-117860765D01*
X114433171Y-117869030D01*
X114455349Y-117879520D01*
X114476393Y-117892133D01*
X114496098Y-117906747D01*
X114514277Y-117923223D01*
X114530753Y-117941402D01*
X114545367Y-117961107D01*
X114557980Y-117982151D01*
X114568470Y-118004329D01*
X114576735Y-118027429D01*
X114582696Y-118051227D01*
X114586296Y-118075496D01*
X114587500Y-118100000D01*
X114587500Y-119350000D01*
X114586296Y-119374504D01*
X114582696Y-119398773D01*
X114576735Y-119422571D01*
X114568470Y-119445671D01*
X114557980Y-119467849D01*
X114545367Y-119488893D01*
X114530753Y-119508598D01*
X114514277Y-119526777D01*
X114496098Y-119543253D01*
X114476393Y-119557867D01*
X114455349Y-119570480D01*
X114433171Y-119580970D01*
X114410071Y-119589235D01*
X114386273Y-119595196D01*
X114362004Y-119598796D01*
X114337500Y-119600000D01*
X113412500Y-119600000D01*
X113387996Y-119598796D01*
X113363727Y-119595196D01*
X113339929Y-119589235D01*
X113316829Y-119580970D01*
X113294651Y-119570480D01*
X113273607Y-119557867D01*
X113253902Y-119543253D01*
X113235723Y-119526777D01*
X113219247Y-119508598D01*
X113204633Y-119488893D01*
X113192020Y-119467849D01*
X113181530Y-119445671D01*
X113173265Y-119422571D01*
X113167304Y-119398773D01*
X113163704Y-119374504D01*
X113162500Y-119350000D01*
X113162500Y-118100000D01*
X113163704Y-118075496D01*
X113167304Y-118051227D01*
X113173265Y-118027429D01*
X113181530Y-118004329D01*
X113192020Y-117982151D01*
X113204633Y-117961107D01*
X113219247Y-117941402D01*
X113235723Y-117923223D01*
X113253902Y-117906747D01*
X113273607Y-117892133D01*
X113294651Y-117879520D01*
X113316829Y-117869030D01*
X113339929Y-117860765D01*
X113363727Y-117854804D01*
X113387996Y-117851204D01*
X113412500Y-117850000D01*
X114337500Y-117850000D01*
X114362004Y-117851204D01*
G37*
G36*
X104912004Y-117851204D02*
G01*
X104936273Y-117854804D01*
X104960071Y-117860765D01*
X104983171Y-117869030D01*
X105005349Y-117879520D01*
X105026393Y-117892133D01*
X105046098Y-117906747D01*
X105064277Y-117923223D01*
X105080753Y-117941402D01*
X105095367Y-117961107D01*
X105107980Y-117982151D01*
X105118470Y-118004329D01*
X105126735Y-118027429D01*
X105132696Y-118051227D01*
X105136296Y-118075496D01*
X105137500Y-118100000D01*
X105137500Y-119350000D01*
X105136296Y-119374504D01*
X105132696Y-119398773D01*
X105126735Y-119422571D01*
X105118470Y-119445671D01*
X105107980Y-119467849D01*
X105095367Y-119488893D01*
X105080753Y-119508598D01*
X105064277Y-119526777D01*
X105046098Y-119543253D01*
X105026393Y-119557867D01*
X105005349Y-119570480D01*
X104983171Y-119580970D01*
X104960071Y-119589235D01*
X104936273Y-119595196D01*
X104912004Y-119598796D01*
X104887500Y-119600000D01*
X103962500Y-119600000D01*
X103937996Y-119598796D01*
X103913727Y-119595196D01*
X103889929Y-119589235D01*
X103866829Y-119580970D01*
X103844651Y-119570480D01*
X103823607Y-119557867D01*
X103803902Y-119543253D01*
X103785723Y-119526777D01*
X103769247Y-119508598D01*
X103754633Y-119488893D01*
X103742020Y-119467849D01*
X103731530Y-119445671D01*
X103723265Y-119422571D01*
X103717304Y-119398773D01*
X103713704Y-119374504D01*
X103712500Y-119350000D01*
X103712500Y-118100000D01*
X103713704Y-118075496D01*
X103717304Y-118051227D01*
X103723265Y-118027429D01*
X103731530Y-118004329D01*
X103742020Y-117982151D01*
X103754633Y-117961107D01*
X103769247Y-117941402D01*
X103785723Y-117923223D01*
X103803902Y-117906747D01*
X103823607Y-117892133D01*
X103844651Y-117879520D01*
X103866829Y-117869030D01*
X103889929Y-117860765D01*
X103913727Y-117854804D01*
X103937996Y-117851204D01*
X103962500Y-117850000D01*
X104887500Y-117850000D01*
X104912004Y-117851204D01*
G37*
G36*
X107887004Y-117851204D02*
G01*
X107911273Y-117854804D01*
X107935071Y-117860765D01*
X107958171Y-117869030D01*
X107980349Y-117879520D01*
X108001393Y-117892133D01*
X108021098Y-117906747D01*
X108039277Y-117923223D01*
X108055753Y-117941402D01*
X108070367Y-117961107D01*
X108082980Y-117982151D01*
X108093470Y-118004329D01*
X108101735Y-118027429D01*
X108107696Y-118051227D01*
X108111296Y-118075496D01*
X108112500Y-118100000D01*
X108112500Y-119350000D01*
X108111296Y-119374504D01*
X108107696Y-119398773D01*
X108101735Y-119422571D01*
X108093470Y-119445671D01*
X108082980Y-119467849D01*
X108070367Y-119488893D01*
X108055753Y-119508598D01*
X108039277Y-119526777D01*
X108021098Y-119543253D01*
X108001393Y-119557867D01*
X107980349Y-119570480D01*
X107958171Y-119580970D01*
X107935071Y-119589235D01*
X107911273Y-119595196D01*
X107887004Y-119598796D01*
X107862500Y-119600000D01*
X106937500Y-119600000D01*
X106912996Y-119598796D01*
X106888727Y-119595196D01*
X106864929Y-119589235D01*
X106841829Y-119580970D01*
X106819651Y-119570480D01*
X106798607Y-119557867D01*
X106778902Y-119543253D01*
X106760723Y-119526777D01*
X106744247Y-119508598D01*
X106729633Y-119488893D01*
X106717020Y-119467849D01*
X106706530Y-119445671D01*
X106698265Y-119422571D01*
X106692304Y-119398773D01*
X106688704Y-119374504D01*
X106687500Y-119350000D01*
X106687500Y-118100000D01*
X106688704Y-118075496D01*
X106692304Y-118051227D01*
X106698265Y-118027429D01*
X106706530Y-118004329D01*
X106717020Y-117982151D01*
X106729633Y-117961107D01*
X106744247Y-117941402D01*
X106760723Y-117923223D01*
X106778902Y-117906747D01*
X106798607Y-117892133D01*
X106819651Y-117879520D01*
X106841829Y-117869030D01*
X106864929Y-117860765D01*
X106888727Y-117854804D01*
X106912996Y-117851204D01*
X106937500Y-117850000D01*
X107862500Y-117850000D01*
X107887004Y-117851204D01*
G37*
G36*
X98537004Y-117826204D02*
G01*
X98561273Y-117829804D01*
X98585071Y-117835765D01*
X98608171Y-117844030D01*
X98630349Y-117854520D01*
X98651393Y-117867133D01*
X98671098Y-117881747D01*
X98689277Y-117898223D01*
X98705753Y-117916402D01*
X98720367Y-117936107D01*
X98732980Y-117957151D01*
X98743470Y-117979329D01*
X98751735Y-118002429D01*
X98757696Y-118026227D01*
X98761296Y-118050496D01*
X98762500Y-118075000D01*
X98762500Y-119325000D01*
X98761296Y-119349504D01*
X98757696Y-119373773D01*
X98751735Y-119397571D01*
X98743470Y-119420671D01*
X98732980Y-119442849D01*
X98720367Y-119463893D01*
X98705753Y-119483598D01*
X98689277Y-119501777D01*
X98671098Y-119518253D01*
X98651393Y-119532867D01*
X98630349Y-119545480D01*
X98608171Y-119555970D01*
X98585071Y-119564235D01*
X98561273Y-119570196D01*
X98537004Y-119573796D01*
X98512500Y-119575000D01*
X97587500Y-119575000D01*
X97562996Y-119573796D01*
X97538727Y-119570196D01*
X97514929Y-119564235D01*
X97491829Y-119555970D01*
X97469651Y-119545480D01*
X97448607Y-119532867D01*
X97428902Y-119518253D01*
X97410723Y-119501777D01*
X97394247Y-119483598D01*
X97379633Y-119463893D01*
X97367020Y-119442849D01*
X97356530Y-119420671D01*
X97348265Y-119397571D01*
X97342304Y-119373773D01*
X97338704Y-119349504D01*
X97337500Y-119325000D01*
X97337500Y-118075000D01*
X97338704Y-118050496D01*
X97342304Y-118026227D01*
X97348265Y-118002429D01*
X97356530Y-117979329D01*
X97367020Y-117957151D01*
X97379633Y-117936107D01*
X97394247Y-117916402D01*
X97410723Y-117898223D01*
X97428902Y-117881747D01*
X97448607Y-117867133D01*
X97469651Y-117854520D01*
X97491829Y-117844030D01*
X97514929Y-117835765D01*
X97538727Y-117829804D01*
X97562996Y-117826204D01*
X97587500Y-117825000D01*
X98512500Y-117825000D01*
X98537004Y-117826204D01*
G37*
G36*
X95562004Y-117826204D02*
G01*
X95586273Y-117829804D01*
X95610071Y-117835765D01*
X95633171Y-117844030D01*
X95655349Y-117854520D01*
X95676393Y-117867133D01*
X95696098Y-117881747D01*
X95714277Y-117898223D01*
X95730753Y-117916402D01*
X95745367Y-117936107D01*
X95757980Y-117957151D01*
X95768470Y-117979329D01*
X95776735Y-118002429D01*
X95782696Y-118026227D01*
X95786296Y-118050496D01*
X95787500Y-118075000D01*
X95787500Y-119325000D01*
X95786296Y-119349504D01*
X95782696Y-119373773D01*
X95776735Y-119397571D01*
X95768470Y-119420671D01*
X95757980Y-119442849D01*
X95745367Y-119463893D01*
X95730753Y-119483598D01*
X95714277Y-119501777D01*
X95696098Y-119518253D01*
X95676393Y-119532867D01*
X95655349Y-119545480D01*
X95633171Y-119555970D01*
X95610071Y-119564235D01*
X95586273Y-119570196D01*
X95562004Y-119573796D01*
X95537500Y-119575000D01*
X94612500Y-119575000D01*
X94587996Y-119573796D01*
X94563727Y-119570196D01*
X94539929Y-119564235D01*
X94516829Y-119555970D01*
X94494651Y-119545480D01*
X94473607Y-119532867D01*
X94453902Y-119518253D01*
X94435723Y-119501777D01*
X94419247Y-119483598D01*
X94404633Y-119463893D01*
X94392020Y-119442849D01*
X94381530Y-119420671D01*
X94373265Y-119397571D01*
X94367304Y-119373773D01*
X94363704Y-119349504D01*
X94362500Y-119325000D01*
X94362500Y-118075000D01*
X94363704Y-118050496D01*
X94367304Y-118026227D01*
X94373265Y-118002429D01*
X94381530Y-117979329D01*
X94392020Y-117957151D01*
X94404633Y-117936107D01*
X94419247Y-117916402D01*
X94435723Y-117898223D01*
X94453902Y-117881747D01*
X94473607Y-117867133D01*
X94494651Y-117854520D01*
X94516829Y-117844030D01*
X94539929Y-117835765D01*
X94563727Y-117829804D01*
X94587996Y-117826204D01*
X94612500Y-117825000D01*
X95537500Y-117825000D01*
X95562004Y-117826204D01*
G37*
G36*
X85899504Y-117851204D02*
G01*
X85923773Y-117854804D01*
X85947571Y-117860765D01*
X85970671Y-117869030D01*
X85992849Y-117879520D01*
X86013893Y-117892133D01*
X86033598Y-117906747D01*
X86051777Y-117923223D01*
X86068253Y-117941402D01*
X86082867Y-117961107D01*
X86095480Y-117982151D01*
X86105970Y-118004329D01*
X86114235Y-118027429D01*
X86120196Y-118051227D01*
X86123796Y-118075496D01*
X86125000Y-118100000D01*
X86125000Y-119350000D01*
X86123796Y-119374504D01*
X86120196Y-119398773D01*
X86114235Y-119422571D01*
X86105970Y-119445671D01*
X86095480Y-119467849D01*
X86082867Y-119488893D01*
X86068253Y-119508598D01*
X86051777Y-119526777D01*
X86033598Y-119543253D01*
X86013893Y-119557867D01*
X85992849Y-119570480D01*
X85970671Y-119580970D01*
X85947571Y-119589235D01*
X85923773Y-119595196D01*
X85899504Y-119598796D01*
X85875000Y-119600000D01*
X84950000Y-119600000D01*
X84925496Y-119598796D01*
X84901227Y-119595196D01*
X84877429Y-119589235D01*
X84854329Y-119580970D01*
X84832151Y-119570480D01*
X84811107Y-119557867D01*
X84791402Y-119543253D01*
X84773223Y-119526777D01*
X84756747Y-119508598D01*
X84742133Y-119488893D01*
X84729520Y-119467849D01*
X84719030Y-119445671D01*
X84710765Y-119422571D01*
X84704804Y-119398773D01*
X84701204Y-119374504D01*
X84700000Y-119350000D01*
X84700000Y-118100000D01*
X84701204Y-118075496D01*
X84704804Y-118051227D01*
X84710765Y-118027429D01*
X84719030Y-118004329D01*
X84729520Y-117982151D01*
X84742133Y-117961107D01*
X84756747Y-117941402D01*
X84773223Y-117923223D01*
X84791402Y-117906747D01*
X84811107Y-117892133D01*
X84832151Y-117879520D01*
X84854329Y-117869030D01*
X84877429Y-117860765D01*
X84901227Y-117854804D01*
X84925496Y-117851204D01*
X84950000Y-117850000D01*
X85875000Y-117850000D01*
X85899504Y-117851204D01*
G37*
G36*
X88874504Y-117851204D02*
G01*
X88898773Y-117854804D01*
X88922571Y-117860765D01*
X88945671Y-117869030D01*
X88967849Y-117879520D01*
X88988893Y-117892133D01*
X89008598Y-117906747D01*
X89026777Y-117923223D01*
X89043253Y-117941402D01*
X89057867Y-117961107D01*
X89070480Y-117982151D01*
X89080970Y-118004329D01*
X89089235Y-118027429D01*
X89095196Y-118051227D01*
X89098796Y-118075496D01*
X89100000Y-118100000D01*
X89100000Y-119350000D01*
X89098796Y-119374504D01*
X89095196Y-119398773D01*
X89089235Y-119422571D01*
X89080970Y-119445671D01*
X89070480Y-119467849D01*
X89057867Y-119488893D01*
X89043253Y-119508598D01*
X89026777Y-119526777D01*
X89008598Y-119543253D01*
X88988893Y-119557867D01*
X88967849Y-119570480D01*
X88945671Y-119580970D01*
X88922571Y-119589235D01*
X88898773Y-119595196D01*
X88874504Y-119598796D01*
X88850000Y-119600000D01*
X87925000Y-119600000D01*
X87900496Y-119598796D01*
X87876227Y-119595196D01*
X87852429Y-119589235D01*
X87829329Y-119580970D01*
X87807151Y-119570480D01*
X87786107Y-119557867D01*
X87766402Y-119543253D01*
X87748223Y-119526777D01*
X87731747Y-119508598D01*
X87717133Y-119488893D01*
X87704520Y-119467849D01*
X87694030Y-119445671D01*
X87685765Y-119422571D01*
X87679804Y-119398773D01*
X87676204Y-119374504D01*
X87675000Y-119350000D01*
X87675000Y-118100000D01*
X87676204Y-118075496D01*
X87679804Y-118051227D01*
X87685765Y-118027429D01*
X87694030Y-118004329D01*
X87704520Y-117982151D01*
X87717133Y-117961107D01*
X87731747Y-117941402D01*
X87748223Y-117923223D01*
X87766402Y-117906747D01*
X87786107Y-117892133D01*
X87807151Y-117879520D01*
X87829329Y-117869030D01*
X87852429Y-117860765D01*
X87876227Y-117854804D01*
X87900496Y-117851204D01*
X87925000Y-117850000D01*
X88850000Y-117850000D01*
X88874504Y-117851204D01*
G37*
G36*
X79962004Y-122426204D02*
G01*
X79986273Y-122429804D01*
X80010071Y-122435765D01*
X80033171Y-122444030D01*
X80055349Y-122454520D01*
X80076393Y-122467133D01*
X80096098Y-122481747D01*
X80114277Y-122498223D01*
X80130753Y-122516402D01*
X80145367Y-122536107D01*
X80157980Y-122557151D01*
X80168470Y-122579329D01*
X80176735Y-122602429D01*
X80182696Y-122626227D01*
X80186296Y-122650496D01*
X80187500Y-122675000D01*
X80187500Y-123925000D01*
X80186296Y-123949504D01*
X80182696Y-123973773D01*
X80176735Y-123997571D01*
X80168470Y-124020671D01*
X80157980Y-124042849D01*
X80145367Y-124063893D01*
X80130753Y-124083598D01*
X80114277Y-124101777D01*
X80096098Y-124118253D01*
X80076393Y-124132867D01*
X80055349Y-124145480D01*
X80033171Y-124155970D01*
X80010071Y-124164235D01*
X79986273Y-124170196D01*
X79962004Y-124173796D01*
X79937500Y-124175000D01*
X79012500Y-124175000D01*
X78987996Y-124173796D01*
X78963727Y-124170196D01*
X78939929Y-124164235D01*
X78916829Y-124155970D01*
X78894651Y-124145480D01*
X78873607Y-124132867D01*
X78853902Y-124118253D01*
X78835723Y-124101777D01*
X78819247Y-124083598D01*
X78804633Y-124063893D01*
X78792020Y-124042849D01*
X78781530Y-124020671D01*
X78773265Y-123997571D01*
X78767304Y-123973773D01*
X78763704Y-123949504D01*
X78762500Y-123925000D01*
X78762500Y-122675000D01*
X78763704Y-122650496D01*
X78767304Y-122626227D01*
X78773265Y-122602429D01*
X78781530Y-122579329D01*
X78792020Y-122557151D01*
X78804633Y-122536107D01*
X78819247Y-122516402D01*
X78835723Y-122498223D01*
X78853902Y-122481747D01*
X78873607Y-122467133D01*
X78894651Y-122454520D01*
X78916829Y-122444030D01*
X78939929Y-122435765D01*
X78963727Y-122429804D01*
X78987996Y-122426204D01*
X79012500Y-122425000D01*
X79937500Y-122425000D01*
X79962004Y-122426204D01*
G37*
G36*
X76987004Y-122426204D02*
G01*
X77011273Y-122429804D01*
X77035071Y-122435765D01*
X77058171Y-122444030D01*
X77080349Y-122454520D01*
X77101393Y-122467133D01*
X77121098Y-122481747D01*
X77139277Y-122498223D01*
X77155753Y-122516402D01*
X77170367Y-122536107D01*
X77182980Y-122557151D01*
X77193470Y-122579329D01*
X77201735Y-122602429D01*
X77207696Y-122626227D01*
X77211296Y-122650496D01*
X77212500Y-122675000D01*
X77212500Y-123925000D01*
X77211296Y-123949504D01*
X77207696Y-123973773D01*
X77201735Y-123997571D01*
X77193470Y-124020671D01*
X77182980Y-124042849D01*
X77170367Y-124063893D01*
X77155753Y-124083598D01*
X77139277Y-124101777D01*
X77121098Y-124118253D01*
X77101393Y-124132867D01*
X77080349Y-124145480D01*
X77058171Y-124155970D01*
X77035071Y-124164235D01*
X77011273Y-124170196D01*
X76987004Y-124173796D01*
X76962500Y-124175000D01*
X76037500Y-124175000D01*
X76012996Y-124173796D01*
X75988727Y-124170196D01*
X75964929Y-124164235D01*
X75941829Y-124155970D01*
X75919651Y-124145480D01*
X75898607Y-124132867D01*
X75878902Y-124118253D01*
X75860723Y-124101777D01*
X75844247Y-124083598D01*
X75829633Y-124063893D01*
X75817020Y-124042849D01*
X75806530Y-124020671D01*
X75798265Y-123997571D01*
X75792304Y-123973773D01*
X75788704Y-123949504D01*
X75787500Y-123925000D01*
X75787500Y-122675000D01*
X75788704Y-122650496D01*
X75792304Y-122626227D01*
X75798265Y-122602429D01*
X75806530Y-122579329D01*
X75817020Y-122557151D01*
X75829633Y-122536107D01*
X75844247Y-122516402D01*
X75860723Y-122498223D01*
X75878902Y-122481747D01*
X75898607Y-122467133D01*
X75919651Y-122454520D01*
X75941829Y-122444030D01*
X75964929Y-122435765D01*
X75988727Y-122429804D01*
X76012996Y-122426204D01*
X76037500Y-122425000D01*
X76962500Y-122425000D01*
X76987004Y-122426204D01*
G37*
M02*
