G04 #@! TF.GenerationSoftware,KiCad,Pcbnew,5.1.5+dfsg1-2build2*
G04 #@! TF.CreationDate,2022-07-28T19:41:36+02:00*
G04 #@! TF.ProjectId,digital,64696769-7461-46c2-9e6b-696361645f70,rev?*
G04 #@! TF.SameCoordinates,Original*
G04 #@! TF.FileFunction,Legend,Bot*
G04 #@! TF.FilePolarity,Positive*
%FSLAX46Y46*%
G04 Gerber Fmt 4.6, Leading zero omitted, Abs format (unit mm)*
G04 Created by KiCad (PCBNEW 5.1.5+dfsg1-2build2) date 2022-07-28 19:41:36*
%MOMM*%
%LPD*%
G04 APERTURE LIST*
%ADD10C,0.120000*%
%ADD11C,0.150000*%
G04 APERTURE END LIST*
D10*
X123285436Y-124310000D02*
X124489564Y-124310000D01*
X123285436Y-122490000D02*
X124489564Y-122490000D01*
X82360000Y-94327064D02*
X82360000Y-93122936D01*
X80540000Y-94327064D02*
X80540000Y-93122936D01*
X85337500Y-93065000D02*
X91222500Y-93065000D01*
X91222500Y-93065000D02*
X91222500Y-97335000D01*
X91222500Y-97335000D02*
X85337500Y-97335000D01*
X114760436Y-117815000D02*
X115964564Y-117815000D01*
X114760436Y-119635000D02*
X115964564Y-119635000D01*
X105310436Y-119635000D02*
X106514564Y-119635000D01*
X105310436Y-117815000D02*
X106514564Y-117815000D01*
X95960436Y-117790000D02*
X97164564Y-117790000D01*
X95960436Y-119610000D02*
X97164564Y-119610000D01*
X86297936Y-119635000D02*
X87502064Y-119635000D01*
X86297936Y-117815000D02*
X87502064Y-117815000D01*
X77385436Y-122390000D02*
X78589564Y-122390000D01*
X77385436Y-124210000D02*
X78589564Y-124210000D01*
D11*
X127696666Y-123027142D02*
X127744285Y-123074761D01*
X127887142Y-123122380D01*
X127982380Y-123122380D01*
X128125238Y-123074761D01*
X128220476Y-122979523D01*
X128268095Y-122884285D01*
X128315714Y-122693809D01*
X128315714Y-122550952D01*
X128268095Y-122360476D01*
X128220476Y-122265238D01*
X128125238Y-122170000D01*
X127982380Y-122122380D01*
X127887142Y-122122380D01*
X127744285Y-122170000D01*
X127696666Y-122217619D01*
X127125238Y-122550952D02*
X127220476Y-122503333D01*
X127268095Y-122455714D01*
X127315714Y-122360476D01*
X127315714Y-122312857D01*
X127268095Y-122217619D01*
X127220476Y-122170000D01*
X127125238Y-122122380D01*
X126934761Y-122122380D01*
X126839523Y-122170000D01*
X126791904Y-122217619D01*
X126744285Y-122312857D01*
X126744285Y-122360476D01*
X126791904Y-122455714D01*
X126839523Y-122503333D01*
X126934761Y-122550952D01*
X127125238Y-122550952D01*
X127220476Y-122598571D01*
X127268095Y-122646190D01*
X127315714Y-122741428D01*
X127315714Y-122931904D01*
X127268095Y-123027142D01*
X127220476Y-123074761D01*
X127125238Y-123122380D01*
X126934761Y-123122380D01*
X126839523Y-123074761D01*
X126791904Y-123027142D01*
X126744285Y-122931904D01*
X126744285Y-122741428D01*
X126791904Y-122646190D01*
X126839523Y-122598571D01*
X126934761Y-122550952D01*
X81636666Y-91037142D02*
X81684285Y-91084761D01*
X81827142Y-91132380D01*
X81922380Y-91132380D01*
X82065238Y-91084761D01*
X82160476Y-90989523D01*
X82208095Y-90894285D01*
X82255714Y-90703809D01*
X82255714Y-90560952D01*
X82208095Y-90370476D01*
X82160476Y-90275238D01*
X82065238Y-90180000D01*
X81922380Y-90132380D01*
X81827142Y-90132380D01*
X81684285Y-90180000D01*
X81636666Y-90227619D01*
X81303333Y-90132380D02*
X80636666Y-90132380D01*
X81065238Y-91132380D01*
X88675595Y-92832380D02*
X88675595Y-91832380D01*
X88437500Y-91832380D01*
X88294642Y-91880000D01*
X88199404Y-91975238D01*
X88151785Y-92070476D01*
X88104166Y-92260952D01*
X88104166Y-92403809D01*
X88151785Y-92594285D01*
X88199404Y-92689523D01*
X88294642Y-92784761D01*
X88437500Y-92832380D01*
X88675595Y-92832380D01*
X87151785Y-92832380D02*
X87723214Y-92832380D01*
X87437500Y-92832380D02*
X87437500Y-91832380D01*
X87532738Y-91975238D01*
X87627976Y-92070476D01*
X87723214Y-92118095D01*
X118956666Y-118297142D02*
X119004285Y-118344761D01*
X119147142Y-118392380D01*
X119242380Y-118392380D01*
X119385238Y-118344761D01*
X119480476Y-118249523D01*
X119528095Y-118154285D01*
X119575714Y-117963809D01*
X119575714Y-117820952D01*
X119528095Y-117630476D01*
X119480476Y-117535238D01*
X119385238Y-117440000D01*
X119242380Y-117392380D01*
X119147142Y-117392380D01*
X119004285Y-117440000D01*
X118956666Y-117487619D01*
X118480476Y-118392380D02*
X118290000Y-118392380D01*
X118194761Y-118344761D01*
X118147142Y-118297142D01*
X118051904Y-118154285D01*
X118004285Y-117963809D01*
X118004285Y-117582857D01*
X118051904Y-117487619D01*
X118099523Y-117440000D01*
X118194761Y-117392380D01*
X118385238Y-117392380D01*
X118480476Y-117440000D01*
X118528095Y-117487619D01*
X118575714Y-117582857D01*
X118575714Y-117820952D01*
X118528095Y-117916190D01*
X118480476Y-117963809D01*
X118385238Y-118011428D01*
X118194761Y-118011428D01*
X118099523Y-117963809D01*
X118051904Y-117916190D01*
X118004285Y-117820952D01*
X110472857Y-118377142D02*
X110520476Y-118424761D01*
X110663333Y-118472380D01*
X110758571Y-118472380D01*
X110901428Y-118424761D01*
X110996666Y-118329523D01*
X111044285Y-118234285D01*
X111091904Y-118043809D01*
X111091904Y-117900952D01*
X111044285Y-117710476D01*
X110996666Y-117615238D01*
X110901428Y-117520000D01*
X110758571Y-117472380D01*
X110663333Y-117472380D01*
X110520476Y-117520000D01*
X110472857Y-117567619D01*
X109520476Y-118472380D02*
X110091904Y-118472380D01*
X109806190Y-118472380D02*
X109806190Y-117472380D01*
X109901428Y-117615238D01*
X109996666Y-117710476D01*
X110091904Y-117758095D01*
X108901428Y-117472380D02*
X108806190Y-117472380D01*
X108710952Y-117520000D01*
X108663333Y-117567619D01*
X108615714Y-117662857D01*
X108568095Y-117853333D01*
X108568095Y-118091428D01*
X108615714Y-118281904D01*
X108663333Y-118377142D01*
X108710952Y-118424761D01*
X108806190Y-118472380D01*
X108901428Y-118472380D01*
X108996666Y-118424761D01*
X109044285Y-118377142D01*
X109091904Y-118281904D01*
X109139523Y-118091428D01*
X109139523Y-117853333D01*
X109091904Y-117662857D01*
X109044285Y-117567619D01*
X108996666Y-117520000D01*
X108901428Y-117472380D01*
X101112857Y-118447142D02*
X101160476Y-118494761D01*
X101303333Y-118542380D01*
X101398571Y-118542380D01*
X101541428Y-118494761D01*
X101636666Y-118399523D01*
X101684285Y-118304285D01*
X101731904Y-118113809D01*
X101731904Y-117970952D01*
X101684285Y-117780476D01*
X101636666Y-117685238D01*
X101541428Y-117590000D01*
X101398571Y-117542380D01*
X101303333Y-117542380D01*
X101160476Y-117590000D01*
X101112857Y-117637619D01*
X100160476Y-118542380D02*
X100731904Y-118542380D01*
X100446190Y-118542380D02*
X100446190Y-117542380D01*
X100541428Y-117685238D01*
X100636666Y-117780476D01*
X100731904Y-117828095D01*
X99208095Y-118542380D02*
X99779523Y-118542380D01*
X99493809Y-118542380D02*
X99493809Y-117542380D01*
X99589047Y-117685238D01*
X99684285Y-117780476D01*
X99779523Y-117828095D01*
X91522857Y-118467142D02*
X91570476Y-118514761D01*
X91713333Y-118562380D01*
X91808571Y-118562380D01*
X91951428Y-118514761D01*
X92046666Y-118419523D01*
X92094285Y-118324285D01*
X92141904Y-118133809D01*
X92141904Y-117990952D01*
X92094285Y-117800476D01*
X92046666Y-117705238D01*
X91951428Y-117610000D01*
X91808571Y-117562380D01*
X91713333Y-117562380D01*
X91570476Y-117610000D01*
X91522857Y-117657619D01*
X90570476Y-118562380D02*
X91141904Y-118562380D01*
X90856190Y-118562380D02*
X90856190Y-117562380D01*
X90951428Y-117705238D01*
X91046666Y-117800476D01*
X91141904Y-117848095D01*
X90189523Y-117657619D02*
X90141904Y-117610000D01*
X90046666Y-117562380D01*
X89808571Y-117562380D01*
X89713333Y-117610000D01*
X89665714Y-117657619D01*
X89618095Y-117752857D01*
X89618095Y-117848095D01*
X89665714Y-117990952D01*
X90237142Y-118562380D01*
X89618095Y-118562380D01*
X80102857Y-125637142D02*
X80150476Y-125684761D01*
X80293333Y-125732380D01*
X80388571Y-125732380D01*
X80531428Y-125684761D01*
X80626666Y-125589523D01*
X80674285Y-125494285D01*
X80721904Y-125303809D01*
X80721904Y-125160952D01*
X80674285Y-124970476D01*
X80626666Y-124875238D01*
X80531428Y-124780000D01*
X80388571Y-124732380D01*
X80293333Y-124732380D01*
X80150476Y-124780000D01*
X80102857Y-124827619D01*
X79150476Y-125732380D02*
X79721904Y-125732380D01*
X79436190Y-125732380D02*
X79436190Y-124732380D01*
X79531428Y-124875238D01*
X79626666Y-124970476D01*
X79721904Y-125018095D01*
X78817142Y-124732380D02*
X78198095Y-124732380D01*
X78531428Y-125113333D01*
X78388571Y-125113333D01*
X78293333Y-125160952D01*
X78245714Y-125208571D01*
X78198095Y-125303809D01*
X78198095Y-125541904D01*
X78245714Y-125637142D01*
X78293333Y-125684761D01*
X78388571Y-125732380D01*
X78674285Y-125732380D01*
X78769523Y-125684761D01*
X78817142Y-125637142D01*
M02*
