G04 #@! TF.GenerationSoftware,KiCad,Pcbnew,5.1.5+dfsg1-2build2*
G04 #@! TF.CreationDate,2023-05-06T09:23:40+02:00*
G04 #@! TF.ProjectId,digital,64696769-7461-46c2-9e6b-696361645f70,rev?*
G04 #@! TF.SameCoordinates,Original*
G04 #@! TF.FileFunction,Copper,L1,Top*
G04 #@! TF.FilePolarity,Positive*
%FSLAX46Y46*%
G04 Gerber Fmt 4.6, Leading zero omitted, Abs format (unit mm)*
G04 Created by KiCad (PCBNEW 5.1.5+dfsg1-2build2) date 2023-05-06 09:23:40*
%MOMM*%
%LPD*%
G04 APERTURE LIST*
%ADD10C,0.100000*%
%ADD11O,3.600000X1.800000*%
%ADD12O,2.000000X1.200000*%
%ADD13R,1.700000X1.700000*%
%ADD14O,1.700000X1.700000*%
%ADD15O,1.800000X3.600000*%
%ADD16C,0.800000*%
%ADD17C,1.000000*%
%ADD18C,1.200000*%
%ADD19C,0.400000*%
%ADD20C,0.600000*%
%ADD21C,0.800000*%
%ADD22C,0.250000*%
%ADD23C,0.254000*%
G04 APERTURE END LIST*
G04 #@! TA.AperFunction,ComponentPad*
D10*
G36*
X121786004Y-87404704D02*
G01*
X121810273Y-87408304D01*
X121834071Y-87414265D01*
X121857171Y-87422530D01*
X121879349Y-87433020D01*
X121900393Y-87445633D01*
X121920098Y-87460247D01*
X121938277Y-87476723D01*
X121954753Y-87494902D01*
X121969367Y-87514607D01*
X121981980Y-87535651D01*
X121992470Y-87557829D01*
X122000735Y-87580929D01*
X122006696Y-87604727D01*
X122010296Y-87628996D01*
X122011500Y-87653500D01*
X122011500Y-88953500D01*
X122010296Y-88978004D01*
X122006696Y-89002273D01*
X122000735Y-89026071D01*
X121992470Y-89049171D01*
X121981980Y-89071349D01*
X121969367Y-89092393D01*
X121954753Y-89112098D01*
X121938277Y-89130277D01*
X121920098Y-89146753D01*
X121900393Y-89161367D01*
X121879349Y-89173980D01*
X121857171Y-89184470D01*
X121834071Y-89192735D01*
X121810273Y-89198696D01*
X121786004Y-89202296D01*
X121761500Y-89203500D01*
X118661500Y-89203500D01*
X118636996Y-89202296D01*
X118612727Y-89198696D01*
X118588929Y-89192735D01*
X118565829Y-89184470D01*
X118543651Y-89173980D01*
X118522607Y-89161367D01*
X118502902Y-89146753D01*
X118484723Y-89130277D01*
X118468247Y-89112098D01*
X118453633Y-89092393D01*
X118441020Y-89071349D01*
X118430530Y-89049171D01*
X118422265Y-89026071D01*
X118416304Y-89002273D01*
X118412704Y-88978004D01*
X118411500Y-88953500D01*
X118411500Y-87653500D01*
X118412704Y-87628996D01*
X118416304Y-87604727D01*
X118422265Y-87580929D01*
X118430530Y-87557829D01*
X118441020Y-87535651D01*
X118453633Y-87514607D01*
X118468247Y-87494902D01*
X118484723Y-87476723D01*
X118502902Y-87460247D01*
X118522607Y-87445633D01*
X118543651Y-87433020D01*
X118565829Y-87422530D01*
X118588929Y-87414265D01*
X118612727Y-87408304D01*
X118636996Y-87404704D01*
X118661500Y-87403500D01*
X121761500Y-87403500D01*
X121786004Y-87404704D01*
G37*
G04 #@! TD.AperFunction*
D11*
X120211500Y-84803500D03*
X120211500Y-81303500D03*
X120211500Y-77803500D03*
X120211500Y-74303500D03*
X120211500Y-70803500D03*
X120211500Y-67303500D03*
X120211500Y-63803500D03*
X120211500Y-60303500D03*
X120211500Y-56803500D03*
D12*
X136627740Y-84163100D03*
X136627740Y-86703100D03*
X136627740Y-89243100D03*
X136627740Y-91783100D03*
X136627740Y-94323100D03*
X136627740Y-96863100D03*
X136627740Y-99403100D03*
X136627740Y-101943100D03*
X136627740Y-104483100D03*
X136627740Y-107023100D03*
X136627740Y-109563100D03*
X136627740Y-112103100D03*
X136627740Y-114643100D03*
G04 #@! TA.AperFunction,ComponentPad*
D10*
G36*
X137357145Y-116584545D02*
G01*
X137386267Y-116588864D01*
X137414825Y-116596018D01*
X137442545Y-116605936D01*
X137469159Y-116618524D01*
X137494411Y-116633659D01*
X137518058Y-116651197D01*
X137539872Y-116670968D01*
X137559643Y-116692782D01*
X137577181Y-116716429D01*
X137592316Y-116741681D01*
X137604904Y-116768295D01*
X137614822Y-116796015D01*
X137621976Y-116824573D01*
X137626295Y-116853695D01*
X137627740Y-116883100D01*
X137627740Y-117483100D01*
X137626295Y-117512505D01*
X137621976Y-117541627D01*
X137614822Y-117570185D01*
X137604904Y-117597905D01*
X137592316Y-117624519D01*
X137577181Y-117649771D01*
X137559643Y-117673418D01*
X137539872Y-117695232D01*
X137518058Y-117715003D01*
X137494411Y-117732541D01*
X137469159Y-117747676D01*
X137442545Y-117760264D01*
X137414825Y-117770182D01*
X137386267Y-117777336D01*
X137357145Y-117781655D01*
X137327740Y-117783100D01*
X135927740Y-117783100D01*
X135898335Y-117781655D01*
X135869213Y-117777336D01*
X135840655Y-117770182D01*
X135812935Y-117760264D01*
X135786321Y-117747676D01*
X135761069Y-117732541D01*
X135737422Y-117715003D01*
X135715608Y-117695232D01*
X135695837Y-117673418D01*
X135678299Y-117649771D01*
X135663164Y-117624519D01*
X135650576Y-117597905D01*
X135640658Y-117570185D01*
X135633504Y-117541627D01*
X135629185Y-117512505D01*
X135627740Y-117483100D01*
X135627740Y-116883100D01*
X135629185Y-116853695D01*
X135633504Y-116824573D01*
X135640658Y-116796015D01*
X135650576Y-116768295D01*
X135663164Y-116741681D01*
X135678299Y-116716429D01*
X135695837Y-116692782D01*
X135715608Y-116670968D01*
X135737422Y-116651197D01*
X135761069Y-116633659D01*
X135786321Y-116618524D01*
X135812935Y-116605936D01*
X135840655Y-116596018D01*
X135869213Y-116588864D01*
X135898335Y-116584545D01*
X135927740Y-116583100D01*
X137327740Y-116583100D01*
X137357145Y-116584545D01*
G37*
G04 #@! TD.AperFunction*
D12*
X136627740Y-119723100D03*
X136627740Y-122263100D03*
X136627740Y-124803100D03*
X136627740Y-127343100D03*
X136627740Y-129883100D03*
X162024060Y-129880380D03*
X162024060Y-127340380D03*
X162027740Y-124803100D03*
X162027740Y-122263100D03*
X162027740Y-119723100D03*
X162027740Y-117183100D03*
X162027740Y-114643100D03*
X162027740Y-112103100D03*
X162027740Y-109563100D03*
X162027740Y-107023100D03*
X162027740Y-104483100D03*
X162027740Y-101943100D03*
X162027740Y-99403100D03*
X162027740Y-96863100D03*
X162027740Y-94323100D03*
X162027740Y-91783100D03*
X162027740Y-89243100D03*
X162027740Y-86703100D03*
G04 #@! TA.AperFunction,ComponentPad*
D10*
G36*
X162757145Y-83564545D02*
G01*
X162786267Y-83568864D01*
X162814825Y-83576018D01*
X162842545Y-83585936D01*
X162869159Y-83598524D01*
X162894411Y-83613659D01*
X162918058Y-83631197D01*
X162939872Y-83650968D01*
X162959643Y-83672782D01*
X162977181Y-83696429D01*
X162992316Y-83721681D01*
X163004904Y-83748295D01*
X163014822Y-83776015D01*
X163021976Y-83804573D01*
X163026295Y-83833695D01*
X163027740Y-83863100D01*
X163027740Y-84463100D01*
X163026295Y-84492505D01*
X163021976Y-84521627D01*
X163014822Y-84550185D01*
X163004904Y-84577905D01*
X162992316Y-84604519D01*
X162977181Y-84629771D01*
X162959643Y-84653418D01*
X162939872Y-84675232D01*
X162918058Y-84695003D01*
X162894411Y-84712541D01*
X162869159Y-84727676D01*
X162842545Y-84740264D01*
X162814825Y-84750182D01*
X162786267Y-84757336D01*
X162757145Y-84761655D01*
X162727740Y-84763100D01*
X161327740Y-84763100D01*
X161298335Y-84761655D01*
X161269213Y-84757336D01*
X161240655Y-84750182D01*
X161212935Y-84740264D01*
X161186321Y-84727676D01*
X161161069Y-84712541D01*
X161137422Y-84695003D01*
X161115608Y-84675232D01*
X161095837Y-84653418D01*
X161078299Y-84629771D01*
X161063164Y-84604519D01*
X161050576Y-84577905D01*
X161040658Y-84550185D01*
X161033504Y-84521627D01*
X161029185Y-84492505D01*
X161027740Y-84463100D01*
X161027740Y-83863100D01*
X161029185Y-83833695D01*
X161033504Y-83804573D01*
X161040658Y-83776015D01*
X161050576Y-83748295D01*
X161063164Y-83721681D01*
X161078299Y-83696429D01*
X161095837Y-83672782D01*
X161115608Y-83650968D01*
X161137422Y-83631197D01*
X161161069Y-83613659D01*
X161186321Y-83598524D01*
X161212935Y-83585936D01*
X161240655Y-83576018D01*
X161269213Y-83568864D01*
X161298335Y-83564545D01*
X161327740Y-83563100D01*
X162727740Y-83563100D01*
X162757145Y-83564545D01*
G37*
G04 #@! TD.AperFunction*
D13*
X169021760Y-55631080D03*
D14*
X171561760Y-55631080D03*
X169021760Y-58171080D03*
X171561760Y-58171080D03*
X169021760Y-60711080D03*
X171561760Y-60711080D03*
X169021760Y-63251080D03*
X171561760Y-63251080D03*
X169021760Y-65791080D03*
X171561760Y-65791080D03*
X169021760Y-68331080D03*
X171561760Y-68331080D03*
X169021760Y-70871080D03*
X171561760Y-70871080D03*
X169021760Y-73411080D03*
X171561760Y-73411080D03*
X169021760Y-75951080D03*
X171561760Y-75951080D03*
X169021760Y-78491080D03*
X171561760Y-78491080D03*
X169021760Y-81031080D03*
X171561760Y-81031080D03*
X169021760Y-83571080D03*
X171561760Y-83571080D03*
X169021760Y-86111080D03*
X171561760Y-86111080D03*
X169021760Y-88651080D03*
X171561760Y-88651080D03*
X169021760Y-91191080D03*
X171561760Y-91191080D03*
X169021760Y-93731080D03*
X171561760Y-93731080D03*
X169021760Y-96271080D03*
X171561760Y-96271080D03*
X169021760Y-98811080D03*
X171561760Y-98811080D03*
X169021760Y-101351080D03*
X171561760Y-101351080D03*
X169021760Y-103891080D03*
X171561760Y-103891080D03*
D11*
X120211500Y-94828500D03*
X120211500Y-98328500D03*
X120211500Y-101828500D03*
X120211500Y-105328500D03*
X120211500Y-108828500D03*
X120211500Y-112328500D03*
X120211500Y-115828500D03*
X120211500Y-119328500D03*
X120211500Y-122828500D03*
G04 #@! TA.AperFunction,ComponentPad*
D10*
G36*
X121786004Y-125429704D02*
G01*
X121810273Y-125433304D01*
X121834071Y-125439265D01*
X121857171Y-125447530D01*
X121879349Y-125458020D01*
X121900393Y-125470633D01*
X121920098Y-125485247D01*
X121938277Y-125501723D01*
X121954753Y-125519902D01*
X121969367Y-125539607D01*
X121981980Y-125560651D01*
X121992470Y-125582829D01*
X122000735Y-125605929D01*
X122006696Y-125629727D01*
X122010296Y-125653996D01*
X122011500Y-125678500D01*
X122011500Y-126978500D01*
X122010296Y-127003004D01*
X122006696Y-127027273D01*
X122000735Y-127051071D01*
X121992470Y-127074171D01*
X121981980Y-127096349D01*
X121969367Y-127117393D01*
X121954753Y-127137098D01*
X121938277Y-127155277D01*
X121920098Y-127171753D01*
X121900393Y-127186367D01*
X121879349Y-127198980D01*
X121857171Y-127209470D01*
X121834071Y-127217735D01*
X121810273Y-127223696D01*
X121786004Y-127227296D01*
X121761500Y-127228500D01*
X118661500Y-127228500D01*
X118636996Y-127227296D01*
X118612727Y-127223696D01*
X118588929Y-127217735D01*
X118565829Y-127209470D01*
X118543651Y-127198980D01*
X118522607Y-127186367D01*
X118502902Y-127171753D01*
X118484723Y-127155277D01*
X118468247Y-127137098D01*
X118453633Y-127117393D01*
X118441020Y-127096349D01*
X118430530Y-127074171D01*
X118422265Y-127051071D01*
X118416304Y-127027273D01*
X118412704Y-127003004D01*
X118411500Y-126978500D01*
X118411500Y-125678500D01*
X118412704Y-125653996D01*
X118416304Y-125629727D01*
X118422265Y-125605929D01*
X118430530Y-125582829D01*
X118441020Y-125560651D01*
X118453633Y-125539607D01*
X118468247Y-125519902D01*
X118484723Y-125501723D01*
X118502902Y-125485247D01*
X118522607Y-125470633D01*
X118543651Y-125458020D01*
X118565829Y-125447530D01*
X118588929Y-125439265D01*
X118612727Y-125433304D01*
X118636996Y-125429704D01*
X118661500Y-125428500D01*
X121761500Y-125428500D01*
X121786004Y-125429704D01*
G37*
G04 #@! TD.AperFunction*
G04 #@! TA.AperFunction,ComponentPad*
G36*
X131240664Y-127835184D02*
G01*
X131264933Y-127838784D01*
X131288731Y-127844745D01*
X131311831Y-127853010D01*
X131334009Y-127863500D01*
X131355053Y-127876113D01*
X131374758Y-127890727D01*
X131392937Y-127907203D01*
X131409413Y-127925382D01*
X131424027Y-127945087D01*
X131436640Y-127966131D01*
X131447130Y-127988309D01*
X131455395Y-128011409D01*
X131461356Y-128035207D01*
X131464956Y-128059476D01*
X131466160Y-128083980D01*
X131466160Y-131183980D01*
X131464956Y-131208484D01*
X131461356Y-131232753D01*
X131455395Y-131256551D01*
X131447130Y-131279651D01*
X131436640Y-131301829D01*
X131424027Y-131322873D01*
X131409413Y-131342578D01*
X131392937Y-131360757D01*
X131374758Y-131377233D01*
X131355053Y-131391847D01*
X131334009Y-131404460D01*
X131311831Y-131414950D01*
X131288731Y-131423215D01*
X131264933Y-131429176D01*
X131240664Y-131432776D01*
X131216160Y-131433980D01*
X129916160Y-131433980D01*
X129891656Y-131432776D01*
X129867387Y-131429176D01*
X129843589Y-131423215D01*
X129820489Y-131414950D01*
X129798311Y-131404460D01*
X129777267Y-131391847D01*
X129757562Y-131377233D01*
X129739383Y-131360757D01*
X129722907Y-131342578D01*
X129708293Y-131322873D01*
X129695680Y-131301829D01*
X129685190Y-131279651D01*
X129676925Y-131256551D01*
X129670964Y-131232753D01*
X129667364Y-131208484D01*
X129666160Y-131183980D01*
X129666160Y-128083980D01*
X129667364Y-128059476D01*
X129670964Y-128035207D01*
X129676925Y-128011409D01*
X129685190Y-127988309D01*
X129695680Y-127966131D01*
X129708293Y-127945087D01*
X129722907Y-127925382D01*
X129739383Y-127907203D01*
X129757562Y-127890727D01*
X129777267Y-127876113D01*
X129798311Y-127863500D01*
X129820489Y-127853010D01*
X129843589Y-127844745D01*
X129867387Y-127838784D01*
X129891656Y-127835184D01*
X129916160Y-127833980D01*
X131216160Y-127833980D01*
X131240664Y-127835184D01*
G37*
G04 #@! TD.AperFunction*
D15*
X127066160Y-129633980D03*
G04 #@! TA.AperFunction,SMDPad,CuDef*
D10*
G36*
X126316004Y-123394704D02*
G01*
X126340273Y-123398304D01*
X126364071Y-123404265D01*
X126387171Y-123412530D01*
X126409349Y-123423020D01*
X126430393Y-123435633D01*
X126450098Y-123450247D01*
X126468277Y-123466723D01*
X126484753Y-123484902D01*
X126499367Y-123504607D01*
X126511980Y-123525651D01*
X126522470Y-123547829D01*
X126530735Y-123570929D01*
X126536696Y-123594727D01*
X126540296Y-123618996D01*
X126541500Y-123643500D01*
X126541500Y-124568500D01*
X126540296Y-124593004D01*
X126536696Y-124617273D01*
X126530735Y-124641071D01*
X126522470Y-124664171D01*
X126511980Y-124686349D01*
X126499367Y-124707393D01*
X126484753Y-124727098D01*
X126468277Y-124745277D01*
X126450098Y-124761753D01*
X126430393Y-124776367D01*
X126409349Y-124788980D01*
X126387171Y-124799470D01*
X126364071Y-124807735D01*
X126340273Y-124813696D01*
X126316004Y-124817296D01*
X126291500Y-124818500D01*
X125041500Y-124818500D01*
X125016996Y-124817296D01*
X124992727Y-124813696D01*
X124968929Y-124807735D01*
X124945829Y-124799470D01*
X124923651Y-124788980D01*
X124902607Y-124776367D01*
X124882902Y-124761753D01*
X124864723Y-124745277D01*
X124848247Y-124727098D01*
X124833633Y-124707393D01*
X124821020Y-124686349D01*
X124810530Y-124664171D01*
X124802265Y-124641071D01*
X124796304Y-124617273D01*
X124792704Y-124593004D01*
X124791500Y-124568500D01*
X124791500Y-123643500D01*
X124792704Y-123618996D01*
X124796304Y-123594727D01*
X124802265Y-123570929D01*
X124810530Y-123547829D01*
X124821020Y-123525651D01*
X124833633Y-123504607D01*
X124848247Y-123484902D01*
X124864723Y-123466723D01*
X124882902Y-123450247D01*
X124902607Y-123435633D01*
X124923651Y-123423020D01*
X124945829Y-123412530D01*
X124968929Y-123404265D01*
X124992727Y-123398304D01*
X125016996Y-123394704D01*
X125041500Y-123393500D01*
X126291500Y-123393500D01*
X126316004Y-123394704D01*
G37*
G04 #@! TD.AperFunction*
G04 #@! TA.AperFunction,SMDPad,CuDef*
G36*
X126316004Y-120419704D02*
G01*
X126340273Y-120423304D01*
X126364071Y-120429265D01*
X126387171Y-120437530D01*
X126409349Y-120448020D01*
X126430393Y-120460633D01*
X126450098Y-120475247D01*
X126468277Y-120491723D01*
X126484753Y-120509902D01*
X126499367Y-120529607D01*
X126511980Y-120550651D01*
X126522470Y-120572829D01*
X126530735Y-120595929D01*
X126536696Y-120619727D01*
X126540296Y-120643996D01*
X126541500Y-120668500D01*
X126541500Y-121593500D01*
X126540296Y-121618004D01*
X126536696Y-121642273D01*
X126530735Y-121666071D01*
X126522470Y-121689171D01*
X126511980Y-121711349D01*
X126499367Y-121732393D01*
X126484753Y-121752098D01*
X126468277Y-121770277D01*
X126450098Y-121786753D01*
X126430393Y-121801367D01*
X126409349Y-121813980D01*
X126387171Y-121824470D01*
X126364071Y-121832735D01*
X126340273Y-121838696D01*
X126316004Y-121842296D01*
X126291500Y-121843500D01*
X125041500Y-121843500D01*
X125016996Y-121842296D01*
X124992727Y-121838696D01*
X124968929Y-121832735D01*
X124945829Y-121824470D01*
X124923651Y-121813980D01*
X124902607Y-121801367D01*
X124882902Y-121786753D01*
X124864723Y-121770277D01*
X124848247Y-121752098D01*
X124833633Y-121732393D01*
X124821020Y-121711349D01*
X124810530Y-121689171D01*
X124802265Y-121666071D01*
X124796304Y-121642273D01*
X124792704Y-121618004D01*
X124791500Y-121593500D01*
X124791500Y-120668500D01*
X124792704Y-120643996D01*
X124796304Y-120619727D01*
X124802265Y-120595929D01*
X124810530Y-120572829D01*
X124821020Y-120550651D01*
X124833633Y-120529607D01*
X124848247Y-120509902D01*
X124864723Y-120491723D01*
X124882902Y-120475247D01*
X124902607Y-120460633D01*
X124923651Y-120448020D01*
X124945829Y-120437530D01*
X124968929Y-120429265D01*
X124992727Y-120423304D01*
X125016996Y-120419704D01*
X125041500Y-120418500D01*
X126291500Y-120418500D01*
X126316004Y-120419704D01*
G37*
G04 #@! TD.AperFunction*
G04 #@! TA.AperFunction,SMDPad,CuDef*
G36*
X129425004Y-120998704D02*
G01*
X129449273Y-121002304D01*
X129473071Y-121008265D01*
X129496171Y-121016530D01*
X129518349Y-121027020D01*
X129539393Y-121039633D01*
X129559098Y-121054247D01*
X129577277Y-121070723D01*
X129593753Y-121088902D01*
X129608367Y-121108607D01*
X129620980Y-121129651D01*
X129631470Y-121151829D01*
X129639735Y-121174929D01*
X129645696Y-121198727D01*
X129649296Y-121222996D01*
X129650500Y-121247500D01*
X129650500Y-124497500D01*
X129649296Y-124522004D01*
X129645696Y-124546273D01*
X129639735Y-124570071D01*
X129631470Y-124593171D01*
X129620980Y-124615349D01*
X129608367Y-124636393D01*
X129593753Y-124656098D01*
X129577277Y-124674277D01*
X129559098Y-124690753D01*
X129539393Y-124705367D01*
X129518349Y-124717980D01*
X129496171Y-124728470D01*
X129473071Y-124736735D01*
X129449273Y-124742696D01*
X129425004Y-124746296D01*
X129400500Y-124747500D01*
X128225500Y-124747500D01*
X128200996Y-124746296D01*
X128176727Y-124742696D01*
X128152929Y-124736735D01*
X128129829Y-124728470D01*
X128107651Y-124717980D01*
X128086607Y-124705367D01*
X128066902Y-124690753D01*
X128048723Y-124674277D01*
X128032247Y-124656098D01*
X128017633Y-124636393D01*
X128005020Y-124615349D01*
X127994530Y-124593171D01*
X127986265Y-124570071D01*
X127980304Y-124546273D01*
X127976704Y-124522004D01*
X127975500Y-124497500D01*
X127975500Y-121247500D01*
X127976704Y-121222996D01*
X127980304Y-121198727D01*
X127986265Y-121174929D01*
X127994530Y-121151829D01*
X128005020Y-121129651D01*
X128017633Y-121108607D01*
X128032247Y-121088902D01*
X128048723Y-121070723D01*
X128066902Y-121054247D01*
X128086607Y-121039633D01*
X128107651Y-121027020D01*
X128129829Y-121016530D01*
X128152929Y-121008265D01*
X128176727Y-121002304D01*
X128200996Y-120998704D01*
X128225500Y-120997500D01*
X129400500Y-120997500D01*
X129425004Y-120998704D01*
G37*
G04 #@! TD.AperFunction*
G04 #@! TA.AperFunction,SMDPad,CuDef*
G36*
X133800004Y-120998704D02*
G01*
X133824273Y-121002304D01*
X133848071Y-121008265D01*
X133871171Y-121016530D01*
X133893349Y-121027020D01*
X133914393Y-121039633D01*
X133934098Y-121054247D01*
X133952277Y-121070723D01*
X133968753Y-121088902D01*
X133983367Y-121108607D01*
X133995980Y-121129651D01*
X134006470Y-121151829D01*
X134014735Y-121174929D01*
X134020696Y-121198727D01*
X134024296Y-121222996D01*
X134025500Y-121247500D01*
X134025500Y-124497500D01*
X134024296Y-124522004D01*
X134020696Y-124546273D01*
X134014735Y-124570071D01*
X134006470Y-124593171D01*
X133995980Y-124615349D01*
X133983367Y-124636393D01*
X133968753Y-124656098D01*
X133952277Y-124674277D01*
X133934098Y-124690753D01*
X133914393Y-124705367D01*
X133893349Y-124717980D01*
X133871171Y-124728470D01*
X133848071Y-124736735D01*
X133824273Y-124742696D01*
X133800004Y-124746296D01*
X133775500Y-124747500D01*
X132600500Y-124747500D01*
X132575996Y-124746296D01*
X132551727Y-124742696D01*
X132527929Y-124736735D01*
X132504829Y-124728470D01*
X132482651Y-124717980D01*
X132461607Y-124705367D01*
X132441902Y-124690753D01*
X132423723Y-124674277D01*
X132407247Y-124656098D01*
X132392633Y-124636393D01*
X132380020Y-124615349D01*
X132369530Y-124593171D01*
X132361265Y-124570071D01*
X132355304Y-124546273D01*
X132351704Y-124522004D01*
X132350500Y-124497500D01*
X132350500Y-121247500D01*
X132351704Y-121222996D01*
X132355304Y-121198727D01*
X132361265Y-121174929D01*
X132369530Y-121151829D01*
X132380020Y-121129651D01*
X132392633Y-121108607D01*
X132407247Y-121088902D01*
X132423723Y-121070723D01*
X132441902Y-121054247D01*
X132461607Y-121039633D01*
X132482651Y-121027020D01*
X132504829Y-121016530D01*
X132527929Y-121008265D01*
X132551727Y-121002304D01*
X132575996Y-120998704D01*
X132600500Y-120997500D01*
X133775500Y-120997500D01*
X133800004Y-120998704D01*
G37*
G04 #@! TD.AperFunction*
G04 #@! TA.AperFunction,SMDPad,CuDef*
G36*
X167111500Y-108928500D02*
G01*
X167111500Y-109428500D01*
X167110898Y-109428500D01*
X167110898Y-109453034D01*
X167106088Y-109501865D01*
X167096516Y-109549990D01*
X167082272Y-109596945D01*
X167063495Y-109642278D01*
X167040364Y-109685551D01*
X167013104Y-109726350D01*
X166981976Y-109764279D01*
X166947279Y-109798976D01*
X166909350Y-109830104D01*
X166868551Y-109857364D01*
X166825278Y-109880495D01*
X166779945Y-109899272D01*
X166732990Y-109913516D01*
X166684865Y-109923088D01*
X166636034Y-109927898D01*
X166611500Y-109927898D01*
X166611500Y-109928500D01*
X166111500Y-109928500D01*
X166111500Y-109927898D01*
X166086966Y-109927898D01*
X166038135Y-109923088D01*
X165990010Y-109913516D01*
X165943055Y-109899272D01*
X165897722Y-109880495D01*
X165854449Y-109857364D01*
X165813650Y-109830104D01*
X165775721Y-109798976D01*
X165741024Y-109764279D01*
X165709896Y-109726350D01*
X165682636Y-109685551D01*
X165659505Y-109642278D01*
X165640728Y-109596945D01*
X165626484Y-109549990D01*
X165616912Y-109501865D01*
X165612102Y-109453034D01*
X165612102Y-109428500D01*
X165611500Y-109428500D01*
X165611500Y-108928500D01*
X167111500Y-108928500D01*
G37*
G04 #@! TD.AperFunction*
G04 #@! TA.AperFunction,SMDPad,CuDef*
G36*
X165612102Y-108128500D02*
G01*
X165612102Y-108103966D01*
X165616912Y-108055135D01*
X165626484Y-108007010D01*
X165640728Y-107960055D01*
X165659505Y-107914722D01*
X165682636Y-107871449D01*
X165709896Y-107830650D01*
X165741024Y-107792721D01*
X165775721Y-107758024D01*
X165813650Y-107726896D01*
X165854449Y-107699636D01*
X165897722Y-107676505D01*
X165943055Y-107657728D01*
X165990010Y-107643484D01*
X166038135Y-107633912D01*
X166086966Y-107629102D01*
X166111500Y-107629102D01*
X166111500Y-107628500D01*
X166611500Y-107628500D01*
X166611500Y-107629102D01*
X166636034Y-107629102D01*
X166684865Y-107633912D01*
X166732990Y-107643484D01*
X166779945Y-107657728D01*
X166825278Y-107676505D01*
X166868551Y-107699636D01*
X166909350Y-107726896D01*
X166947279Y-107758024D01*
X166981976Y-107792721D01*
X167013104Y-107830650D01*
X167040364Y-107871449D01*
X167063495Y-107914722D01*
X167082272Y-107960055D01*
X167096516Y-108007010D01*
X167106088Y-108055135D01*
X167110898Y-108103966D01*
X167110898Y-108128500D01*
X167111500Y-108128500D01*
X167111500Y-108628500D01*
X165611500Y-108628500D01*
X165611500Y-108128500D01*
X165612102Y-108128500D01*
G37*
G04 #@! TD.AperFunction*
G04 #@! TA.AperFunction,SMDPad,CuDef*
G36*
X165612102Y-112428500D02*
G01*
X165612102Y-112403966D01*
X165616912Y-112355135D01*
X165626484Y-112307010D01*
X165640728Y-112260055D01*
X165659505Y-112214722D01*
X165682636Y-112171449D01*
X165709896Y-112130650D01*
X165741024Y-112092721D01*
X165775721Y-112058024D01*
X165813650Y-112026896D01*
X165854449Y-111999636D01*
X165897722Y-111976505D01*
X165943055Y-111957728D01*
X165990010Y-111943484D01*
X166038135Y-111933912D01*
X166086966Y-111929102D01*
X166111500Y-111929102D01*
X166111500Y-111928500D01*
X166611500Y-111928500D01*
X166611500Y-111929102D01*
X166636034Y-111929102D01*
X166684865Y-111933912D01*
X166732990Y-111943484D01*
X166779945Y-111957728D01*
X166825278Y-111976505D01*
X166868551Y-111999636D01*
X166909350Y-112026896D01*
X166947279Y-112058024D01*
X166981976Y-112092721D01*
X167013104Y-112130650D01*
X167040364Y-112171449D01*
X167063495Y-112214722D01*
X167082272Y-112260055D01*
X167096516Y-112307010D01*
X167106088Y-112355135D01*
X167110898Y-112403966D01*
X167110898Y-112428500D01*
X167111500Y-112428500D01*
X167111500Y-112928500D01*
X165611500Y-112928500D01*
X165611500Y-112428500D01*
X165612102Y-112428500D01*
G37*
G04 #@! TD.AperFunction*
G04 #@! TA.AperFunction,SMDPad,CuDef*
G36*
X167111500Y-113228500D02*
G01*
X167111500Y-113728500D01*
X167110898Y-113728500D01*
X167110898Y-113753034D01*
X167106088Y-113801865D01*
X167096516Y-113849990D01*
X167082272Y-113896945D01*
X167063495Y-113942278D01*
X167040364Y-113985551D01*
X167013104Y-114026350D01*
X166981976Y-114064279D01*
X166947279Y-114098976D01*
X166909350Y-114130104D01*
X166868551Y-114157364D01*
X166825278Y-114180495D01*
X166779945Y-114199272D01*
X166732990Y-114213516D01*
X166684865Y-114223088D01*
X166636034Y-114227898D01*
X166611500Y-114227898D01*
X166611500Y-114228500D01*
X166111500Y-114228500D01*
X166111500Y-114227898D01*
X166086966Y-114227898D01*
X166038135Y-114223088D01*
X165990010Y-114213516D01*
X165943055Y-114199272D01*
X165897722Y-114180495D01*
X165854449Y-114157364D01*
X165813650Y-114130104D01*
X165775721Y-114098976D01*
X165741024Y-114064279D01*
X165709896Y-114026350D01*
X165682636Y-113985551D01*
X165659505Y-113942278D01*
X165640728Y-113896945D01*
X165626484Y-113849990D01*
X165616912Y-113801865D01*
X165612102Y-113753034D01*
X165612102Y-113728500D01*
X165611500Y-113728500D01*
X165611500Y-113228500D01*
X167111500Y-113228500D01*
G37*
G04 #@! TD.AperFunction*
D16*
X171767500Y-126555500D03*
X145986500Y-86296500D03*
X134302500Y-74104500D03*
X146494500Y-111887000D03*
X146558000Y-115062000D03*
X146557998Y-118999000D03*
X137223500Y-62992000D03*
X133286500Y-66421000D03*
X137160000Y-56388000D03*
X133921500Y-60134500D03*
X145796000Y-52197000D03*
X147256500Y-53657500D03*
X145796000Y-63309500D03*
X153098500Y-63436500D03*
X155194000Y-52197000D03*
X153606500Y-50673000D03*
D17*
X134627740Y-129883100D02*
X136627740Y-129883100D01*
X133286500Y-128541860D02*
X134627740Y-129883100D01*
X133286500Y-122971000D02*
X133286500Y-128541860D01*
X133188000Y-122872500D02*
X133286500Y-122971000D01*
D18*
X171561760Y-58171080D02*
X171561760Y-55631080D01*
X145833900Y-129883100D02*
X136627740Y-129883100D01*
D19*
X145986500Y-85280500D02*
X149415500Y-81851500D01*
X149415500Y-81851500D02*
X149669500Y-81851500D01*
X145986500Y-86296500D02*
X145986500Y-85280500D01*
D18*
X149669500Y-126047500D02*
X145833900Y-129883100D01*
X157543500Y-53276500D02*
X149669500Y-61150500D01*
X170409261Y-53276500D02*
X157543500Y-53276500D01*
X171561760Y-54428999D02*
X170409261Y-53276500D01*
X171561760Y-55631080D02*
X171561760Y-54428999D01*
D20*
X155130500Y-131254500D02*
X149796500Y-125920500D01*
X149796500Y-125920500D02*
X145833900Y-129883100D01*
X168084500Y-131254500D02*
X155130500Y-131254500D01*
X171767500Y-127571500D02*
X168084500Y-131254500D01*
X171767500Y-126555500D02*
X171767500Y-127571500D01*
D19*
X134302500Y-74104500D02*
X147637500Y-74104500D01*
D18*
X149669500Y-72072500D02*
X149669500Y-81851500D01*
D19*
X147637500Y-74104500D02*
X149669500Y-72072500D01*
D18*
X149669500Y-61150500D02*
X149669500Y-72072500D01*
D19*
X149669500Y-108712000D02*
X146494500Y-111887000D01*
X149669500Y-108331000D02*
X149669500Y-108712000D01*
D18*
X149669500Y-81851500D02*
X149669500Y-108331000D01*
D19*
X149669500Y-111950500D02*
X149669500Y-112014000D01*
D18*
X149669500Y-108331000D02*
X149669500Y-111950500D01*
D19*
X149669500Y-111950500D02*
X146558000Y-115062000D01*
D18*
X149669500Y-111950500D02*
X149669500Y-116205000D01*
X149669500Y-116205000D02*
X149669500Y-126047500D01*
D19*
X149669500Y-116205000D02*
X149351998Y-116205000D01*
X149351998Y-116205000D02*
X146957997Y-118599001D01*
X146957997Y-118599001D02*
X146557998Y-118999000D01*
D17*
X128813000Y-123225000D02*
X128813000Y-122872500D01*
X130238500Y-124650500D02*
X128813000Y-123225000D01*
X130238500Y-129306320D02*
X130238500Y-124650500D01*
X130566160Y-129633980D02*
X130238500Y-129306320D01*
D21*
X127579500Y-124106000D02*
X128813000Y-122872500D01*
X125666500Y-124106000D02*
X127579500Y-124106000D01*
D20*
X160427740Y-96863100D02*
X162027740Y-96863100D01*
X152463500Y-88898860D02*
X160427740Y-96863100D01*
X162681920Y-58171080D02*
X152463500Y-68389500D01*
X152463500Y-68389500D02*
X152463500Y-88898860D01*
X169021760Y-58171080D02*
X162681920Y-58171080D01*
X157823100Y-89243100D02*
X162027740Y-89243100D01*
X155257500Y-86677500D02*
X157823100Y-89243100D01*
X155257500Y-69532500D02*
X155257500Y-86677500D01*
X164078920Y-60711080D02*
X155257500Y-69532500D01*
X169021760Y-60711080D02*
X164078920Y-60711080D01*
X122611500Y-84803500D02*
X120211500Y-84803500D01*
X124142500Y-86334500D02*
X122611500Y-84803500D01*
X124142500Y-93297500D02*
X124142500Y-86334500D01*
X122611500Y-94828500D02*
X124142500Y-93297500D01*
X120211500Y-94828500D02*
X122611500Y-94828500D01*
X136627740Y-76937740D02*
X136627740Y-84163100D01*
X135826500Y-76136500D02*
X136627740Y-76937740D01*
X125031500Y-76136500D02*
X135826500Y-76136500D01*
X124142500Y-77025500D02*
X125031500Y-76136500D01*
X124142500Y-83272500D02*
X124142500Y-77025500D01*
X122611500Y-84803500D02*
X124142500Y-83272500D01*
D22*
X170711761Y-64101079D02*
X171561760Y-63251080D01*
X170296840Y-64516000D02*
X170711761Y-64101079D01*
X167132000Y-64516000D02*
X170296840Y-64516000D01*
X164401500Y-67246500D02*
X167132000Y-64516000D01*
X164401500Y-106168500D02*
X164401500Y-67246500D01*
X166361500Y-108128500D02*
X164401500Y-106168500D01*
X170711761Y-66641079D02*
X171561760Y-65791080D01*
X167513000Y-67056000D02*
X170296840Y-67056000D01*
X166052500Y-104153633D02*
X166052500Y-68516500D01*
X168084500Y-106185633D02*
X166052500Y-104153633D01*
X168084500Y-110680500D02*
X168084500Y-106185633D01*
X166815564Y-111949436D02*
X168084500Y-110680500D01*
X170296840Y-67056000D02*
X170711761Y-66641079D01*
X166052500Y-68516500D02*
X167513000Y-67056000D01*
X166815564Y-111974436D02*
X166815564Y-111949436D01*
X166361500Y-112428500D02*
X166815564Y-111974436D01*
D19*
X166226900Y-109563100D02*
X166361500Y-109428500D01*
X162027740Y-109563100D02*
X166226900Y-109563100D01*
X165053140Y-113728500D02*
X166361500Y-113728500D01*
X163427740Y-112103100D02*
X165053140Y-113728500D01*
X162027740Y-112103100D02*
X163427740Y-112103100D01*
D23*
G36*
X170128141Y-47813363D02*
G01*
X170726152Y-47863447D01*
X171263087Y-48017282D01*
X171759908Y-48272475D01*
X172197701Y-48619308D01*
X172559793Y-49044574D01*
X172832387Y-49532070D01*
X173005098Y-50063223D01*
X173074786Y-50646545D01*
X173075160Y-50681875D01*
X173075161Y-129121091D01*
X173027490Y-129607274D01*
X172895672Y-130043877D01*
X172681559Y-130446566D01*
X172393310Y-130799993D01*
X172041899Y-131090707D01*
X171640724Y-131307620D01*
X171205046Y-131442486D01*
X170720824Y-131493380D01*
X169167909Y-131493380D01*
X172396159Y-128265130D01*
X172431844Y-128235844D01*
X172548686Y-128093472D01*
X172605265Y-127987620D01*
X172635507Y-127931041D01*
X172688972Y-127754792D01*
X172707024Y-127571500D01*
X172702500Y-127525565D01*
X172702500Y-127002795D01*
X172762726Y-126857398D01*
X172802500Y-126657439D01*
X172802500Y-126453561D01*
X172762726Y-126253602D01*
X172684705Y-126065244D01*
X172571437Y-125895726D01*
X172427274Y-125751563D01*
X172257756Y-125638295D01*
X172069398Y-125560274D01*
X171869439Y-125520500D01*
X171665561Y-125520500D01*
X171465602Y-125560274D01*
X171277244Y-125638295D01*
X171107726Y-125751563D01*
X170963563Y-125895726D01*
X170850295Y-126065244D01*
X170772274Y-126253602D01*
X170732500Y-126453561D01*
X170732500Y-126657439D01*
X170772274Y-126857398D01*
X170832500Y-127002796D01*
X170832501Y-127184210D01*
X167697211Y-130319500D01*
X163581425Y-130319500D01*
X163641190Y-130122482D01*
X163665035Y-129880380D01*
X163641190Y-129638278D01*
X163570571Y-129405479D01*
X163455893Y-129190931D01*
X163301562Y-129002878D01*
X163113509Y-128848547D01*
X162898961Y-128733869D01*
X162666162Y-128663250D01*
X162484725Y-128645380D01*
X161563395Y-128645380D01*
X161381958Y-128663250D01*
X161149159Y-128733869D01*
X160934611Y-128848547D01*
X160746558Y-129002878D01*
X160592227Y-129190931D01*
X160477549Y-129405479D01*
X160406930Y-129638278D01*
X160383085Y-129880380D01*
X160406930Y-130122482D01*
X160466695Y-130319500D01*
X155517790Y-130319500D01*
X152538670Y-127340380D01*
X160383085Y-127340380D01*
X160406930Y-127582482D01*
X160477549Y-127815281D01*
X160592227Y-128029829D01*
X160746558Y-128217882D01*
X160934611Y-128372213D01*
X161149159Y-128486891D01*
X161381958Y-128557510D01*
X161563395Y-128575380D01*
X162484725Y-128575380D01*
X162666162Y-128557510D01*
X162898961Y-128486891D01*
X163113509Y-128372213D01*
X163301562Y-128217882D01*
X163455893Y-128029829D01*
X163570571Y-127815281D01*
X163641190Y-127582482D01*
X163665035Y-127340380D01*
X163641190Y-127098278D01*
X163570571Y-126865479D01*
X163455893Y-126650931D01*
X163301562Y-126462878D01*
X163113509Y-126308547D01*
X162898961Y-126193869D01*
X162666162Y-126123250D01*
X162484725Y-126105380D01*
X161563395Y-126105380D01*
X161381958Y-126123250D01*
X161149159Y-126193869D01*
X160934611Y-126308547D01*
X160746558Y-126462878D01*
X160592227Y-126650931D01*
X160477549Y-126865479D01*
X160406930Y-127098278D01*
X160383085Y-127340380D01*
X152538670Y-127340380D01*
X150904500Y-125706211D01*
X150904500Y-124803100D01*
X160386765Y-124803100D01*
X160410610Y-125045202D01*
X160481229Y-125278001D01*
X160595907Y-125492549D01*
X160750238Y-125680602D01*
X160938291Y-125834933D01*
X161152839Y-125949611D01*
X161385638Y-126020230D01*
X161567075Y-126038100D01*
X162488405Y-126038100D01*
X162669842Y-126020230D01*
X162902641Y-125949611D01*
X163117189Y-125834933D01*
X163305242Y-125680602D01*
X163459573Y-125492549D01*
X163574251Y-125278001D01*
X163644870Y-125045202D01*
X163668715Y-124803100D01*
X163644870Y-124560998D01*
X163574251Y-124328199D01*
X163459573Y-124113651D01*
X163305242Y-123925598D01*
X163117189Y-123771267D01*
X162902641Y-123656589D01*
X162669842Y-123585970D01*
X162488405Y-123568100D01*
X161567075Y-123568100D01*
X161385638Y-123585970D01*
X161152839Y-123656589D01*
X160938291Y-123771267D01*
X160750238Y-123925598D01*
X160595907Y-124113651D01*
X160481229Y-124328199D01*
X160410610Y-124560998D01*
X160386765Y-124803100D01*
X150904500Y-124803100D01*
X150904500Y-122263100D01*
X160386765Y-122263100D01*
X160410610Y-122505202D01*
X160481229Y-122738001D01*
X160595907Y-122952549D01*
X160750238Y-123140602D01*
X160938291Y-123294933D01*
X161152839Y-123409611D01*
X161385638Y-123480230D01*
X161567075Y-123498100D01*
X162488405Y-123498100D01*
X162669842Y-123480230D01*
X162902641Y-123409611D01*
X163117189Y-123294933D01*
X163305242Y-123140602D01*
X163459573Y-122952549D01*
X163574251Y-122738001D01*
X163644870Y-122505202D01*
X163668715Y-122263100D01*
X163644870Y-122020998D01*
X163574251Y-121788199D01*
X163459573Y-121573651D01*
X163305242Y-121385598D01*
X163117189Y-121231267D01*
X162902641Y-121116589D01*
X162669842Y-121045970D01*
X162488405Y-121028100D01*
X161567075Y-121028100D01*
X161385638Y-121045970D01*
X161152839Y-121116589D01*
X160938291Y-121231267D01*
X160750238Y-121385598D01*
X160595907Y-121573651D01*
X160481229Y-121788199D01*
X160410610Y-122020998D01*
X160386765Y-122263100D01*
X150904500Y-122263100D01*
X150904500Y-119723100D01*
X160386765Y-119723100D01*
X160410610Y-119965202D01*
X160481229Y-120198001D01*
X160595907Y-120412549D01*
X160750238Y-120600602D01*
X160938291Y-120754933D01*
X161152839Y-120869611D01*
X161385638Y-120940230D01*
X161567075Y-120958100D01*
X162488405Y-120958100D01*
X162669842Y-120940230D01*
X162902641Y-120869611D01*
X163117189Y-120754933D01*
X163305242Y-120600602D01*
X163459573Y-120412549D01*
X163574251Y-120198001D01*
X163644870Y-119965202D01*
X163668715Y-119723100D01*
X163644870Y-119480998D01*
X163574251Y-119248199D01*
X163459573Y-119033651D01*
X163305242Y-118845598D01*
X163117189Y-118691267D01*
X162902641Y-118576589D01*
X162669842Y-118505970D01*
X162488405Y-118488100D01*
X161567075Y-118488100D01*
X161385638Y-118505970D01*
X161152839Y-118576589D01*
X160938291Y-118691267D01*
X160750238Y-118845598D01*
X160595907Y-119033651D01*
X160481229Y-119248199D01*
X160410610Y-119480998D01*
X160386765Y-119723100D01*
X150904500Y-119723100D01*
X150904500Y-117183100D01*
X160386765Y-117183100D01*
X160410610Y-117425202D01*
X160481229Y-117658001D01*
X160595907Y-117872549D01*
X160750238Y-118060602D01*
X160938291Y-118214933D01*
X161152839Y-118329611D01*
X161385638Y-118400230D01*
X161567075Y-118418100D01*
X162488405Y-118418100D01*
X162669842Y-118400230D01*
X162902641Y-118329611D01*
X163117189Y-118214933D01*
X163305242Y-118060602D01*
X163459573Y-117872549D01*
X163574251Y-117658001D01*
X163644870Y-117425202D01*
X163668715Y-117183100D01*
X163644870Y-116940998D01*
X163574251Y-116708199D01*
X163459573Y-116493651D01*
X163305242Y-116305598D01*
X163117189Y-116151267D01*
X162902641Y-116036589D01*
X162669842Y-115965970D01*
X162488405Y-115948100D01*
X161567075Y-115948100D01*
X161385638Y-115965970D01*
X161152839Y-116036589D01*
X160938291Y-116151267D01*
X160750238Y-116305598D01*
X160595907Y-116493651D01*
X160481229Y-116708199D01*
X160410610Y-116940998D01*
X160386765Y-117183100D01*
X150904500Y-117183100D01*
X150904500Y-114643100D01*
X160386765Y-114643100D01*
X160410610Y-114885202D01*
X160481229Y-115118001D01*
X160595907Y-115332549D01*
X160750238Y-115520602D01*
X160938291Y-115674933D01*
X161152839Y-115789611D01*
X161385638Y-115860230D01*
X161567075Y-115878100D01*
X162488405Y-115878100D01*
X162669842Y-115860230D01*
X162902641Y-115789611D01*
X163117189Y-115674933D01*
X163305242Y-115520602D01*
X163459573Y-115332549D01*
X163574251Y-115118001D01*
X163644870Y-114885202D01*
X163668715Y-114643100D01*
X163644870Y-114400998D01*
X163574251Y-114168199D01*
X163459573Y-113953651D01*
X163305242Y-113765598D01*
X163117189Y-113611267D01*
X162902641Y-113496589D01*
X162669842Y-113425970D01*
X162488405Y-113408100D01*
X161567075Y-113408100D01*
X161385638Y-113425970D01*
X161152839Y-113496589D01*
X160938291Y-113611267D01*
X160750238Y-113765598D01*
X160595907Y-113953651D01*
X160481229Y-114168199D01*
X160410610Y-114400998D01*
X160386765Y-114643100D01*
X150904500Y-114643100D01*
X150904500Y-107023100D01*
X160386765Y-107023100D01*
X160410610Y-107265202D01*
X160481229Y-107498001D01*
X160595907Y-107712549D01*
X160750238Y-107900602D01*
X160938291Y-108054933D01*
X161152839Y-108169611D01*
X161385638Y-108240230D01*
X161567075Y-108258100D01*
X162488405Y-108258100D01*
X162669842Y-108240230D01*
X162902641Y-108169611D01*
X163117189Y-108054933D01*
X163305242Y-107900602D01*
X163459573Y-107712549D01*
X163574251Y-107498001D01*
X163644870Y-107265202D01*
X163668715Y-107023100D01*
X163644870Y-106780998D01*
X163574251Y-106548199D01*
X163459573Y-106333651D01*
X163305242Y-106145598D01*
X163117189Y-105991267D01*
X162902641Y-105876589D01*
X162669842Y-105805970D01*
X162488405Y-105788100D01*
X161567075Y-105788100D01*
X161385638Y-105805970D01*
X161152839Y-105876589D01*
X160938291Y-105991267D01*
X160750238Y-106145598D01*
X160595907Y-106333651D01*
X160481229Y-106548199D01*
X160410610Y-106780998D01*
X160386765Y-107023100D01*
X150904500Y-107023100D01*
X150904500Y-99720709D01*
X160434278Y-99720709D01*
X160438149Y-99758382D01*
X160530319Y-99983633D01*
X160664662Y-100186574D01*
X160836015Y-100359407D01*
X161037794Y-100495490D01*
X161262244Y-100589593D01*
X161500740Y-100638100D01*
X161900740Y-100638100D01*
X161900740Y-99530100D01*
X160559009Y-99530100D01*
X160434278Y-99720709D01*
X150904500Y-99720709D01*
X150904500Y-99085491D01*
X160434278Y-99085491D01*
X160559009Y-99276100D01*
X161900740Y-99276100D01*
X161900740Y-98168100D01*
X161500740Y-98168100D01*
X161262244Y-98216607D01*
X161037794Y-98310710D01*
X160836015Y-98446793D01*
X160664662Y-98619626D01*
X160530319Y-98822567D01*
X160438149Y-99047818D01*
X160434278Y-99085491D01*
X150904500Y-99085491D01*
X150904500Y-61662053D01*
X158055053Y-54511500D01*
X167595835Y-54511500D01*
X167582258Y-54536900D01*
X167545948Y-54656598D01*
X167533688Y-54781080D01*
X167533688Y-56481080D01*
X167545948Y-56605562D01*
X167582258Y-56725260D01*
X167641223Y-56835574D01*
X167720575Y-56932265D01*
X167817266Y-57011617D01*
X167927580Y-57070582D01*
X168000140Y-57092593D01*
X167868285Y-57224448D01*
X167860513Y-57236080D01*
X162727851Y-57236080D01*
X162681919Y-57231556D01*
X162498627Y-57249609D01*
X162445163Y-57265827D01*
X162322380Y-57303073D01*
X162159948Y-57389894D01*
X162017576Y-57506736D01*
X161988295Y-57542415D01*
X151834841Y-67695870D01*
X151799156Y-67725156D01*
X151682314Y-67867529D01*
X151595493Y-68029961D01*
X151576606Y-68092224D01*
X151542029Y-68206209D01*
X151523976Y-68389500D01*
X151528500Y-68435432D01*
X151528501Y-88852918D01*
X151523976Y-88898860D01*
X151542029Y-89082151D01*
X151590853Y-89243100D01*
X151595494Y-89258400D01*
X151682315Y-89420832D01*
X151799157Y-89563204D01*
X151834836Y-89592485D01*
X159734115Y-97491765D01*
X159763396Y-97527444D01*
X159905768Y-97644286D01*
X160068200Y-97731107D01*
X160190983Y-97768353D01*
X160244447Y-97784571D01*
X160427739Y-97802624D01*
X160473671Y-97798100D01*
X160820300Y-97798100D01*
X160938291Y-97894933D01*
X161152839Y-98009611D01*
X161385638Y-98080230D01*
X161567075Y-98098100D01*
X162488405Y-98098100D01*
X162669842Y-98080230D01*
X162902641Y-98009611D01*
X163117189Y-97894933D01*
X163305242Y-97740602D01*
X163459573Y-97552549D01*
X163574251Y-97338001D01*
X163641500Y-97116311D01*
X163641500Y-99276098D01*
X163496472Y-99276098D01*
X163621202Y-99085491D01*
X163617331Y-99047818D01*
X163525161Y-98822567D01*
X163390818Y-98619626D01*
X163219465Y-98446793D01*
X163017686Y-98310710D01*
X162793236Y-98216607D01*
X162554740Y-98168100D01*
X162154740Y-98168100D01*
X162154740Y-99276100D01*
X162174740Y-99276100D01*
X162174740Y-99530100D01*
X162154740Y-99530100D01*
X162154740Y-100638100D01*
X162554740Y-100638100D01*
X162793236Y-100589593D01*
X163017686Y-100495490D01*
X163219465Y-100359407D01*
X163390818Y-100186574D01*
X163525161Y-99983633D01*
X163617331Y-99758382D01*
X163621202Y-99720709D01*
X163496472Y-99530102D01*
X163641500Y-99530102D01*
X163641500Y-101689889D01*
X163574251Y-101468199D01*
X163459573Y-101253651D01*
X163305242Y-101065598D01*
X163117189Y-100911267D01*
X162902641Y-100796589D01*
X162669842Y-100725970D01*
X162488405Y-100708100D01*
X161567075Y-100708100D01*
X161385638Y-100725970D01*
X161152839Y-100796589D01*
X160938291Y-100911267D01*
X160750238Y-101065598D01*
X160595907Y-101253651D01*
X160481229Y-101468199D01*
X160410610Y-101700998D01*
X160386765Y-101943100D01*
X160410610Y-102185202D01*
X160481229Y-102418001D01*
X160595907Y-102632549D01*
X160750238Y-102820602D01*
X160938291Y-102974933D01*
X161152839Y-103089611D01*
X161385638Y-103160230D01*
X161567075Y-103178100D01*
X162488405Y-103178100D01*
X162669842Y-103160230D01*
X162902641Y-103089611D01*
X163117189Y-102974933D01*
X163305242Y-102820602D01*
X163459573Y-102632549D01*
X163574251Y-102418001D01*
X163641500Y-102196311D01*
X163641500Y-104229889D01*
X163574251Y-104008199D01*
X163459573Y-103793651D01*
X163305242Y-103605598D01*
X163117189Y-103451267D01*
X162902641Y-103336589D01*
X162669842Y-103265970D01*
X162488405Y-103248100D01*
X161567075Y-103248100D01*
X161385638Y-103265970D01*
X161152839Y-103336589D01*
X160938291Y-103451267D01*
X160750238Y-103605598D01*
X160595907Y-103793651D01*
X160481229Y-104008199D01*
X160410610Y-104240998D01*
X160386765Y-104483100D01*
X160410610Y-104725202D01*
X160481229Y-104958001D01*
X160595907Y-105172549D01*
X160750238Y-105360602D01*
X160938291Y-105514933D01*
X161152839Y-105629611D01*
X161385638Y-105700230D01*
X161567075Y-105718100D01*
X162488405Y-105718100D01*
X162669842Y-105700230D01*
X162902641Y-105629611D01*
X163117189Y-105514933D01*
X163305242Y-105360602D01*
X163459573Y-105172549D01*
X163574251Y-104958001D01*
X163641500Y-104736311D01*
X163641500Y-106131178D01*
X163637824Y-106168500D01*
X163641500Y-106205822D01*
X163641500Y-106205832D01*
X163652497Y-106317485D01*
X163683340Y-106419161D01*
X163695954Y-106460746D01*
X163766526Y-106592776D01*
X163780587Y-106609909D01*
X163861499Y-106708501D01*
X163890503Y-106732304D01*
X165009512Y-107851314D01*
X165007218Y-107858877D01*
X164988096Y-107955010D01*
X164975836Y-108079491D01*
X164975836Y-108104050D01*
X164973428Y-108128500D01*
X164973428Y-108628500D01*
X164983237Y-108728100D01*
X163340122Y-108728100D01*
X163305242Y-108685598D01*
X163117189Y-108531267D01*
X162902641Y-108416589D01*
X162669842Y-108345970D01*
X162488405Y-108328100D01*
X161567075Y-108328100D01*
X161385638Y-108345970D01*
X161152839Y-108416589D01*
X160938291Y-108531267D01*
X160750238Y-108685598D01*
X160595907Y-108873651D01*
X160481229Y-109088199D01*
X160410610Y-109320998D01*
X160386765Y-109563100D01*
X160410610Y-109805202D01*
X160481229Y-110038001D01*
X160595907Y-110252549D01*
X160750238Y-110440602D01*
X160938291Y-110594933D01*
X161152839Y-110709611D01*
X161385638Y-110780230D01*
X161567075Y-110798100D01*
X162488405Y-110798100D01*
X162669842Y-110780230D01*
X162902641Y-110709611D01*
X163117189Y-110594933D01*
X163305242Y-110440602D01*
X163340122Y-110398100D01*
X165518467Y-110398100D01*
X165521308Y-110399998D01*
X165631625Y-110458964D01*
X165722181Y-110496473D01*
X165841877Y-110532782D01*
X165938010Y-110551904D01*
X166062491Y-110564164D01*
X166087050Y-110564164D01*
X166111500Y-110566572D01*
X166611500Y-110566572D01*
X166635950Y-110564164D01*
X166660509Y-110564164D01*
X166784990Y-110551904D01*
X166881123Y-110532782D01*
X167000819Y-110496473D01*
X167091375Y-110458964D01*
X167201692Y-110399998D01*
X167283191Y-110345542D01*
X167324500Y-110311641D01*
X167324500Y-110365698D01*
X166399771Y-111290428D01*
X166111500Y-111290428D01*
X166087050Y-111292836D01*
X166062491Y-111292836D01*
X165938010Y-111305096D01*
X165841877Y-111324218D01*
X165722181Y-111360527D01*
X165631625Y-111398036D01*
X165521308Y-111457002D01*
X165439809Y-111511458D01*
X165343118Y-111590810D01*
X165273810Y-111660118D01*
X165194458Y-111756809D01*
X165140002Y-111838308D01*
X165081036Y-111948625D01*
X165043527Y-112039181D01*
X165007218Y-112158877D01*
X164988096Y-112255010D01*
X164975836Y-112379491D01*
X164975836Y-112404050D01*
X164973428Y-112428500D01*
X164973428Y-112467920D01*
X164047186Y-111541679D01*
X164021031Y-111509809D01*
X163893886Y-111405464D01*
X163748827Y-111327928D01*
X163591429Y-111280182D01*
X163468759Y-111268100D01*
X163468758Y-111268100D01*
X163427740Y-111264060D01*
X163386722Y-111268100D01*
X163340122Y-111268100D01*
X163305242Y-111225598D01*
X163117189Y-111071267D01*
X162902641Y-110956589D01*
X162669842Y-110885970D01*
X162488405Y-110868100D01*
X161567075Y-110868100D01*
X161385638Y-110885970D01*
X161152839Y-110956589D01*
X160938291Y-111071267D01*
X160750238Y-111225598D01*
X160595907Y-111413651D01*
X160481229Y-111628199D01*
X160410610Y-111860998D01*
X160386765Y-112103100D01*
X160410610Y-112345202D01*
X160481229Y-112578001D01*
X160595907Y-112792549D01*
X160750238Y-112980602D01*
X160938291Y-113134933D01*
X161152839Y-113249611D01*
X161385638Y-113320230D01*
X161567075Y-113338100D01*
X162488405Y-113338100D01*
X162669842Y-113320230D01*
X162902641Y-113249611D01*
X163117189Y-113134933D01*
X163205901Y-113062129D01*
X164433703Y-114289932D01*
X164459849Y-114321791D01*
X164491708Y-114347937D01*
X164491710Y-114347939D01*
X164559391Y-114403483D01*
X164586994Y-114426136D01*
X164732053Y-114503672D01*
X164889451Y-114551418D01*
X165012121Y-114563500D01*
X165012122Y-114563500D01*
X165053140Y-114567540D01*
X165094158Y-114563500D01*
X165340428Y-114563500D01*
X165343118Y-114566190D01*
X165439809Y-114645542D01*
X165521308Y-114699998D01*
X165631625Y-114758964D01*
X165722181Y-114796473D01*
X165841877Y-114832782D01*
X165938010Y-114851904D01*
X166062491Y-114864164D01*
X166087050Y-114864164D01*
X166111500Y-114866572D01*
X166611500Y-114866572D01*
X166635950Y-114864164D01*
X166660509Y-114864164D01*
X166784990Y-114851904D01*
X166881123Y-114832782D01*
X167000819Y-114796473D01*
X167091375Y-114758964D01*
X167201692Y-114699998D01*
X167283191Y-114645542D01*
X167379882Y-114566190D01*
X167449190Y-114496882D01*
X167528542Y-114400191D01*
X167582998Y-114318692D01*
X167641964Y-114208375D01*
X167679473Y-114117819D01*
X167715782Y-113998123D01*
X167734904Y-113901990D01*
X167747164Y-113777509D01*
X167747164Y-113752950D01*
X167749572Y-113728500D01*
X167749572Y-113228500D01*
X167737312Y-113104018D01*
X167729571Y-113078500D01*
X167737312Y-113052982D01*
X167749572Y-112928500D01*
X167749572Y-112428500D01*
X167747164Y-112404050D01*
X167747164Y-112379491D01*
X167734904Y-112255010D01*
X167715782Y-112158877D01*
X167707669Y-112132132D01*
X168595504Y-111244298D01*
X168624501Y-111220501D01*
X168719474Y-111104776D01*
X168790046Y-110972747D01*
X168833503Y-110829486D01*
X168844500Y-110717833D01*
X168844500Y-110717832D01*
X168848177Y-110680500D01*
X168844500Y-110643167D01*
X168844500Y-110200324D01*
X168908276Y-110264100D01*
X169247912Y-110491038D01*
X169625294Y-110647355D01*
X170025922Y-110727044D01*
X170434398Y-110727044D01*
X170835026Y-110647355D01*
X171212408Y-110491038D01*
X171552044Y-110264100D01*
X171840880Y-109975264D01*
X172067818Y-109635628D01*
X172224135Y-109258246D01*
X172303824Y-108857618D01*
X172303824Y-108449142D01*
X172224135Y-108048514D01*
X172067818Y-107671132D01*
X171840880Y-107331496D01*
X171552044Y-107042660D01*
X171212408Y-106815722D01*
X170835026Y-106659405D01*
X170434398Y-106579716D01*
X170025922Y-106579716D01*
X169625294Y-106659405D01*
X169247912Y-106815722D01*
X168908276Y-107042660D01*
X168844500Y-107106436D01*
X168844500Y-106222956D01*
X168848176Y-106185633D01*
X168844500Y-106148310D01*
X168844500Y-106148300D01*
X168833503Y-106036647D01*
X168790046Y-105893386D01*
X168780889Y-105876254D01*
X168719474Y-105761356D01*
X168648299Y-105674630D01*
X168624501Y-105645632D01*
X168595503Y-105621834D01*
X167221639Y-104247970D01*
X167580284Y-104247970D01*
X167624935Y-104395179D01*
X167750119Y-104658000D01*
X167924172Y-104891349D01*
X168140405Y-105086258D01*
X168390508Y-105235237D01*
X168664869Y-105332561D01*
X168894760Y-105211894D01*
X168894760Y-104018080D01*
X167701605Y-104018080D01*
X167580284Y-104247970D01*
X167221639Y-104247970D01*
X166812500Y-103838832D01*
X166812500Y-68831301D01*
X167556073Y-68087729D01*
X167536760Y-68184820D01*
X167536760Y-68477340D01*
X167593828Y-68764238D01*
X167705770Y-69034491D01*
X167868285Y-69277712D01*
X168075128Y-69484555D01*
X168249520Y-69601080D01*
X168075128Y-69717605D01*
X167868285Y-69924448D01*
X167705770Y-70167669D01*
X167593828Y-70437922D01*
X167536760Y-70724820D01*
X167536760Y-71017340D01*
X167593828Y-71304238D01*
X167705770Y-71574491D01*
X167868285Y-71817712D01*
X168075128Y-72024555D01*
X168249520Y-72141080D01*
X168075128Y-72257605D01*
X167868285Y-72464448D01*
X167705770Y-72707669D01*
X167593828Y-72977922D01*
X167536760Y-73264820D01*
X167536760Y-73557340D01*
X167593828Y-73844238D01*
X167705770Y-74114491D01*
X167868285Y-74357712D01*
X168075128Y-74564555D01*
X168249520Y-74681080D01*
X168075128Y-74797605D01*
X167868285Y-75004448D01*
X167705770Y-75247669D01*
X167593828Y-75517922D01*
X167536760Y-75804820D01*
X167536760Y-76097340D01*
X167593828Y-76384238D01*
X167705770Y-76654491D01*
X167868285Y-76897712D01*
X168075128Y-77104555D01*
X168249520Y-77221080D01*
X168075128Y-77337605D01*
X167868285Y-77544448D01*
X167705770Y-77787669D01*
X167593828Y-78057922D01*
X167536760Y-78344820D01*
X167536760Y-78637340D01*
X167593828Y-78924238D01*
X167705770Y-79194491D01*
X167868285Y-79437712D01*
X168075128Y-79644555D01*
X168249520Y-79761080D01*
X168075128Y-79877605D01*
X167868285Y-80084448D01*
X167705770Y-80327669D01*
X167593828Y-80597922D01*
X167536760Y-80884820D01*
X167536760Y-81177340D01*
X167593828Y-81464238D01*
X167705770Y-81734491D01*
X167868285Y-81977712D01*
X168075128Y-82184555D01*
X168249520Y-82301080D01*
X168075128Y-82417605D01*
X167868285Y-82624448D01*
X167705770Y-82867669D01*
X167593828Y-83137922D01*
X167536760Y-83424820D01*
X167536760Y-83717340D01*
X167593828Y-84004238D01*
X167705770Y-84274491D01*
X167868285Y-84517712D01*
X168075128Y-84724555D01*
X168257294Y-84846275D01*
X168140405Y-84915902D01*
X167924172Y-85110811D01*
X167750119Y-85344160D01*
X167624935Y-85606981D01*
X167580284Y-85754190D01*
X167701605Y-85984080D01*
X168894760Y-85984080D01*
X168894760Y-85964080D01*
X169148760Y-85964080D01*
X169148760Y-85984080D01*
X169168760Y-85984080D01*
X169168760Y-86238080D01*
X169148760Y-86238080D01*
X169148760Y-86258080D01*
X168894760Y-86258080D01*
X168894760Y-86238080D01*
X167701605Y-86238080D01*
X167580284Y-86467970D01*
X167624935Y-86615179D01*
X167750119Y-86878000D01*
X167924172Y-87111349D01*
X168140405Y-87306258D01*
X168257294Y-87375885D01*
X168075128Y-87497605D01*
X167868285Y-87704448D01*
X167705770Y-87947669D01*
X167593828Y-88217922D01*
X167536760Y-88504820D01*
X167536760Y-88797340D01*
X167593828Y-89084238D01*
X167705770Y-89354491D01*
X167868285Y-89597712D01*
X168075128Y-89804555D01*
X168249520Y-89921080D01*
X168075128Y-90037605D01*
X167868285Y-90244448D01*
X167705770Y-90487669D01*
X167593828Y-90757922D01*
X167536760Y-91044820D01*
X167536760Y-91337340D01*
X167593828Y-91624238D01*
X167705770Y-91894491D01*
X167868285Y-92137712D01*
X168075128Y-92344555D01*
X168249520Y-92461080D01*
X168075128Y-92577605D01*
X167868285Y-92784448D01*
X167705770Y-93027669D01*
X167593828Y-93297922D01*
X167536760Y-93584820D01*
X167536760Y-93877340D01*
X167593828Y-94164238D01*
X167705770Y-94434491D01*
X167868285Y-94677712D01*
X168075128Y-94884555D01*
X168249520Y-95001080D01*
X168075128Y-95117605D01*
X167868285Y-95324448D01*
X167705770Y-95567669D01*
X167593828Y-95837922D01*
X167536760Y-96124820D01*
X167536760Y-96417340D01*
X167593828Y-96704238D01*
X167705770Y-96974491D01*
X167868285Y-97217712D01*
X168075128Y-97424555D01*
X168249520Y-97541080D01*
X168075128Y-97657605D01*
X167868285Y-97864448D01*
X167705770Y-98107669D01*
X167593828Y-98377922D01*
X167536760Y-98664820D01*
X167536760Y-98957340D01*
X167593828Y-99244238D01*
X167705770Y-99514491D01*
X167868285Y-99757712D01*
X168075128Y-99964555D01*
X168249520Y-100081080D01*
X168075128Y-100197605D01*
X167868285Y-100404448D01*
X167705770Y-100647669D01*
X167593828Y-100917922D01*
X167536760Y-101204820D01*
X167536760Y-101497340D01*
X167593828Y-101784238D01*
X167705770Y-102054491D01*
X167868285Y-102297712D01*
X168075128Y-102504555D01*
X168257294Y-102626275D01*
X168140405Y-102695902D01*
X167924172Y-102890811D01*
X167750119Y-103124160D01*
X167624935Y-103386981D01*
X167580284Y-103534190D01*
X167701605Y-103764080D01*
X168894760Y-103764080D01*
X168894760Y-103744080D01*
X169148760Y-103744080D01*
X169148760Y-103764080D01*
X169168760Y-103764080D01*
X169168760Y-104018080D01*
X169148760Y-104018080D01*
X169148760Y-105211894D01*
X169378651Y-105332561D01*
X169653012Y-105235237D01*
X169903115Y-105086258D01*
X170119348Y-104891349D01*
X170290660Y-104661674D01*
X170408285Y-104837712D01*
X170615128Y-105044555D01*
X170858349Y-105207070D01*
X171128602Y-105319012D01*
X171415500Y-105376080D01*
X171708020Y-105376080D01*
X171994918Y-105319012D01*
X172265171Y-105207070D01*
X172508392Y-105044555D01*
X172715235Y-104837712D01*
X172877750Y-104594491D01*
X172989692Y-104324238D01*
X173046760Y-104037340D01*
X173046760Y-103744820D01*
X172989692Y-103457922D01*
X172877750Y-103187669D01*
X172715235Y-102944448D01*
X172508392Y-102737605D01*
X172334000Y-102621080D01*
X172508392Y-102504555D01*
X172715235Y-102297712D01*
X172877750Y-102054491D01*
X172989692Y-101784238D01*
X173046760Y-101497340D01*
X173046760Y-101204820D01*
X172989692Y-100917922D01*
X172877750Y-100647669D01*
X172715235Y-100404448D01*
X172508392Y-100197605D01*
X172334000Y-100081080D01*
X172508392Y-99964555D01*
X172715235Y-99757712D01*
X172877750Y-99514491D01*
X172989692Y-99244238D01*
X173046760Y-98957340D01*
X173046760Y-98664820D01*
X172989692Y-98377922D01*
X172877750Y-98107669D01*
X172715235Y-97864448D01*
X172508392Y-97657605D01*
X172326226Y-97535885D01*
X172443115Y-97466258D01*
X172659348Y-97271349D01*
X172833401Y-97038000D01*
X172958585Y-96775179D01*
X173003236Y-96627970D01*
X172881915Y-96398080D01*
X171688760Y-96398080D01*
X171688760Y-96418080D01*
X171434760Y-96418080D01*
X171434760Y-96398080D01*
X171414760Y-96398080D01*
X171414760Y-96144080D01*
X171434760Y-96144080D01*
X171434760Y-96124080D01*
X171688760Y-96124080D01*
X171688760Y-96144080D01*
X172881915Y-96144080D01*
X173003236Y-95914190D01*
X172958585Y-95766981D01*
X172833401Y-95504160D01*
X172659348Y-95270811D01*
X172443115Y-95075902D01*
X172326226Y-95006275D01*
X172508392Y-94884555D01*
X172715235Y-94677712D01*
X172877750Y-94434491D01*
X172989692Y-94164238D01*
X173046760Y-93877340D01*
X173046760Y-93584820D01*
X172989692Y-93297922D01*
X172877750Y-93027669D01*
X172715235Y-92784448D01*
X172508392Y-92577605D01*
X172326226Y-92455885D01*
X172443115Y-92386258D01*
X172659348Y-92191349D01*
X172833401Y-91958000D01*
X172958585Y-91695179D01*
X173003236Y-91547970D01*
X172881915Y-91318080D01*
X171688760Y-91318080D01*
X171688760Y-91338080D01*
X171434760Y-91338080D01*
X171434760Y-91318080D01*
X171414760Y-91318080D01*
X171414760Y-91064080D01*
X171434760Y-91064080D01*
X171434760Y-91044080D01*
X171688760Y-91044080D01*
X171688760Y-91064080D01*
X172881915Y-91064080D01*
X173003236Y-90834190D01*
X172958585Y-90686981D01*
X172833401Y-90424160D01*
X172659348Y-90190811D01*
X172443115Y-89995902D01*
X172326226Y-89926275D01*
X172508392Y-89804555D01*
X172715235Y-89597712D01*
X172877750Y-89354491D01*
X172989692Y-89084238D01*
X173046760Y-88797340D01*
X173046760Y-88504820D01*
X172989692Y-88217922D01*
X172877750Y-87947669D01*
X172715235Y-87704448D01*
X172508392Y-87497605D01*
X172334000Y-87381080D01*
X172508392Y-87264555D01*
X172715235Y-87057712D01*
X172877750Y-86814491D01*
X172989692Y-86544238D01*
X173046760Y-86257340D01*
X173046760Y-85964820D01*
X172989692Y-85677922D01*
X172877750Y-85407669D01*
X172715235Y-85164448D01*
X172508392Y-84957605D01*
X172334000Y-84841080D01*
X172508392Y-84724555D01*
X172715235Y-84517712D01*
X172877750Y-84274491D01*
X172989692Y-84004238D01*
X173046760Y-83717340D01*
X173046760Y-83424820D01*
X172989692Y-83137922D01*
X172877750Y-82867669D01*
X172715235Y-82624448D01*
X172508392Y-82417605D01*
X172334000Y-82301080D01*
X172508392Y-82184555D01*
X172715235Y-81977712D01*
X172877750Y-81734491D01*
X172989692Y-81464238D01*
X173046760Y-81177340D01*
X173046760Y-80884820D01*
X172989692Y-80597922D01*
X172877750Y-80327669D01*
X172715235Y-80084448D01*
X172508392Y-79877605D01*
X172334000Y-79761080D01*
X172508392Y-79644555D01*
X172715235Y-79437712D01*
X172877750Y-79194491D01*
X172989692Y-78924238D01*
X173046760Y-78637340D01*
X173046760Y-78344820D01*
X172989692Y-78057922D01*
X172877750Y-77787669D01*
X172715235Y-77544448D01*
X172508392Y-77337605D01*
X172334000Y-77221080D01*
X172508392Y-77104555D01*
X172715235Y-76897712D01*
X172877750Y-76654491D01*
X172989692Y-76384238D01*
X173046760Y-76097340D01*
X173046760Y-75804820D01*
X172989692Y-75517922D01*
X172877750Y-75247669D01*
X172715235Y-75004448D01*
X172508392Y-74797605D01*
X172334000Y-74681080D01*
X172508392Y-74564555D01*
X172715235Y-74357712D01*
X172877750Y-74114491D01*
X172989692Y-73844238D01*
X173046760Y-73557340D01*
X173046760Y-73264820D01*
X172989692Y-72977922D01*
X172877750Y-72707669D01*
X172715235Y-72464448D01*
X172508392Y-72257605D01*
X172326226Y-72135885D01*
X172443115Y-72066258D01*
X172659348Y-71871349D01*
X172833401Y-71638000D01*
X172958585Y-71375179D01*
X173003236Y-71227970D01*
X172881915Y-70998080D01*
X171688760Y-70998080D01*
X171688760Y-71018080D01*
X171434760Y-71018080D01*
X171434760Y-70998080D01*
X171414760Y-70998080D01*
X171414760Y-70744080D01*
X171434760Y-70744080D01*
X171434760Y-70724080D01*
X171688760Y-70724080D01*
X171688760Y-70744080D01*
X172881915Y-70744080D01*
X173003236Y-70514190D01*
X172958585Y-70366981D01*
X172833401Y-70104160D01*
X172659348Y-69870811D01*
X172443115Y-69675902D01*
X172326226Y-69606275D01*
X172508392Y-69484555D01*
X172715235Y-69277712D01*
X172877750Y-69034491D01*
X172989692Y-68764238D01*
X173046760Y-68477340D01*
X173046760Y-68184820D01*
X172989692Y-67897922D01*
X172877750Y-67627669D01*
X172715235Y-67384448D01*
X172508392Y-67177605D01*
X172334000Y-67061080D01*
X172508392Y-66944555D01*
X172715235Y-66737712D01*
X172877750Y-66494491D01*
X172989692Y-66224238D01*
X173046760Y-65937340D01*
X173046760Y-65644820D01*
X172989692Y-65357922D01*
X172877750Y-65087669D01*
X172715235Y-64844448D01*
X172508392Y-64637605D01*
X172334000Y-64521080D01*
X172508392Y-64404555D01*
X172715235Y-64197712D01*
X172877750Y-63954491D01*
X172989692Y-63684238D01*
X173046760Y-63397340D01*
X173046760Y-63104820D01*
X172989692Y-62817922D01*
X172877750Y-62547669D01*
X172715235Y-62304448D01*
X172508392Y-62097605D01*
X172326226Y-61975885D01*
X172443115Y-61906258D01*
X172659348Y-61711349D01*
X172833401Y-61478000D01*
X172958585Y-61215179D01*
X173003236Y-61067970D01*
X172881915Y-60838080D01*
X171688760Y-60838080D01*
X171688760Y-60858080D01*
X171434760Y-60858080D01*
X171434760Y-60838080D01*
X171414760Y-60838080D01*
X171414760Y-60584080D01*
X171434760Y-60584080D01*
X171434760Y-60564080D01*
X171688760Y-60564080D01*
X171688760Y-60584080D01*
X172881915Y-60584080D01*
X173003236Y-60354190D01*
X172958585Y-60206981D01*
X172833401Y-59944160D01*
X172659348Y-59710811D01*
X172443115Y-59515902D01*
X172326226Y-59446275D01*
X172508392Y-59324555D01*
X172715235Y-59117712D01*
X172877750Y-58874491D01*
X172989692Y-58604238D01*
X173046760Y-58317340D01*
X173046760Y-58024820D01*
X172989692Y-57737922D01*
X172877750Y-57467669D01*
X172796760Y-57346459D01*
X172796760Y-56455701D01*
X172877750Y-56334491D01*
X172989692Y-56064238D01*
X173046760Y-55777340D01*
X173046760Y-55484820D01*
X172989692Y-55197922D01*
X172877750Y-54927669D01*
X172796760Y-54806459D01*
X172796760Y-54489664D01*
X172802735Y-54428999D01*
X172778890Y-54186897D01*
X172711866Y-53965949D01*
X172708271Y-53954098D01*
X172593593Y-53739550D01*
X172439262Y-53551497D01*
X172392140Y-53512825D01*
X171325439Y-52446125D01*
X171306947Y-52423593D01*
X171552044Y-52259824D01*
X171840880Y-51970988D01*
X172067818Y-51631352D01*
X172224135Y-51253970D01*
X172303824Y-50853342D01*
X172303824Y-50444866D01*
X172224135Y-50044238D01*
X172067818Y-49666856D01*
X171840880Y-49327220D01*
X171552044Y-49038384D01*
X171212408Y-48811446D01*
X170835026Y-48655129D01*
X170434398Y-48575440D01*
X170025922Y-48575440D01*
X169625294Y-48655129D01*
X169247912Y-48811446D01*
X168908276Y-49038384D01*
X168619440Y-49327220D01*
X168392502Y-49666856D01*
X168236185Y-50044238D01*
X168156496Y-50444866D01*
X168156496Y-50853342D01*
X168236185Y-51253970D01*
X168392502Y-51631352D01*
X168619440Y-51970988D01*
X168689952Y-52041500D01*
X157604165Y-52041500D01*
X157543500Y-52035525D01*
X157482835Y-52041500D01*
X157301398Y-52059370D01*
X157068599Y-52129989D01*
X156854051Y-52244667D01*
X156665998Y-52398998D01*
X156627321Y-52446126D01*
X148839126Y-60234321D01*
X148791998Y-60272998D01*
X148637667Y-60461052D01*
X148522989Y-60675600D01*
X148522989Y-60675601D01*
X148452370Y-60908398D01*
X148428525Y-61150500D01*
X148434500Y-61211165D01*
X148434501Y-72011826D01*
X148434500Y-72011836D01*
X148434500Y-72126632D01*
X147291633Y-73269500D01*
X134915785Y-73269500D01*
X134792756Y-73187295D01*
X134604398Y-73109274D01*
X134404439Y-73069500D01*
X134200561Y-73069500D01*
X134000602Y-73109274D01*
X133812244Y-73187295D01*
X133642726Y-73300563D01*
X133498563Y-73444726D01*
X133385295Y-73614244D01*
X133307274Y-73802602D01*
X133267500Y-74002561D01*
X133267500Y-74206439D01*
X133307274Y-74406398D01*
X133385295Y-74594756D01*
X133498563Y-74764274D01*
X133642726Y-74908437D01*
X133812244Y-75021705D01*
X134000602Y-75099726D01*
X134200561Y-75139500D01*
X134404439Y-75139500D01*
X134604398Y-75099726D01*
X134792756Y-75021705D01*
X134915785Y-74939500D01*
X147596482Y-74939500D01*
X147637500Y-74943540D01*
X147678518Y-74939500D01*
X147678519Y-74939500D01*
X147801189Y-74927418D01*
X147958587Y-74879672D01*
X148103646Y-74802136D01*
X148230791Y-74697791D01*
X148256946Y-74665921D01*
X148434500Y-74488367D01*
X148434501Y-81651631D01*
X145425074Y-84661059D01*
X145393210Y-84687209D01*
X145367062Y-84719071D01*
X145288864Y-84814355D01*
X145211328Y-84959414D01*
X145163582Y-85116812D01*
X145147460Y-85280500D01*
X145151501Y-85321528D01*
X145151501Y-85683214D01*
X145069295Y-85806244D01*
X144991274Y-85994602D01*
X144951500Y-86194561D01*
X144951500Y-86398439D01*
X144991274Y-86598398D01*
X145069295Y-86786756D01*
X145182563Y-86956274D01*
X145326726Y-87100437D01*
X145496244Y-87213705D01*
X145684602Y-87291726D01*
X145884561Y-87331500D01*
X146088439Y-87331500D01*
X146288398Y-87291726D01*
X146476756Y-87213705D01*
X146646274Y-87100437D01*
X146790437Y-86956274D01*
X146903705Y-86786756D01*
X146981726Y-86598398D01*
X147021500Y-86398439D01*
X147021500Y-86194561D01*
X146981726Y-85994602D01*
X146903705Y-85806244D01*
X146821500Y-85683215D01*
X146821500Y-85626367D01*
X148434500Y-84013367D01*
X148434501Y-108270326D01*
X148434500Y-108270336D01*
X148434500Y-108766132D01*
X146337725Y-110862907D01*
X146192602Y-110891774D01*
X146004244Y-110969795D01*
X145834726Y-111083063D01*
X145690563Y-111227226D01*
X145577295Y-111396744D01*
X145499274Y-111585102D01*
X145459500Y-111785061D01*
X145459500Y-111988939D01*
X145499274Y-112188898D01*
X145577295Y-112377256D01*
X145690563Y-112546774D01*
X145834726Y-112690937D01*
X146004244Y-112804205D01*
X146192602Y-112882226D01*
X146392561Y-112922000D01*
X146596439Y-112922000D01*
X146796398Y-112882226D01*
X146984756Y-112804205D01*
X147154274Y-112690937D01*
X147298437Y-112546774D01*
X147411705Y-112377256D01*
X147489726Y-112188898D01*
X147518593Y-112043775D01*
X148434501Y-111127867D01*
X148434501Y-111889826D01*
X148434500Y-111889836D01*
X148434500Y-112004632D01*
X146401225Y-114037907D01*
X146256102Y-114066774D01*
X146067744Y-114144795D01*
X145898226Y-114258063D01*
X145754063Y-114402226D01*
X145640795Y-114571744D01*
X145562774Y-114760102D01*
X145523000Y-114960061D01*
X145523000Y-115163939D01*
X145562774Y-115363898D01*
X145640795Y-115552256D01*
X145754063Y-115721774D01*
X145898226Y-115865937D01*
X146067744Y-115979205D01*
X146256102Y-116057226D01*
X146456061Y-116097000D01*
X146659939Y-116097000D01*
X146859898Y-116057226D01*
X147048256Y-115979205D01*
X147217774Y-115865937D01*
X147361937Y-115721774D01*
X147475205Y-115552256D01*
X147553226Y-115363898D01*
X147582093Y-115218775D01*
X148434501Y-114366367D01*
X148434501Y-115941628D01*
X146401224Y-117974907D01*
X146256100Y-118003774D01*
X146067742Y-118081795D01*
X145898224Y-118195063D01*
X145754061Y-118339226D01*
X145640793Y-118508744D01*
X145562772Y-118697102D01*
X145522998Y-118897061D01*
X145522998Y-119100939D01*
X145562772Y-119300898D01*
X145640793Y-119489256D01*
X145754061Y-119658774D01*
X145898224Y-119802937D01*
X146067742Y-119916205D01*
X146256100Y-119994226D01*
X146456059Y-120034000D01*
X146659937Y-120034000D01*
X146859896Y-119994226D01*
X147048254Y-119916205D01*
X147217772Y-119802937D01*
X147361935Y-119658774D01*
X147475203Y-119489256D01*
X147553224Y-119300898D01*
X147582091Y-119155774D01*
X148434500Y-118303366D01*
X148434501Y-125535946D01*
X145322347Y-128648100D01*
X136167075Y-128648100D01*
X135985638Y-128665970D01*
X135752839Y-128736589D01*
X135731303Y-128748100D01*
X135097872Y-128748100D01*
X134421500Y-128071729D01*
X134421500Y-127343100D01*
X134986765Y-127343100D01*
X135010610Y-127585202D01*
X135081229Y-127818001D01*
X135195907Y-128032549D01*
X135350238Y-128220602D01*
X135538291Y-128374933D01*
X135752839Y-128489611D01*
X135985638Y-128560230D01*
X136167075Y-128578100D01*
X137088405Y-128578100D01*
X137269842Y-128560230D01*
X137502641Y-128489611D01*
X137717189Y-128374933D01*
X137905242Y-128220602D01*
X138059573Y-128032549D01*
X138174251Y-127818001D01*
X138244870Y-127585202D01*
X138268715Y-127343100D01*
X138244870Y-127100998D01*
X138174251Y-126868199D01*
X138059573Y-126653651D01*
X137905242Y-126465598D01*
X137717189Y-126311267D01*
X137502641Y-126196589D01*
X137269842Y-126125970D01*
X137088405Y-126108100D01*
X136167075Y-126108100D01*
X135985638Y-126125970D01*
X135752839Y-126196589D01*
X135538291Y-126311267D01*
X135350238Y-126465598D01*
X135195907Y-126653651D01*
X135081229Y-126868199D01*
X135010610Y-127100998D01*
X134986765Y-127343100D01*
X134421500Y-127343100D01*
X134421500Y-125103483D01*
X134513905Y-124990886D01*
X134595972Y-124837350D01*
X134606361Y-124803100D01*
X134986765Y-124803100D01*
X135010610Y-125045202D01*
X135081229Y-125278001D01*
X135195907Y-125492549D01*
X135350238Y-125680602D01*
X135538291Y-125834933D01*
X135752839Y-125949611D01*
X135985638Y-126020230D01*
X136167075Y-126038100D01*
X137088405Y-126038100D01*
X137269842Y-126020230D01*
X137502641Y-125949611D01*
X137717189Y-125834933D01*
X137905242Y-125680602D01*
X138059573Y-125492549D01*
X138174251Y-125278001D01*
X138244870Y-125045202D01*
X138268715Y-124803100D01*
X138244870Y-124560998D01*
X138174251Y-124328199D01*
X138059573Y-124113651D01*
X137905242Y-123925598D01*
X137717189Y-123771267D01*
X137502641Y-123656589D01*
X137269842Y-123585970D01*
X137088405Y-123568100D01*
X136167075Y-123568100D01*
X135985638Y-123585970D01*
X135752839Y-123656589D01*
X135538291Y-123771267D01*
X135350238Y-123925598D01*
X135195907Y-124113651D01*
X135081229Y-124328199D01*
X135010610Y-124560998D01*
X134986765Y-124803100D01*
X134606361Y-124803100D01*
X134646508Y-124670754D01*
X134663572Y-124497500D01*
X134663572Y-122263100D01*
X134986765Y-122263100D01*
X135010610Y-122505202D01*
X135081229Y-122738001D01*
X135195907Y-122952549D01*
X135350238Y-123140602D01*
X135538291Y-123294933D01*
X135752839Y-123409611D01*
X135985638Y-123480230D01*
X136167075Y-123498100D01*
X137088405Y-123498100D01*
X137269842Y-123480230D01*
X137502641Y-123409611D01*
X137717189Y-123294933D01*
X137905242Y-123140602D01*
X138059573Y-122952549D01*
X138174251Y-122738001D01*
X138244870Y-122505202D01*
X138268715Y-122263100D01*
X138244870Y-122020998D01*
X138174251Y-121788199D01*
X138059573Y-121573651D01*
X137905242Y-121385598D01*
X137717189Y-121231267D01*
X137502641Y-121116589D01*
X137269842Y-121045970D01*
X137088405Y-121028100D01*
X136167075Y-121028100D01*
X135985638Y-121045970D01*
X135752839Y-121116589D01*
X135538291Y-121231267D01*
X135350238Y-121385598D01*
X135195907Y-121573651D01*
X135081229Y-121788199D01*
X135010610Y-122020998D01*
X134986765Y-122263100D01*
X134663572Y-122263100D01*
X134663572Y-121247500D01*
X134646508Y-121074246D01*
X134595972Y-120907650D01*
X134513905Y-120754114D01*
X134403462Y-120619538D01*
X134268886Y-120509095D01*
X134115350Y-120427028D01*
X133948754Y-120376492D01*
X133775500Y-120359428D01*
X132600500Y-120359428D01*
X132427246Y-120376492D01*
X132260650Y-120427028D01*
X132107114Y-120509095D01*
X131972538Y-120619538D01*
X131862095Y-120754114D01*
X131780028Y-120907650D01*
X131729492Y-121074246D01*
X131712428Y-121247500D01*
X131712428Y-124497500D01*
X131729492Y-124670754D01*
X131780028Y-124837350D01*
X131862095Y-124990886D01*
X131972538Y-125125462D01*
X132107114Y-125235905D01*
X132151500Y-125259630D01*
X132151501Y-128486099D01*
X132146009Y-128541860D01*
X132167923Y-128764358D01*
X132232824Y-128978306D01*
X132233279Y-128979157D01*
X132338217Y-129175483D01*
X132480052Y-129348309D01*
X132523360Y-129383851D01*
X133785748Y-130646240D01*
X133821291Y-130689549D01*
X133994117Y-130831384D01*
X134191293Y-130936776D01*
X134405241Y-131001677D01*
X134432036Y-131004316D01*
X134627740Y-131023591D01*
X134683492Y-131018100D01*
X135731303Y-131018100D01*
X135752839Y-131029611D01*
X135985638Y-131100230D01*
X136167075Y-131118100D01*
X145773235Y-131118100D01*
X145833900Y-131124075D01*
X145894565Y-131118100D01*
X146076002Y-131100230D01*
X146308801Y-131029611D01*
X146523349Y-130914933D01*
X146711402Y-130760602D01*
X146750079Y-130713474D01*
X150008632Y-127454921D01*
X154047090Y-131493380D01*
X132045869Y-131493380D01*
X132087168Y-131357234D01*
X132104232Y-131183980D01*
X132104232Y-128083980D01*
X132087168Y-127910726D01*
X132036632Y-127744130D01*
X131954565Y-127590594D01*
X131844122Y-127456018D01*
X131709546Y-127345575D01*
X131556010Y-127263508D01*
X131389414Y-127212972D01*
X131373500Y-127211405D01*
X131373500Y-124706241D01*
X131378990Y-124650499D01*
X131373500Y-124594757D01*
X131373500Y-124594748D01*
X131357077Y-124428001D01*
X131292176Y-124214053D01*
X131186784Y-124016877D01*
X131044949Y-123844051D01*
X131001640Y-123808508D01*
X130288572Y-123095441D01*
X130288572Y-121247500D01*
X130271508Y-121074246D01*
X130220972Y-120907650D01*
X130138905Y-120754114D01*
X130028462Y-120619538D01*
X129893886Y-120509095D01*
X129740350Y-120427028D01*
X129573754Y-120376492D01*
X129400500Y-120359428D01*
X128225500Y-120359428D01*
X128052246Y-120376492D01*
X127885650Y-120427028D01*
X127732114Y-120509095D01*
X127597538Y-120619538D01*
X127487095Y-120754114D01*
X127405028Y-120907650D01*
X127354492Y-121074246D01*
X127337428Y-121247500D01*
X127337428Y-122884362D01*
X127150790Y-123071000D01*
X126964978Y-123071000D01*
X126919462Y-123015538D01*
X126784886Y-122905095D01*
X126631350Y-122823028D01*
X126464754Y-122772492D01*
X126291500Y-122755428D01*
X125041500Y-122755428D01*
X124868246Y-122772492D01*
X124701650Y-122823028D01*
X124548114Y-122905095D01*
X124413538Y-123015538D01*
X124303095Y-123150114D01*
X124221028Y-123303650D01*
X124170492Y-123470246D01*
X124153428Y-123643500D01*
X124153428Y-124568500D01*
X124170492Y-124741754D01*
X124221028Y-124908350D01*
X124303095Y-125061886D01*
X124413538Y-125196462D01*
X124548114Y-125306905D01*
X124701650Y-125388972D01*
X124868246Y-125439508D01*
X125041500Y-125456572D01*
X126291500Y-125456572D01*
X126464754Y-125439508D01*
X126631350Y-125388972D01*
X126784886Y-125306905D01*
X126919462Y-125196462D01*
X126964978Y-125141000D01*
X127528672Y-125141000D01*
X127579500Y-125146006D01*
X127617956Y-125142218D01*
X127732114Y-125235905D01*
X127885650Y-125317972D01*
X128052246Y-125368508D01*
X128225500Y-125385572D01*
X129103501Y-125385572D01*
X129103500Y-127729514D01*
X129095688Y-127744130D01*
X129045152Y-127910726D01*
X129028088Y-128083980D01*
X129028088Y-131183980D01*
X129045152Y-131357234D01*
X129086451Y-131493380D01*
X128270935Y-131493380D01*
X128271908Y-131492376D01*
X128435714Y-131238731D01*
X128546889Y-130958003D01*
X128601160Y-130660980D01*
X128601160Y-129760980D01*
X127193160Y-129760980D01*
X127193160Y-129780980D01*
X126939160Y-129780980D01*
X126939160Y-129760980D01*
X125531160Y-129760980D01*
X125531160Y-130660980D01*
X125585431Y-130958003D01*
X125696606Y-131238731D01*
X125860412Y-131492376D01*
X125861385Y-131493380D01*
X120767439Y-131493380D01*
X120281266Y-131445710D01*
X119844663Y-131313892D01*
X119441974Y-131099779D01*
X119088547Y-130811530D01*
X118797833Y-130460119D01*
X118580920Y-130058944D01*
X118446054Y-129623266D01*
X118395160Y-129139044D01*
X118395160Y-128606980D01*
X125531160Y-128606980D01*
X125531160Y-129506980D01*
X126939160Y-129506980D01*
X126939160Y-127363602D01*
X127193160Y-127363602D01*
X127193160Y-129506980D01*
X128601160Y-129506980D01*
X128601160Y-128606980D01*
X128546889Y-128309957D01*
X128435714Y-128029229D01*
X128271908Y-127775584D01*
X128061766Y-127558770D01*
X127813364Y-127387118D01*
X127536247Y-127267225D01*
X127430900Y-127242944D01*
X127193160Y-127363602D01*
X126939160Y-127363602D01*
X126701420Y-127242944D01*
X126596073Y-127267225D01*
X126318956Y-127387118D01*
X126070554Y-127558770D01*
X125860412Y-127775584D01*
X125696606Y-128029229D01*
X125585431Y-128309957D01*
X125531160Y-128606980D01*
X118395160Y-128606980D01*
X118395160Y-127864963D01*
X118411500Y-127866572D01*
X119925750Y-127863500D01*
X120084500Y-127704750D01*
X120084500Y-126455500D01*
X120338500Y-126455500D01*
X120338500Y-127704750D01*
X120497250Y-127863500D01*
X122011500Y-127866572D01*
X122135982Y-127854312D01*
X122255680Y-127818002D01*
X122365994Y-127759037D01*
X122462685Y-127679685D01*
X122542037Y-127582994D01*
X122601002Y-127472680D01*
X122637312Y-127352982D01*
X122649572Y-127228500D01*
X122646500Y-126614250D01*
X122487750Y-126455500D01*
X120338500Y-126455500D01*
X120084500Y-126455500D01*
X120064500Y-126455500D01*
X120064500Y-126201500D01*
X120084500Y-126201500D01*
X120084500Y-124952250D01*
X120338500Y-124952250D01*
X120338500Y-126201500D01*
X122487750Y-126201500D01*
X122646500Y-126042750D01*
X122649572Y-125428500D01*
X122637312Y-125304018D01*
X122601002Y-125184320D01*
X122542037Y-125074006D01*
X122462685Y-124977315D01*
X122365994Y-124897963D01*
X122255680Y-124838998D01*
X122135982Y-124802688D01*
X122011500Y-124790428D01*
X120497250Y-124793500D01*
X120338500Y-124952250D01*
X120084500Y-124952250D01*
X119925750Y-124793500D01*
X118411500Y-124790428D01*
X118395160Y-124792037D01*
X118395160Y-124062222D01*
X118454573Y-124110981D01*
X118721239Y-124253517D01*
X119010587Y-124341290D01*
X119236092Y-124363500D01*
X121186908Y-124363500D01*
X121412413Y-124341290D01*
X121701761Y-124253517D01*
X121968427Y-124110981D01*
X122202161Y-123919161D01*
X122393981Y-123685427D01*
X122536517Y-123418761D01*
X122624290Y-123129413D01*
X122653927Y-122828500D01*
X122624290Y-122527587D01*
X122536517Y-122238239D01*
X122393981Y-121971573D01*
X122288875Y-121843500D01*
X124153428Y-121843500D01*
X124165688Y-121967982D01*
X124201998Y-122087680D01*
X124260963Y-122197994D01*
X124340315Y-122294685D01*
X124437006Y-122374037D01*
X124547320Y-122433002D01*
X124667018Y-122469312D01*
X124791500Y-122481572D01*
X125380750Y-122478500D01*
X125539500Y-122319750D01*
X125539500Y-121258000D01*
X125793500Y-121258000D01*
X125793500Y-122319750D01*
X125952250Y-122478500D01*
X126541500Y-122481572D01*
X126665982Y-122469312D01*
X126785680Y-122433002D01*
X126895994Y-122374037D01*
X126992685Y-122294685D01*
X127072037Y-122197994D01*
X127131002Y-122087680D01*
X127167312Y-121967982D01*
X127179572Y-121843500D01*
X127176500Y-121416750D01*
X127017750Y-121258000D01*
X125793500Y-121258000D01*
X125539500Y-121258000D01*
X124315250Y-121258000D01*
X124156500Y-121416750D01*
X124153428Y-121843500D01*
X122288875Y-121843500D01*
X122202161Y-121737839D01*
X121968427Y-121546019D01*
X121701761Y-121403483D01*
X121412413Y-121315710D01*
X121186908Y-121293500D01*
X119236092Y-121293500D01*
X119010587Y-121315710D01*
X118721239Y-121403483D01*
X118454573Y-121546019D01*
X118395160Y-121594778D01*
X118395160Y-120562222D01*
X118454573Y-120610981D01*
X118721239Y-120753517D01*
X119010587Y-120841290D01*
X119236092Y-120863500D01*
X121186908Y-120863500D01*
X121412413Y-120841290D01*
X121701761Y-120753517D01*
X121968427Y-120610981D01*
X122202161Y-120419161D01*
X122202703Y-120418500D01*
X124153428Y-120418500D01*
X124156500Y-120845250D01*
X124315250Y-121004000D01*
X125539500Y-121004000D01*
X125539500Y-119942250D01*
X125793500Y-119942250D01*
X125793500Y-121004000D01*
X127017750Y-121004000D01*
X127176500Y-120845250D01*
X127179572Y-120418500D01*
X127167312Y-120294018D01*
X127131002Y-120174320D01*
X127072037Y-120064006D01*
X126992685Y-119967315D01*
X126895994Y-119887963D01*
X126785680Y-119828998D01*
X126665982Y-119792688D01*
X126541500Y-119780428D01*
X125952250Y-119783500D01*
X125793500Y-119942250D01*
X125539500Y-119942250D01*
X125380750Y-119783500D01*
X124791500Y-119780428D01*
X124667018Y-119792688D01*
X124547320Y-119828998D01*
X124437006Y-119887963D01*
X124340315Y-119967315D01*
X124260963Y-120064006D01*
X124201998Y-120174320D01*
X124165688Y-120294018D01*
X124153428Y-120418500D01*
X122202703Y-120418500D01*
X122393981Y-120185427D01*
X122536517Y-119918761D01*
X122595870Y-119723100D01*
X134986765Y-119723100D01*
X135010610Y-119965202D01*
X135081229Y-120198001D01*
X135195907Y-120412549D01*
X135350238Y-120600602D01*
X135538291Y-120754933D01*
X135752839Y-120869611D01*
X135985638Y-120940230D01*
X136167075Y-120958100D01*
X137088405Y-120958100D01*
X137269842Y-120940230D01*
X137502641Y-120869611D01*
X137717189Y-120754933D01*
X137905242Y-120600602D01*
X138059573Y-120412549D01*
X138174251Y-120198001D01*
X138244870Y-119965202D01*
X138268715Y-119723100D01*
X138244870Y-119480998D01*
X138174251Y-119248199D01*
X138059573Y-119033651D01*
X137905242Y-118845598D01*
X137717189Y-118691267D01*
X137502641Y-118576589D01*
X137269842Y-118505970D01*
X137088405Y-118488100D01*
X136167075Y-118488100D01*
X135985638Y-118505970D01*
X135752839Y-118576589D01*
X135538291Y-118691267D01*
X135350238Y-118845598D01*
X135195907Y-119033651D01*
X135081229Y-119248199D01*
X135010610Y-119480998D01*
X134986765Y-119723100D01*
X122595870Y-119723100D01*
X122624290Y-119629413D01*
X122653927Y-119328500D01*
X122624290Y-119027587D01*
X122536517Y-118738239D01*
X122393981Y-118471573D01*
X122202161Y-118237839D01*
X121968427Y-118046019D01*
X121701761Y-117903483D01*
X121412413Y-117815710D01*
X121186908Y-117793500D01*
X119236092Y-117793500D01*
X119010587Y-117815710D01*
X118721239Y-117903483D01*
X118454573Y-118046019D01*
X118395160Y-118094778D01*
X118395160Y-117783100D01*
X134989668Y-117783100D01*
X135001928Y-117907582D01*
X135038238Y-118027280D01*
X135097203Y-118137594D01*
X135176555Y-118234285D01*
X135273246Y-118313637D01*
X135383560Y-118372602D01*
X135503258Y-118408912D01*
X135627740Y-118421172D01*
X136341990Y-118418100D01*
X136500740Y-118259350D01*
X136500740Y-117310100D01*
X136754740Y-117310100D01*
X136754740Y-118259350D01*
X136913490Y-118418100D01*
X137627740Y-118421172D01*
X137752222Y-118408912D01*
X137871920Y-118372602D01*
X137982234Y-118313637D01*
X138078925Y-118234285D01*
X138158277Y-118137594D01*
X138217242Y-118027280D01*
X138253552Y-117907582D01*
X138265812Y-117783100D01*
X138262740Y-117468850D01*
X138103990Y-117310100D01*
X136754740Y-117310100D01*
X136500740Y-117310100D01*
X135151490Y-117310100D01*
X134992740Y-117468850D01*
X134989668Y-117783100D01*
X118395160Y-117783100D01*
X118395160Y-117062222D01*
X118454573Y-117110981D01*
X118721239Y-117253517D01*
X119010587Y-117341290D01*
X119236092Y-117363500D01*
X121186908Y-117363500D01*
X121412413Y-117341290D01*
X121701761Y-117253517D01*
X121968427Y-117110981D01*
X122202161Y-116919161D01*
X122393981Y-116685427D01*
X122448675Y-116583100D01*
X134989668Y-116583100D01*
X134992740Y-116897350D01*
X135151490Y-117056100D01*
X136500740Y-117056100D01*
X136500740Y-116106850D01*
X136754740Y-116106850D01*
X136754740Y-117056100D01*
X138103990Y-117056100D01*
X138262740Y-116897350D01*
X138265812Y-116583100D01*
X138253552Y-116458618D01*
X138217242Y-116338920D01*
X138158277Y-116228606D01*
X138078925Y-116131915D01*
X137982234Y-116052563D01*
X137871920Y-115993598D01*
X137752222Y-115957288D01*
X137627740Y-115945028D01*
X136913490Y-115948100D01*
X136754740Y-116106850D01*
X136500740Y-116106850D01*
X136341990Y-115948100D01*
X135627740Y-115945028D01*
X135503258Y-115957288D01*
X135383560Y-115993598D01*
X135273246Y-116052563D01*
X135176555Y-116131915D01*
X135097203Y-116228606D01*
X135038238Y-116338920D01*
X135001928Y-116458618D01*
X134989668Y-116583100D01*
X122448675Y-116583100D01*
X122536517Y-116418761D01*
X122624290Y-116129413D01*
X122653927Y-115828500D01*
X122624290Y-115527587D01*
X122536517Y-115238239D01*
X122393981Y-114971573D01*
X122202161Y-114737839D01*
X122086721Y-114643100D01*
X134986765Y-114643100D01*
X135010610Y-114885202D01*
X135081229Y-115118001D01*
X135195907Y-115332549D01*
X135350238Y-115520602D01*
X135538291Y-115674933D01*
X135752839Y-115789611D01*
X135985638Y-115860230D01*
X136167075Y-115878100D01*
X137088405Y-115878100D01*
X137269842Y-115860230D01*
X137502641Y-115789611D01*
X137717189Y-115674933D01*
X137905242Y-115520602D01*
X138059573Y-115332549D01*
X138174251Y-115118001D01*
X138244870Y-114885202D01*
X138268715Y-114643100D01*
X138244870Y-114400998D01*
X138174251Y-114168199D01*
X138059573Y-113953651D01*
X137905242Y-113765598D01*
X137717189Y-113611267D01*
X137502641Y-113496589D01*
X137269842Y-113425970D01*
X137088405Y-113408100D01*
X136167075Y-113408100D01*
X135985638Y-113425970D01*
X135752839Y-113496589D01*
X135538291Y-113611267D01*
X135350238Y-113765598D01*
X135195907Y-113953651D01*
X135081229Y-114168199D01*
X135010610Y-114400998D01*
X134986765Y-114643100D01*
X122086721Y-114643100D01*
X121968427Y-114546019D01*
X121701761Y-114403483D01*
X121412413Y-114315710D01*
X121186908Y-114293500D01*
X119236092Y-114293500D01*
X119010587Y-114315710D01*
X118721239Y-114403483D01*
X118454573Y-114546019D01*
X118395160Y-114594778D01*
X118395160Y-113562222D01*
X118454573Y-113610981D01*
X118721239Y-113753517D01*
X119010587Y-113841290D01*
X119236092Y-113863500D01*
X121186908Y-113863500D01*
X121412413Y-113841290D01*
X121701761Y-113753517D01*
X121968427Y-113610981D01*
X122202161Y-113419161D01*
X122393981Y-113185427D01*
X122536517Y-112918761D01*
X122624290Y-112629413D01*
X122653927Y-112328500D01*
X122631728Y-112103100D01*
X134986765Y-112103100D01*
X135010610Y-112345202D01*
X135081229Y-112578001D01*
X135195907Y-112792549D01*
X135350238Y-112980602D01*
X135538291Y-113134933D01*
X135752839Y-113249611D01*
X135985638Y-113320230D01*
X136167075Y-113338100D01*
X137088405Y-113338100D01*
X137269842Y-113320230D01*
X137502641Y-113249611D01*
X137717189Y-113134933D01*
X137905242Y-112980602D01*
X138059573Y-112792549D01*
X138174251Y-112578001D01*
X138244870Y-112345202D01*
X138268715Y-112103100D01*
X138244870Y-111860998D01*
X138174251Y-111628199D01*
X138059573Y-111413651D01*
X137905242Y-111225598D01*
X137717189Y-111071267D01*
X137502641Y-110956589D01*
X137269842Y-110885970D01*
X137088405Y-110868100D01*
X136167075Y-110868100D01*
X135985638Y-110885970D01*
X135752839Y-110956589D01*
X135538291Y-111071267D01*
X135350238Y-111225598D01*
X135195907Y-111413651D01*
X135081229Y-111628199D01*
X135010610Y-111860998D01*
X134986765Y-112103100D01*
X122631728Y-112103100D01*
X122624290Y-112027587D01*
X122536517Y-111738239D01*
X122393981Y-111471573D01*
X122202161Y-111237839D01*
X121968427Y-111046019D01*
X121701761Y-110903483D01*
X121412413Y-110815710D01*
X121186908Y-110793500D01*
X119236092Y-110793500D01*
X119010587Y-110815710D01*
X118721239Y-110903483D01*
X118454573Y-111046019D01*
X118395160Y-111094778D01*
X118395160Y-110062222D01*
X118454573Y-110110981D01*
X118721239Y-110253517D01*
X119010587Y-110341290D01*
X119236092Y-110363500D01*
X121186908Y-110363500D01*
X121412413Y-110341290D01*
X121701761Y-110253517D01*
X121968427Y-110110981D01*
X122202161Y-109919161D01*
X122393981Y-109685427D01*
X122459366Y-109563100D01*
X134986765Y-109563100D01*
X135010610Y-109805202D01*
X135081229Y-110038001D01*
X135195907Y-110252549D01*
X135350238Y-110440602D01*
X135538291Y-110594933D01*
X135752839Y-110709611D01*
X135985638Y-110780230D01*
X136167075Y-110798100D01*
X137088405Y-110798100D01*
X137269842Y-110780230D01*
X137502641Y-110709611D01*
X137717189Y-110594933D01*
X137905242Y-110440602D01*
X138059573Y-110252549D01*
X138174251Y-110038001D01*
X138244870Y-109805202D01*
X138268715Y-109563100D01*
X138244870Y-109320998D01*
X138174251Y-109088199D01*
X138059573Y-108873651D01*
X137905242Y-108685598D01*
X137717189Y-108531267D01*
X137502641Y-108416589D01*
X137269842Y-108345970D01*
X137088405Y-108328100D01*
X136167075Y-108328100D01*
X135985638Y-108345970D01*
X135752839Y-108416589D01*
X135538291Y-108531267D01*
X135350238Y-108685598D01*
X135195907Y-108873651D01*
X135081229Y-109088199D01*
X135010610Y-109320998D01*
X134986765Y-109563100D01*
X122459366Y-109563100D01*
X122536517Y-109418761D01*
X122624290Y-109129413D01*
X122653927Y-108828500D01*
X122624290Y-108527587D01*
X122536517Y-108238239D01*
X122393981Y-107971573D01*
X122202161Y-107737839D01*
X121968427Y-107546019D01*
X121701761Y-107403483D01*
X121412413Y-107315710D01*
X121186908Y-107293500D01*
X119236092Y-107293500D01*
X119010587Y-107315710D01*
X118721239Y-107403483D01*
X118454573Y-107546019D01*
X118395160Y-107594778D01*
X118395160Y-107023100D01*
X134986765Y-107023100D01*
X135010610Y-107265202D01*
X135081229Y-107498001D01*
X135195907Y-107712549D01*
X135350238Y-107900602D01*
X135538291Y-108054933D01*
X135752839Y-108169611D01*
X135985638Y-108240230D01*
X136167075Y-108258100D01*
X137088405Y-108258100D01*
X137269842Y-108240230D01*
X137502641Y-108169611D01*
X137717189Y-108054933D01*
X137905242Y-107900602D01*
X138059573Y-107712549D01*
X138174251Y-107498001D01*
X138244870Y-107265202D01*
X138268715Y-107023100D01*
X138244870Y-106780998D01*
X138174251Y-106548199D01*
X138059573Y-106333651D01*
X137905242Y-106145598D01*
X137717189Y-105991267D01*
X137502641Y-105876589D01*
X137269842Y-105805970D01*
X137088405Y-105788100D01*
X136167075Y-105788100D01*
X135985638Y-105805970D01*
X135752839Y-105876589D01*
X135538291Y-105991267D01*
X135350238Y-106145598D01*
X135195907Y-106333651D01*
X135081229Y-106548199D01*
X135010610Y-106780998D01*
X134986765Y-107023100D01*
X118395160Y-107023100D01*
X118395160Y-106562222D01*
X118454573Y-106610981D01*
X118721239Y-106753517D01*
X119010587Y-106841290D01*
X119236092Y-106863500D01*
X121186908Y-106863500D01*
X121412413Y-106841290D01*
X121701761Y-106753517D01*
X121968427Y-106610981D01*
X122202161Y-106419161D01*
X122393981Y-106185427D01*
X122536517Y-105918761D01*
X122624290Y-105629413D01*
X122653927Y-105328500D01*
X122624290Y-105027587D01*
X122536517Y-104738239D01*
X122400143Y-104483100D01*
X134986765Y-104483100D01*
X135010610Y-104725202D01*
X135081229Y-104958001D01*
X135195907Y-105172549D01*
X135350238Y-105360602D01*
X135538291Y-105514933D01*
X135752839Y-105629611D01*
X135985638Y-105700230D01*
X136167075Y-105718100D01*
X137088405Y-105718100D01*
X137269842Y-105700230D01*
X137502641Y-105629611D01*
X137717189Y-105514933D01*
X137905242Y-105360602D01*
X138059573Y-105172549D01*
X138174251Y-104958001D01*
X138244870Y-104725202D01*
X138268715Y-104483100D01*
X138244870Y-104240998D01*
X138174251Y-104008199D01*
X138059573Y-103793651D01*
X137905242Y-103605598D01*
X137717189Y-103451267D01*
X137502641Y-103336589D01*
X137269842Y-103265970D01*
X137088405Y-103248100D01*
X136167075Y-103248100D01*
X135985638Y-103265970D01*
X135752839Y-103336589D01*
X135538291Y-103451267D01*
X135350238Y-103605598D01*
X135195907Y-103793651D01*
X135081229Y-104008199D01*
X135010610Y-104240998D01*
X134986765Y-104483100D01*
X122400143Y-104483100D01*
X122393981Y-104471573D01*
X122202161Y-104237839D01*
X121968427Y-104046019D01*
X121701761Y-103903483D01*
X121412413Y-103815710D01*
X121186908Y-103793500D01*
X119236092Y-103793500D01*
X119010587Y-103815710D01*
X118721239Y-103903483D01*
X118454573Y-104046019D01*
X118395160Y-104094778D01*
X118395160Y-103062222D01*
X118454573Y-103110981D01*
X118721239Y-103253517D01*
X119010587Y-103341290D01*
X119236092Y-103363500D01*
X121186908Y-103363500D01*
X121412413Y-103341290D01*
X121701761Y-103253517D01*
X121968427Y-103110981D01*
X122202161Y-102919161D01*
X122393981Y-102685427D01*
X122536517Y-102418761D01*
X122624290Y-102129413D01*
X122642640Y-101943100D01*
X134986765Y-101943100D01*
X135010610Y-102185202D01*
X135081229Y-102418001D01*
X135195907Y-102632549D01*
X135350238Y-102820602D01*
X135538291Y-102974933D01*
X135752839Y-103089611D01*
X135985638Y-103160230D01*
X136167075Y-103178100D01*
X137088405Y-103178100D01*
X137269842Y-103160230D01*
X137502641Y-103089611D01*
X137717189Y-102974933D01*
X137905242Y-102820602D01*
X138059573Y-102632549D01*
X138174251Y-102418001D01*
X138244870Y-102185202D01*
X138268715Y-101943100D01*
X138244870Y-101700998D01*
X138174251Y-101468199D01*
X138059573Y-101253651D01*
X137905242Y-101065598D01*
X137717189Y-100911267D01*
X137502641Y-100796589D01*
X137269842Y-100725970D01*
X137088405Y-100708100D01*
X136167075Y-100708100D01*
X135985638Y-100725970D01*
X135752839Y-100796589D01*
X135538291Y-100911267D01*
X135350238Y-101065598D01*
X135195907Y-101253651D01*
X135081229Y-101468199D01*
X135010610Y-101700998D01*
X134986765Y-101943100D01*
X122642640Y-101943100D01*
X122653927Y-101828500D01*
X122624290Y-101527587D01*
X122536517Y-101238239D01*
X122393981Y-100971573D01*
X122202161Y-100737839D01*
X121968427Y-100546019D01*
X121701761Y-100403483D01*
X121412413Y-100315710D01*
X121186908Y-100293500D01*
X119236092Y-100293500D01*
X119010587Y-100315710D01*
X118721239Y-100403483D01*
X118454573Y-100546019D01*
X118395160Y-100594778D01*
X118395160Y-99562222D01*
X118454573Y-99610981D01*
X118721239Y-99753517D01*
X119010587Y-99841290D01*
X119236092Y-99863500D01*
X121186908Y-99863500D01*
X121412413Y-99841290D01*
X121701761Y-99753517D01*
X121968427Y-99610981D01*
X122202161Y-99419161D01*
X122215341Y-99403100D01*
X134986765Y-99403100D01*
X135010610Y-99645202D01*
X135081229Y-99878001D01*
X135195907Y-100092549D01*
X135350238Y-100280602D01*
X135538291Y-100434933D01*
X135752839Y-100549611D01*
X135985638Y-100620230D01*
X136167075Y-100638100D01*
X137088405Y-100638100D01*
X137269842Y-100620230D01*
X137502641Y-100549611D01*
X137717189Y-100434933D01*
X137905242Y-100280602D01*
X138059573Y-100092549D01*
X138174251Y-99878001D01*
X138244870Y-99645202D01*
X138268715Y-99403100D01*
X138244870Y-99160998D01*
X138174251Y-98928199D01*
X138059573Y-98713651D01*
X137905242Y-98525598D01*
X137717189Y-98371267D01*
X137502641Y-98256589D01*
X137269842Y-98185970D01*
X137088405Y-98168100D01*
X136167075Y-98168100D01*
X135985638Y-98185970D01*
X135752839Y-98256589D01*
X135538291Y-98371267D01*
X135350238Y-98525598D01*
X135195907Y-98713651D01*
X135081229Y-98928199D01*
X135010610Y-99160998D01*
X134986765Y-99403100D01*
X122215341Y-99403100D01*
X122393981Y-99185427D01*
X122536517Y-98918761D01*
X122624290Y-98629413D01*
X122653927Y-98328500D01*
X122624290Y-98027587D01*
X122536517Y-97738239D01*
X122393981Y-97471573D01*
X122202161Y-97237839D01*
X121968427Y-97046019D01*
X121701761Y-96903483D01*
X121568637Y-96863100D01*
X134986765Y-96863100D01*
X135010610Y-97105202D01*
X135081229Y-97338001D01*
X135195907Y-97552549D01*
X135350238Y-97740602D01*
X135538291Y-97894933D01*
X135752839Y-98009611D01*
X135985638Y-98080230D01*
X136167075Y-98098100D01*
X137088405Y-98098100D01*
X137269842Y-98080230D01*
X137502641Y-98009611D01*
X137717189Y-97894933D01*
X137905242Y-97740602D01*
X138059573Y-97552549D01*
X138174251Y-97338001D01*
X138244870Y-97105202D01*
X138268715Y-96863100D01*
X138244870Y-96620998D01*
X138174251Y-96388199D01*
X138059573Y-96173651D01*
X137905242Y-95985598D01*
X137717189Y-95831267D01*
X137502641Y-95716589D01*
X137269842Y-95645970D01*
X137088405Y-95628100D01*
X136167075Y-95628100D01*
X135985638Y-95645970D01*
X135752839Y-95716589D01*
X135538291Y-95831267D01*
X135350238Y-95985598D01*
X135195907Y-96173651D01*
X135081229Y-96388199D01*
X135010610Y-96620998D01*
X134986765Y-96863100D01*
X121568637Y-96863100D01*
X121412413Y-96815710D01*
X121186908Y-96793500D01*
X119236092Y-96793500D01*
X119010587Y-96815710D01*
X118721239Y-96903483D01*
X118454573Y-97046019D01*
X118395160Y-97094778D01*
X118395160Y-96062222D01*
X118454573Y-96110981D01*
X118721239Y-96253517D01*
X119010587Y-96341290D01*
X119236092Y-96363500D01*
X121186908Y-96363500D01*
X121412413Y-96341290D01*
X121701761Y-96253517D01*
X121968427Y-96110981D01*
X122202161Y-95919161D01*
X122329908Y-95763500D01*
X122565568Y-95763500D01*
X122611500Y-95768024D01*
X122657432Y-95763500D01*
X122794792Y-95749971D01*
X122971040Y-95696507D01*
X123133472Y-95609686D01*
X123275844Y-95492844D01*
X123305130Y-95457159D01*
X124439189Y-94323100D01*
X134986765Y-94323100D01*
X135010610Y-94565202D01*
X135081229Y-94798001D01*
X135195907Y-95012549D01*
X135350238Y-95200602D01*
X135538291Y-95354933D01*
X135752839Y-95469611D01*
X135985638Y-95540230D01*
X136167075Y-95558100D01*
X137088405Y-95558100D01*
X137269842Y-95540230D01*
X137502641Y-95469611D01*
X137717189Y-95354933D01*
X137905242Y-95200602D01*
X138059573Y-95012549D01*
X138174251Y-94798001D01*
X138244870Y-94565202D01*
X138268715Y-94323100D01*
X138244870Y-94080998D01*
X138174251Y-93848199D01*
X138059573Y-93633651D01*
X137905242Y-93445598D01*
X137717189Y-93291267D01*
X137502641Y-93176589D01*
X137269842Y-93105970D01*
X137088405Y-93088100D01*
X136167075Y-93088100D01*
X135985638Y-93105970D01*
X135752839Y-93176589D01*
X135538291Y-93291267D01*
X135350238Y-93445598D01*
X135195907Y-93633651D01*
X135081229Y-93848199D01*
X135010610Y-94080998D01*
X134986765Y-94323100D01*
X124439189Y-94323100D01*
X124771160Y-93991129D01*
X124806844Y-93961844D01*
X124923686Y-93819472D01*
X125010507Y-93657040D01*
X125063971Y-93480792D01*
X125077500Y-93343432D01*
X125077500Y-93343431D01*
X125082024Y-93297500D01*
X125077500Y-93251568D01*
X125077500Y-91783100D01*
X134986765Y-91783100D01*
X135010610Y-92025202D01*
X135081229Y-92258001D01*
X135195907Y-92472549D01*
X135350238Y-92660602D01*
X135538291Y-92814933D01*
X135752839Y-92929611D01*
X135985638Y-93000230D01*
X136167075Y-93018100D01*
X137088405Y-93018100D01*
X137269842Y-93000230D01*
X137502641Y-92929611D01*
X137717189Y-92814933D01*
X137905242Y-92660602D01*
X138059573Y-92472549D01*
X138174251Y-92258001D01*
X138244870Y-92025202D01*
X138268715Y-91783100D01*
X138244870Y-91540998D01*
X138174251Y-91308199D01*
X138059573Y-91093651D01*
X137905242Y-90905598D01*
X137717189Y-90751267D01*
X137502641Y-90636589D01*
X137269842Y-90565970D01*
X137088405Y-90548100D01*
X136167075Y-90548100D01*
X135985638Y-90565970D01*
X135752839Y-90636589D01*
X135538291Y-90751267D01*
X135350238Y-90905598D01*
X135195907Y-91093651D01*
X135081229Y-91308199D01*
X135010610Y-91540998D01*
X134986765Y-91783100D01*
X125077500Y-91783100D01*
X125077500Y-89243100D01*
X134986765Y-89243100D01*
X135010610Y-89485202D01*
X135081229Y-89718001D01*
X135195907Y-89932549D01*
X135350238Y-90120602D01*
X135538291Y-90274933D01*
X135752839Y-90389611D01*
X135985638Y-90460230D01*
X136167075Y-90478100D01*
X137088405Y-90478100D01*
X137269842Y-90460230D01*
X137502641Y-90389611D01*
X137717189Y-90274933D01*
X137905242Y-90120602D01*
X138059573Y-89932549D01*
X138174251Y-89718001D01*
X138244870Y-89485202D01*
X138268715Y-89243100D01*
X138244870Y-89000998D01*
X138174251Y-88768199D01*
X138059573Y-88553651D01*
X137905242Y-88365598D01*
X137717189Y-88211267D01*
X137502641Y-88096589D01*
X137269842Y-88025970D01*
X137088405Y-88008100D01*
X136167075Y-88008100D01*
X135985638Y-88025970D01*
X135752839Y-88096589D01*
X135538291Y-88211267D01*
X135350238Y-88365598D01*
X135195907Y-88553651D01*
X135081229Y-88768199D01*
X135010610Y-89000998D01*
X134986765Y-89243100D01*
X125077500Y-89243100D01*
X125077500Y-86703100D01*
X134986765Y-86703100D01*
X135010610Y-86945202D01*
X135081229Y-87178001D01*
X135195907Y-87392549D01*
X135350238Y-87580602D01*
X135538291Y-87734933D01*
X135752839Y-87849611D01*
X135985638Y-87920230D01*
X136167075Y-87938100D01*
X137088405Y-87938100D01*
X137269842Y-87920230D01*
X137502641Y-87849611D01*
X137717189Y-87734933D01*
X137905242Y-87580602D01*
X138059573Y-87392549D01*
X138174251Y-87178001D01*
X138244870Y-86945202D01*
X138268715Y-86703100D01*
X138244870Y-86460998D01*
X138174251Y-86228199D01*
X138059573Y-86013651D01*
X137905242Y-85825598D01*
X137717189Y-85671267D01*
X137502641Y-85556589D01*
X137269842Y-85485970D01*
X137088405Y-85468100D01*
X136167075Y-85468100D01*
X135985638Y-85485970D01*
X135752839Y-85556589D01*
X135538291Y-85671267D01*
X135350238Y-85825598D01*
X135195907Y-86013651D01*
X135081229Y-86228199D01*
X135010610Y-86460998D01*
X134986765Y-86703100D01*
X125077500Y-86703100D01*
X125077500Y-86380432D01*
X125082024Y-86334500D01*
X125063971Y-86151208D01*
X125049474Y-86103418D01*
X125010507Y-85974960D01*
X124923686Y-85812528D01*
X124806844Y-85670156D01*
X124771159Y-85640870D01*
X123933789Y-84803500D01*
X124771160Y-83966129D01*
X124806844Y-83936844D01*
X124923686Y-83794472D01*
X125010507Y-83632040D01*
X125063971Y-83455792D01*
X125077500Y-83318432D01*
X125077500Y-83318431D01*
X125082024Y-83272500D01*
X125077500Y-83226568D01*
X125077500Y-77412789D01*
X125418789Y-77071500D01*
X135439211Y-77071500D01*
X135692740Y-77325030D01*
X135692741Y-83048712D01*
X135538291Y-83131267D01*
X135350238Y-83285598D01*
X135195907Y-83473651D01*
X135081229Y-83688199D01*
X135010610Y-83920998D01*
X134986765Y-84163100D01*
X135010610Y-84405202D01*
X135081229Y-84638001D01*
X135195907Y-84852549D01*
X135350238Y-85040602D01*
X135538291Y-85194933D01*
X135752839Y-85309611D01*
X135985638Y-85380230D01*
X136167075Y-85398100D01*
X137088405Y-85398100D01*
X137269842Y-85380230D01*
X137502641Y-85309611D01*
X137717189Y-85194933D01*
X137905242Y-85040602D01*
X138059573Y-84852549D01*
X138174251Y-84638001D01*
X138244870Y-84405202D01*
X138268715Y-84163100D01*
X138244870Y-83920998D01*
X138174251Y-83688199D01*
X138059573Y-83473651D01*
X137905242Y-83285598D01*
X137717189Y-83131267D01*
X137562740Y-83048713D01*
X137562740Y-76983664D01*
X137567263Y-76937739D01*
X137562740Y-76891814D01*
X137562740Y-76891808D01*
X137549211Y-76754448D01*
X137495747Y-76578200D01*
X137408926Y-76415768D01*
X137292084Y-76273396D01*
X137256405Y-76244115D01*
X136520130Y-75507841D01*
X136490844Y-75472156D01*
X136348472Y-75355314D01*
X136186040Y-75268493D01*
X136009792Y-75215029D01*
X135872432Y-75201500D01*
X135826500Y-75196976D01*
X135780568Y-75201500D01*
X125077432Y-75201500D01*
X125031500Y-75196976D01*
X124985568Y-75201500D01*
X124848208Y-75215029D01*
X124671960Y-75268493D01*
X124509528Y-75355314D01*
X124367156Y-75472156D01*
X124337870Y-75507841D01*
X123513836Y-76331875D01*
X123478157Y-76361156D01*
X123361315Y-76503528D01*
X123321402Y-76578201D01*
X123274494Y-76665960D01*
X123221029Y-76842209D01*
X123202976Y-77025500D01*
X123207501Y-77071442D01*
X123207500Y-82885211D01*
X122282265Y-83810446D01*
X122202161Y-83712839D01*
X121968427Y-83521019D01*
X121701761Y-83378483D01*
X121412413Y-83290710D01*
X121186908Y-83268500D01*
X119236092Y-83268500D01*
X119010587Y-83290710D01*
X118721239Y-83378483D01*
X118454573Y-83521019D01*
X118395160Y-83569778D01*
X118395160Y-82537222D01*
X118454573Y-82585981D01*
X118721239Y-82728517D01*
X119010587Y-82816290D01*
X119236092Y-82838500D01*
X121186908Y-82838500D01*
X121412413Y-82816290D01*
X121701761Y-82728517D01*
X121968427Y-82585981D01*
X122202161Y-82394161D01*
X122393981Y-82160427D01*
X122536517Y-81893761D01*
X122624290Y-81604413D01*
X122653927Y-81303500D01*
X122624290Y-81002587D01*
X122536517Y-80713239D01*
X122393981Y-80446573D01*
X122202161Y-80212839D01*
X121968427Y-80021019D01*
X121701761Y-79878483D01*
X121412413Y-79790710D01*
X121186908Y-79768500D01*
X119236092Y-79768500D01*
X119010587Y-79790710D01*
X118721239Y-79878483D01*
X118454573Y-80021019D01*
X118395160Y-80069778D01*
X118395160Y-79037222D01*
X118454573Y-79085981D01*
X118721239Y-79228517D01*
X119010587Y-79316290D01*
X119236092Y-79338500D01*
X121186908Y-79338500D01*
X121412413Y-79316290D01*
X121701761Y-79228517D01*
X121968427Y-79085981D01*
X122202161Y-78894161D01*
X122393981Y-78660427D01*
X122536517Y-78393761D01*
X122624290Y-78104413D01*
X122653927Y-77803500D01*
X122624290Y-77502587D01*
X122536517Y-77213239D01*
X122393981Y-76946573D01*
X122202161Y-76712839D01*
X121968427Y-76521019D01*
X121701761Y-76378483D01*
X121412413Y-76290710D01*
X121186908Y-76268500D01*
X119236092Y-76268500D01*
X119010587Y-76290710D01*
X118721239Y-76378483D01*
X118454573Y-76521019D01*
X118395160Y-76569778D01*
X118395160Y-75537222D01*
X118454573Y-75585981D01*
X118721239Y-75728517D01*
X119010587Y-75816290D01*
X119236092Y-75838500D01*
X121186908Y-75838500D01*
X121412413Y-75816290D01*
X121701761Y-75728517D01*
X121968427Y-75585981D01*
X122202161Y-75394161D01*
X122393981Y-75160427D01*
X122536517Y-74893761D01*
X122624290Y-74604413D01*
X122653927Y-74303500D01*
X122624290Y-74002587D01*
X122536517Y-73713239D01*
X122393981Y-73446573D01*
X122202161Y-73212839D01*
X121968427Y-73021019D01*
X121701761Y-72878483D01*
X121412413Y-72790710D01*
X121186908Y-72768500D01*
X119236092Y-72768500D01*
X119010587Y-72790710D01*
X118721239Y-72878483D01*
X118454573Y-73021019D01*
X118395160Y-73069778D01*
X118395160Y-72037222D01*
X118454573Y-72085981D01*
X118721239Y-72228517D01*
X119010587Y-72316290D01*
X119236092Y-72338500D01*
X121186908Y-72338500D01*
X121412413Y-72316290D01*
X121701761Y-72228517D01*
X121968427Y-72085981D01*
X122202161Y-71894161D01*
X122393981Y-71660427D01*
X122536517Y-71393761D01*
X122624290Y-71104413D01*
X122653927Y-70803500D01*
X122624290Y-70502587D01*
X122536517Y-70213239D01*
X122393981Y-69946573D01*
X122202161Y-69712839D01*
X121968427Y-69521019D01*
X121701761Y-69378483D01*
X121412413Y-69290710D01*
X121186908Y-69268500D01*
X119236092Y-69268500D01*
X119010587Y-69290710D01*
X118721239Y-69378483D01*
X118454573Y-69521019D01*
X118395160Y-69569778D01*
X118395160Y-68537222D01*
X118454573Y-68585981D01*
X118721239Y-68728517D01*
X119010587Y-68816290D01*
X119236092Y-68838500D01*
X121186908Y-68838500D01*
X121412413Y-68816290D01*
X121701761Y-68728517D01*
X121968427Y-68585981D01*
X122202161Y-68394161D01*
X122393981Y-68160427D01*
X122536517Y-67893761D01*
X122624290Y-67604413D01*
X122653927Y-67303500D01*
X122624290Y-67002587D01*
X122536517Y-66713239D01*
X122393981Y-66446573D01*
X122202161Y-66212839D01*
X121968427Y-66021019D01*
X121701761Y-65878483D01*
X121412413Y-65790710D01*
X121186908Y-65768500D01*
X119236092Y-65768500D01*
X119010587Y-65790710D01*
X118721239Y-65878483D01*
X118454573Y-66021019D01*
X118395160Y-66069778D01*
X118395160Y-65037222D01*
X118454573Y-65085981D01*
X118721239Y-65228517D01*
X119010587Y-65316290D01*
X119236092Y-65338500D01*
X121186908Y-65338500D01*
X121412413Y-65316290D01*
X121701761Y-65228517D01*
X121968427Y-65085981D01*
X122202161Y-64894161D01*
X122393981Y-64660427D01*
X122536517Y-64393761D01*
X122624290Y-64104413D01*
X122653927Y-63803500D01*
X122624290Y-63502587D01*
X122536517Y-63213239D01*
X122393981Y-62946573D01*
X122202161Y-62712839D01*
X121968427Y-62521019D01*
X121701761Y-62378483D01*
X121412413Y-62290710D01*
X121186908Y-62268500D01*
X119236092Y-62268500D01*
X119010587Y-62290710D01*
X118721239Y-62378483D01*
X118454573Y-62521019D01*
X118395160Y-62569778D01*
X118395160Y-61537222D01*
X118454573Y-61585981D01*
X118721239Y-61728517D01*
X119010587Y-61816290D01*
X119236092Y-61838500D01*
X121186908Y-61838500D01*
X121412413Y-61816290D01*
X121701761Y-61728517D01*
X121968427Y-61585981D01*
X122202161Y-61394161D01*
X122393981Y-61160427D01*
X122536517Y-60893761D01*
X122624290Y-60604413D01*
X122653927Y-60303500D01*
X122624290Y-60002587D01*
X122536517Y-59713239D01*
X122393981Y-59446573D01*
X122202161Y-59212839D01*
X121968427Y-59021019D01*
X121701761Y-58878483D01*
X121412413Y-58790710D01*
X121186908Y-58768500D01*
X119236092Y-58768500D01*
X119010587Y-58790710D01*
X118721239Y-58878483D01*
X118454573Y-59021019D01*
X118395160Y-59069778D01*
X118395160Y-58036408D01*
X118606749Y-58173054D01*
X118887477Y-58284229D01*
X119184500Y-58338500D01*
X120084500Y-58338500D01*
X120084500Y-56930500D01*
X120338500Y-56930500D01*
X120338500Y-58338500D01*
X121238500Y-58338500D01*
X121535523Y-58284229D01*
X121816251Y-58173054D01*
X122069896Y-58009248D01*
X122286710Y-57799106D01*
X122458362Y-57550704D01*
X122578255Y-57273587D01*
X122602536Y-57168240D01*
X122481878Y-56930500D01*
X120338500Y-56930500D01*
X120084500Y-56930500D01*
X120064500Y-56930500D01*
X120064500Y-56676500D01*
X120084500Y-56676500D01*
X120084500Y-55268500D01*
X120338500Y-55268500D01*
X120338500Y-56676500D01*
X122481878Y-56676500D01*
X122602536Y-56438760D01*
X122578255Y-56333413D01*
X122458362Y-56056296D01*
X122286710Y-55807894D01*
X122069896Y-55597752D01*
X121816251Y-55433946D01*
X121535523Y-55322771D01*
X121238500Y-55268500D01*
X120338500Y-55268500D01*
X120084500Y-55268500D01*
X119184500Y-55268500D01*
X118887477Y-55322771D01*
X118606749Y-55433946D01*
X118395160Y-55570592D01*
X118395160Y-50735198D01*
X118419117Y-50449142D01*
X119152799Y-50449142D01*
X119152799Y-50857618D01*
X119232488Y-51258246D01*
X119388805Y-51635628D01*
X119615743Y-51975264D01*
X119904579Y-52264100D01*
X120244215Y-52491038D01*
X120621597Y-52647355D01*
X121022225Y-52727044D01*
X121430701Y-52727044D01*
X121831329Y-52647355D01*
X122208711Y-52491038D01*
X122548347Y-52264100D01*
X122837183Y-51975264D01*
X123064121Y-51635628D01*
X123220438Y-51258246D01*
X123300127Y-50857618D01*
X123300127Y-50449142D01*
X123220438Y-50048514D01*
X123064121Y-49671132D01*
X122837183Y-49331496D01*
X122548347Y-49042660D01*
X122208711Y-48815722D01*
X121831329Y-48659405D01*
X121430701Y-48579716D01*
X121022225Y-48579716D01*
X120621597Y-48659405D01*
X120244215Y-48815722D01*
X119904579Y-49042660D01*
X119615743Y-49331496D01*
X119388805Y-49671132D01*
X119232488Y-50048514D01*
X119152799Y-50449142D01*
X118419117Y-50449142D01*
X118445227Y-50137388D01*
X118599062Y-49600453D01*
X118854255Y-49103632D01*
X119201088Y-48665839D01*
X119626354Y-48303747D01*
X120113850Y-48031153D01*
X120645003Y-47858442D01*
X121228325Y-47788754D01*
X121263517Y-47788381D01*
X170128141Y-47813363D01*
G37*
X170128141Y-47813363D02*
X170726152Y-47863447D01*
X171263087Y-48017282D01*
X171759908Y-48272475D01*
X172197701Y-48619308D01*
X172559793Y-49044574D01*
X172832387Y-49532070D01*
X173005098Y-50063223D01*
X173074786Y-50646545D01*
X173075160Y-50681875D01*
X173075161Y-129121091D01*
X173027490Y-129607274D01*
X172895672Y-130043877D01*
X172681559Y-130446566D01*
X172393310Y-130799993D01*
X172041899Y-131090707D01*
X171640724Y-131307620D01*
X171205046Y-131442486D01*
X170720824Y-131493380D01*
X169167909Y-131493380D01*
X172396159Y-128265130D01*
X172431844Y-128235844D01*
X172548686Y-128093472D01*
X172605265Y-127987620D01*
X172635507Y-127931041D01*
X172688972Y-127754792D01*
X172707024Y-127571500D01*
X172702500Y-127525565D01*
X172702500Y-127002795D01*
X172762726Y-126857398D01*
X172802500Y-126657439D01*
X172802500Y-126453561D01*
X172762726Y-126253602D01*
X172684705Y-126065244D01*
X172571437Y-125895726D01*
X172427274Y-125751563D01*
X172257756Y-125638295D01*
X172069398Y-125560274D01*
X171869439Y-125520500D01*
X171665561Y-125520500D01*
X171465602Y-125560274D01*
X171277244Y-125638295D01*
X171107726Y-125751563D01*
X170963563Y-125895726D01*
X170850295Y-126065244D01*
X170772274Y-126253602D01*
X170732500Y-126453561D01*
X170732500Y-126657439D01*
X170772274Y-126857398D01*
X170832500Y-127002796D01*
X170832501Y-127184210D01*
X167697211Y-130319500D01*
X163581425Y-130319500D01*
X163641190Y-130122482D01*
X163665035Y-129880380D01*
X163641190Y-129638278D01*
X163570571Y-129405479D01*
X163455893Y-129190931D01*
X163301562Y-129002878D01*
X163113509Y-128848547D01*
X162898961Y-128733869D01*
X162666162Y-128663250D01*
X162484725Y-128645380D01*
X161563395Y-128645380D01*
X161381958Y-128663250D01*
X161149159Y-128733869D01*
X160934611Y-128848547D01*
X160746558Y-129002878D01*
X160592227Y-129190931D01*
X160477549Y-129405479D01*
X160406930Y-129638278D01*
X160383085Y-129880380D01*
X160406930Y-130122482D01*
X160466695Y-130319500D01*
X155517790Y-130319500D01*
X152538670Y-127340380D01*
X160383085Y-127340380D01*
X160406930Y-127582482D01*
X160477549Y-127815281D01*
X160592227Y-128029829D01*
X160746558Y-128217882D01*
X160934611Y-128372213D01*
X161149159Y-128486891D01*
X161381958Y-128557510D01*
X161563395Y-128575380D01*
X162484725Y-128575380D01*
X162666162Y-128557510D01*
X162898961Y-128486891D01*
X163113509Y-128372213D01*
X163301562Y-128217882D01*
X163455893Y-128029829D01*
X163570571Y-127815281D01*
X163641190Y-127582482D01*
X163665035Y-127340380D01*
X163641190Y-127098278D01*
X163570571Y-126865479D01*
X163455893Y-126650931D01*
X163301562Y-126462878D01*
X163113509Y-126308547D01*
X162898961Y-126193869D01*
X162666162Y-126123250D01*
X162484725Y-126105380D01*
X161563395Y-126105380D01*
X161381958Y-126123250D01*
X161149159Y-126193869D01*
X160934611Y-126308547D01*
X160746558Y-126462878D01*
X160592227Y-126650931D01*
X160477549Y-126865479D01*
X160406930Y-127098278D01*
X160383085Y-127340380D01*
X152538670Y-127340380D01*
X150904500Y-125706211D01*
X150904500Y-124803100D01*
X160386765Y-124803100D01*
X160410610Y-125045202D01*
X160481229Y-125278001D01*
X160595907Y-125492549D01*
X160750238Y-125680602D01*
X160938291Y-125834933D01*
X161152839Y-125949611D01*
X161385638Y-126020230D01*
X161567075Y-126038100D01*
X162488405Y-126038100D01*
X162669842Y-126020230D01*
X162902641Y-125949611D01*
X163117189Y-125834933D01*
X163305242Y-125680602D01*
X163459573Y-125492549D01*
X163574251Y-125278001D01*
X163644870Y-125045202D01*
X163668715Y-124803100D01*
X163644870Y-124560998D01*
X163574251Y-124328199D01*
X163459573Y-124113651D01*
X163305242Y-123925598D01*
X163117189Y-123771267D01*
X162902641Y-123656589D01*
X162669842Y-123585970D01*
X162488405Y-123568100D01*
X161567075Y-123568100D01*
X161385638Y-123585970D01*
X161152839Y-123656589D01*
X160938291Y-123771267D01*
X160750238Y-123925598D01*
X160595907Y-124113651D01*
X160481229Y-124328199D01*
X160410610Y-124560998D01*
X160386765Y-124803100D01*
X150904500Y-124803100D01*
X150904500Y-122263100D01*
X160386765Y-122263100D01*
X160410610Y-122505202D01*
X160481229Y-122738001D01*
X160595907Y-122952549D01*
X160750238Y-123140602D01*
X160938291Y-123294933D01*
X161152839Y-123409611D01*
X161385638Y-123480230D01*
X161567075Y-123498100D01*
X162488405Y-123498100D01*
X162669842Y-123480230D01*
X162902641Y-123409611D01*
X163117189Y-123294933D01*
X163305242Y-123140602D01*
X163459573Y-122952549D01*
X163574251Y-122738001D01*
X163644870Y-122505202D01*
X163668715Y-122263100D01*
X163644870Y-122020998D01*
X163574251Y-121788199D01*
X163459573Y-121573651D01*
X163305242Y-121385598D01*
X163117189Y-121231267D01*
X162902641Y-121116589D01*
X162669842Y-121045970D01*
X162488405Y-121028100D01*
X161567075Y-121028100D01*
X161385638Y-121045970D01*
X161152839Y-121116589D01*
X160938291Y-121231267D01*
X160750238Y-121385598D01*
X160595907Y-121573651D01*
X160481229Y-121788199D01*
X160410610Y-122020998D01*
X160386765Y-122263100D01*
X150904500Y-122263100D01*
X150904500Y-119723100D01*
X160386765Y-119723100D01*
X160410610Y-119965202D01*
X160481229Y-120198001D01*
X160595907Y-120412549D01*
X160750238Y-120600602D01*
X160938291Y-120754933D01*
X161152839Y-120869611D01*
X161385638Y-120940230D01*
X161567075Y-120958100D01*
X162488405Y-120958100D01*
X162669842Y-120940230D01*
X162902641Y-120869611D01*
X163117189Y-120754933D01*
X163305242Y-120600602D01*
X163459573Y-120412549D01*
X163574251Y-120198001D01*
X163644870Y-119965202D01*
X163668715Y-119723100D01*
X163644870Y-119480998D01*
X163574251Y-119248199D01*
X163459573Y-119033651D01*
X163305242Y-118845598D01*
X163117189Y-118691267D01*
X162902641Y-118576589D01*
X162669842Y-118505970D01*
X162488405Y-118488100D01*
X161567075Y-118488100D01*
X161385638Y-118505970D01*
X161152839Y-118576589D01*
X160938291Y-118691267D01*
X160750238Y-118845598D01*
X160595907Y-119033651D01*
X160481229Y-119248199D01*
X160410610Y-119480998D01*
X160386765Y-119723100D01*
X150904500Y-119723100D01*
X150904500Y-117183100D01*
X160386765Y-117183100D01*
X160410610Y-117425202D01*
X160481229Y-117658001D01*
X160595907Y-117872549D01*
X160750238Y-118060602D01*
X160938291Y-118214933D01*
X161152839Y-118329611D01*
X161385638Y-118400230D01*
X161567075Y-118418100D01*
X162488405Y-118418100D01*
X162669842Y-118400230D01*
X162902641Y-118329611D01*
X163117189Y-118214933D01*
X163305242Y-118060602D01*
X163459573Y-117872549D01*
X163574251Y-117658001D01*
X163644870Y-117425202D01*
X163668715Y-117183100D01*
X163644870Y-116940998D01*
X163574251Y-116708199D01*
X163459573Y-116493651D01*
X163305242Y-116305598D01*
X163117189Y-116151267D01*
X162902641Y-116036589D01*
X162669842Y-115965970D01*
X162488405Y-115948100D01*
X161567075Y-115948100D01*
X161385638Y-115965970D01*
X161152839Y-116036589D01*
X160938291Y-116151267D01*
X160750238Y-116305598D01*
X160595907Y-116493651D01*
X160481229Y-116708199D01*
X160410610Y-116940998D01*
X160386765Y-117183100D01*
X150904500Y-117183100D01*
X150904500Y-114643100D01*
X160386765Y-114643100D01*
X160410610Y-114885202D01*
X160481229Y-115118001D01*
X160595907Y-115332549D01*
X160750238Y-115520602D01*
X160938291Y-115674933D01*
X161152839Y-115789611D01*
X161385638Y-115860230D01*
X161567075Y-115878100D01*
X162488405Y-115878100D01*
X162669842Y-115860230D01*
X162902641Y-115789611D01*
X163117189Y-115674933D01*
X163305242Y-115520602D01*
X163459573Y-115332549D01*
X163574251Y-115118001D01*
X163644870Y-114885202D01*
X163668715Y-114643100D01*
X163644870Y-114400998D01*
X163574251Y-114168199D01*
X163459573Y-113953651D01*
X163305242Y-113765598D01*
X163117189Y-113611267D01*
X162902641Y-113496589D01*
X162669842Y-113425970D01*
X162488405Y-113408100D01*
X161567075Y-113408100D01*
X161385638Y-113425970D01*
X161152839Y-113496589D01*
X160938291Y-113611267D01*
X160750238Y-113765598D01*
X160595907Y-113953651D01*
X160481229Y-114168199D01*
X160410610Y-114400998D01*
X160386765Y-114643100D01*
X150904500Y-114643100D01*
X150904500Y-107023100D01*
X160386765Y-107023100D01*
X160410610Y-107265202D01*
X160481229Y-107498001D01*
X160595907Y-107712549D01*
X160750238Y-107900602D01*
X160938291Y-108054933D01*
X161152839Y-108169611D01*
X161385638Y-108240230D01*
X161567075Y-108258100D01*
X162488405Y-108258100D01*
X162669842Y-108240230D01*
X162902641Y-108169611D01*
X163117189Y-108054933D01*
X163305242Y-107900602D01*
X163459573Y-107712549D01*
X163574251Y-107498001D01*
X163644870Y-107265202D01*
X163668715Y-107023100D01*
X163644870Y-106780998D01*
X163574251Y-106548199D01*
X163459573Y-106333651D01*
X163305242Y-106145598D01*
X163117189Y-105991267D01*
X162902641Y-105876589D01*
X162669842Y-105805970D01*
X162488405Y-105788100D01*
X161567075Y-105788100D01*
X161385638Y-105805970D01*
X161152839Y-105876589D01*
X160938291Y-105991267D01*
X160750238Y-106145598D01*
X160595907Y-106333651D01*
X160481229Y-106548199D01*
X160410610Y-106780998D01*
X160386765Y-107023100D01*
X150904500Y-107023100D01*
X150904500Y-99720709D01*
X160434278Y-99720709D01*
X160438149Y-99758382D01*
X160530319Y-99983633D01*
X160664662Y-100186574D01*
X160836015Y-100359407D01*
X161037794Y-100495490D01*
X161262244Y-100589593D01*
X161500740Y-100638100D01*
X161900740Y-100638100D01*
X161900740Y-99530100D01*
X160559009Y-99530100D01*
X160434278Y-99720709D01*
X150904500Y-99720709D01*
X150904500Y-99085491D01*
X160434278Y-99085491D01*
X160559009Y-99276100D01*
X161900740Y-99276100D01*
X161900740Y-98168100D01*
X161500740Y-98168100D01*
X161262244Y-98216607D01*
X161037794Y-98310710D01*
X160836015Y-98446793D01*
X160664662Y-98619626D01*
X160530319Y-98822567D01*
X160438149Y-99047818D01*
X160434278Y-99085491D01*
X150904500Y-99085491D01*
X150904500Y-61662053D01*
X158055053Y-54511500D01*
X167595835Y-54511500D01*
X167582258Y-54536900D01*
X167545948Y-54656598D01*
X167533688Y-54781080D01*
X167533688Y-56481080D01*
X167545948Y-56605562D01*
X167582258Y-56725260D01*
X167641223Y-56835574D01*
X167720575Y-56932265D01*
X167817266Y-57011617D01*
X167927580Y-57070582D01*
X168000140Y-57092593D01*
X167868285Y-57224448D01*
X167860513Y-57236080D01*
X162727851Y-57236080D01*
X162681919Y-57231556D01*
X162498627Y-57249609D01*
X162445163Y-57265827D01*
X162322380Y-57303073D01*
X162159948Y-57389894D01*
X162017576Y-57506736D01*
X161988295Y-57542415D01*
X151834841Y-67695870D01*
X151799156Y-67725156D01*
X151682314Y-67867529D01*
X151595493Y-68029961D01*
X151576606Y-68092224D01*
X151542029Y-68206209D01*
X151523976Y-68389500D01*
X151528500Y-68435432D01*
X151528501Y-88852918D01*
X151523976Y-88898860D01*
X151542029Y-89082151D01*
X151590853Y-89243100D01*
X151595494Y-89258400D01*
X151682315Y-89420832D01*
X151799157Y-89563204D01*
X151834836Y-89592485D01*
X159734115Y-97491765D01*
X159763396Y-97527444D01*
X159905768Y-97644286D01*
X160068200Y-97731107D01*
X160190983Y-97768353D01*
X160244447Y-97784571D01*
X160427739Y-97802624D01*
X160473671Y-97798100D01*
X160820300Y-97798100D01*
X160938291Y-97894933D01*
X161152839Y-98009611D01*
X161385638Y-98080230D01*
X161567075Y-98098100D01*
X162488405Y-98098100D01*
X162669842Y-98080230D01*
X162902641Y-98009611D01*
X163117189Y-97894933D01*
X163305242Y-97740602D01*
X163459573Y-97552549D01*
X163574251Y-97338001D01*
X163641500Y-97116311D01*
X163641500Y-99276098D01*
X163496472Y-99276098D01*
X163621202Y-99085491D01*
X163617331Y-99047818D01*
X163525161Y-98822567D01*
X163390818Y-98619626D01*
X163219465Y-98446793D01*
X163017686Y-98310710D01*
X162793236Y-98216607D01*
X162554740Y-98168100D01*
X162154740Y-98168100D01*
X162154740Y-99276100D01*
X162174740Y-99276100D01*
X162174740Y-99530100D01*
X162154740Y-99530100D01*
X162154740Y-100638100D01*
X162554740Y-100638100D01*
X162793236Y-100589593D01*
X163017686Y-100495490D01*
X163219465Y-100359407D01*
X163390818Y-100186574D01*
X163525161Y-99983633D01*
X163617331Y-99758382D01*
X163621202Y-99720709D01*
X163496472Y-99530102D01*
X163641500Y-99530102D01*
X163641500Y-101689889D01*
X163574251Y-101468199D01*
X163459573Y-101253651D01*
X163305242Y-101065598D01*
X163117189Y-100911267D01*
X162902641Y-100796589D01*
X162669842Y-100725970D01*
X162488405Y-100708100D01*
X161567075Y-100708100D01*
X161385638Y-100725970D01*
X161152839Y-100796589D01*
X160938291Y-100911267D01*
X160750238Y-101065598D01*
X160595907Y-101253651D01*
X160481229Y-101468199D01*
X160410610Y-101700998D01*
X160386765Y-101943100D01*
X160410610Y-102185202D01*
X160481229Y-102418001D01*
X160595907Y-102632549D01*
X160750238Y-102820602D01*
X160938291Y-102974933D01*
X161152839Y-103089611D01*
X161385638Y-103160230D01*
X161567075Y-103178100D01*
X162488405Y-103178100D01*
X162669842Y-103160230D01*
X162902641Y-103089611D01*
X163117189Y-102974933D01*
X163305242Y-102820602D01*
X163459573Y-102632549D01*
X163574251Y-102418001D01*
X163641500Y-102196311D01*
X163641500Y-104229889D01*
X163574251Y-104008199D01*
X163459573Y-103793651D01*
X163305242Y-103605598D01*
X163117189Y-103451267D01*
X162902641Y-103336589D01*
X162669842Y-103265970D01*
X162488405Y-103248100D01*
X161567075Y-103248100D01*
X161385638Y-103265970D01*
X161152839Y-103336589D01*
X160938291Y-103451267D01*
X160750238Y-103605598D01*
X160595907Y-103793651D01*
X160481229Y-104008199D01*
X160410610Y-104240998D01*
X160386765Y-104483100D01*
X160410610Y-104725202D01*
X160481229Y-104958001D01*
X160595907Y-105172549D01*
X160750238Y-105360602D01*
X160938291Y-105514933D01*
X161152839Y-105629611D01*
X161385638Y-105700230D01*
X161567075Y-105718100D01*
X162488405Y-105718100D01*
X162669842Y-105700230D01*
X162902641Y-105629611D01*
X163117189Y-105514933D01*
X163305242Y-105360602D01*
X163459573Y-105172549D01*
X163574251Y-104958001D01*
X163641500Y-104736311D01*
X163641500Y-106131178D01*
X163637824Y-106168500D01*
X163641500Y-106205822D01*
X163641500Y-106205832D01*
X163652497Y-106317485D01*
X163683340Y-106419161D01*
X163695954Y-106460746D01*
X163766526Y-106592776D01*
X163780587Y-106609909D01*
X163861499Y-106708501D01*
X163890503Y-106732304D01*
X165009512Y-107851314D01*
X165007218Y-107858877D01*
X164988096Y-107955010D01*
X164975836Y-108079491D01*
X164975836Y-108104050D01*
X164973428Y-108128500D01*
X164973428Y-108628500D01*
X164983237Y-108728100D01*
X163340122Y-108728100D01*
X163305242Y-108685598D01*
X163117189Y-108531267D01*
X162902641Y-108416589D01*
X162669842Y-108345970D01*
X162488405Y-108328100D01*
X161567075Y-108328100D01*
X161385638Y-108345970D01*
X161152839Y-108416589D01*
X160938291Y-108531267D01*
X160750238Y-108685598D01*
X160595907Y-108873651D01*
X160481229Y-109088199D01*
X160410610Y-109320998D01*
X160386765Y-109563100D01*
X160410610Y-109805202D01*
X160481229Y-110038001D01*
X160595907Y-110252549D01*
X160750238Y-110440602D01*
X160938291Y-110594933D01*
X161152839Y-110709611D01*
X161385638Y-110780230D01*
X161567075Y-110798100D01*
X162488405Y-110798100D01*
X162669842Y-110780230D01*
X162902641Y-110709611D01*
X163117189Y-110594933D01*
X163305242Y-110440602D01*
X163340122Y-110398100D01*
X165518467Y-110398100D01*
X165521308Y-110399998D01*
X165631625Y-110458964D01*
X165722181Y-110496473D01*
X165841877Y-110532782D01*
X165938010Y-110551904D01*
X166062491Y-110564164D01*
X166087050Y-110564164D01*
X166111500Y-110566572D01*
X166611500Y-110566572D01*
X166635950Y-110564164D01*
X166660509Y-110564164D01*
X166784990Y-110551904D01*
X166881123Y-110532782D01*
X167000819Y-110496473D01*
X167091375Y-110458964D01*
X167201692Y-110399998D01*
X167283191Y-110345542D01*
X167324500Y-110311641D01*
X167324500Y-110365698D01*
X166399771Y-111290428D01*
X166111500Y-111290428D01*
X166087050Y-111292836D01*
X166062491Y-111292836D01*
X165938010Y-111305096D01*
X165841877Y-111324218D01*
X165722181Y-111360527D01*
X165631625Y-111398036D01*
X165521308Y-111457002D01*
X165439809Y-111511458D01*
X165343118Y-111590810D01*
X165273810Y-111660118D01*
X165194458Y-111756809D01*
X165140002Y-111838308D01*
X165081036Y-111948625D01*
X165043527Y-112039181D01*
X165007218Y-112158877D01*
X164988096Y-112255010D01*
X164975836Y-112379491D01*
X164975836Y-112404050D01*
X164973428Y-112428500D01*
X164973428Y-112467920D01*
X164047186Y-111541679D01*
X164021031Y-111509809D01*
X163893886Y-111405464D01*
X163748827Y-111327928D01*
X163591429Y-111280182D01*
X163468759Y-111268100D01*
X163468758Y-111268100D01*
X163427740Y-111264060D01*
X163386722Y-111268100D01*
X163340122Y-111268100D01*
X163305242Y-111225598D01*
X163117189Y-111071267D01*
X162902641Y-110956589D01*
X162669842Y-110885970D01*
X162488405Y-110868100D01*
X161567075Y-110868100D01*
X161385638Y-110885970D01*
X161152839Y-110956589D01*
X160938291Y-111071267D01*
X160750238Y-111225598D01*
X160595907Y-111413651D01*
X160481229Y-111628199D01*
X160410610Y-111860998D01*
X160386765Y-112103100D01*
X160410610Y-112345202D01*
X160481229Y-112578001D01*
X160595907Y-112792549D01*
X160750238Y-112980602D01*
X160938291Y-113134933D01*
X161152839Y-113249611D01*
X161385638Y-113320230D01*
X161567075Y-113338100D01*
X162488405Y-113338100D01*
X162669842Y-113320230D01*
X162902641Y-113249611D01*
X163117189Y-113134933D01*
X163205901Y-113062129D01*
X164433703Y-114289932D01*
X164459849Y-114321791D01*
X164491708Y-114347937D01*
X164491710Y-114347939D01*
X164559391Y-114403483D01*
X164586994Y-114426136D01*
X164732053Y-114503672D01*
X164889451Y-114551418D01*
X165012121Y-114563500D01*
X165012122Y-114563500D01*
X165053140Y-114567540D01*
X165094158Y-114563500D01*
X165340428Y-114563500D01*
X165343118Y-114566190D01*
X165439809Y-114645542D01*
X165521308Y-114699998D01*
X165631625Y-114758964D01*
X165722181Y-114796473D01*
X165841877Y-114832782D01*
X165938010Y-114851904D01*
X166062491Y-114864164D01*
X166087050Y-114864164D01*
X166111500Y-114866572D01*
X166611500Y-114866572D01*
X166635950Y-114864164D01*
X166660509Y-114864164D01*
X166784990Y-114851904D01*
X166881123Y-114832782D01*
X167000819Y-114796473D01*
X167091375Y-114758964D01*
X167201692Y-114699998D01*
X167283191Y-114645542D01*
X167379882Y-114566190D01*
X167449190Y-114496882D01*
X167528542Y-114400191D01*
X167582998Y-114318692D01*
X167641964Y-114208375D01*
X167679473Y-114117819D01*
X167715782Y-113998123D01*
X167734904Y-113901990D01*
X167747164Y-113777509D01*
X167747164Y-113752950D01*
X167749572Y-113728500D01*
X167749572Y-113228500D01*
X167737312Y-113104018D01*
X167729571Y-113078500D01*
X167737312Y-113052982D01*
X167749572Y-112928500D01*
X167749572Y-112428500D01*
X167747164Y-112404050D01*
X167747164Y-112379491D01*
X167734904Y-112255010D01*
X167715782Y-112158877D01*
X167707669Y-112132132D01*
X168595504Y-111244298D01*
X168624501Y-111220501D01*
X168719474Y-111104776D01*
X168790046Y-110972747D01*
X168833503Y-110829486D01*
X168844500Y-110717833D01*
X168844500Y-110717832D01*
X168848177Y-110680500D01*
X168844500Y-110643167D01*
X168844500Y-110200324D01*
X168908276Y-110264100D01*
X169247912Y-110491038D01*
X169625294Y-110647355D01*
X170025922Y-110727044D01*
X170434398Y-110727044D01*
X170835026Y-110647355D01*
X171212408Y-110491038D01*
X171552044Y-110264100D01*
X171840880Y-109975264D01*
X172067818Y-109635628D01*
X172224135Y-109258246D01*
X172303824Y-108857618D01*
X172303824Y-108449142D01*
X172224135Y-108048514D01*
X172067818Y-107671132D01*
X171840880Y-107331496D01*
X171552044Y-107042660D01*
X171212408Y-106815722D01*
X170835026Y-106659405D01*
X170434398Y-106579716D01*
X170025922Y-106579716D01*
X169625294Y-106659405D01*
X169247912Y-106815722D01*
X168908276Y-107042660D01*
X168844500Y-107106436D01*
X168844500Y-106222956D01*
X168848176Y-106185633D01*
X168844500Y-106148310D01*
X168844500Y-106148300D01*
X168833503Y-106036647D01*
X168790046Y-105893386D01*
X168780889Y-105876254D01*
X168719474Y-105761356D01*
X168648299Y-105674630D01*
X168624501Y-105645632D01*
X168595503Y-105621834D01*
X167221639Y-104247970D01*
X167580284Y-104247970D01*
X167624935Y-104395179D01*
X167750119Y-104658000D01*
X167924172Y-104891349D01*
X168140405Y-105086258D01*
X168390508Y-105235237D01*
X168664869Y-105332561D01*
X168894760Y-105211894D01*
X168894760Y-104018080D01*
X167701605Y-104018080D01*
X167580284Y-104247970D01*
X167221639Y-104247970D01*
X166812500Y-103838832D01*
X166812500Y-68831301D01*
X167556073Y-68087729D01*
X167536760Y-68184820D01*
X167536760Y-68477340D01*
X167593828Y-68764238D01*
X167705770Y-69034491D01*
X167868285Y-69277712D01*
X168075128Y-69484555D01*
X168249520Y-69601080D01*
X168075128Y-69717605D01*
X167868285Y-69924448D01*
X167705770Y-70167669D01*
X167593828Y-70437922D01*
X167536760Y-70724820D01*
X167536760Y-71017340D01*
X167593828Y-71304238D01*
X167705770Y-71574491D01*
X167868285Y-71817712D01*
X168075128Y-72024555D01*
X168249520Y-72141080D01*
X168075128Y-72257605D01*
X167868285Y-72464448D01*
X167705770Y-72707669D01*
X167593828Y-72977922D01*
X167536760Y-73264820D01*
X167536760Y-73557340D01*
X167593828Y-73844238D01*
X167705770Y-74114491D01*
X167868285Y-74357712D01*
X168075128Y-74564555D01*
X168249520Y-74681080D01*
X168075128Y-74797605D01*
X167868285Y-75004448D01*
X167705770Y-75247669D01*
X167593828Y-75517922D01*
X167536760Y-75804820D01*
X167536760Y-76097340D01*
X167593828Y-76384238D01*
X167705770Y-76654491D01*
X167868285Y-76897712D01*
X168075128Y-77104555D01*
X168249520Y-77221080D01*
X168075128Y-77337605D01*
X167868285Y-77544448D01*
X167705770Y-77787669D01*
X167593828Y-78057922D01*
X167536760Y-78344820D01*
X167536760Y-78637340D01*
X167593828Y-78924238D01*
X167705770Y-79194491D01*
X167868285Y-79437712D01*
X168075128Y-79644555D01*
X168249520Y-79761080D01*
X168075128Y-79877605D01*
X167868285Y-80084448D01*
X167705770Y-80327669D01*
X167593828Y-80597922D01*
X167536760Y-80884820D01*
X167536760Y-81177340D01*
X167593828Y-81464238D01*
X167705770Y-81734491D01*
X167868285Y-81977712D01*
X168075128Y-82184555D01*
X168249520Y-82301080D01*
X168075128Y-82417605D01*
X167868285Y-82624448D01*
X167705770Y-82867669D01*
X167593828Y-83137922D01*
X167536760Y-83424820D01*
X167536760Y-83717340D01*
X167593828Y-84004238D01*
X167705770Y-84274491D01*
X167868285Y-84517712D01*
X168075128Y-84724555D01*
X168257294Y-84846275D01*
X168140405Y-84915902D01*
X167924172Y-85110811D01*
X167750119Y-85344160D01*
X167624935Y-85606981D01*
X167580284Y-85754190D01*
X167701605Y-85984080D01*
X168894760Y-85984080D01*
X168894760Y-85964080D01*
X169148760Y-85964080D01*
X169148760Y-85984080D01*
X169168760Y-85984080D01*
X169168760Y-86238080D01*
X169148760Y-86238080D01*
X169148760Y-86258080D01*
X168894760Y-86258080D01*
X168894760Y-86238080D01*
X167701605Y-86238080D01*
X167580284Y-86467970D01*
X167624935Y-86615179D01*
X167750119Y-86878000D01*
X167924172Y-87111349D01*
X168140405Y-87306258D01*
X168257294Y-87375885D01*
X168075128Y-87497605D01*
X167868285Y-87704448D01*
X167705770Y-87947669D01*
X167593828Y-88217922D01*
X167536760Y-88504820D01*
X167536760Y-88797340D01*
X167593828Y-89084238D01*
X167705770Y-89354491D01*
X167868285Y-89597712D01*
X168075128Y-89804555D01*
X168249520Y-89921080D01*
X168075128Y-90037605D01*
X167868285Y-90244448D01*
X167705770Y-90487669D01*
X167593828Y-90757922D01*
X167536760Y-91044820D01*
X167536760Y-91337340D01*
X167593828Y-91624238D01*
X167705770Y-91894491D01*
X167868285Y-92137712D01*
X168075128Y-92344555D01*
X168249520Y-92461080D01*
X168075128Y-92577605D01*
X167868285Y-92784448D01*
X167705770Y-93027669D01*
X167593828Y-93297922D01*
X167536760Y-93584820D01*
X167536760Y-93877340D01*
X167593828Y-94164238D01*
X167705770Y-94434491D01*
X167868285Y-94677712D01*
X168075128Y-94884555D01*
X168249520Y-95001080D01*
X168075128Y-95117605D01*
X167868285Y-95324448D01*
X167705770Y-95567669D01*
X167593828Y-95837922D01*
X167536760Y-96124820D01*
X167536760Y-96417340D01*
X167593828Y-96704238D01*
X167705770Y-96974491D01*
X167868285Y-97217712D01*
X168075128Y-97424555D01*
X168249520Y-97541080D01*
X168075128Y-97657605D01*
X167868285Y-97864448D01*
X167705770Y-98107669D01*
X167593828Y-98377922D01*
X167536760Y-98664820D01*
X167536760Y-98957340D01*
X167593828Y-99244238D01*
X167705770Y-99514491D01*
X167868285Y-99757712D01*
X168075128Y-99964555D01*
X168249520Y-100081080D01*
X168075128Y-100197605D01*
X167868285Y-100404448D01*
X167705770Y-100647669D01*
X167593828Y-100917922D01*
X167536760Y-101204820D01*
X167536760Y-101497340D01*
X167593828Y-101784238D01*
X167705770Y-102054491D01*
X167868285Y-102297712D01*
X168075128Y-102504555D01*
X168257294Y-102626275D01*
X168140405Y-102695902D01*
X167924172Y-102890811D01*
X167750119Y-103124160D01*
X167624935Y-103386981D01*
X167580284Y-103534190D01*
X167701605Y-103764080D01*
X168894760Y-103764080D01*
X168894760Y-103744080D01*
X169148760Y-103744080D01*
X169148760Y-103764080D01*
X169168760Y-103764080D01*
X169168760Y-104018080D01*
X169148760Y-104018080D01*
X169148760Y-105211894D01*
X169378651Y-105332561D01*
X169653012Y-105235237D01*
X169903115Y-105086258D01*
X170119348Y-104891349D01*
X170290660Y-104661674D01*
X170408285Y-104837712D01*
X170615128Y-105044555D01*
X170858349Y-105207070D01*
X171128602Y-105319012D01*
X171415500Y-105376080D01*
X171708020Y-105376080D01*
X171994918Y-105319012D01*
X172265171Y-105207070D01*
X172508392Y-105044555D01*
X172715235Y-104837712D01*
X172877750Y-104594491D01*
X172989692Y-104324238D01*
X173046760Y-104037340D01*
X173046760Y-103744820D01*
X172989692Y-103457922D01*
X172877750Y-103187669D01*
X172715235Y-102944448D01*
X172508392Y-102737605D01*
X172334000Y-102621080D01*
X172508392Y-102504555D01*
X172715235Y-102297712D01*
X172877750Y-102054491D01*
X172989692Y-101784238D01*
X173046760Y-101497340D01*
X173046760Y-101204820D01*
X172989692Y-100917922D01*
X172877750Y-100647669D01*
X172715235Y-100404448D01*
X172508392Y-100197605D01*
X172334000Y-100081080D01*
X172508392Y-99964555D01*
X172715235Y-99757712D01*
X172877750Y-99514491D01*
X172989692Y-99244238D01*
X173046760Y-98957340D01*
X173046760Y-98664820D01*
X172989692Y-98377922D01*
X172877750Y-98107669D01*
X172715235Y-97864448D01*
X172508392Y-97657605D01*
X172326226Y-97535885D01*
X172443115Y-97466258D01*
X172659348Y-97271349D01*
X172833401Y-97038000D01*
X172958585Y-96775179D01*
X173003236Y-96627970D01*
X172881915Y-96398080D01*
X171688760Y-96398080D01*
X171688760Y-96418080D01*
X171434760Y-96418080D01*
X171434760Y-96398080D01*
X171414760Y-96398080D01*
X171414760Y-96144080D01*
X171434760Y-96144080D01*
X171434760Y-96124080D01*
X171688760Y-96124080D01*
X171688760Y-96144080D01*
X172881915Y-96144080D01*
X173003236Y-95914190D01*
X172958585Y-95766981D01*
X172833401Y-95504160D01*
X172659348Y-95270811D01*
X172443115Y-95075902D01*
X172326226Y-95006275D01*
X172508392Y-94884555D01*
X172715235Y-94677712D01*
X172877750Y-94434491D01*
X172989692Y-94164238D01*
X173046760Y-93877340D01*
X173046760Y-93584820D01*
X172989692Y-93297922D01*
X172877750Y-93027669D01*
X172715235Y-92784448D01*
X172508392Y-92577605D01*
X172326226Y-92455885D01*
X172443115Y-92386258D01*
X172659348Y-92191349D01*
X172833401Y-91958000D01*
X172958585Y-91695179D01*
X173003236Y-91547970D01*
X172881915Y-91318080D01*
X171688760Y-91318080D01*
X171688760Y-91338080D01*
X171434760Y-91338080D01*
X171434760Y-91318080D01*
X171414760Y-91318080D01*
X171414760Y-91064080D01*
X171434760Y-91064080D01*
X171434760Y-91044080D01*
X171688760Y-91044080D01*
X171688760Y-91064080D01*
X172881915Y-91064080D01*
X173003236Y-90834190D01*
X172958585Y-90686981D01*
X172833401Y-90424160D01*
X172659348Y-90190811D01*
X172443115Y-89995902D01*
X172326226Y-89926275D01*
X172508392Y-89804555D01*
X172715235Y-89597712D01*
X172877750Y-89354491D01*
X172989692Y-89084238D01*
X173046760Y-88797340D01*
X173046760Y-88504820D01*
X172989692Y-88217922D01*
X172877750Y-87947669D01*
X172715235Y-87704448D01*
X172508392Y-87497605D01*
X172334000Y-87381080D01*
X172508392Y-87264555D01*
X172715235Y-87057712D01*
X172877750Y-86814491D01*
X172989692Y-86544238D01*
X173046760Y-86257340D01*
X173046760Y-85964820D01*
X172989692Y-85677922D01*
X172877750Y-85407669D01*
X172715235Y-85164448D01*
X172508392Y-84957605D01*
X172334000Y-84841080D01*
X172508392Y-84724555D01*
X172715235Y-84517712D01*
X172877750Y-84274491D01*
X172989692Y-84004238D01*
X173046760Y-83717340D01*
X173046760Y-83424820D01*
X172989692Y-83137922D01*
X172877750Y-82867669D01*
X172715235Y-82624448D01*
X172508392Y-82417605D01*
X172334000Y-82301080D01*
X172508392Y-82184555D01*
X172715235Y-81977712D01*
X172877750Y-81734491D01*
X172989692Y-81464238D01*
X173046760Y-81177340D01*
X173046760Y-80884820D01*
X172989692Y-80597922D01*
X172877750Y-80327669D01*
X172715235Y-80084448D01*
X172508392Y-79877605D01*
X172334000Y-79761080D01*
X172508392Y-79644555D01*
X172715235Y-79437712D01*
X172877750Y-79194491D01*
X172989692Y-78924238D01*
X173046760Y-78637340D01*
X173046760Y-78344820D01*
X172989692Y-78057922D01*
X172877750Y-77787669D01*
X172715235Y-77544448D01*
X172508392Y-77337605D01*
X172334000Y-77221080D01*
X172508392Y-77104555D01*
X172715235Y-76897712D01*
X172877750Y-76654491D01*
X172989692Y-76384238D01*
X173046760Y-76097340D01*
X173046760Y-75804820D01*
X172989692Y-75517922D01*
X172877750Y-75247669D01*
X172715235Y-75004448D01*
X172508392Y-74797605D01*
X172334000Y-74681080D01*
X172508392Y-74564555D01*
X172715235Y-74357712D01*
X172877750Y-74114491D01*
X172989692Y-73844238D01*
X173046760Y-73557340D01*
X173046760Y-73264820D01*
X172989692Y-72977922D01*
X172877750Y-72707669D01*
X172715235Y-72464448D01*
X172508392Y-72257605D01*
X172326226Y-72135885D01*
X172443115Y-72066258D01*
X172659348Y-71871349D01*
X172833401Y-71638000D01*
X172958585Y-71375179D01*
X173003236Y-71227970D01*
X172881915Y-70998080D01*
X171688760Y-70998080D01*
X171688760Y-71018080D01*
X171434760Y-71018080D01*
X171434760Y-70998080D01*
X171414760Y-70998080D01*
X171414760Y-70744080D01*
X171434760Y-70744080D01*
X171434760Y-70724080D01*
X171688760Y-70724080D01*
X171688760Y-70744080D01*
X172881915Y-70744080D01*
X173003236Y-70514190D01*
X172958585Y-70366981D01*
X172833401Y-70104160D01*
X172659348Y-69870811D01*
X172443115Y-69675902D01*
X172326226Y-69606275D01*
X172508392Y-69484555D01*
X172715235Y-69277712D01*
X172877750Y-69034491D01*
X172989692Y-68764238D01*
X173046760Y-68477340D01*
X173046760Y-68184820D01*
X172989692Y-67897922D01*
X172877750Y-67627669D01*
X172715235Y-67384448D01*
X172508392Y-67177605D01*
X172334000Y-67061080D01*
X172508392Y-66944555D01*
X172715235Y-66737712D01*
X172877750Y-66494491D01*
X172989692Y-66224238D01*
X173046760Y-65937340D01*
X173046760Y-65644820D01*
X172989692Y-65357922D01*
X172877750Y-65087669D01*
X172715235Y-64844448D01*
X172508392Y-64637605D01*
X172334000Y-64521080D01*
X172508392Y-64404555D01*
X172715235Y-64197712D01*
X172877750Y-63954491D01*
X172989692Y-63684238D01*
X173046760Y-63397340D01*
X173046760Y-63104820D01*
X172989692Y-62817922D01*
X172877750Y-62547669D01*
X172715235Y-62304448D01*
X172508392Y-62097605D01*
X172326226Y-61975885D01*
X172443115Y-61906258D01*
X172659348Y-61711349D01*
X172833401Y-61478000D01*
X172958585Y-61215179D01*
X173003236Y-61067970D01*
X172881915Y-60838080D01*
X171688760Y-60838080D01*
X171688760Y-60858080D01*
X171434760Y-60858080D01*
X171434760Y-60838080D01*
X171414760Y-60838080D01*
X171414760Y-60584080D01*
X171434760Y-60584080D01*
X171434760Y-60564080D01*
X171688760Y-60564080D01*
X171688760Y-60584080D01*
X172881915Y-60584080D01*
X173003236Y-60354190D01*
X172958585Y-60206981D01*
X172833401Y-59944160D01*
X172659348Y-59710811D01*
X172443115Y-59515902D01*
X172326226Y-59446275D01*
X172508392Y-59324555D01*
X172715235Y-59117712D01*
X172877750Y-58874491D01*
X172989692Y-58604238D01*
X173046760Y-58317340D01*
X173046760Y-58024820D01*
X172989692Y-57737922D01*
X172877750Y-57467669D01*
X172796760Y-57346459D01*
X172796760Y-56455701D01*
X172877750Y-56334491D01*
X172989692Y-56064238D01*
X173046760Y-55777340D01*
X173046760Y-55484820D01*
X172989692Y-55197922D01*
X172877750Y-54927669D01*
X172796760Y-54806459D01*
X172796760Y-54489664D01*
X172802735Y-54428999D01*
X172778890Y-54186897D01*
X172711866Y-53965949D01*
X172708271Y-53954098D01*
X172593593Y-53739550D01*
X172439262Y-53551497D01*
X172392140Y-53512825D01*
X171325439Y-52446125D01*
X171306947Y-52423593D01*
X171552044Y-52259824D01*
X171840880Y-51970988D01*
X172067818Y-51631352D01*
X172224135Y-51253970D01*
X172303824Y-50853342D01*
X172303824Y-50444866D01*
X172224135Y-50044238D01*
X172067818Y-49666856D01*
X171840880Y-49327220D01*
X171552044Y-49038384D01*
X171212408Y-48811446D01*
X170835026Y-48655129D01*
X170434398Y-48575440D01*
X170025922Y-48575440D01*
X169625294Y-48655129D01*
X169247912Y-48811446D01*
X168908276Y-49038384D01*
X168619440Y-49327220D01*
X168392502Y-49666856D01*
X168236185Y-50044238D01*
X168156496Y-50444866D01*
X168156496Y-50853342D01*
X168236185Y-51253970D01*
X168392502Y-51631352D01*
X168619440Y-51970988D01*
X168689952Y-52041500D01*
X157604165Y-52041500D01*
X157543500Y-52035525D01*
X157482835Y-52041500D01*
X157301398Y-52059370D01*
X157068599Y-52129989D01*
X156854051Y-52244667D01*
X156665998Y-52398998D01*
X156627321Y-52446126D01*
X148839126Y-60234321D01*
X148791998Y-60272998D01*
X148637667Y-60461052D01*
X148522989Y-60675600D01*
X148522989Y-60675601D01*
X148452370Y-60908398D01*
X148428525Y-61150500D01*
X148434500Y-61211165D01*
X148434501Y-72011826D01*
X148434500Y-72011836D01*
X148434500Y-72126632D01*
X147291633Y-73269500D01*
X134915785Y-73269500D01*
X134792756Y-73187295D01*
X134604398Y-73109274D01*
X134404439Y-73069500D01*
X134200561Y-73069500D01*
X134000602Y-73109274D01*
X133812244Y-73187295D01*
X133642726Y-73300563D01*
X133498563Y-73444726D01*
X133385295Y-73614244D01*
X133307274Y-73802602D01*
X133267500Y-74002561D01*
X133267500Y-74206439D01*
X133307274Y-74406398D01*
X133385295Y-74594756D01*
X133498563Y-74764274D01*
X133642726Y-74908437D01*
X133812244Y-75021705D01*
X134000602Y-75099726D01*
X134200561Y-75139500D01*
X134404439Y-75139500D01*
X134604398Y-75099726D01*
X134792756Y-75021705D01*
X134915785Y-74939500D01*
X147596482Y-74939500D01*
X147637500Y-74943540D01*
X147678518Y-74939500D01*
X147678519Y-74939500D01*
X147801189Y-74927418D01*
X147958587Y-74879672D01*
X148103646Y-74802136D01*
X148230791Y-74697791D01*
X148256946Y-74665921D01*
X148434500Y-74488367D01*
X148434501Y-81651631D01*
X145425074Y-84661059D01*
X145393210Y-84687209D01*
X145367062Y-84719071D01*
X145288864Y-84814355D01*
X145211328Y-84959414D01*
X145163582Y-85116812D01*
X145147460Y-85280500D01*
X145151501Y-85321528D01*
X145151501Y-85683214D01*
X145069295Y-85806244D01*
X144991274Y-85994602D01*
X144951500Y-86194561D01*
X144951500Y-86398439D01*
X144991274Y-86598398D01*
X145069295Y-86786756D01*
X145182563Y-86956274D01*
X145326726Y-87100437D01*
X145496244Y-87213705D01*
X145684602Y-87291726D01*
X145884561Y-87331500D01*
X146088439Y-87331500D01*
X146288398Y-87291726D01*
X146476756Y-87213705D01*
X146646274Y-87100437D01*
X146790437Y-86956274D01*
X146903705Y-86786756D01*
X146981726Y-86598398D01*
X147021500Y-86398439D01*
X147021500Y-86194561D01*
X146981726Y-85994602D01*
X146903705Y-85806244D01*
X146821500Y-85683215D01*
X146821500Y-85626367D01*
X148434500Y-84013367D01*
X148434501Y-108270326D01*
X148434500Y-108270336D01*
X148434500Y-108766132D01*
X146337725Y-110862907D01*
X146192602Y-110891774D01*
X146004244Y-110969795D01*
X145834726Y-111083063D01*
X145690563Y-111227226D01*
X145577295Y-111396744D01*
X145499274Y-111585102D01*
X145459500Y-111785061D01*
X145459500Y-111988939D01*
X145499274Y-112188898D01*
X145577295Y-112377256D01*
X145690563Y-112546774D01*
X145834726Y-112690937D01*
X146004244Y-112804205D01*
X146192602Y-112882226D01*
X146392561Y-112922000D01*
X146596439Y-112922000D01*
X146796398Y-112882226D01*
X146984756Y-112804205D01*
X147154274Y-112690937D01*
X147298437Y-112546774D01*
X147411705Y-112377256D01*
X147489726Y-112188898D01*
X147518593Y-112043775D01*
X148434501Y-111127867D01*
X148434501Y-111889826D01*
X148434500Y-111889836D01*
X148434500Y-112004632D01*
X146401225Y-114037907D01*
X146256102Y-114066774D01*
X146067744Y-114144795D01*
X145898226Y-114258063D01*
X145754063Y-114402226D01*
X145640795Y-114571744D01*
X145562774Y-114760102D01*
X145523000Y-114960061D01*
X145523000Y-115163939D01*
X145562774Y-115363898D01*
X145640795Y-115552256D01*
X145754063Y-115721774D01*
X145898226Y-115865937D01*
X146067744Y-115979205D01*
X146256102Y-116057226D01*
X146456061Y-116097000D01*
X146659939Y-116097000D01*
X146859898Y-116057226D01*
X147048256Y-115979205D01*
X147217774Y-115865937D01*
X147361937Y-115721774D01*
X147475205Y-115552256D01*
X147553226Y-115363898D01*
X147582093Y-115218775D01*
X148434501Y-114366367D01*
X148434501Y-115941628D01*
X146401224Y-117974907D01*
X146256100Y-118003774D01*
X146067742Y-118081795D01*
X145898224Y-118195063D01*
X145754061Y-118339226D01*
X145640793Y-118508744D01*
X145562772Y-118697102D01*
X145522998Y-118897061D01*
X145522998Y-119100939D01*
X145562772Y-119300898D01*
X145640793Y-119489256D01*
X145754061Y-119658774D01*
X145898224Y-119802937D01*
X146067742Y-119916205D01*
X146256100Y-119994226D01*
X146456059Y-120034000D01*
X146659937Y-120034000D01*
X146859896Y-119994226D01*
X147048254Y-119916205D01*
X147217772Y-119802937D01*
X147361935Y-119658774D01*
X147475203Y-119489256D01*
X147553224Y-119300898D01*
X147582091Y-119155774D01*
X148434500Y-118303366D01*
X148434501Y-125535946D01*
X145322347Y-128648100D01*
X136167075Y-128648100D01*
X135985638Y-128665970D01*
X135752839Y-128736589D01*
X135731303Y-128748100D01*
X135097872Y-128748100D01*
X134421500Y-128071729D01*
X134421500Y-127343100D01*
X134986765Y-127343100D01*
X135010610Y-127585202D01*
X135081229Y-127818001D01*
X135195907Y-128032549D01*
X135350238Y-128220602D01*
X135538291Y-128374933D01*
X135752839Y-128489611D01*
X135985638Y-128560230D01*
X136167075Y-128578100D01*
X137088405Y-128578100D01*
X137269842Y-128560230D01*
X137502641Y-128489611D01*
X137717189Y-128374933D01*
X137905242Y-128220602D01*
X138059573Y-128032549D01*
X138174251Y-127818001D01*
X138244870Y-127585202D01*
X138268715Y-127343100D01*
X138244870Y-127100998D01*
X138174251Y-126868199D01*
X138059573Y-126653651D01*
X137905242Y-126465598D01*
X137717189Y-126311267D01*
X137502641Y-126196589D01*
X137269842Y-126125970D01*
X137088405Y-126108100D01*
X136167075Y-126108100D01*
X135985638Y-126125970D01*
X135752839Y-126196589D01*
X135538291Y-126311267D01*
X135350238Y-126465598D01*
X135195907Y-126653651D01*
X135081229Y-126868199D01*
X135010610Y-127100998D01*
X134986765Y-127343100D01*
X134421500Y-127343100D01*
X134421500Y-125103483D01*
X134513905Y-124990886D01*
X134595972Y-124837350D01*
X134606361Y-124803100D01*
X134986765Y-124803100D01*
X135010610Y-125045202D01*
X135081229Y-125278001D01*
X135195907Y-125492549D01*
X135350238Y-125680602D01*
X135538291Y-125834933D01*
X135752839Y-125949611D01*
X135985638Y-126020230D01*
X136167075Y-126038100D01*
X137088405Y-126038100D01*
X137269842Y-126020230D01*
X137502641Y-125949611D01*
X137717189Y-125834933D01*
X137905242Y-125680602D01*
X138059573Y-125492549D01*
X138174251Y-125278001D01*
X138244870Y-125045202D01*
X138268715Y-124803100D01*
X138244870Y-124560998D01*
X138174251Y-124328199D01*
X138059573Y-124113651D01*
X137905242Y-123925598D01*
X137717189Y-123771267D01*
X137502641Y-123656589D01*
X137269842Y-123585970D01*
X137088405Y-123568100D01*
X136167075Y-123568100D01*
X135985638Y-123585970D01*
X135752839Y-123656589D01*
X135538291Y-123771267D01*
X135350238Y-123925598D01*
X135195907Y-124113651D01*
X135081229Y-124328199D01*
X135010610Y-124560998D01*
X134986765Y-124803100D01*
X134606361Y-124803100D01*
X134646508Y-124670754D01*
X134663572Y-124497500D01*
X134663572Y-122263100D01*
X134986765Y-122263100D01*
X135010610Y-122505202D01*
X135081229Y-122738001D01*
X135195907Y-122952549D01*
X135350238Y-123140602D01*
X135538291Y-123294933D01*
X135752839Y-123409611D01*
X135985638Y-123480230D01*
X136167075Y-123498100D01*
X137088405Y-123498100D01*
X137269842Y-123480230D01*
X137502641Y-123409611D01*
X137717189Y-123294933D01*
X137905242Y-123140602D01*
X138059573Y-122952549D01*
X138174251Y-122738001D01*
X138244870Y-122505202D01*
X138268715Y-122263100D01*
X138244870Y-122020998D01*
X138174251Y-121788199D01*
X138059573Y-121573651D01*
X137905242Y-121385598D01*
X137717189Y-121231267D01*
X137502641Y-121116589D01*
X137269842Y-121045970D01*
X137088405Y-121028100D01*
X136167075Y-121028100D01*
X135985638Y-121045970D01*
X135752839Y-121116589D01*
X135538291Y-121231267D01*
X135350238Y-121385598D01*
X135195907Y-121573651D01*
X135081229Y-121788199D01*
X135010610Y-122020998D01*
X134986765Y-122263100D01*
X134663572Y-122263100D01*
X134663572Y-121247500D01*
X134646508Y-121074246D01*
X134595972Y-120907650D01*
X134513905Y-120754114D01*
X134403462Y-120619538D01*
X134268886Y-120509095D01*
X134115350Y-120427028D01*
X133948754Y-120376492D01*
X133775500Y-120359428D01*
X132600500Y-120359428D01*
X132427246Y-120376492D01*
X132260650Y-120427028D01*
X132107114Y-120509095D01*
X131972538Y-120619538D01*
X131862095Y-120754114D01*
X131780028Y-120907650D01*
X131729492Y-121074246D01*
X131712428Y-121247500D01*
X131712428Y-124497500D01*
X131729492Y-124670754D01*
X131780028Y-124837350D01*
X131862095Y-124990886D01*
X131972538Y-125125462D01*
X132107114Y-125235905D01*
X132151500Y-125259630D01*
X132151501Y-128486099D01*
X132146009Y-128541860D01*
X132167923Y-128764358D01*
X132232824Y-128978306D01*
X132233279Y-128979157D01*
X132338217Y-129175483D01*
X132480052Y-129348309D01*
X132523360Y-129383851D01*
X133785748Y-130646240D01*
X133821291Y-130689549D01*
X133994117Y-130831384D01*
X134191293Y-130936776D01*
X134405241Y-131001677D01*
X134432036Y-131004316D01*
X134627740Y-131023591D01*
X134683492Y-131018100D01*
X135731303Y-131018100D01*
X135752839Y-131029611D01*
X135985638Y-131100230D01*
X136167075Y-131118100D01*
X145773235Y-131118100D01*
X145833900Y-131124075D01*
X145894565Y-131118100D01*
X146076002Y-131100230D01*
X146308801Y-131029611D01*
X146523349Y-130914933D01*
X146711402Y-130760602D01*
X146750079Y-130713474D01*
X150008632Y-127454921D01*
X154047090Y-131493380D01*
X132045869Y-131493380D01*
X132087168Y-131357234D01*
X132104232Y-131183980D01*
X132104232Y-128083980D01*
X132087168Y-127910726D01*
X132036632Y-127744130D01*
X131954565Y-127590594D01*
X131844122Y-127456018D01*
X131709546Y-127345575D01*
X131556010Y-127263508D01*
X131389414Y-127212972D01*
X131373500Y-127211405D01*
X131373500Y-124706241D01*
X131378990Y-124650499D01*
X131373500Y-124594757D01*
X131373500Y-124594748D01*
X131357077Y-124428001D01*
X131292176Y-124214053D01*
X131186784Y-124016877D01*
X131044949Y-123844051D01*
X131001640Y-123808508D01*
X130288572Y-123095441D01*
X130288572Y-121247500D01*
X130271508Y-121074246D01*
X130220972Y-120907650D01*
X130138905Y-120754114D01*
X130028462Y-120619538D01*
X129893886Y-120509095D01*
X129740350Y-120427028D01*
X129573754Y-120376492D01*
X129400500Y-120359428D01*
X128225500Y-120359428D01*
X128052246Y-120376492D01*
X127885650Y-120427028D01*
X127732114Y-120509095D01*
X127597538Y-120619538D01*
X127487095Y-120754114D01*
X127405028Y-120907650D01*
X127354492Y-121074246D01*
X127337428Y-121247500D01*
X127337428Y-122884362D01*
X127150790Y-123071000D01*
X126964978Y-123071000D01*
X126919462Y-123015538D01*
X126784886Y-122905095D01*
X126631350Y-122823028D01*
X126464754Y-122772492D01*
X126291500Y-122755428D01*
X125041500Y-122755428D01*
X124868246Y-122772492D01*
X124701650Y-122823028D01*
X124548114Y-122905095D01*
X124413538Y-123015538D01*
X124303095Y-123150114D01*
X124221028Y-123303650D01*
X124170492Y-123470246D01*
X124153428Y-123643500D01*
X124153428Y-124568500D01*
X124170492Y-124741754D01*
X124221028Y-124908350D01*
X124303095Y-125061886D01*
X124413538Y-125196462D01*
X124548114Y-125306905D01*
X124701650Y-125388972D01*
X124868246Y-125439508D01*
X125041500Y-125456572D01*
X126291500Y-125456572D01*
X126464754Y-125439508D01*
X126631350Y-125388972D01*
X126784886Y-125306905D01*
X126919462Y-125196462D01*
X126964978Y-125141000D01*
X127528672Y-125141000D01*
X127579500Y-125146006D01*
X127617956Y-125142218D01*
X127732114Y-125235905D01*
X127885650Y-125317972D01*
X128052246Y-125368508D01*
X128225500Y-125385572D01*
X129103501Y-125385572D01*
X129103500Y-127729514D01*
X129095688Y-127744130D01*
X129045152Y-127910726D01*
X129028088Y-128083980D01*
X129028088Y-131183980D01*
X129045152Y-131357234D01*
X129086451Y-131493380D01*
X128270935Y-131493380D01*
X128271908Y-131492376D01*
X128435714Y-131238731D01*
X128546889Y-130958003D01*
X128601160Y-130660980D01*
X128601160Y-129760980D01*
X127193160Y-129760980D01*
X127193160Y-129780980D01*
X126939160Y-129780980D01*
X126939160Y-129760980D01*
X125531160Y-129760980D01*
X125531160Y-130660980D01*
X125585431Y-130958003D01*
X125696606Y-131238731D01*
X125860412Y-131492376D01*
X125861385Y-131493380D01*
X120767439Y-131493380D01*
X120281266Y-131445710D01*
X119844663Y-131313892D01*
X119441974Y-131099779D01*
X119088547Y-130811530D01*
X118797833Y-130460119D01*
X118580920Y-130058944D01*
X118446054Y-129623266D01*
X118395160Y-129139044D01*
X118395160Y-128606980D01*
X125531160Y-128606980D01*
X125531160Y-129506980D01*
X126939160Y-129506980D01*
X126939160Y-127363602D01*
X127193160Y-127363602D01*
X127193160Y-129506980D01*
X128601160Y-129506980D01*
X128601160Y-128606980D01*
X128546889Y-128309957D01*
X128435714Y-128029229D01*
X128271908Y-127775584D01*
X128061766Y-127558770D01*
X127813364Y-127387118D01*
X127536247Y-127267225D01*
X127430900Y-127242944D01*
X127193160Y-127363602D01*
X126939160Y-127363602D01*
X126701420Y-127242944D01*
X126596073Y-127267225D01*
X126318956Y-127387118D01*
X126070554Y-127558770D01*
X125860412Y-127775584D01*
X125696606Y-128029229D01*
X125585431Y-128309957D01*
X125531160Y-128606980D01*
X118395160Y-128606980D01*
X118395160Y-127864963D01*
X118411500Y-127866572D01*
X119925750Y-127863500D01*
X120084500Y-127704750D01*
X120084500Y-126455500D01*
X120338500Y-126455500D01*
X120338500Y-127704750D01*
X120497250Y-127863500D01*
X122011500Y-127866572D01*
X122135982Y-127854312D01*
X122255680Y-127818002D01*
X122365994Y-127759037D01*
X122462685Y-127679685D01*
X122542037Y-127582994D01*
X122601002Y-127472680D01*
X122637312Y-127352982D01*
X122649572Y-127228500D01*
X122646500Y-126614250D01*
X122487750Y-126455500D01*
X120338500Y-126455500D01*
X120084500Y-126455500D01*
X120064500Y-126455500D01*
X120064500Y-126201500D01*
X120084500Y-126201500D01*
X120084500Y-124952250D01*
X120338500Y-124952250D01*
X120338500Y-126201500D01*
X122487750Y-126201500D01*
X122646500Y-126042750D01*
X122649572Y-125428500D01*
X122637312Y-125304018D01*
X122601002Y-125184320D01*
X122542037Y-125074006D01*
X122462685Y-124977315D01*
X122365994Y-124897963D01*
X122255680Y-124838998D01*
X122135982Y-124802688D01*
X122011500Y-124790428D01*
X120497250Y-124793500D01*
X120338500Y-124952250D01*
X120084500Y-124952250D01*
X119925750Y-124793500D01*
X118411500Y-124790428D01*
X118395160Y-124792037D01*
X118395160Y-124062222D01*
X118454573Y-124110981D01*
X118721239Y-124253517D01*
X119010587Y-124341290D01*
X119236092Y-124363500D01*
X121186908Y-124363500D01*
X121412413Y-124341290D01*
X121701761Y-124253517D01*
X121968427Y-124110981D01*
X122202161Y-123919161D01*
X122393981Y-123685427D01*
X122536517Y-123418761D01*
X122624290Y-123129413D01*
X122653927Y-122828500D01*
X122624290Y-122527587D01*
X122536517Y-122238239D01*
X122393981Y-121971573D01*
X122288875Y-121843500D01*
X124153428Y-121843500D01*
X124165688Y-121967982D01*
X124201998Y-122087680D01*
X124260963Y-122197994D01*
X124340315Y-122294685D01*
X124437006Y-122374037D01*
X124547320Y-122433002D01*
X124667018Y-122469312D01*
X124791500Y-122481572D01*
X125380750Y-122478500D01*
X125539500Y-122319750D01*
X125539500Y-121258000D01*
X125793500Y-121258000D01*
X125793500Y-122319750D01*
X125952250Y-122478500D01*
X126541500Y-122481572D01*
X126665982Y-122469312D01*
X126785680Y-122433002D01*
X126895994Y-122374037D01*
X126992685Y-122294685D01*
X127072037Y-122197994D01*
X127131002Y-122087680D01*
X127167312Y-121967982D01*
X127179572Y-121843500D01*
X127176500Y-121416750D01*
X127017750Y-121258000D01*
X125793500Y-121258000D01*
X125539500Y-121258000D01*
X124315250Y-121258000D01*
X124156500Y-121416750D01*
X124153428Y-121843500D01*
X122288875Y-121843500D01*
X122202161Y-121737839D01*
X121968427Y-121546019D01*
X121701761Y-121403483D01*
X121412413Y-121315710D01*
X121186908Y-121293500D01*
X119236092Y-121293500D01*
X119010587Y-121315710D01*
X118721239Y-121403483D01*
X118454573Y-121546019D01*
X118395160Y-121594778D01*
X118395160Y-120562222D01*
X118454573Y-120610981D01*
X118721239Y-120753517D01*
X119010587Y-120841290D01*
X119236092Y-120863500D01*
X121186908Y-120863500D01*
X121412413Y-120841290D01*
X121701761Y-120753517D01*
X121968427Y-120610981D01*
X122202161Y-120419161D01*
X122202703Y-120418500D01*
X124153428Y-120418500D01*
X124156500Y-120845250D01*
X124315250Y-121004000D01*
X125539500Y-121004000D01*
X125539500Y-119942250D01*
X125793500Y-119942250D01*
X125793500Y-121004000D01*
X127017750Y-121004000D01*
X127176500Y-120845250D01*
X127179572Y-120418500D01*
X127167312Y-120294018D01*
X127131002Y-120174320D01*
X127072037Y-120064006D01*
X126992685Y-119967315D01*
X126895994Y-119887963D01*
X126785680Y-119828998D01*
X126665982Y-119792688D01*
X126541500Y-119780428D01*
X125952250Y-119783500D01*
X125793500Y-119942250D01*
X125539500Y-119942250D01*
X125380750Y-119783500D01*
X124791500Y-119780428D01*
X124667018Y-119792688D01*
X124547320Y-119828998D01*
X124437006Y-119887963D01*
X124340315Y-119967315D01*
X124260963Y-120064006D01*
X124201998Y-120174320D01*
X124165688Y-120294018D01*
X124153428Y-120418500D01*
X122202703Y-120418500D01*
X122393981Y-120185427D01*
X122536517Y-119918761D01*
X122595870Y-119723100D01*
X134986765Y-119723100D01*
X135010610Y-119965202D01*
X135081229Y-120198001D01*
X135195907Y-120412549D01*
X135350238Y-120600602D01*
X135538291Y-120754933D01*
X135752839Y-120869611D01*
X135985638Y-120940230D01*
X136167075Y-120958100D01*
X137088405Y-120958100D01*
X137269842Y-120940230D01*
X137502641Y-120869611D01*
X137717189Y-120754933D01*
X137905242Y-120600602D01*
X138059573Y-120412549D01*
X138174251Y-120198001D01*
X138244870Y-119965202D01*
X138268715Y-119723100D01*
X138244870Y-119480998D01*
X138174251Y-119248199D01*
X138059573Y-119033651D01*
X137905242Y-118845598D01*
X137717189Y-118691267D01*
X137502641Y-118576589D01*
X137269842Y-118505970D01*
X137088405Y-118488100D01*
X136167075Y-118488100D01*
X135985638Y-118505970D01*
X135752839Y-118576589D01*
X135538291Y-118691267D01*
X135350238Y-118845598D01*
X135195907Y-119033651D01*
X135081229Y-119248199D01*
X135010610Y-119480998D01*
X134986765Y-119723100D01*
X122595870Y-119723100D01*
X122624290Y-119629413D01*
X122653927Y-119328500D01*
X122624290Y-119027587D01*
X122536517Y-118738239D01*
X122393981Y-118471573D01*
X122202161Y-118237839D01*
X121968427Y-118046019D01*
X121701761Y-117903483D01*
X121412413Y-117815710D01*
X121186908Y-117793500D01*
X119236092Y-117793500D01*
X119010587Y-117815710D01*
X118721239Y-117903483D01*
X118454573Y-118046019D01*
X118395160Y-118094778D01*
X118395160Y-117783100D01*
X134989668Y-117783100D01*
X135001928Y-117907582D01*
X135038238Y-118027280D01*
X135097203Y-118137594D01*
X135176555Y-118234285D01*
X135273246Y-118313637D01*
X135383560Y-118372602D01*
X135503258Y-118408912D01*
X135627740Y-118421172D01*
X136341990Y-118418100D01*
X136500740Y-118259350D01*
X136500740Y-117310100D01*
X136754740Y-117310100D01*
X136754740Y-118259350D01*
X136913490Y-118418100D01*
X137627740Y-118421172D01*
X137752222Y-118408912D01*
X137871920Y-118372602D01*
X137982234Y-118313637D01*
X138078925Y-118234285D01*
X138158277Y-118137594D01*
X138217242Y-118027280D01*
X138253552Y-117907582D01*
X138265812Y-117783100D01*
X138262740Y-117468850D01*
X138103990Y-117310100D01*
X136754740Y-117310100D01*
X136500740Y-117310100D01*
X135151490Y-117310100D01*
X134992740Y-117468850D01*
X134989668Y-117783100D01*
X118395160Y-117783100D01*
X118395160Y-117062222D01*
X118454573Y-117110981D01*
X118721239Y-117253517D01*
X119010587Y-117341290D01*
X119236092Y-117363500D01*
X121186908Y-117363500D01*
X121412413Y-117341290D01*
X121701761Y-117253517D01*
X121968427Y-117110981D01*
X122202161Y-116919161D01*
X122393981Y-116685427D01*
X122448675Y-116583100D01*
X134989668Y-116583100D01*
X134992740Y-116897350D01*
X135151490Y-117056100D01*
X136500740Y-117056100D01*
X136500740Y-116106850D01*
X136754740Y-116106850D01*
X136754740Y-117056100D01*
X138103990Y-117056100D01*
X138262740Y-116897350D01*
X138265812Y-116583100D01*
X138253552Y-116458618D01*
X138217242Y-116338920D01*
X138158277Y-116228606D01*
X138078925Y-116131915D01*
X137982234Y-116052563D01*
X137871920Y-115993598D01*
X137752222Y-115957288D01*
X137627740Y-115945028D01*
X136913490Y-115948100D01*
X136754740Y-116106850D01*
X136500740Y-116106850D01*
X136341990Y-115948100D01*
X135627740Y-115945028D01*
X135503258Y-115957288D01*
X135383560Y-115993598D01*
X135273246Y-116052563D01*
X135176555Y-116131915D01*
X135097203Y-116228606D01*
X135038238Y-116338920D01*
X135001928Y-116458618D01*
X134989668Y-116583100D01*
X122448675Y-116583100D01*
X122536517Y-116418761D01*
X122624290Y-116129413D01*
X122653927Y-115828500D01*
X122624290Y-115527587D01*
X122536517Y-115238239D01*
X122393981Y-114971573D01*
X122202161Y-114737839D01*
X122086721Y-114643100D01*
X134986765Y-114643100D01*
X135010610Y-114885202D01*
X135081229Y-115118001D01*
X135195907Y-115332549D01*
X135350238Y-115520602D01*
X135538291Y-115674933D01*
X135752839Y-115789611D01*
X135985638Y-115860230D01*
X136167075Y-115878100D01*
X137088405Y-115878100D01*
X137269842Y-115860230D01*
X137502641Y-115789611D01*
X137717189Y-115674933D01*
X137905242Y-115520602D01*
X138059573Y-115332549D01*
X138174251Y-115118001D01*
X138244870Y-114885202D01*
X138268715Y-114643100D01*
X138244870Y-114400998D01*
X138174251Y-114168199D01*
X138059573Y-113953651D01*
X137905242Y-113765598D01*
X137717189Y-113611267D01*
X137502641Y-113496589D01*
X137269842Y-113425970D01*
X137088405Y-113408100D01*
X136167075Y-113408100D01*
X135985638Y-113425970D01*
X135752839Y-113496589D01*
X135538291Y-113611267D01*
X135350238Y-113765598D01*
X135195907Y-113953651D01*
X135081229Y-114168199D01*
X135010610Y-114400998D01*
X134986765Y-114643100D01*
X122086721Y-114643100D01*
X121968427Y-114546019D01*
X121701761Y-114403483D01*
X121412413Y-114315710D01*
X121186908Y-114293500D01*
X119236092Y-114293500D01*
X119010587Y-114315710D01*
X118721239Y-114403483D01*
X118454573Y-114546019D01*
X118395160Y-114594778D01*
X118395160Y-113562222D01*
X118454573Y-113610981D01*
X118721239Y-113753517D01*
X119010587Y-113841290D01*
X119236092Y-113863500D01*
X121186908Y-113863500D01*
X121412413Y-113841290D01*
X121701761Y-113753517D01*
X121968427Y-113610981D01*
X122202161Y-113419161D01*
X122393981Y-113185427D01*
X122536517Y-112918761D01*
X122624290Y-112629413D01*
X122653927Y-112328500D01*
X122631728Y-112103100D01*
X134986765Y-112103100D01*
X135010610Y-112345202D01*
X135081229Y-112578001D01*
X135195907Y-112792549D01*
X135350238Y-112980602D01*
X135538291Y-113134933D01*
X135752839Y-113249611D01*
X135985638Y-113320230D01*
X136167075Y-113338100D01*
X137088405Y-113338100D01*
X137269842Y-113320230D01*
X137502641Y-113249611D01*
X137717189Y-113134933D01*
X137905242Y-112980602D01*
X138059573Y-112792549D01*
X138174251Y-112578001D01*
X138244870Y-112345202D01*
X138268715Y-112103100D01*
X138244870Y-111860998D01*
X138174251Y-111628199D01*
X138059573Y-111413651D01*
X137905242Y-111225598D01*
X137717189Y-111071267D01*
X137502641Y-110956589D01*
X137269842Y-110885970D01*
X137088405Y-110868100D01*
X136167075Y-110868100D01*
X135985638Y-110885970D01*
X135752839Y-110956589D01*
X135538291Y-111071267D01*
X135350238Y-111225598D01*
X135195907Y-111413651D01*
X135081229Y-111628199D01*
X135010610Y-111860998D01*
X134986765Y-112103100D01*
X122631728Y-112103100D01*
X122624290Y-112027587D01*
X122536517Y-111738239D01*
X122393981Y-111471573D01*
X122202161Y-111237839D01*
X121968427Y-111046019D01*
X121701761Y-110903483D01*
X121412413Y-110815710D01*
X121186908Y-110793500D01*
X119236092Y-110793500D01*
X119010587Y-110815710D01*
X118721239Y-110903483D01*
X118454573Y-111046019D01*
X118395160Y-111094778D01*
X118395160Y-110062222D01*
X118454573Y-110110981D01*
X118721239Y-110253517D01*
X119010587Y-110341290D01*
X119236092Y-110363500D01*
X121186908Y-110363500D01*
X121412413Y-110341290D01*
X121701761Y-110253517D01*
X121968427Y-110110981D01*
X122202161Y-109919161D01*
X122393981Y-109685427D01*
X122459366Y-109563100D01*
X134986765Y-109563100D01*
X135010610Y-109805202D01*
X135081229Y-110038001D01*
X135195907Y-110252549D01*
X135350238Y-110440602D01*
X135538291Y-110594933D01*
X135752839Y-110709611D01*
X135985638Y-110780230D01*
X136167075Y-110798100D01*
X137088405Y-110798100D01*
X137269842Y-110780230D01*
X137502641Y-110709611D01*
X137717189Y-110594933D01*
X137905242Y-110440602D01*
X138059573Y-110252549D01*
X138174251Y-110038001D01*
X138244870Y-109805202D01*
X138268715Y-109563100D01*
X138244870Y-109320998D01*
X138174251Y-109088199D01*
X138059573Y-108873651D01*
X137905242Y-108685598D01*
X137717189Y-108531267D01*
X137502641Y-108416589D01*
X137269842Y-108345970D01*
X137088405Y-108328100D01*
X136167075Y-108328100D01*
X135985638Y-108345970D01*
X135752839Y-108416589D01*
X135538291Y-108531267D01*
X135350238Y-108685598D01*
X135195907Y-108873651D01*
X135081229Y-109088199D01*
X135010610Y-109320998D01*
X134986765Y-109563100D01*
X122459366Y-109563100D01*
X122536517Y-109418761D01*
X122624290Y-109129413D01*
X122653927Y-108828500D01*
X122624290Y-108527587D01*
X122536517Y-108238239D01*
X122393981Y-107971573D01*
X122202161Y-107737839D01*
X121968427Y-107546019D01*
X121701761Y-107403483D01*
X121412413Y-107315710D01*
X121186908Y-107293500D01*
X119236092Y-107293500D01*
X119010587Y-107315710D01*
X118721239Y-107403483D01*
X118454573Y-107546019D01*
X118395160Y-107594778D01*
X118395160Y-107023100D01*
X134986765Y-107023100D01*
X135010610Y-107265202D01*
X135081229Y-107498001D01*
X135195907Y-107712549D01*
X135350238Y-107900602D01*
X135538291Y-108054933D01*
X135752839Y-108169611D01*
X135985638Y-108240230D01*
X136167075Y-108258100D01*
X137088405Y-108258100D01*
X137269842Y-108240230D01*
X137502641Y-108169611D01*
X137717189Y-108054933D01*
X137905242Y-107900602D01*
X138059573Y-107712549D01*
X138174251Y-107498001D01*
X138244870Y-107265202D01*
X138268715Y-107023100D01*
X138244870Y-106780998D01*
X138174251Y-106548199D01*
X138059573Y-106333651D01*
X137905242Y-106145598D01*
X137717189Y-105991267D01*
X137502641Y-105876589D01*
X137269842Y-105805970D01*
X137088405Y-105788100D01*
X136167075Y-105788100D01*
X135985638Y-105805970D01*
X135752839Y-105876589D01*
X135538291Y-105991267D01*
X135350238Y-106145598D01*
X135195907Y-106333651D01*
X135081229Y-106548199D01*
X135010610Y-106780998D01*
X134986765Y-107023100D01*
X118395160Y-107023100D01*
X118395160Y-106562222D01*
X118454573Y-106610981D01*
X118721239Y-106753517D01*
X119010587Y-106841290D01*
X119236092Y-106863500D01*
X121186908Y-106863500D01*
X121412413Y-106841290D01*
X121701761Y-106753517D01*
X121968427Y-106610981D01*
X122202161Y-106419161D01*
X122393981Y-106185427D01*
X122536517Y-105918761D01*
X122624290Y-105629413D01*
X122653927Y-105328500D01*
X122624290Y-105027587D01*
X122536517Y-104738239D01*
X122400143Y-104483100D01*
X134986765Y-104483100D01*
X135010610Y-104725202D01*
X135081229Y-104958001D01*
X135195907Y-105172549D01*
X135350238Y-105360602D01*
X135538291Y-105514933D01*
X135752839Y-105629611D01*
X135985638Y-105700230D01*
X136167075Y-105718100D01*
X137088405Y-105718100D01*
X137269842Y-105700230D01*
X137502641Y-105629611D01*
X137717189Y-105514933D01*
X137905242Y-105360602D01*
X138059573Y-105172549D01*
X138174251Y-104958001D01*
X138244870Y-104725202D01*
X138268715Y-104483100D01*
X138244870Y-104240998D01*
X138174251Y-104008199D01*
X138059573Y-103793651D01*
X137905242Y-103605598D01*
X137717189Y-103451267D01*
X137502641Y-103336589D01*
X137269842Y-103265970D01*
X137088405Y-103248100D01*
X136167075Y-103248100D01*
X135985638Y-103265970D01*
X135752839Y-103336589D01*
X135538291Y-103451267D01*
X135350238Y-103605598D01*
X135195907Y-103793651D01*
X135081229Y-104008199D01*
X135010610Y-104240998D01*
X134986765Y-104483100D01*
X122400143Y-104483100D01*
X122393981Y-104471573D01*
X122202161Y-104237839D01*
X121968427Y-104046019D01*
X121701761Y-103903483D01*
X121412413Y-103815710D01*
X121186908Y-103793500D01*
X119236092Y-103793500D01*
X119010587Y-103815710D01*
X118721239Y-103903483D01*
X118454573Y-104046019D01*
X118395160Y-104094778D01*
X118395160Y-103062222D01*
X118454573Y-103110981D01*
X118721239Y-103253517D01*
X119010587Y-103341290D01*
X119236092Y-103363500D01*
X121186908Y-103363500D01*
X121412413Y-103341290D01*
X121701761Y-103253517D01*
X121968427Y-103110981D01*
X122202161Y-102919161D01*
X122393981Y-102685427D01*
X122536517Y-102418761D01*
X122624290Y-102129413D01*
X122642640Y-101943100D01*
X134986765Y-101943100D01*
X135010610Y-102185202D01*
X135081229Y-102418001D01*
X135195907Y-102632549D01*
X135350238Y-102820602D01*
X135538291Y-102974933D01*
X135752839Y-103089611D01*
X135985638Y-103160230D01*
X136167075Y-103178100D01*
X137088405Y-103178100D01*
X137269842Y-103160230D01*
X137502641Y-103089611D01*
X137717189Y-102974933D01*
X137905242Y-102820602D01*
X138059573Y-102632549D01*
X138174251Y-102418001D01*
X138244870Y-102185202D01*
X138268715Y-101943100D01*
X138244870Y-101700998D01*
X138174251Y-101468199D01*
X138059573Y-101253651D01*
X137905242Y-101065598D01*
X137717189Y-100911267D01*
X137502641Y-100796589D01*
X137269842Y-100725970D01*
X137088405Y-100708100D01*
X136167075Y-100708100D01*
X135985638Y-100725970D01*
X135752839Y-100796589D01*
X135538291Y-100911267D01*
X135350238Y-101065598D01*
X135195907Y-101253651D01*
X135081229Y-101468199D01*
X135010610Y-101700998D01*
X134986765Y-101943100D01*
X122642640Y-101943100D01*
X122653927Y-101828500D01*
X122624290Y-101527587D01*
X122536517Y-101238239D01*
X122393981Y-100971573D01*
X122202161Y-100737839D01*
X121968427Y-100546019D01*
X121701761Y-100403483D01*
X121412413Y-100315710D01*
X121186908Y-100293500D01*
X119236092Y-100293500D01*
X119010587Y-100315710D01*
X118721239Y-100403483D01*
X118454573Y-100546019D01*
X118395160Y-100594778D01*
X118395160Y-99562222D01*
X118454573Y-99610981D01*
X118721239Y-99753517D01*
X119010587Y-99841290D01*
X119236092Y-99863500D01*
X121186908Y-99863500D01*
X121412413Y-99841290D01*
X121701761Y-99753517D01*
X121968427Y-99610981D01*
X122202161Y-99419161D01*
X122215341Y-99403100D01*
X134986765Y-99403100D01*
X135010610Y-99645202D01*
X135081229Y-99878001D01*
X135195907Y-100092549D01*
X135350238Y-100280602D01*
X135538291Y-100434933D01*
X135752839Y-100549611D01*
X135985638Y-100620230D01*
X136167075Y-100638100D01*
X137088405Y-100638100D01*
X137269842Y-100620230D01*
X137502641Y-100549611D01*
X137717189Y-100434933D01*
X137905242Y-100280602D01*
X138059573Y-100092549D01*
X138174251Y-99878001D01*
X138244870Y-99645202D01*
X138268715Y-99403100D01*
X138244870Y-99160998D01*
X138174251Y-98928199D01*
X138059573Y-98713651D01*
X137905242Y-98525598D01*
X137717189Y-98371267D01*
X137502641Y-98256589D01*
X137269842Y-98185970D01*
X137088405Y-98168100D01*
X136167075Y-98168100D01*
X135985638Y-98185970D01*
X135752839Y-98256589D01*
X135538291Y-98371267D01*
X135350238Y-98525598D01*
X135195907Y-98713651D01*
X135081229Y-98928199D01*
X135010610Y-99160998D01*
X134986765Y-99403100D01*
X122215341Y-99403100D01*
X122393981Y-99185427D01*
X122536517Y-98918761D01*
X122624290Y-98629413D01*
X122653927Y-98328500D01*
X122624290Y-98027587D01*
X122536517Y-97738239D01*
X122393981Y-97471573D01*
X122202161Y-97237839D01*
X121968427Y-97046019D01*
X121701761Y-96903483D01*
X121568637Y-96863100D01*
X134986765Y-96863100D01*
X135010610Y-97105202D01*
X135081229Y-97338001D01*
X135195907Y-97552549D01*
X135350238Y-97740602D01*
X135538291Y-97894933D01*
X135752839Y-98009611D01*
X135985638Y-98080230D01*
X136167075Y-98098100D01*
X137088405Y-98098100D01*
X137269842Y-98080230D01*
X137502641Y-98009611D01*
X137717189Y-97894933D01*
X137905242Y-97740602D01*
X138059573Y-97552549D01*
X138174251Y-97338001D01*
X138244870Y-97105202D01*
X138268715Y-96863100D01*
X138244870Y-96620998D01*
X138174251Y-96388199D01*
X138059573Y-96173651D01*
X137905242Y-95985598D01*
X137717189Y-95831267D01*
X137502641Y-95716589D01*
X137269842Y-95645970D01*
X137088405Y-95628100D01*
X136167075Y-95628100D01*
X135985638Y-95645970D01*
X135752839Y-95716589D01*
X135538291Y-95831267D01*
X135350238Y-95985598D01*
X135195907Y-96173651D01*
X135081229Y-96388199D01*
X135010610Y-96620998D01*
X134986765Y-96863100D01*
X121568637Y-96863100D01*
X121412413Y-96815710D01*
X121186908Y-96793500D01*
X119236092Y-96793500D01*
X119010587Y-96815710D01*
X118721239Y-96903483D01*
X118454573Y-97046019D01*
X118395160Y-97094778D01*
X118395160Y-96062222D01*
X118454573Y-96110981D01*
X118721239Y-96253517D01*
X119010587Y-96341290D01*
X119236092Y-96363500D01*
X121186908Y-96363500D01*
X121412413Y-96341290D01*
X121701761Y-96253517D01*
X121968427Y-96110981D01*
X122202161Y-95919161D01*
X122329908Y-95763500D01*
X122565568Y-95763500D01*
X122611500Y-95768024D01*
X122657432Y-95763500D01*
X122794792Y-95749971D01*
X122971040Y-95696507D01*
X123133472Y-95609686D01*
X123275844Y-95492844D01*
X123305130Y-95457159D01*
X124439189Y-94323100D01*
X134986765Y-94323100D01*
X135010610Y-94565202D01*
X135081229Y-94798001D01*
X135195907Y-95012549D01*
X135350238Y-95200602D01*
X135538291Y-95354933D01*
X135752839Y-95469611D01*
X135985638Y-95540230D01*
X136167075Y-95558100D01*
X137088405Y-95558100D01*
X137269842Y-95540230D01*
X137502641Y-95469611D01*
X137717189Y-95354933D01*
X137905242Y-95200602D01*
X138059573Y-95012549D01*
X138174251Y-94798001D01*
X138244870Y-94565202D01*
X138268715Y-94323100D01*
X138244870Y-94080998D01*
X138174251Y-93848199D01*
X138059573Y-93633651D01*
X137905242Y-93445598D01*
X137717189Y-93291267D01*
X137502641Y-93176589D01*
X137269842Y-93105970D01*
X137088405Y-93088100D01*
X136167075Y-93088100D01*
X135985638Y-93105970D01*
X135752839Y-93176589D01*
X135538291Y-93291267D01*
X135350238Y-93445598D01*
X135195907Y-93633651D01*
X135081229Y-93848199D01*
X135010610Y-94080998D01*
X134986765Y-94323100D01*
X124439189Y-94323100D01*
X124771160Y-93991129D01*
X124806844Y-93961844D01*
X124923686Y-93819472D01*
X125010507Y-93657040D01*
X125063971Y-93480792D01*
X125077500Y-93343432D01*
X125077500Y-93343431D01*
X125082024Y-93297500D01*
X125077500Y-93251568D01*
X125077500Y-91783100D01*
X134986765Y-91783100D01*
X135010610Y-92025202D01*
X135081229Y-92258001D01*
X135195907Y-92472549D01*
X135350238Y-92660602D01*
X135538291Y-92814933D01*
X135752839Y-92929611D01*
X135985638Y-93000230D01*
X136167075Y-93018100D01*
X137088405Y-93018100D01*
X137269842Y-93000230D01*
X137502641Y-92929611D01*
X137717189Y-92814933D01*
X137905242Y-92660602D01*
X138059573Y-92472549D01*
X138174251Y-92258001D01*
X138244870Y-92025202D01*
X138268715Y-91783100D01*
X138244870Y-91540998D01*
X138174251Y-91308199D01*
X138059573Y-91093651D01*
X137905242Y-90905598D01*
X137717189Y-90751267D01*
X137502641Y-90636589D01*
X137269842Y-90565970D01*
X137088405Y-90548100D01*
X136167075Y-90548100D01*
X135985638Y-90565970D01*
X135752839Y-90636589D01*
X135538291Y-90751267D01*
X135350238Y-90905598D01*
X135195907Y-91093651D01*
X135081229Y-91308199D01*
X135010610Y-91540998D01*
X134986765Y-91783100D01*
X125077500Y-91783100D01*
X125077500Y-89243100D01*
X134986765Y-89243100D01*
X135010610Y-89485202D01*
X135081229Y-89718001D01*
X135195907Y-89932549D01*
X135350238Y-90120602D01*
X135538291Y-90274933D01*
X135752839Y-90389611D01*
X135985638Y-90460230D01*
X136167075Y-90478100D01*
X137088405Y-90478100D01*
X137269842Y-90460230D01*
X137502641Y-90389611D01*
X137717189Y-90274933D01*
X137905242Y-90120602D01*
X138059573Y-89932549D01*
X138174251Y-89718001D01*
X138244870Y-89485202D01*
X138268715Y-89243100D01*
X138244870Y-89000998D01*
X138174251Y-88768199D01*
X138059573Y-88553651D01*
X137905242Y-88365598D01*
X137717189Y-88211267D01*
X137502641Y-88096589D01*
X137269842Y-88025970D01*
X137088405Y-88008100D01*
X136167075Y-88008100D01*
X135985638Y-88025970D01*
X135752839Y-88096589D01*
X135538291Y-88211267D01*
X135350238Y-88365598D01*
X135195907Y-88553651D01*
X135081229Y-88768199D01*
X135010610Y-89000998D01*
X134986765Y-89243100D01*
X125077500Y-89243100D01*
X125077500Y-86703100D01*
X134986765Y-86703100D01*
X135010610Y-86945202D01*
X135081229Y-87178001D01*
X135195907Y-87392549D01*
X135350238Y-87580602D01*
X135538291Y-87734933D01*
X135752839Y-87849611D01*
X135985638Y-87920230D01*
X136167075Y-87938100D01*
X137088405Y-87938100D01*
X137269842Y-87920230D01*
X137502641Y-87849611D01*
X137717189Y-87734933D01*
X137905242Y-87580602D01*
X138059573Y-87392549D01*
X138174251Y-87178001D01*
X138244870Y-86945202D01*
X138268715Y-86703100D01*
X138244870Y-86460998D01*
X138174251Y-86228199D01*
X138059573Y-86013651D01*
X137905242Y-85825598D01*
X137717189Y-85671267D01*
X137502641Y-85556589D01*
X137269842Y-85485970D01*
X137088405Y-85468100D01*
X136167075Y-85468100D01*
X135985638Y-85485970D01*
X135752839Y-85556589D01*
X135538291Y-85671267D01*
X135350238Y-85825598D01*
X135195907Y-86013651D01*
X135081229Y-86228199D01*
X135010610Y-86460998D01*
X134986765Y-86703100D01*
X125077500Y-86703100D01*
X125077500Y-86380432D01*
X125082024Y-86334500D01*
X125063971Y-86151208D01*
X125049474Y-86103418D01*
X125010507Y-85974960D01*
X124923686Y-85812528D01*
X124806844Y-85670156D01*
X124771159Y-85640870D01*
X123933789Y-84803500D01*
X124771160Y-83966129D01*
X124806844Y-83936844D01*
X124923686Y-83794472D01*
X125010507Y-83632040D01*
X125063971Y-83455792D01*
X125077500Y-83318432D01*
X125077500Y-83318431D01*
X125082024Y-83272500D01*
X125077500Y-83226568D01*
X125077500Y-77412789D01*
X125418789Y-77071500D01*
X135439211Y-77071500D01*
X135692740Y-77325030D01*
X135692741Y-83048712D01*
X135538291Y-83131267D01*
X135350238Y-83285598D01*
X135195907Y-83473651D01*
X135081229Y-83688199D01*
X135010610Y-83920998D01*
X134986765Y-84163100D01*
X135010610Y-84405202D01*
X135081229Y-84638001D01*
X135195907Y-84852549D01*
X135350238Y-85040602D01*
X135538291Y-85194933D01*
X135752839Y-85309611D01*
X135985638Y-85380230D01*
X136167075Y-85398100D01*
X137088405Y-85398100D01*
X137269842Y-85380230D01*
X137502641Y-85309611D01*
X137717189Y-85194933D01*
X137905242Y-85040602D01*
X138059573Y-84852549D01*
X138174251Y-84638001D01*
X138244870Y-84405202D01*
X138268715Y-84163100D01*
X138244870Y-83920998D01*
X138174251Y-83688199D01*
X138059573Y-83473651D01*
X137905242Y-83285598D01*
X137717189Y-83131267D01*
X137562740Y-83048713D01*
X137562740Y-76983664D01*
X137567263Y-76937739D01*
X137562740Y-76891814D01*
X137562740Y-76891808D01*
X137549211Y-76754448D01*
X137495747Y-76578200D01*
X137408926Y-76415768D01*
X137292084Y-76273396D01*
X137256405Y-76244115D01*
X136520130Y-75507841D01*
X136490844Y-75472156D01*
X136348472Y-75355314D01*
X136186040Y-75268493D01*
X136009792Y-75215029D01*
X135872432Y-75201500D01*
X135826500Y-75196976D01*
X135780568Y-75201500D01*
X125077432Y-75201500D01*
X125031500Y-75196976D01*
X124985568Y-75201500D01*
X124848208Y-75215029D01*
X124671960Y-75268493D01*
X124509528Y-75355314D01*
X124367156Y-75472156D01*
X124337870Y-75507841D01*
X123513836Y-76331875D01*
X123478157Y-76361156D01*
X123361315Y-76503528D01*
X123321402Y-76578201D01*
X123274494Y-76665960D01*
X123221029Y-76842209D01*
X123202976Y-77025500D01*
X123207501Y-77071442D01*
X123207500Y-82885211D01*
X122282265Y-83810446D01*
X122202161Y-83712839D01*
X121968427Y-83521019D01*
X121701761Y-83378483D01*
X121412413Y-83290710D01*
X121186908Y-83268500D01*
X119236092Y-83268500D01*
X119010587Y-83290710D01*
X118721239Y-83378483D01*
X118454573Y-83521019D01*
X118395160Y-83569778D01*
X118395160Y-82537222D01*
X118454573Y-82585981D01*
X118721239Y-82728517D01*
X119010587Y-82816290D01*
X119236092Y-82838500D01*
X121186908Y-82838500D01*
X121412413Y-82816290D01*
X121701761Y-82728517D01*
X121968427Y-82585981D01*
X122202161Y-82394161D01*
X122393981Y-82160427D01*
X122536517Y-81893761D01*
X122624290Y-81604413D01*
X122653927Y-81303500D01*
X122624290Y-81002587D01*
X122536517Y-80713239D01*
X122393981Y-80446573D01*
X122202161Y-80212839D01*
X121968427Y-80021019D01*
X121701761Y-79878483D01*
X121412413Y-79790710D01*
X121186908Y-79768500D01*
X119236092Y-79768500D01*
X119010587Y-79790710D01*
X118721239Y-79878483D01*
X118454573Y-80021019D01*
X118395160Y-80069778D01*
X118395160Y-79037222D01*
X118454573Y-79085981D01*
X118721239Y-79228517D01*
X119010587Y-79316290D01*
X119236092Y-79338500D01*
X121186908Y-79338500D01*
X121412413Y-79316290D01*
X121701761Y-79228517D01*
X121968427Y-79085981D01*
X122202161Y-78894161D01*
X122393981Y-78660427D01*
X122536517Y-78393761D01*
X122624290Y-78104413D01*
X122653927Y-77803500D01*
X122624290Y-77502587D01*
X122536517Y-77213239D01*
X122393981Y-76946573D01*
X122202161Y-76712839D01*
X121968427Y-76521019D01*
X121701761Y-76378483D01*
X121412413Y-76290710D01*
X121186908Y-76268500D01*
X119236092Y-76268500D01*
X119010587Y-76290710D01*
X118721239Y-76378483D01*
X118454573Y-76521019D01*
X118395160Y-76569778D01*
X118395160Y-75537222D01*
X118454573Y-75585981D01*
X118721239Y-75728517D01*
X119010587Y-75816290D01*
X119236092Y-75838500D01*
X121186908Y-75838500D01*
X121412413Y-75816290D01*
X121701761Y-75728517D01*
X121968427Y-75585981D01*
X122202161Y-75394161D01*
X122393981Y-75160427D01*
X122536517Y-74893761D01*
X122624290Y-74604413D01*
X122653927Y-74303500D01*
X122624290Y-74002587D01*
X122536517Y-73713239D01*
X122393981Y-73446573D01*
X122202161Y-73212839D01*
X121968427Y-73021019D01*
X121701761Y-72878483D01*
X121412413Y-72790710D01*
X121186908Y-72768500D01*
X119236092Y-72768500D01*
X119010587Y-72790710D01*
X118721239Y-72878483D01*
X118454573Y-73021019D01*
X118395160Y-73069778D01*
X118395160Y-72037222D01*
X118454573Y-72085981D01*
X118721239Y-72228517D01*
X119010587Y-72316290D01*
X119236092Y-72338500D01*
X121186908Y-72338500D01*
X121412413Y-72316290D01*
X121701761Y-72228517D01*
X121968427Y-72085981D01*
X122202161Y-71894161D01*
X122393981Y-71660427D01*
X122536517Y-71393761D01*
X122624290Y-71104413D01*
X122653927Y-70803500D01*
X122624290Y-70502587D01*
X122536517Y-70213239D01*
X122393981Y-69946573D01*
X122202161Y-69712839D01*
X121968427Y-69521019D01*
X121701761Y-69378483D01*
X121412413Y-69290710D01*
X121186908Y-69268500D01*
X119236092Y-69268500D01*
X119010587Y-69290710D01*
X118721239Y-69378483D01*
X118454573Y-69521019D01*
X118395160Y-69569778D01*
X118395160Y-68537222D01*
X118454573Y-68585981D01*
X118721239Y-68728517D01*
X119010587Y-68816290D01*
X119236092Y-68838500D01*
X121186908Y-68838500D01*
X121412413Y-68816290D01*
X121701761Y-68728517D01*
X121968427Y-68585981D01*
X122202161Y-68394161D01*
X122393981Y-68160427D01*
X122536517Y-67893761D01*
X122624290Y-67604413D01*
X122653927Y-67303500D01*
X122624290Y-67002587D01*
X122536517Y-66713239D01*
X122393981Y-66446573D01*
X122202161Y-66212839D01*
X121968427Y-66021019D01*
X121701761Y-65878483D01*
X121412413Y-65790710D01*
X121186908Y-65768500D01*
X119236092Y-65768500D01*
X119010587Y-65790710D01*
X118721239Y-65878483D01*
X118454573Y-66021019D01*
X118395160Y-66069778D01*
X118395160Y-65037222D01*
X118454573Y-65085981D01*
X118721239Y-65228517D01*
X119010587Y-65316290D01*
X119236092Y-65338500D01*
X121186908Y-65338500D01*
X121412413Y-65316290D01*
X121701761Y-65228517D01*
X121968427Y-65085981D01*
X122202161Y-64894161D01*
X122393981Y-64660427D01*
X122536517Y-64393761D01*
X122624290Y-64104413D01*
X122653927Y-63803500D01*
X122624290Y-63502587D01*
X122536517Y-63213239D01*
X122393981Y-62946573D01*
X122202161Y-62712839D01*
X121968427Y-62521019D01*
X121701761Y-62378483D01*
X121412413Y-62290710D01*
X121186908Y-62268500D01*
X119236092Y-62268500D01*
X119010587Y-62290710D01*
X118721239Y-62378483D01*
X118454573Y-62521019D01*
X118395160Y-62569778D01*
X118395160Y-61537222D01*
X118454573Y-61585981D01*
X118721239Y-61728517D01*
X119010587Y-61816290D01*
X119236092Y-61838500D01*
X121186908Y-61838500D01*
X121412413Y-61816290D01*
X121701761Y-61728517D01*
X121968427Y-61585981D01*
X122202161Y-61394161D01*
X122393981Y-61160427D01*
X122536517Y-60893761D01*
X122624290Y-60604413D01*
X122653927Y-60303500D01*
X122624290Y-60002587D01*
X122536517Y-59713239D01*
X122393981Y-59446573D01*
X122202161Y-59212839D01*
X121968427Y-59021019D01*
X121701761Y-58878483D01*
X121412413Y-58790710D01*
X121186908Y-58768500D01*
X119236092Y-58768500D01*
X119010587Y-58790710D01*
X118721239Y-58878483D01*
X118454573Y-59021019D01*
X118395160Y-59069778D01*
X118395160Y-58036408D01*
X118606749Y-58173054D01*
X118887477Y-58284229D01*
X119184500Y-58338500D01*
X120084500Y-58338500D01*
X120084500Y-56930500D01*
X120338500Y-56930500D01*
X120338500Y-58338500D01*
X121238500Y-58338500D01*
X121535523Y-58284229D01*
X121816251Y-58173054D01*
X122069896Y-58009248D01*
X122286710Y-57799106D01*
X122458362Y-57550704D01*
X122578255Y-57273587D01*
X122602536Y-57168240D01*
X122481878Y-56930500D01*
X120338500Y-56930500D01*
X120084500Y-56930500D01*
X120064500Y-56930500D01*
X120064500Y-56676500D01*
X120084500Y-56676500D01*
X120084500Y-55268500D01*
X120338500Y-55268500D01*
X120338500Y-56676500D01*
X122481878Y-56676500D01*
X122602536Y-56438760D01*
X122578255Y-56333413D01*
X122458362Y-56056296D01*
X122286710Y-55807894D01*
X122069896Y-55597752D01*
X121816251Y-55433946D01*
X121535523Y-55322771D01*
X121238500Y-55268500D01*
X120338500Y-55268500D01*
X120084500Y-55268500D01*
X119184500Y-55268500D01*
X118887477Y-55322771D01*
X118606749Y-55433946D01*
X118395160Y-55570592D01*
X118395160Y-50735198D01*
X118419117Y-50449142D01*
X119152799Y-50449142D01*
X119152799Y-50857618D01*
X119232488Y-51258246D01*
X119388805Y-51635628D01*
X119615743Y-51975264D01*
X119904579Y-52264100D01*
X120244215Y-52491038D01*
X120621597Y-52647355D01*
X121022225Y-52727044D01*
X121430701Y-52727044D01*
X121831329Y-52647355D01*
X122208711Y-52491038D01*
X122548347Y-52264100D01*
X122837183Y-51975264D01*
X123064121Y-51635628D01*
X123220438Y-51258246D01*
X123300127Y-50857618D01*
X123300127Y-50449142D01*
X123220438Y-50048514D01*
X123064121Y-49671132D01*
X122837183Y-49331496D01*
X122548347Y-49042660D01*
X122208711Y-48815722D01*
X121831329Y-48659405D01*
X121430701Y-48579716D01*
X121022225Y-48579716D01*
X120621597Y-48659405D01*
X120244215Y-48815722D01*
X119904579Y-49042660D01*
X119615743Y-49331496D01*
X119388805Y-49671132D01*
X119232488Y-50048514D01*
X119152799Y-50449142D01*
X118419117Y-50449142D01*
X118445227Y-50137388D01*
X118599062Y-49600453D01*
X118854255Y-49103632D01*
X119201088Y-48665839D01*
X119626354Y-48303747D01*
X120113850Y-48031153D01*
X120645003Y-47858442D01*
X121228325Y-47788754D01*
X121263517Y-47788381D01*
X170128141Y-47813363D01*
G36*
X167624935Y-65286981D02*
G01*
X167580284Y-65434190D01*
X167701605Y-65664080D01*
X168894760Y-65664080D01*
X168894760Y-65644080D01*
X169148760Y-65644080D01*
X169148760Y-65664080D01*
X169168760Y-65664080D01*
X169168760Y-65918080D01*
X169148760Y-65918080D01*
X169148760Y-65938080D01*
X168894760Y-65938080D01*
X168894760Y-65918080D01*
X167701605Y-65918080D01*
X167580284Y-66147970D01*
X167624935Y-66295179D01*
X167625326Y-66296000D01*
X167550323Y-66296000D01*
X167513000Y-66292324D01*
X167475677Y-66296000D01*
X167475667Y-66296000D01*
X167364014Y-66306997D01*
X167226097Y-66348833D01*
X167220753Y-66350454D01*
X167088723Y-66421026D01*
X167013424Y-66482823D01*
X166972999Y-66515999D01*
X166949201Y-66544997D01*
X165541498Y-67952701D01*
X165512500Y-67976499D01*
X165488702Y-68005497D01*
X165488701Y-68005498D01*
X165417526Y-68092224D01*
X165346954Y-68224254D01*
X165316680Y-68324058D01*
X165303498Y-68367514D01*
X165292681Y-68477340D01*
X165288824Y-68516500D01*
X165292501Y-68553833D01*
X165292500Y-104116311D01*
X165288824Y-104153633D01*
X165292500Y-104190955D01*
X165292500Y-104190965D01*
X165303497Y-104302618D01*
X165331575Y-104395179D01*
X165346954Y-104445879D01*
X165417526Y-104577909D01*
X165431135Y-104594491D01*
X165512499Y-104693634D01*
X165541503Y-104717437D01*
X167324501Y-106500436D01*
X167324501Y-107245360D01*
X167283191Y-107211458D01*
X167201692Y-107157002D01*
X167091375Y-107098036D01*
X167000819Y-107060527D01*
X166881123Y-107024218D01*
X166784990Y-107005096D01*
X166660509Y-106992836D01*
X166635950Y-106992836D01*
X166611500Y-106990428D01*
X166298230Y-106990428D01*
X165161500Y-105853699D01*
X165161500Y-67561301D01*
X167446802Y-65276000D01*
X167630165Y-65276000D01*
X167624935Y-65286981D01*
G37*
X167624935Y-65286981D02*
X167580284Y-65434190D01*
X167701605Y-65664080D01*
X168894760Y-65664080D01*
X168894760Y-65644080D01*
X169148760Y-65644080D01*
X169148760Y-65664080D01*
X169168760Y-65664080D01*
X169168760Y-65918080D01*
X169148760Y-65918080D01*
X169148760Y-65938080D01*
X168894760Y-65938080D01*
X168894760Y-65918080D01*
X167701605Y-65918080D01*
X167580284Y-66147970D01*
X167624935Y-66295179D01*
X167625326Y-66296000D01*
X167550323Y-66296000D01*
X167513000Y-66292324D01*
X167475677Y-66296000D01*
X167475667Y-66296000D01*
X167364014Y-66306997D01*
X167226097Y-66348833D01*
X167220753Y-66350454D01*
X167088723Y-66421026D01*
X167013424Y-66482823D01*
X166972999Y-66515999D01*
X166949201Y-66544997D01*
X165541498Y-67952701D01*
X165512500Y-67976499D01*
X165488702Y-68005497D01*
X165488701Y-68005498D01*
X165417526Y-68092224D01*
X165346954Y-68224254D01*
X165316680Y-68324058D01*
X165303498Y-68367514D01*
X165292681Y-68477340D01*
X165288824Y-68516500D01*
X165292501Y-68553833D01*
X165292500Y-104116311D01*
X165288824Y-104153633D01*
X165292500Y-104190955D01*
X165292500Y-104190965D01*
X165303497Y-104302618D01*
X165331575Y-104395179D01*
X165346954Y-104445879D01*
X165417526Y-104577909D01*
X165431135Y-104594491D01*
X165512499Y-104693634D01*
X165541503Y-104717437D01*
X167324501Y-106500436D01*
X167324501Y-107245360D01*
X167283191Y-107211458D01*
X167201692Y-107157002D01*
X167091375Y-107098036D01*
X167000819Y-107060527D01*
X166881123Y-107024218D01*
X166784990Y-107005096D01*
X166660509Y-106992836D01*
X166635950Y-106992836D01*
X166611500Y-106990428D01*
X166298230Y-106990428D01*
X165161500Y-105853699D01*
X165161500Y-67561301D01*
X167446802Y-65276000D01*
X167630165Y-65276000D01*
X167624935Y-65286981D01*
G36*
X167868285Y-61657712D02*
G01*
X168075128Y-61864555D01*
X168249520Y-61981080D01*
X168075128Y-62097605D01*
X167868285Y-62304448D01*
X167705770Y-62547669D01*
X167593828Y-62817922D01*
X167536760Y-63104820D01*
X167536760Y-63397340D01*
X167593828Y-63684238D01*
X167623553Y-63756000D01*
X167169322Y-63756000D01*
X167131999Y-63752324D01*
X167094676Y-63756000D01*
X167094667Y-63756000D01*
X166983014Y-63766997D01*
X166862678Y-63803500D01*
X166839753Y-63810454D01*
X166707723Y-63881026D01*
X166624083Y-63949668D01*
X166591999Y-63975999D01*
X166568201Y-64004997D01*
X163890498Y-66682701D01*
X163861500Y-66706499D01*
X163837702Y-66735497D01*
X163837701Y-66735498D01*
X163766526Y-66822224D01*
X163695954Y-66954254D01*
X163652498Y-67097515D01*
X163637824Y-67246500D01*
X163641501Y-67283833D01*
X163641501Y-83398890D01*
X163617242Y-83318920D01*
X163558277Y-83208606D01*
X163478925Y-83111915D01*
X163382234Y-83032563D01*
X163271920Y-82973598D01*
X163152222Y-82937288D01*
X163027740Y-82925028D01*
X162313490Y-82928100D01*
X162154740Y-83086850D01*
X162154740Y-84036100D01*
X162174740Y-84036100D01*
X162174740Y-84290100D01*
X162154740Y-84290100D01*
X162154740Y-85239350D01*
X162313490Y-85398100D01*
X163027740Y-85401172D01*
X163152222Y-85388912D01*
X163271920Y-85352602D01*
X163382234Y-85293637D01*
X163478925Y-85214285D01*
X163558277Y-85117594D01*
X163617242Y-85007280D01*
X163641501Y-84927310D01*
X163641501Y-86449890D01*
X163574251Y-86228199D01*
X163459573Y-86013651D01*
X163305242Y-85825598D01*
X163117189Y-85671267D01*
X162902641Y-85556589D01*
X162669842Y-85485970D01*
X162488405Y-85468100D01*
X161567075Y-85468100D01*
X161385638Y-85485970D01*
X161152839Y-85556589D01*
X160938291Y-85671267D01*
X160750238Y-85825598D01*
X160595907Y-86013651D01*
X160481229Y-86228199D01*
X160410610Y-86460998D01*
X160386765Y-86703100D01*
X160410610Y-86945202D01*
X160481229Y-87178001D01*
X160595907Y-87392549D01*
X160750238Y-87580602D01*
X160938291Y-87734933D01*
X161152839Y-87849611D01*
X161385638Y-87920230D01*
X161567075Y-87938100D01*
X162488405Y-87938100D01*
X162669842Y-87920230D01*
X162902641Y-87849611D01*
X163117189Y-87734933D01*
X163305242Y-87580602D01*
X163459573Y-87392549D01*
X163574251Y-87178001D01*
X163641500Y-86956310D01*
X163641500Y-88989890D01*
X163574251Y-88768199D01*
X163459573Y-88553651D01*
X163305242Y-88365598D01*
X163117189Y-88211267D01*
X162902641Y-88096589D01*
X162669842Y-88025970D01*
X162488405Y-88008100D01*
X161567075Y-88008100D01*
X161385638Y-88025970D01*
X161152839Y-88096589D01*
X160938291Y-88211267D01*
X160820300Y-88308100D01*
X158210390Y-88308100D01*
X156192500Y-86290211D01*
X156192500Y-84763100D01*
X160389668Y-84763100D01*
X160401928Y-84887582D01*
X160438238Y-85007280D01*
X160497203Y-85117594D01*
X160576555Y-85214285D01*
X160673246Y-85293637D01*
X160783560Y-85352602D01*
X160903258Y-85388912D01*
X161027740Y-85401172D01*
X161741990Y-85398100D01*
X161900740Y-85239350D01*
X161900740Y-84290100D01*
X160551490Y-84290100D01*
X160392740Y-84448850D01*
X160389668Y-84763100D01*
X156192500Y-84763100D01*
X156192500Y-83563100D01*
X160389668Y-83563100D01*
X160392740Y-83877350D01*
X160551490Y-84036100D01*
X161900740Y-84036100D01*
X161900740Y-83086850D01*
X161741990Y-82928100D01*
X161027740Y-82925028D01*
X160903258Y-82937288D01*
X160783560Y-82973598D01*
X160673246Y-83032563D01*
X160576555Y-83111915D01*
X160497203Y-83208606D01*
X160438238Y-83318920D01*
X160401928Y-83438618D01*
X160389668Y-83563100D01*
X156192500Y-83563100D01*
X156192500Y-69919789D01*
X164466209Y-61646080D01*
X167860513Y-61646080D01*
X167868285Y-61657712D01*
G37*
X167868285Y-61657712D02*
X168075128Y-61864555D01*
X168249520Y-61981080D01*
X168075128Y-62097605D01*
X167868285Y-62304448D01*
X167705770Y-62547669D01*
X167593828Y-62817922D01*
X167536760Y-63104820D01*
X167536760Y-63397340D01*
X167593828Y-63684238D01*
X167623553Y-63756000D01*
X167169322Y-63756000D01*
X167131999Y-63752324D01*
X167094676Y-63756000D01*
X167094667Y-63756000D01*
X166983014Y-63766997D01*
X166862678Y-63803500D01*
X166839753Y-63810454D01*
X166707723Y-63881026D01*
X166624083Y-63949668D01*
X166591999Y-63975999D01*
X166568201Y-64004997D01*
X163890498Y-66682701D01*
X163861500Y-66706499D01*
X163837702Y-66735497D01*
X163837701Y-66735498D01*
X163766526Y-66822224D01*
X163695954Y-66954254D01*
X163652498Y-67097515D01*
X163637824Y-67246500D01*
X163641501Y-67283833D01*
X163641501Y-83398890D01*
X163617242Y-83318920D01*
X163558277Y-83208606D01*
X163478925Y-83111915D01*
X163382234Y-83032563D01*
X163271920Y-82973598D01*
X163152222Y-82937288D01*
X163027740Y-82925028D01*
X162313490Y-82928100D01*
X162154740Y-83086850D01*
X162154740Y-84036100D01*
X162174740Y-84036100D01*
X162174740Y-84290100D01*
X162154740Y-84290100D01*
X162154740Y-85239350D01*
X162313490Y-85398100D01*
X163027740Y-85401172D01*
X163152222Y-85388912D01*
X163271920Y-85352602D01*
X163382234Y-85293637D01*
X163478925Y-85214285D01*
X163558277Y-85117594D01*
X163617242Y-85007280D01*
X163641501Y-84927310D01*
X163641501Y-86449890D01*
X163574251Y-86228199D01*
X163459573Y-86013651D01*
X163305242Y-85825598D01*
X163117189Y-85671267D01*
X162902641Y-85556589D01*
X162669842Y-85485970D01*
X162488405Y-85468100D01*
X161567075Y-85468100D01*
X161385638Y-85485970D01*
X161152839Y-85556589D01*
X160938291Y-85671267D01*
X160750238Y-85825598D01*
X160595907Y-86013651D01*
X160481229Y-86228199D01*
X160410610Y-86460998D01*
X160386765Y-86703100D01*
X160410610Y-86945202D01*
X160481229Y-87178001D01*
X160595907Y-87392549D01*
X160750238Y-87580602D01*
X160938291Y-87734933D01*
X161152839Y-87849611D01*
X161385638Y-87920230D01*
X161567075Y-87938100D01*
X162488405Y-87938100D01*
X162669842Y-87920230D01*
X162902641Y-87849611D01*
X163117189Y-87734933D01*
X163305242Y-87580602D01*
X163459573Y-87392549D01*
X163574251Y-87178001D01*
X163641500Y-86956310D01*
X163641500Y-88989890D01*
X163574251Y-88768199D01*
X163459573Y-88553651D01*
X163305242Y-88365598D01*
X163117189Y-88211267D01*
X162902641Y-88096589D01*
X162669842Y-88025970D01*
X162488405Y-88008100D01*
X161567075Y-88008100D01*
X161385638Y-88025970D01*
X161152839Y-88096589D01*
X160938291Y-88211267D01*
X160820300Y-88308100D01*
X158210390Y-88308100D01*
X156192500Y-86290211D01*
X156192500Y-84763100D01*
X160389668Y-84763100D01*
X160401928Y-84887582D01*
X160438238Y-85007280D01*
X160497203Y-85117594D01*
X160576555Y-85214285D01*
X160673246Y-85293637D01*
X160783560Y-85352602D01*
X160903258Y-85388912D01*
X161027740Y-85401172D01*
X161741990Y-85398100D01*
X161900740Y-85239350D01*
X161900740Y-84290100D01*
X160551490Y-84290100D01*
X160392740Y-84448850D01*
X160389668Y-84763100D01*
X156192500Y-84763100D01*
X156192500Y-83563100D01*
X160389668Y-83563100D01*
X160392740Y-83877350D01*
X160551490Y-84036100D01*
X161900740Y-84036100D01*
X161900740Y-83086850D01*
X161741990Y-82928100D01*
X161027740Y-82925028D01*
X160903258Y-82937288D01*
X160783560Y-82973598D01*
X160673246Y-83032563D01*
X160576555Y-83111915D01*
X160497203Y-83208606D01*
X160438238Y-83318920D01*
X160401928Y-83438618D01*
X160389668Y-83563100D01*
X156192500Y-83563100D01*
X156192500Y-69919789D01*
X164466209Y-61646080D01*
X167860513Y-61646080D01*
X167868285Y-61657712D01*
M02*
