G04 #@! TF.GenerationSoftware,KiCad,Pcbnew,5.1.5+dfsg1-2build2*
G04 #@! TF.CreationDate,2023-05-06T09:23:40+02:00*
G04 #@! TF.ProjectId,digital,64696769-7461-46c2-9e6b-696361645f70,rev?*
G04 #@! TF.SameCoordinates,Original*
G04 #@! TF.FileFunction,Other,User*
%FSLAX46Y46*%
G04 Gerber Fmt 4.6, Leading zero omitted, Abs format (unit mm)*
G04 Created by KiCad (PCBNEW 5.1.5+dfsg1-2build2) date 2023-05-06 09:23:40*
%MOMM*%
%LPD*%
G04 APERTURE LIST*
%ADD10C,0.050000*%
G04 APERTURE END LIST*
D10*
X115461500Y-91253500D02*
X123711500Y-91253500D01*
X123711500Y-91253500D02*
X123711500Y-53853500D01*
X123711500Y-53853500D02*
X115461500Y-53853500D01*
X115461500Y-53853500D02*
X115461500Y-91253500D01*
X135377740Y-130733100D02*
X135377740Y-83313100D01*
X163277740Y-83313100D02*
X163277740Y-130733100D01*
X135377740Y-83313100D02*
X163277740Y-83313100D01*
X163277740Y-130733100D02*
X135377740Y-130733100D01*
X167221760Y-53831080D02*
X167221760Y-105681080D01*
X167221760Y-105681080D02*
X173371760Y-105681080D01*
X173371760Y-105681080D02*
X173371760Y-53831080D01*
X173371760Y-53831080D02*
X167221760Y-53831080D01*
X115461500Y-91878500D02*
X115461500Y-129278500D01*
X123711500Y-91878500D02*
X115461500Y-91878500D01*
X123711500Y-129278500D02*
X123711500Y-91878500D01*
X115461500Y-129278500D02*
X123711500Y-129278500D01*
X133516160Y-134383980D02*
X133516160Y-126133980D01*
X133516160Y-126133980D02*
X124116160Y-126133980D01*
X124116160Y-126133980D02*
X124116160Y-134383980D01*
X124116160Y-134383980D02*
X133516160Y-134383980D01*
X126786500Y-125068500D02*
X124546500Y-125068500D01*
X124546500Y-125068500D02*
X124546500Y-120168500D01*
X124546500Y-120168500D02*
X126786500Y-120168500D01*
X126786500Y-120168500D02*
X126786500Y-125068500D01*
X127720500Y-120752500D02*
X134280500Y-120752500D01*
X127720500Y-124992500D02*
X127720500Y-120752500D01*
X134280500Y-124992500D02*
X127720500Y-124992500D01*
X134280500Y-120752500D02*
X134280500Y-124992500D01*
X165111500Y-110428500D02*
X165111500Y-107128500D01*
X165111500Y-110428500D02*
X167611500Y-110428500D01*
X167611500Y-107128500D02*
X165111500Y-107128500D01*
X167611500Y-107128500D02*
X167611500Y-110428500D01*
X167611500Y-111428500D02*
X167611500Y-114728500D01*
X167611500Y-111428500D02*
X165111500Y-111428500D01*
X165111500Y-114728500D02*
X167611500Y-114728500D01*
X165111500Y-114728500D02*
X165111500Y-111428500D01*
M02*
