G04 #@! TF.GenerationSoftware,KiCad,Pcbnew,5.1.5+dfsg1-2build2*
G04 #@! TF.CreationDate,2023-05-06T09:23:40+02:00*
G04 #@! TF.ProjectId,digital,64696769-7461-46c2-9e6b-696361645f70,rev?*
G04 #@! TF.SameCoordinates,Original*
G04 #@! TF.FileFunction,Other,User*
%FSLAX46Y46*%
G04 Gerber Fmt 4.6, Leading zero omitted, Abs format (unit mm)*
G04 Created by KiCad (PCBNEW 5.1.5+dfsg1-2build2) date 2023-05-06 09:23:40*
%MOMM*%
%LPD*%
G04 APERTURE LIST*
%ADD10C,0.050000*%
G04 APERTURE END LIST*
D10*
X125791500Y-82403000D02*
X128031500Y-82403000D01*
X128031500Y-82403000D02*
X128031500Y-77503000D01*
X128031500Y-77503000D02*
X125791500Y-77503000D01*
X125791500Y-77503000D02*
X125791500Y-82403000D01*
X125814360Y-82870080D02*
X125814360Y-87770080D01*
X128054360Y-82870080D02*
X125814360Y-82870080D01*
X128054360Y-87770080D02*
X128054360Y-82870080D01*
X125814360Y-87770080D02*
X128054360Y-87770080D01*
X125827060Y-93091380D02*
X128067060Y-93091380D01*
X128067060Y-93091380D02*
X128067060Y-88191380D01*
X128067060Y-88191380D02*
X125827060Y-88191380D01*
X125827060Y-88191380D02*
X125827060Y-93091380D01*
X125839760Y-103860980D02*
X128079760Y-103860980D01*
X128079760Y-103860980D02*
X128079760Y-98960980D01*
X128079760Y-98960980D02*
X125839760Y-98960980D01*
X125839760Y-98960980D02*
X125839760Y-103860980D01*
X125827060Y-104294980D02*
X125827060Y-109194980D01*
X128067060Y-104294980D02*
X125827060Y-104294980D01*
X128067060Y-109194980D02*
X128067060Y-104294980D01*
X125827060Y-109194980D02*
X128067060Y-109194980D01*
X125752060Y-114579380D02*
X127992060Y-114579380D01*
X127992060Y-114579380D02*
X127992060Y-109679380D01*
X127992060Y-109679380D02*
X125752060Y-109679380D01*
X125752060Y-109679380D02*
X125752060Y-114579380D01*
X125814360Y-98476180D02*
X128054360Y-98476180D01*
X128054360Y-98476180D02*
X128054360Y-93576180D01*
X128054360Y-93576180D02*
X125814360Y-93576180D01*
X125814360Y-93576180D02*
X125814360Y-98476180D01*
X125790160Y-115060980D02*
X125790160Y-119960980D01*
X128030160Y-115060980D02*
X125790160Y-115060980D01*
X128030160Y-119960980D02*
X128030160Y-115060980D01*
X125790160Y-119960980D02*
X128030160Y-119960980D01*
X134829500Y-64507500D02*
X134829500Y-66747500D01*
X134829500Y-66747500D02*
X139729500Y-66747500D01*
X139729500Y-66747500D02*
X139729500Y-64507500D01*
X139729500Y-64507500D02*
X134829500Y-64507500D01*
X138363500Y-54514500D02*
X138363500Y-56754500D01*
X138363500Y-56754500D02*
X143263500Y-56754500D01*
X143263500Y-56754500D02*
X143263500Y-54514500D01*
X143263500Y-54514500D02*
X138363500Y-54514500D01*
X146765420Y-64456160D02*
X141865420Y-64456160D01*
X146765420Y-66696160D02*
X146765420Y-64456160D01*
X141865420Y-66696160D02*
X146765420Y-66696160D01*
X141865420Y-64456160D02*
X141865420Y-66696160D01*
X145375120Y-54514500D02*
X145375120Y-56754500D01*
X145375120Y-56754500D02*
X150275120Y-56754500D01*
X150275120Y-56754500D02*
X150275120Y-54514500D01*
X150275120Y-54514500D02*
X145375120Y-54514500D01*
X149074000Y-64482500D02*
X149074000Y-66722500D01*
X149074000Y-66722500D02*
X153974000Y-66722500D01*
X153974000Y-66722500D02*
X153974000Y-64482500D01*
X153974000Y-64482500D02*
X149074000Y-64482500D01*
X157462320Y-54525860D02*
X152562320Y-54525860D01*
X157462320Y-56765860D02*
X157462320Y-54525860D01*
X152562320Y-56765860D02*
X157462320Y-56765860D01*
X152562320Y-54525860D02*
X152562320Y-56765860D01*
X156054500Y-64532500D02*
X156054500Y-66772500D01*
X156054500Y-66772500D02*
X160954500Y-66772500D01*
X160954500Y-66772500D02*
X160954500Y-64532500D01*
X160954500Y-64532500D02*
X156054500Y-64532500D01*
X144549000Y-88108500D02*
X139649000Y-88108500D01*
X144549000Y-90348500D02*
X144549000Y-88108500D01*
X139649000Y-90348500D02*
X144549000Y-90348500D01*
X139649000Y-88108500D02*
X139649000Y-90348500D01*
X144546160Y-90660380D02*
X139646160Y-90660380D01*
X144546160Y-92900380D02*
X144546160Y-90660380D01*
X139646160Y-92900380D02*
X144546160Y-92900380D01*
X139646160Y-90660380D02*
X139646160Y-92900380D01*
X139646160Y-93200380D02*
X139646160Y-95440380D01*
X139646160Y-95440380D02*
X144546160Y-95440380D01*
X144546160Y-95440380D02*
X144546160Y-93200380D01*
X144546160Y-93200380D02*
X139646160Y-93200380D01*
X144546160Y-98331180D02*
X139646160Y-98331180D01*
X144546160Y-100571180D02*
X144546160Y-98331180D01*
X139646160Y-100571180D02*
X144546160Y-100571180D01*
X139646160Y-98331180D02*
X139646160Y-100571180D01*
X144549360Y-100794980D02*
X139649360Y-100794980D01*
X144549360Y-103034980D02*
X144549360Y-100794980D01*
X139649360Y-103034980D02*
X144549360Y-103034980D01*
X139649360Y-100794980D02*
X139649360Y-103034980D01*
X144549360Y-103360380D02*
X139649360Y-103360380D01*
X144549360Y-105600380D02*
X144549360Y-103360380D01*
X139649360Y-105600380D02*
X144549360Y-105600380D01*
X139649360Y-103360380D02*
X139649360Y-105600380D01*
X133461500Y-82390500D02*
X133461500Y-80150500D01*
X133461500Y-80150500D02*
X128561500Y-80150500D01*
X128561500Y-80150500D02*
X128561500Y-82390500D01*
X128561500Y-82390500D02*
X133461500Y-82390500D01*
X133471500Y-87770500D02*
X133471500Y-85530500D01*
X133471500Y-85530500D02*
X128571500Y-85530500D01*
X128571500Y-85530500D02*
X128571500Y-87770500D01*
X128571500Y-87770500D02*
X133471500Y-87770500D01*
X133481500Y-93090500D02*
X133481500Y-90850500D01*
X133481500Y-90850500D02*
X128581500Y-90850500D01*
X128581500Y-90850500D02*
X128581500Y-93090500D01*
X128581500Y-93090500D02*
X133481500Y-93090500D01*
X133471500Y-103840500D02*
X133471500Y-101600500D01*
X133471500Y-101600500D02*
X128571500Y-101600500D01*
X128571500Y-101600500D02*
X128571500Y-103840500D01*
X128571500Y-103840500D02*
X133471500Y-103840500D01*
X133501500Y-109200500D02*
X133501500Y-106960500D01*
X133501500Y-106960500D02*
X128601500Y-106960500D01*
X128601500Y-106960500D02*
X128601500Y-109200500D01*
X128601500Y-109200500D02*
X133501500Y-109200500D01*
X133521500Y-114580500D02*
X133521500Y-112340500D01*
X133521500Y-112340500D02*
X128621500Y-112340500D01*
X128621500Y-112340500D02*
X128621500Y-114580500D01*
X128621500Y-114580500D02*
X133521500Y-114580500D01*
X133461500Y-77540500D02*
X128561500Y-77540500D01*
X133461500Y-79780500D02*
X133461500Y-77540500D01*
X128561500Y-79780500D02*
X133461500Y-79780500D01*
X128561500Y-77540500D02*
X128561500Y-79780500D01*
X133461500Y-82890500D02*
X128561500Y-82890500D01*
X133461500Y-85130500D02*
X133461500Y-82890500D01*
X128561500Y-85130500D02*
X133461500Y-85130500D01*
X128561500Y-82890500D02*
X128561500Y-85130500D01*
X133471500Y-88190500D02*
X128571500Y-88190500D01*
X133471500Y-90430500D02*
X133471500Y-88190500D01*
X128571500Y-90430500D02*
X133471500Y-90430500D01*
X128571500Y-88190500D02*
X128571500Y-90430500D01*
X133491500Y-98970500D02*
X128591500Y-98970500D01*
X133491500Y-101210500D02*
X133491500Y-98970500D01*
X128591500Y-101210500D02*
X133491500Y-101210500D01*
X128591500Y-98970500D02*
X128591500Y-101210500D01*
X133491500Y-104300500D02*
X128591500Y-104300500D01*
X133491500Y-106540500D02*
X133491500Y-104300500D01*
X128591500Y-106540500D02*
X133491500Y-106540500D01*
X128591500Y-104300500D02*
X128591500Y-106540500D01*
X133521500Y-109690500D02*
X128621500Y-109690500D01*
X133521500Y-111930500D02*
X133521500Y-109690500D01*
X128621500Y-111930500D02*
X133521500Y-111930500D01*
X128621500Y-109690500D02*
X128621500Y-111930500D01*
X144546160Y-95740380D02*
X139646160Y-95740380D01*
X144546160Y-97980380D02*
X144546160Y-95740380D01*
X139646160Y-97980380D02*
X144546160Y-97980380D01*
X139646160Y-95740380D02*
X139646160Y-97980380D01*
X139671560Y-105900380D02*
X139671560Y-108140380D01*
X139671560Y-108140380D02*
X144571560Y-108140380D01*
X144571560Y-108140380D02*
X144571560Y-105900380D01*
X144571560Y-105900380D02*
X139671560Y-105900380D01*
X139633460Y-108427680D02*
X139633460Y-110667680D01*
X139633460Y-110667680D02*
X144533460Y-110667680D01*
X144533460Y-110667680D02*
X144533460Y-108427680D01*
X144533460Y-108427680D02*
X139633460Y-108427680D01*
X139599000Y-111713500D02*
X139599000Y-113953500D01*
X139599000Y-113953500D02*
X144499000Y-113953500D01*
X144499000Y-113953500D02*
X144499000Y-111713500D01*
X144499000Y-111713500D02*
X139599000Y-111713500D01*
X139561500Y-115193500D02*
X139561500Y-117433500D01*
X139561500Y-117433500D02*
X144461500Y-117433500D01*
X144461500Y-117433500D02*
X144461500Y-115193500D01*
X144461500Y-115193500D02*
X139561500Y-115193500D01*
X139620760Y-118613080D02*
X139620760Y-120853080D01*
X139620760Y-120853080D02*
X144520760Y-120853080D01*
X144520760Y-120853080D02*
X144520760Y-118613080D01*
X144520760Y-118613080D02*
X139620760Y-118613080D01*
X165036500Y-121133500D02*
X165036500Y-123373500D01*
X165036500Y-123373500D02*
X169936500Y-123373500D01*
X169936500Y-123373500D02*
X169936500Y-121133500D01*
X169936500Y-121133500D02*
X165036500Y-121133500D01*
X165049000Y-118608500D02*
X165049000Y-120848500D01*
X165049000Y-120848500D02*
X169949000Y-120848500D01*
X169949000Y-120848500D02*
X169949000Y-118608500D01*
X169949000Y-118608500D02*
X165049000Y-118608500D01*
X133481500Y-98480500D02*
X133481500Y-96240500D01*
X133481500Y-96240500D02*
X128581500Y-96240500D01*
X128581500Y-96240500D02*
X128581500Y-98480500D01*
X128581500Y-98480500D02*
X133481500Y-98480500D01*
X128581500Y-119980500D02*
X133481500Y-119980500D01*
X128581500Y-117740500D02*
X128581500Y-119980500D01*
X133481500Y-117740500D02*
X128581500Y-117740500D01*
X133481500Y-119980500D02*
X133481500Y-117740500D01*
X134834500Y-67277500D02*
X134834500Y-72177500D01*
X137074500Y-67277500D02*
X134834500Y-67277500D01*
X137074500Y-72177500D02*
X137074500Y-67277500D01*
X134834500Y-72177500D02*
X137074500Y-72177500D01*
X138393500Y-57322000D02*
X138393500Y-62222000D01*
X140633500Y-57322000D02*
X138393500Y-57322000D01*
X140633500Y-62222000D02*
X140633500Y-57322000D01*
X138393500Y-62222000D02*
X140633500Y-62222000D01*
X141873500Y-67252500D02*
X141873500Y-72152500D01*
X144113500Y-67252500D02*
X141873500Y-67252500D01*
X144113500Y-72152500D02*
X144113500Y-67252500D01*
X141873500Y-72152500D02*
X144113500Y-72152500D01*
X145382500Y-57272000D02*
X145382500Y-62172000D01*
X147622500Y-57272000D02*
X145382500Y-57272000D01*
X147622500Y-62172000D02*
X147622500Y-57272000D01*
X145382500Y-62172000D02*
X147622500Y-62172000D01*
X149091500Y-67252500D02*
X149091500Y-72152500D01*
X151331500Y-67252500D02*
X149091500Y-67252500D01*
X151331500Y-72152500D02*
X151331500Y-67252500D01*
X149091500Y-72152500D02*
X151331500Y-72152500D01*
X152575500Y-62172000D02*
X154815500Y-62172000D01*
X154815500Y-62172000D02*
X154815500Y-57272000D01*
X154815500Y-57272000D02*
X152575500Y-57272000D01*
X152575500Y-57272000D02*
X152575500Y-62172000D01*
X133471500Y-93570500D02*
X128571500Y-93570500D01*
X133471500Y-95810500D02*
X133471500Y-93570500D01*
X128571500Y-95810500D02*
X133471500Y-95810500D01*
X128571500Y-93570500D02*
X128571500Y-95810500D01*
X128591500Y-115060500D02*
X128591500Y-117300500D01*
X128591500Y-117300500D02*
X133491500Y-117300500D01*
X133491500Y-117300500D02*
X133491500Y-115060500D01*
X133491500Y-115060500D02*
X128591500Y-115060500D01*
X139724500Y-67277500D02*
X137484500Y-67277500D01*
X137484500Y-67277500D02*
X137484500Y-72177500D01*
X137484500Y-72177500D02*
X139724500Y-72177500D01*
X139724500Y-72177500D02*
X139724500Y-67277500D01*
X143258500Y-57322000D02*
X141018500Y-57322000D01*
X141018500Y-57322000D02*
X141018500Y-62222000D01*
X141018500Y-62222000D02*
X143258500Y-62222000D01*
X143258500Y-62222000D02*
X143258500Y-57322000D01*
X146763500Y-67252060D02*
X144523500Y-67252060D01*
X144523500Y-67252060D02*
X144523500Y-72152060D01*
X144523500Y-72152060D02*
X146763500Y-72152060D01*
X146763500Y-72152060D02*
X146763500Y-67252060D01*
X150272500Y-62197000D02*
X150272500Y-57297000D01*
X148032500Y-62197000D02*
X150272500Y-62197000D01*
X148032500Y-57297000D02*
X148032500Y-62197000D01*
X150272500Y-57297000D02*
X148032500Y-57297000D01*
X153956500Y-67252500D02*
X151716500Y-67252500D01*
X151716500Y-67252500D02*
X151716500Y-72152500D01*
X151716500Y-72152500D02*
X153956500Y-72152500D01*
X153956500Y-72152500D02*
X153956500Y-67252500D01*
X157465500Y-57272000D02*
X155225500Y-57272000D01*
X155225500Y-57272000D02*
X155225500Y-62172000D01*
X155225500Y-62172000D02*
X157465500Y-62172000D01*
X157465500Y-62172000D02*
X157465500Y-57272000D01*
X165061500Y-116058500D02*
X165061500Y-118298500D01*
X165061500Y-118298500D02*
X169961500Y-118298500D01*
X169961500Y-118298500D02*
X169961500Y-116058500D01*
X169961500Y-116058500D02*
X165061500Y-116058500D01*
X156059500Y-67277500D02*
X156059500Y-72177500D01*
X158299500Y-67277500D02*
X156059500Y-67277500D01*
X158299500Y-72177500D02*
X158299500Y-67277500D01*
X156059500Y-72177500D02*
X158299500Y-72177500D01*
X160974500Y-67277500D02*
X158734500Y-67277500D01*
X158734500Y-67277500D02*
X158734500Y-72177500D01*
X158734500Y-72177500D02*
X160974500Y-72177500D01*
X160974500Y-72177500D02*
X160974500Y-67277500D01*
X160661500Y-85453500D02*
X157361500Y-85453500D01*
X160661500Y-85453500D02*
X160661500Y-87953500D01*
X157361500Y-87953500D02*
X157361500Y-85453500D01*
X157361500Y-87953500D02*
X160661500Y-87953500D01*
X157386500Y-103178500D02*
X160686500Y-103178500D01*
X157386500Y-103178500D02*
X157386500Y-100678500D01*
X160686500Y-100678500D02*
X160686500Y-103178500D01*
X160686500Y-100678500D02*
X157386500Y-100678500D01*
X157386500Y-105728500D02*
X160686500Y-105728500D01*
X157386500Y-105728500D02*
X157386500Y-103228500D01*
X160686500Y-103228500D02*
X160686500Y-105728500D01*
X160686500Y-103228500D02*
X157386500Y-103228500D01*
X160686500Y-105778500D02*
X157386500Y-105778500D01*
X160686500Y-105778500D02*
X160686500Y-108278500D01*
X157386500Y-108278500D02*
X157386500Y-105778500D01*
X157386500Y-108278500D02*
X160686500Y-108278500D01*
X160661500Y-113403500D02*
X157361500Y-113403500D01*
X160661500Y-113403500D02*
X160661500Y-115903500D01*
X157361500Y-115903500D02*
X157361500Y-113403500D01*
X157361500Y-115903500D02*
X160661500Y-115903500D01*
M02*
