G04 #@! TF.GenerationSoftware,KiCad,Pcbnew,5.1.5+dfsg1-2build2*
G04 #@! TF.CreationDate,2023-05-06T09:23:40+02:00*
G04 #@! TF.ProjectId,digital,64696769-7461-46c2-9e6b-696361645f70,rev?*
G04 #@! TF.SameCoordinates,Original*
G04 #@! TF.FileFunction,Legend,Bot*
G04 #@! TF.FilePolarity,Positive*
%FSLAX46Y46*%
G04 Gerber Fmt 4.6, Leading zero omitted, Abs format (unit mm)*
G04 Created by KiCad (PCBNEW 5.1.5+dfsg1-2build2) date 2023-05-06 09:23:40*
%MOMM*%
%LPD*%
G04 APERTURE LIST*
%ADD10C,0.120000*%
%ADD11C,0.150000*%
%ADD12C,0.100000*%
G04 APERTURE END LIST*
D10*
X127821500Y-80555064D02*
X127821500Y-79350936D01*
X126001500Y-80555064D02*
X126001500Y-79350936D01*
X126024360Y-85922144D02*
X126024360Y-84718016D01*
X127844360Y-85922144D02*
X127844360Y-84718016D01*
X127857060Y-91243444D02*
X127857060Y-90039316D01*
X126037060Y-91243444D02*
X126037060Y-90039316D01*
X127869760Y-102013044D02*
X127869760Y-100808916D01*
X126049760Y-102013044D02*
X126049760Y-100808916D01*
X126037060Y-107347044D02*
X126037060Y-106142916D01*
X127857060Y-107347044D02*
X127857060Y-106142916D01*
X127782060Y-112731444D02*
X127782060Y-111527316D01*
X125962060Y-112731444D02*
X125962060Y-111527316D01*
X127844360Y-96628244D02*
X127844360Y-95424116D01*
X126024360Y-96628244D02*
X126024360Y-95424116D01*
X126000160Y-118113044D02*
X126000160Y-116908916D01*
X127820160Y-118113044D02*
X127820160Y-116908916D01*
X136677436Y-66537500D02*
X137881564Y-66537500D01*
X136677436Y-64717500D02*
X137881564Y-64717500D01*
X140211436Y-56544500D02*
X141415564Y-56544500D01*
X140211436Y-54724500D02*
X141415564Y-54724500D01*
X143713356Y-64666160D02*
X144917484Y-64666160D01*
X143713356Y-66486160D02*
X144917484Y-66486160D01*
X147223056Y-56544500D02*
X148427184Y-56544500D01*
X147223056Y-54724500D02*
X148427184Y-54724500D01*
X150921936Y-66512500D02*
X152126064Y-66512500D01*
X150921936Y-64692500D02*
X152126064Y-64692500D01*
X154410256Y-54735860D02*
X155614384Y-54735860D01*
X154410256Y-56555860D02*
X155614384Y-56555860D01*
X157902436Y-66562500D02*
X159106564Y-66562500D01*
X157902436Y-64742500D02*
X159106564Y-64742500D01*
X141496936Y-88318500D02*
X142701064Y-88318500D01*
X141496936Y-90138500D02*
X142701064Y-90138500D01*
X141494096Y-90870380D02*
X142698224Y-90870380D01*
X141494096Y-92690380D02*
X142698224Y-92690380D01*
X141494096Y-95230380D02*
X142698224Y-95230380D01*
X141494096Y-93410380D02*
X142698224Y-93410380D01*
X141494096Y-98541180D02*
X142698224Y-98541180D01*
X141494096Y-100361180D02*
X142698224Y-100361180D01*
X141497296Y-101004980D02*
X142701424Y-101004980D01*
X141497296Y-102824980D02*
X142701424Y-102824980D01*
X141497296Y-103570380D02*
X142701424Y-103570380D01*
X141497296Y-105390380D02*
X142701424Y-105390380D01*
X131613564Y-80360500D02*
X130409436Y-80360500D01*
X131613564Y-82180500D02*
X130409436Y-82180500D01*
X131623564Y-85740500D02*
X130419436Y-85740500D01*
X131623564Y-87560500D02*
X130419436Y-87560500D01*
X131633564Y-91060500D02*
X130429436Y-91060500D01*
X131633564Y-92880500D02*
X130429436Y-92880500D01*
X131623564Y-101810500D02*
X130419436Y-101810500D01*
X131623564Y-103630500D02*
X130419436Y-103630500D01*
X131653564Y-107170500D02*
X130449436Y-107170500D01*
X131653564Y-108990500D02*
X130449436Y-108990500D01*
X131673564Y-112550500D02*
X130469436Y-112550500D01*
X131673564Y-114370500D02*
X130469436Y-114370500D01*
X130409436Y-77750500D02*
X131613564Y-77750500D01*
X130409436Y-79570500D02*
X131613564Y-79570500D01*
X130409436Y-83100500D02*
X131613564Y-83100500D01*
X130409436Y-84920500D02*
X131613564Y-84920500D01*
X130419436Y-88400500D02*
X131623564Y-88400500D01*
X130419436Y-90220500D02*
X131623564Y-90220500D01*
X130439436Y-99180500D02*
X131643564Y-99180500D01*
X130439436Y-101000500D02*
X131643564Y-101000500D01*
X130439436Y-104510500D02*
X131643564Y-104510500D01*
X130439436Y-106330500D02*
X131643564Y-106330500D01*
X130469436Y-109900500D02*
X131673564Y-109900500D01*
X130469436Y-111720500D02*
X131673564Y-111720500D01*
X141494096Y-95950380D02*
X142698224Y-95950380D01*
X141494096Y-97770380D02*
X142698224Y-97770380D01*
X141519496Y-107930380D02*
X142723624Y-107930380D01*
X141519496Y-106110380D02*
X142723624Y-106110380D01*
X141481396Y-110457680D02*
X142685524Y-110457680D01*
X141481396Y-108637680D02*
X142685524Y-108637680D01*
X141446936Y-113743500D02*
X142651064Y-113743500D01*
X141446936Y-111923500D02*
X142651064Y-111923500D01*
X141409436Y-117223500D02*
X142613564Y-117223500D01*
X141409436Y-115403500D02*
X142613564Y-115403500D01*
X141468696Y-120643080D02*
X142672824Y-120643080D01*
X141468696Y-118823080D02*
X142672824Y-118823080D01*
X166884436Y-123163500D02*
X168088564Y-123163500D01*
X166884436Y-121343500D02*
X168088564Y-121343500D01*
X166896936Y-120638500D02*
X168101064Y-120638500D01*
X166896936Y-118818500D02*
X168101064Y-118818500D01*
X131633564Y-96450500D02*
X130429436Y-96450500D01*
X131633564Y-98270500D02*
X130429436Y-98270500D01*
X131633564Y-119770500D02*
X130429436Y-119770500D01*
X131633564Y-117950500D02*
X130429436Y-117950500D01*
X135044500Y-70329564D02*
X135044500Y-69125436D01*
X136864500Y-70329564D02*
X136864500Y-69125436D01*
X138603500Y-60374064D02*
X138603500Y-59169936D01*
X140423500Y-60374064D02*
X140423500Y-59169936D01*
X142083500Y-70304564D02*
X142083500Y-69100436D01*
X143903500Y-70304564D02*
X143903500Y-69100436D01*
X145592500Y-60324064D02*
X145592500Y-59119936D01*
X147412500Y-60324064D02*
X147412500Y-59119936D01*
X149301500Y-70304564D02*
X149301500Y-69100436D01*
X151121500Y-70304564D02*
X151121500Y-69100436D01*
X154605500Y-60324064D02*
X154605500Y-59119936D01*
X152785500Y-60324064D02*
X152785500Y-59119936D01*
X130419436Y-93780500D02*
X131623564Y-93780500D01*
X130419436Y-95600500D02*
X131623564Y-95600500D01*
X130439436Y-117090500D02*
X131643564Y-117090500D01*
X130439436Y-115270500D02*
X131643564Y-115270500D01*
X137694500Y-69125436D02*
X137694500Y-70329564D01*
X139514500Y-69125436D02*
X139514500Y-70329564D01*
X141228500Y-59169936D02*
X141228500Y-60374064D01*
X143048500Y-59169936D02*
X143048500Y-60374064D01*
X144733500Y-69099996D02*
X144733500Y-70304124D01*
X146553500Y-69099996D02*
X146553500Y-70304124D01*
X150062500Y-59144936D02*
X150062500Y-60349064D01*
X148242500Y-59144936D02*
X148242500Y-60349064D01*
X151926500Y-69100436D02*
X151926500Y-70304564D01*
X153746500Y-69100436D02*
X153746500Y-70304564D01*
X155435500Y-59119936D02*
X155435500Y-60324064D01*
X157255500Y-59119936D02*
X157255500Y-60324064D01*
X166909436Y-118088500D02*
X168113564Y-118088500D01*
X166909436Y-116268500D02*
X168113564Y-116268500D01*
X156269500Y-70329564D02*
X156269500Y-69125436D01*
X158089500Y-70329564D02*
X158089500Y-69125436D01*
X158944500Y-69125436D02*
X158944500Y-70329564D01*
X160764500Y-69125436D02*
X160764500Y-70329564D01*
X158311500Y-85703500D02*
G75*
G03X157611500Y-86403500I0J-700000D01*
G01*
X157611500Y-87003500D02*
G75*
G03X158311500Y-87703500I700000J0D01*
G01*
X159711500Y-87703500D02*
G75*
G03X160411500Y-87003500I0J700000D01*
G01*
X160411500Y-86403500D02*
G75*
G03X159711500Y-85703500I-700000J0D01*
G01*
X160411500Y-87003500D02*
X160411500Y-86403500D01*
X158311500Y-87703500D02*
X159711500Y-87703500D01*
X157611500Y-86403500D02*
X157611500Y-87003500D01*
X159711500Y-85703500D02*
X158311500Y-85703500D01*
X159736500Y-100928500D02*
X158336500Y-100928500D01*
X157636500Y-101628500D02*
X157636500Y-102228500D01*
X158336500Y-102928500D02*
X159736500Y-102928500D01*
X160436500Y-102228500D02*
X160436500Y-101628500D01*
X160436500Y-101628500D02*
G75*
G03X159736500Y-100928500I-700000J0D01*
G01*
X159736500Y-102928500D02*
G75*
G03X160436500Y-102228500I0J700000D01*
G01*
X157636500Y-102228500D02*
G75*
G03X158336500Y-102928500I700000J0D01*
G01*
X158336500Y-100928500D02*
G75*
G03X157636500Y-101628500I0J-700000D01*
G01*
X159736500Y-103478500D02*
X158336500Y-103478500D01*
X157636500Y-104178500D02*
X157636500Y-104778500D01*
X158336500Y-105478500D02*
X159736500Y-105478500D01*
X160436500Y-104778500D02*
X160436500Y-104178500D01*
X160436500Y-104178500D02*
G75*
G03X159736500Y-103478500I-700000J0D01*
G01*
X159736500Y-105478500D02*
G75*
G03X160436500Y-104778500I0J700000D01*
G01*
X157636500Y-104778500D02*
G75*
G03X158336500Y-105478500I700000J0D01*
G01*
X158336500Y-103478500D02*
G75*
G03X157636500Y-104178500I0J-700000D01*
G01*
X158336500Y-106028500D02*
G75*
G03X157636500Y-106728500I0J-700000D01*
G01*
X157636500Y-107328500D02*
G75*
G03X158336500Y-108028500I700000J0D01*
G01*
X159736500Y-108028500D02*
G75*
G03X160436500Y-107328500I0J700000D01*
G01*
X160436500Y-106728500D02*
G75*
G03X159736500Y-106028500I-700000J0D01*
G01*
X160436500Y-107328500D02*
X160436500Y-106728500D01*
X158336500Y-108028500D02*
X159736500Y-108028500D01*
X157636500Y-106728500D02*
X157636500Y-107328500D01*
X159736500Y-106028500D02*
X158336500Y-106028500D01*
X158311500Y-113653500D02*
G75*
G03X157611500Y-114353500I0J-700000D01*
G01*
X157611500Y-114953500D02*
G75*
G03X158311500Y-115653500I700000J0D01*
G01*
X159711500Y-115653500D02*
G75*
G03X160411500Y-114953500I0J700000D01*
G01*
X160411500Y-114353500D02*
G75*
G03X159711500Y-113653500I-700000J0D01*
G01*
X160411500Y-114953500D02*
X160411500Y-114353500D01*
X158311500Y-115653500D02*
X159711500Y-115653500D01*
X157611500Y-114353500D02*
X157611500Y-114953500D01*
X159711500Y-113653500D02*
X158311500Y-113653500D01*
D11*
X125452142Y-79843333D02*
X125499761Y-79795714D01*
X125547380Y-79652857D01*
X125547380Y-79557619D01*
X125499761Y-79414761D01*
X125404523Y-79319523D01*
X125309285Y-79271904D01*
X125118809Y-79224285D01*
X124975952Y-79224285D01*
X124785476Y-79271904D01*
X124690238Y-79319523D01*
X124595000Y-79414761D01*
X124547380Y-79557619D01*
X124547380Y-79652857D01*
X124595000Y-79795714D01*
X124642619Y-79843333D01*
X124642619Y-80224285D02*
X124595000Y-80271904D01*
X124547380Y-80367142D01*
X124547380Y-80605238D01*
X124595000Y-80700476D01*
X124642619Y-80748095D01*
X124737857Y-80795714D01*
X124833095Y-80795714D01*
X124975952Y-80748095D01*
X125547380Y-80176666D01*
X125547380Y-80795714D01*
X125388642Y-85113833D02*
X125436261Y-85066214D01*
X125483880Y-84923357D01*
X125483880Y-84828119D01*
X125436261Y-84685261D01*
X125341023Y-84590023D01*
X125245785Y-84542404D01*
X125055309Y-84494785D01*
X124912452Y-84494785D01*
X124721976Y-84542404D01*
X124626738Y-84590023D01*
X124531500Y-84685261D01*
X124483880Y-84828119D01*
X124483880Y-84923357D01*
X124531500Y-85066214D01*
X124579119Y-85113833D01*
X124483880Y-85447166D02*
X124483880Y-86066214D01*
X124864833Y-85732880D01*
X124864833Y-85875738D01*
X124912452Y-85970976D01*
X124960071Y-86018595D01*
X125055309Y-86066214D01*
X125293404Y-86066214D01*
X125388642Y-86018595D01*
X125436261Y-85970976D01*
X125483880Y-85875738D01*
X125483880Y-85590023D01*
X125436261Y-85494785D01*
X125388642Y-85447166D01*
X125452142Y-90447833D02*
X125499761Y-90400214D01*
X125547380Y-90257357D01*
X125547380Y-90162119D01*
X125499761Y-90019261D01*
X125404523Y-89924023D01*
X125309285Y-89876404D01*
X125118809Y-89828785D01*
X124975952Y-89828785D01*
X124785476Y-89876404D01*
X124690238Y-89924023D01*
X124595000Y-90019261D01*
X124547380Y-90162119D01*
X124547380Y-90257357D01*
X124595000Y-90400214D01*
X124642619Y-90447833D01*
X124880714Y-91304976D02*
X125547380Y-91304976D01*
X124499761Y-91066880D02*
X125214047Y-90828785D01*
X125214047Y-91447833D01*
X125452142Y-101115833D02*
X125499761Y-101068214D01*
X125547380Y-100925357D01*
X125547380Y-100830119D01*
X125499761Y-100687261D01*
X125404523Y-100592023D01*
X125309285Y-100544404D01*
X125118809Y-100496785D01*
X124975952Y-100496785D01*
X124785476Y-100544404D01*
X124690238Y-100592023D01*
X124595000Y-100687261D01*
X124547380Y-100830119D01*
X124547380Y-100925357D01*
X124595000Y-101068214D01*
X124642619Y-101115833D01*
X124547380Y-102020595D02*
X124547380Y-101544404D01*
X125023571Y-101496785D01*
X124975952Y-101544404D01*
X124928333Y-101639642D01*
X124928333Y-101877738D01*
X124975952Y-101972976D01*
X125023571Y-102020595D01*
X125118809Y-102068214D01*
X125356904Y-102068214D01*
X125452142Y-102020595D01*
X125499761Y-101972976D01*
X125547380Y-101877738D01*
X125547380Y-101639642D01*
X125499761Y-101544404D01*
X125452142Y-101496785D01*
X125452142Y-104608333D02*
X125499761Y-104560714D01*
X125547380Y-104417857D01*
X125547380Y-104322619D01*
X125499761Y-104179761D01*
X125404523Y-104084523D01*
X125309285Y-104036904D01*
X125118809Y-103989285D01*
X124975952Y-103989285D01*
X124785476Y-104036904D01*
X124690238Y-104084523D01*
X124595000Y-104179761D01*
X124547380Y-104322619D01*
X124547380Y-104417857D01*
X124595000Y-104560714D01*
X124642619Y-104608333D01*
X124547380Y-105465476D02*
X124547380Y-105275000D01*
X124595000Y-105179761D01*
X124642619Y-105132142D01*
X124785476Y-105036904D01*
X124975952Y-104989285D01*
X125356904Y-104989285D01*
X125452142Y-105036904D01*
X125499761Y-105084523D01*
X125547380Y-105179761D01*
X125547380Y-105370238D01*
X125499761Y-105465476D01*
X125452142Y-105513095D01*
X125356904Y-105560714D01*
X125118809Y-105560714D01*
X125023571Y-105513095D01*
X124975952Y-105465476D01*
X124928333Y-105370238D01*
X124928333Y-105179761D01*
X124975952Y-105084523D01*
X125023571Y-105036904D01*
X125118809Y-104989285D01*
X125452142Y-114450833D02*
X125499761Y-114403214D01*
X125547380Y-114260357D01*
X125547380Y-114165119D01*
X125499761Y-114022261D01*
X125404523Y-113927023D01*
X125309285Y-113879404D01*
X125118809Y-113831785D01*
X124975952Y-113831785D01*
X124785476Y-113879404D01*
X124690238Y-113927023D01*
X124595000Y-114022261D01*
X124547380Y-114165119D01*
X124547380Y-114260357D01*
X124595000Y-114403214D01*
X124642619Y-114450833D01*
X124547380Y-114784166D02*
X124547380Y-115450833D01*
X125547380Y-115022261D01*
X125452142Y-95718333D02*
X125499761Y-95670714D01*
X125547380Y-95527857D01*
X125547380Y-95432619D01*
X125499761Y-95289761D01*
X125404523Y-95194523D01*
X125309285Y-95146904D01*
X125118809Y-95099285D01*
X124975952Y-95099285D01*
X124785476Y-95146904D01*
X124690238Y-95194523D01*
X124595000Y-95289761D01*
X124547380Y-95432619D01*
X124547380Y-95527857D01*
X124595000Y-95670714D01*
X124642619Y-95718333D01*
X124975952Y-96289761D02*
X124928333Y-96194523D01*
X124880714Y-96146904D01*
X124785476Y-96099285D01*
X124737857Y-96099285D01*
X124642619Y-96146904D01*
X124595000Y-96194523D01*
X124547380Y-96289761D01*
X124547380Y-96480238D01*
X124595000Y-96575476D01*
X124642619Y-96623095D01*
X124737857Y-96670714D01*
X124785476Y-96670714D01*
X124880714Y-96623095D01*
X124928333Y-96575476D01*
X124975952Y-96480238D01*
X124975952Y-96289761D01*
X125023571Y-96194523D01*
X125071190Y-96146904D01*
X125166428Y-96099285D01*
X125356904Y-96099285D01*
X125452142Y-96146904D01*
X125499761Y-96194523D01*
X125547380Y-96289761D01*
X125547380Y-96480238D01*
X125499761Y-96575476D01*
X125452142Y-96623095D01*
X125356904Y-96670714D01*
X125166428Y-96670714D01*
X125071190Y-96623095D01*
X125023571Y-96575476D01*
X124975952Y-96480238D01*
X125388642Y-116736833D02*
X125436261Y-116689214D01*
X125483880Y-116546357D01*
X125483880Y-116451119D01*
X125436261Y-116308261D01*
X125341023Y-116213023D01*
X125245785Y-116165404D01*
X125055309Y-116117785D01*
X124912452Y-116117785D01*
X124721976Y-116165404D01*
X124626738Y-116213023D01*
X124531500Y-116308261D01*
X124483880Y-116451119D01*
X124483880Y-116546357D01*
X124531500Y-116689214D01*
X124579119Y-116736833D01*
X125483880Y-117213023D02*
X125483880Y-117403500D01*
X125436261Y-117498738D01*
X125388642Y-117546357D01*
X125245785Y-117641595D01*
X125055309Y-117689214D01*
X124674357Y-117689214D01*
X124579119Y-117641595D01*
X124531500Y-117593976D01*
X124483880Y-117498738D01*
X124483880Y-117308261D01*
X124531500Y-117213023D01*
X124579119Y-117165404D01*
X124674357Y-117117785D01*
X124912452Y-117117785D01*
X125007690Y-117165404D01*
X125055309Y-117213023D01*
X125102928Y-117308261D01*
X125102928Y-117498738D01*
X125055309Y-117593976D01*
X125007690Y-117641595D01*
X124912452Y-117689214D01*
X137922357Y-64238142D02*
X137969976Y-64285761D01*
X138112833Y-64333380D01*
X138208071Y-64333380D01*
X138350928Y-64285761D01*
X138446166Y-64190523D01*
X138493785Y-64095285D01*
X138541404Y-63904809D01*
X138541404Y-63761952D01*
X138493785Y-63571476D01*
X138446166Y-63476238D01*
X138350928Y-63381000D01*
X138208071Y-63333380D01*
X138112833Y-63333380D01*
X137969976Y-63381000D01*
X137922357Y-63428619D01*
X136969976Y-64333380D02*
X137541404Y-64333380D01*
X137255690Y-64333380D02*
X137255690Y-63333380D01*
X137350928Y-63476238D01*
X137446166Y-63571476D01*
X137541404Y-63619095D01*
X136350928Y-63333380D02*
X136255690Y-63333380D01*
X136160452Y-63381000D01*
X136112833Y-63428619D01*
X136065214Y-63523857D01*
X136017595Y-63714333D01*
X136017595Y-63952428D01*
X136065214Y-64142904D01*
X136112833Y-64238142D01*
X136160452Y-64285761D01*
X136255690Y-64333380D01*
X136350928Y-64333380D01*
X136446166Y-64285761D01*
X136493785Y-64238142D01*
X136541404Y-64142904D01*
X136589023Y-63952428D01*
X136589023Y-63714333D01*
X136541404Y-63523857D01*
X136493785Y-63428619D01*
X136446166Y-63381000D01*
X136350928Y-63333380D01*
X141485857Y-54141642D02*
X141533476Y-54189261D01*
X141676333Y-54236880D01*
X141771571Y-54236880D01*
X141914428Y-54189261D01*
X142009666Y-54094023D01*
X142057285Y-53998785D01*
X142104904Y-53808309D01*
X142104904Y-53665452D01*
X142057285Y-53474976D01*
X142009666Y-53379738D01*
X141914428Y-53284500D01*
X141771571Y-53236880D01*
X141676333Y-53236880D01*
X141533476Y-53284500D01*
X141485857Y-53332119D01*
X140533476Y-54236880D02*
X141104904Y-54236880D01*
X140819190Y-54236880D02*
X140819190Y-53236880D01*
X140914428Y-53379738D01*
X141009666Y-53474976D01*
X141104904Y-53522595D01*
X139581095Y-54236880D02*
X140152523Y-54236880D01*
X139866809Y-54236880D02*
X139866809Y-53236880D01*
X139962047Y-53379738D01*
X140057285Y-53474976D01*
X140152523Y-53522595D01*
X145232357Y-64174642D02*
X145279976Y-64222261D01*
X145422833Y-64269880D01*
X145518071Y-64269880D01*
X145660928Y-64222261D01*
X145756166Y-64127023D01*
X145803785Y-64031785D01*
X145851404Y-63841309D01*
X145851404Y-63698452D01*
X145803785Y-63507976D01*
X145756166Y-63412738D01*
X145660928Y-63317500D01*
X145518071Y-63269880D01*
X145422833Y-63269880D01*
X145279976Y-63317500D01*
X145232357Y-63365119D01*
X144279976Y-64269880D02*
X144851404Y-64269880D01*
X144565690Y-64269880D02*
X144565690Y-63269880D01*
X144660928Y-63412738D01*
X144756166Y-63507976D01*
X144851404Y-63555595D01*
X143899023Y-63365119D02*
X143851404Y-63317500D01*
X143756166Y-63269880D01*
X143518071Y-63269880D01*
X143422833Y-63317500D01*
X143375214Y-63365119D01*
X143327595Y-63460357D01*
X143327595Y-63555595D01*
X143375214Y-63698452D01*
X143946642Y-64269880D01*
X143327595Y-64269880D01*
X148467977Y-54078142D02*
X148515596Y-54125761D01*
X148658453Y-54173380D01*
X148753691Y-54173380D01*
X148896548Y-54125761D01*
X148991786Y-54030523D01*
X149039405Y-53935285D01*
X149087024Y-53744809D01*
X149087024Y-53601952D01*
X149039405Y-53411476D01*
X148991786Y-53316238D01*
X148896548Y-53221000D01*
X148753691Y-53173380D01*
X148658453Y-53173380D01*
X148515596Y-53221000D01*
X148467977Y-53268619D01*
X147515596Y-54173380D02*
X148087024Y-54173380D01*
X147801310Y-54173380D02*
X147801310Y-53173380D01*
X147896548Y-53316238D01*
X147991786Y-53411476D01*
X148087024Y-53459095D01*
X147182262Y-53173380D02*
X146563215Y-53173380D01*
X146896548Y-53554333D01*
X146753691Y-53554333D01*
X146658453Y-53601952D01*
X146610834Y-53649571D01*
X146563215Y-53744809D01*
X146563215Y-53982904D01*
X146610834Y-54078142D01*
X146658453Y-54125761D01*
X146753691Y-54173380D01*
X147039405Y-54173380D01*
X147134643Y-54125761D01*
X147182262Y-54078142D01*
X152153857Y-64174642D02*
X152201476Y-64222261D01*
X152344333Y-64269880D01*
X152439571Y-64269880D01*
X152582428Y-64222261D01*
X152677666Y-64127023D01*
X152725285Y-64031785D01*
X152772904Y-63841309D01*
X152772904Y-63698452D01*
X152725285Y-63507976D01*
X152677666Y-63412738D01*
X152582428Y-63317500D01*
X152439571Y-63269880D01*
X152344333Y-63269880D01*
X152201476Y-63317500D01*
X152153857Y-63365119D01*
X151201476Y-64269880D02*
X151772904Y-64269880D01*
X151487190Y-64269880D02*
X151487190Y-63269880D01*
X151582428Y-63412738D01*
X151677666Y-63507976D01*
X151772904Y-63555595D01*
X150344333Y-63603214D02*
X150344333Y-64269880D01*
X150582428Y-63222261D02*
X150820523Y-63936547D01*
X150201476Y-63936547D01*
X155709857Y-54078142D02*
X155757476Y-54125761D01*
X155900333Y-54173380D01*
X155995571Y-54173380D01*
X156138428Y-54125761D01*
X156233666Y-54030523D01*
X156281285Y-53935285D01*
X156328904Y-53744809D01*
X156328904Y-53601952D01*
X156281285Y-53411476D01*
X156233666Y-53316238D01*
X156138428Y-53221000D01*
X155995571Y-53173380D01*
X155900333Y-53173380D01*
X155757476Y-53221000D01*
X155709857Y-53268619D01*
X154757476Y-54173380D02*
X155328904Y-54173380D01*
X155043190Y-54173380D02*
X155043190Y-53173380D01*
X155138428Y-53316238D01*
X155233666Y-53411476D01*
X155328904Y-53459095D01*
X153852714Y-53173380D02*
X154328904Y-53173380D01*
X154376523Y-53649571D01*
X154328904Y-53601952D01*
X154233666Y-53554333D01*
X153995571Y-53554333D01*
X153900333Y-53601952D01*
X153852714Y-53649571D01*
X153805095Y-53744809D01*
X153805095Y-53982904D01*
X153852714Y-54078142D01*
X153900333Y-54125761D01*
X153995571Y-54173380D01*
X154233666Y-54173380D01*
X154328904Y-54125761D01*
X154376523Y-54078142D01*
X159075357Y-64174642D02*
X159122976Y-64222261D01*
X159265833Y-64269880D01*
X159361071Y-64269880D01*
X159503928Y-64222261D01*
X159599166Y-64127023D01*
X159646785Y-64031785D01*
X159694404Y-63841309D01*
X159694404Y-63698452D01*
X159646785Y-63507976D01*
X159599166Y-63412738D01*
X159503928Y-63317500D01*
X159361071Y-63269880D01*
X159265833Y-63269880D01*
X159122976Y-63317500D01*
X159075357Y-63365119D01*
X158122976Y-64269880D02*
X158694404Y-64269880D01*
X158408690Y-64269880D02*
X158408690Y-63269880D01*
X158503928Y-63412738D01*
X158599166Y-63507976D01*
X158694404Y-63555595D01*
X157265833Y-63269880D02*
X157456309Y-63269880D01*
X157551547Y-63317500D01*
X157599166Y-63365119D01*
X157694404Y-63507976D01*
X157742023Y-63698452D01*
X157742023Y-64079404D01*
X157694404Y-64174642D01*
X157646785Y-64222261D01*
X157551547Y-64269880D01*
X157361071Y-64269880D01*
X157265833Y-64222261D01*
X157218214Y-64174642D01*
X157170595Y-64079404D01*
X157170595Y-63841309D01*
X157218214Y-63746071D01*
X157265833Y-63698452D01*
X157361071Y-63650833D01*
X157551547Y-63650833D01*
X157646785Y-63698452D01*
X157694404Y-63746071D01*
X157742023Y-63841309D01*
X145657866Y-89657180D02*
X145991200Y-89180990D01*
X146229295Y-89657180D02*
X146229295Y-88657180D01*
X145848342Y-88657180D01*
X145753104Y-88704800D01*
X145705485Y-88752419D01*
X145657866Y-88847657D01*
X145657866Y-88990514D01*
X145705485Y-89085752D01*
X145753104Y-89133371D01*
X145848342Y-89180990D01*
X146229295Y-89180990D01*
X144705485Y-89657180D02*
X145276914Y-89657180D01*
X144991200Y-89657180D02*
X144991200Y-88657180D01*
X145086438Y-88800038D01*
X145181676Y-88895276D01*
X145276914Y-88942895D01*
X145708666Y-92400380D02*
X146042000Y-91924190D01*
X146280095Y-92400380D02*
X146280095Y-91400380D01*
X145899142Y-91400380D01*
X145803904Y-91448000D01*
X145756285Y-91495619D01*
X145708666Y-91590857D01*
X145708666Y-91733714D01*
X145756285Y-91828952D01*
X145803904Y-91876571D01*
X145899142Y-91924190D01*
X146280095Y-91924190D01*
X145327714Y-91495619D02*
X145280095Y-91448000D01*
X145184857Y-91400380D01*
X144946761Y-91400380D01*
X144851523Y-91448000D01*
X144803904Y-91495619D01*
X144756285Y-91590857D01*
X144756285Y-91686095D01*
X144803904Y-91828952D01*
X145375333Y-92400380D01*
X144756285Y-92400380D01*
X145708666Y-94889580D02*
X146042000Y-94413390D01*
X146280095Y-94889580D02*
X146280095Y-93889580D01*
X145899142Y-93889580D01*
X145803904Y-93937200D01*
X145756285Y-93984819D01*
X145708666Y-94080057D01*
X145708666Y-94222914D01*
X145756285Y-94318152D01*
X145803904Y-94365771D01*
X145899142Y-94413390D01*
X146280095Y-94413390D01*
X145375333Y-93889580D02*
X144756285Y-93889580D01*
X145089619Y-94270533D01*
X144946761Y-94270533D01*
X144851523Y-94318152D01*
X144803904Y-94365771D01*
X144756285Y-94461009D01*
X144756285Y-94699104D01*
X144803904Y-94794342D01*
X144851523Y-94841961D01*
X144946761Y-94889580D01*
X145232476Y-94889580D01*
X145327714Y-94841961D01*
X145375333Y-94794342D01*
X145708666Y-99918780D02*
X146042000Y-99442590D01*
X146280095Y-99918780D02*
X146280095Y-98918780D01*
X145899142Y-98918780D01*
X145803904Y-98966400D01*
X145756285Y-99014019D01*
X145708666Y-99109257D01*
X145708666Y-99252114D01*
X145756285Y-99347352D01*
X145803904Y-99394971D01*
X145899142Y-99442590D01*
X146280095Y-99442590D01*
X144851523Y-99252114D02*
X144851523Y-99918780D01*
X145089619Y-98871161D02*
X145327714Y-99585447D01*
X144708666Y-99585447D01*
X145657866Y-102407980D02*
X145991200Y-101931790D01*
X146229295Y-102407980D02*
X146229295Y-101407980D01*
X145848342Y-101407980D01*
X145753104Y-101455600D01*
X145705485Y-101503219D01*
X145657866Y-101598457D01*
X145657866Y-101741314D01*
X145705485Y-101836552D01*
X145753104Y-101884171D01*
X145848342Y-101931790D01*
X146229295Y-101931790D01*
X144753104Y-101407980D02*
X145229295Y-101407980D01*
X145276914Y-101884171D01*
X145229295Y-101836552D01*
X145134057Y-101788933D01*
X144895961Y-101788933D01*
X144800723Y-101836552D01*
X144753104Y-101884171D01*
X144705485Y-101979409D01*
X144705485Y-102217504D01*
X144753104Y-102312742D01*
X144800723Y-102360361D01*
X144895961Y-102407980D01*
X145134057Y-102407980D01*
X145229295Y-102360361D01*
X145276914Y-102312742D01*
X145657866Y-104998780D02*
X145991200Y-104522590D01*
X146229295Y-104998780D02*
X146229295Y-103998780D01*
X145848342Y-103998780D01*
X145753104Y-104046400D01*
X145705485Y-104094019D01*
X145657866Y-104189257D01*
X145657866Y-104332114D01*
X145705485Y-104427352D01*
X145753104Y-104474971D01*
X145848342Y-104522590D01*
X146229295Y-104522590D01*
X144800723Y-103998780D02*
X144991200Y-103998780D01*
X145086438Y-104046400D01*
X145134057Y-104094019D01*
X145229295Y-104236876D01*
X145276914Y-104427352D01*
X145276914Y-104808304D01*
X145229295Y-104903542D01*
X145181676Y-104951161D01*
X145086438Y-104998780D01*
X144895961Y-104998780D01*
X144800723Y-104951161D01*
X144753104Y-104903542D01*
X144705485Y-104808304D01*
X144705485Y-104570209D01*
X144753104Y-104474971D01*
X144800723Y-104427352D01*
X144895961Y-104379733D01*
X145086438Y-104379733D01*
X145181676Y-104427352D01*
X145229295Y-104474971D01*
X145276914Y-104570209D01*
D12*
X134677104Y-80587866D02*
X134296152Y-80321200D01*
X134677104Y-80130723D02*
X133877104Y-80130723D01*
X133877104Y-80435485D01*
X133915200Y-80511676D01*
X133953295Y-80549771D01*
X134029485Y-80587866D01*
X134143771Y-80587866D01*
X134219961Y-80549771D01*
X134258057Y-80511676D01*
X134296152Y-80435485D01*
X134296152Y-80130723D01*
X133877104Y-80854533D02*
X133877104Y-81387866D01*
X134677104Y-81045009D01*
X134677104Y-86023466D02*
X134296152Y-85756800D01*
X134677104Y-85566323D02*
X133877104Y-85566323D01*
X133877104Y-85871085D01*
X133915200Y-85947276D01*
X133953295Y-85985371D01*
X134029485Y-86023466D01*
X134143771Y-86023466D01*
X134219961Y-85985371D01*
X134258057Y-85947276D01*
X134296152Y-85871085D01*
X134296152Y-85566323D01*
X134219961Y-86480609D02*
X134181866Y-86404419D01*
X134143771Y-86366323D01*
X134067580Y-86328228D01*
X134029485Y-86328228D01*
X133953295Y-86366323D01*
X133915200Y-86404419D01*
X133877104Y-86480609D01*
X133877104Y-86632990D01*
X133915200Y-86709180D01*
X133953295Y-86747276D01*
X134029485Y-86785371D01*
X134067580Y-86785371D01*
X134143771Y-86747276D01*
X134181866Y-86709180D01*
X134219961Y-86632990D01*
X134219961Y-86480609D01*
X134258057Y-86404419D01*
X134296152Y-86366323D01*
X134372342Y-86328228D01*
X134524723Y-86328228D01*
X134600914Y-86366323D01*
X134639009Y-86404419D01*
X134677104Y-86480609D01*
X134677104Y-86632990D01*
X134639009Y-86709180D01*
X134600914Y-86747276D01*
X134524723Y-86785371D01*
X134372342Y-86785371D01*
X134296152Y-86747276D01*
X134258057Y-86709180D01*
X134219961Y-86632990D01*
X134626304Y-91357466D02*
X134245352Y-91090800D01*
X134626304Y-90900323D02*
X133826304Y-90900323D01*
X133826304Y-91205085D01*
X133864400Y-91281276D01*
X133902495Y-91319371D01*
X133978685Y-91357466D01*
X134092971Y-91357466D01*
X134169161Y-91319371D01*
X134207257Y-91281276D01*
X134245352Y-91205085D01*
X134245352Y-90900323D01*
X134626304Y-91738419D02*
X134626304Y-91890800D01*
X134588209Y-91966990D01*
X134550114Y-92005085D01*
X134435828Y-92081276D01*
X134283447Y-92119371D01*
X133978685Y-92119371D01*
X133902495Y-92081276D01*
X133864400Y-92043180D01*
X133826304Y-91966990D01*
X133826304Y-91814609D01*
X133864400Y-91738419D01*
X133902495Y-91700323D01*
X133978685Y-91662228D01*
X134169161Y-91662228D01*
X134245352Y-91700323D01*
X134283447Y-91738419D01*
X134321542Y-91814609D01*
X134321542Y-91966990D01*
X134283447Y-92043180D01*
X134245352Y-92081276D01*
X134169161Y-92119371D01*
X134537404Y-101974714D02*
X134156452Y-101708047D01*
X134537404Y-101517571D02*
X133737404Y-101517571D01*
X133737404Y-101822333D01*
X133775500Y-101898523D01*
X133813595Y-101936619D01*
X133889785Y-101974714D01*
X134004071Y-101974714D01*
X134080261Y-101936619D01*
X134118357Y-101898523D01*
X134156452Y-101822333D01*
X134156452Y-101517571D01*
X134537404Y-102736619D02*
X134537404Y-102279476D01*
X134537404Y-102508047D02*
X133737404Y-102508047D01*
X133851690Y-102431857D01*
X133927880Y-102355666D01*
X133965976Y-102279476D01*
X133737404Y-103231857D02*
X133737404Y-103308047D01*
X133775500Y-103384238D01*
X133813595Y-103422333D01*
X133889785Y-103460428D01*
X134042166Y-103498523D01*
X134232642Y-103498523D01*
X134385023Y-103460428D01*
X134461214Y-103422333D01*
X134499309Y-103384238D01*
X134537404Y-103308047D01*
X134537404Y-103231857D01*
X134499309Y-103155666D01*
X134461214Y-103117571D01*
X134385023Y-103079476D01*
X134232642Y-103041380D01*
X134042166Y-103041380D01*
X133889785Y-103079476D01*
X133813595Y-103117571D01*
X133775500Y-103155666D01*
X133737404Y-103231857D01*
X134575504Y-107537314D02*
X134194552Y-107270647D01*
X134575504Y-107080171D02*
X133775504Y-107080171D01*
X133775504Y-107384933D01*
X133813600Y-107461123D01*
X133851695Y-107499219D01*
X133927885Y-107537314D01*
X134042171Y-107537314D01*
X134118361Y-107499219D01*
X134156457Y-107461123D01*
X134194552Y-107384933D01*
X134194552Y-107080171D01*
X134575504Y-108299219D02*
X134575504Y-107842076D01*
X134575504Y-108070647D02*
X133775504Y-108070647D01*
X133889790Y-107994457D01*
X133965980Y-107918266D01*
X134004076Y-107842076D01*
X134575504Y-109061123D02*
X134575504Y-108603980D01*
X134575504Y-108832552D02*
X133775504Y-108832552D01*
X133889790Y-108756361D01*
X133965980Y-108680171D01*
X134004076Y-108603980D01*
X134575504Y-112972914D02*
X134194552Y-112706247D01*
X134575504Y-112515771D02*
X133775504Y-112515771D01*
X133775504Y-112820533D01*
X133813600Y-112896723D01*
X133851695Y-112934819D01*
X133927885Y-112972914D01*
X134042171Y-112972914D01*
X134118361Y-112934819D01*
X134156457Y-112896723D01*
X134194552Y-112820533D01*
X134194552Y-112515771D01*
X134575504Y-113734819D02*
X134575504Y-113277676D01*
X134575504Y-113506247D02*
X133775504Y-113506247D01*
X133889790Y-113430057D01*
X133965980Y-113353866D01*
X134004076Y-113277676D01*
X133851695Y-114039580D02*
X133813600Y-114077676D01*
X133775504Y-114153866D01*
X133775504Y-114344342D01*
X133813600Y-114420533D01*
X133851695Y-114458628D01*
X133927885Y-114496723D01*
X134004076Y-114496723D01*
X134118361Y-114458628D01*
X134575504Y-114001485D01*
X134575504Y-114496723D01*
X134626304Y-77565314D02*
X134245352Y-77298647D01*
X134626304Y-77108171D02*
X133826304Y-77108171D01*
X133826304Y-77412933D01*
X133864400Y-77489123D01*
X133902495Y-77527219D01*
X133978685Y-77565314D01*
X134092971Y-77565314D01*
X134169161Y-77527219D01*
X134207257Y-77489123D01*
X134245352Y-77412933D01*
X134245352Y-77108171D01*
X134626304Y-78327219D02*
X134626304Y-77870076D01*
X134626304Y-78098647D02*
X133826304Y-78098647D01*
X133940590Y-78022457D01*
X134016780Y-77946266D01*
X134054876Y-77870076D01*
X133826304Y-78593885D02*
X133826304Y-79089123D01*
X134131066Y-78822457D01*
X134131066Y-78936742D01*
X134169161Y-79012933D01*
X134207257Y-79051028D01*
X134283447Y-79089123D01*
X134473923Y-79089123D01*
X134550114Y-79051028D01*
X134588209Y-79012933D01*
X134626304Y-78936742D01*
X134626304Y-78708171D01*
X134588209Y-78631980D01*
X134550114Y-78593885D01*
X134626304Y-82848514D02*
X134245352Y-82581847D01*
X134626304Y-82391371D02*
X133826304Y-82391371D01*
X133826304Y-82696133D01*
X133864400Y-82772323D01*
X133902495Y-82810419D01*
X133978685Y-82848514D01*
X134092971Y-82848514D01*
X134169161Y-82810419D01*
X134207257Y-82772323D01*
X134245352Y-82696133D01*
X134245352Y-82391371D01*
X134626304Y-83610419D02*
X134626304Y-83153276D01*
X134626304Y-83381847D02*
X133826304Y-83381847D01*
X133940590Y-83305657D01*
X134016780Y-83229466D01*
X134054876Y-83153276D01*
X134092971Y-84296133D02*
X134626304Y-84296133D01*
X133788209Y-84105657D02*
X134359638Y-83915180D01*
X134359638Y-84410419D01*
X134600904Y-88436514D02*
X134219952Y-88169847D01*
X134600904Y-87979371D02*
X133800904Y-87979371D01*
X133800904Y-88284133D01*
X133839000Y-88360323D01*
X133877095Y-88398419D01*
X133953285Y-88436514D01*
X134067571Y-88436514D01*
X134143761Y-88398419D01*
X134181857Y-88360323D01*
X134219952Y-88284133D01*
X134219952Y-87979371D01*
X134600904Y-89198419D02*
X134600904Y-88741276D01*
X134600904Y-88969847D02*
X133800904Y-88969847D01*
X133915190Y-88893657D01*
X133991380Y-88817466D01*
X134029476Y-88741276D01*
X133800904Y-89922228D02*
X133800904Y-89541276D01*
X134181857Y-89503180D01*
X134143761Y-89541276D01*
X134105666Y-89617466D01*
X134105666Y-89807942D01*
X134143761Y-89884133D01*
X134181857Y-89922228D01*
X134258047Y-89960323D01*
X134448523Y-89960323D01*
X134524714Y-89922228D01*
X134562809Y-89884133D01*
X134600904Y-89807942D01*
X134600904Y-89617466D01*
X134562809Y-89541276D01*
X134524714Y-89503180D01*
X134575504Y-99155314D02*
X134194552Y-98888647D01*
X134575504Y-98698171D02*
X133775504Y-98698171D01*
X133775504Y-99002933D01*
X133813600Y-99079123D01*
X133851695Y-99117219D01*
X133927885Y-99155314D01*
X134042171Y-99155314D01*
X134118361Y-99117219D01*
X134156457Y-99079123D01*
X134194552Y-99002933D01*
X134194552Y-98698171D01*
X134575504Y-99917219D02*
X134575504Y-99460076D01*
X134575504Y-99688647D02*
X133775504Y-99688647D01*
X133889790Y-99612457D01*
X133965980Y-99536266D01*
X134004076Y-99460076D01*
X133775504Y-100602933D02*
X133775504Y-100450552D01*
X133813600Y-100374361D01*
X133851695Y-100336266D01*
X133965980Y-100260076D01*
X134118361Y-100221980D01*
X134423123Y-100221980D01*
X134499314Y-100260076D01*
X134537409Y-100298171D01*
X134575504Y-100374361D01*
X134575504Y-100526742D01*
X134537409Y-100602933D01*
X134499314Y-100641028D01*
X134423123Y-100679123D01*
X134232647Y-100679123D01*
X134156457Y-100641028D01*
X134118361Y-100602933D01*
X134080266Y-100526742D01*
X134080266Y-100374361D01*
X134118361Y-100298171D01*
X134156457Y-100260076D01*
X134232647Y-100221980D01*
X134575504Y-104794114D02*
X134194552Y-104527447D01*
X134575504Y-104336971D02*
X133775504Y-104336971D01*
X133775504Y-104641733D01*
X133813600Y-104717923D01*
X133851695Y-104756019D01*
X133927885Y-104794114D01*
X134042171Y-104794114D01*
X134118361Y-104756019D01*
X134156457Y-104717923D01*
X134194552Y-104641733D01*
X134194552Y-104336971D01*
X134575504Y-105556019D02*
X134575504Y-105098876D01*
X134575504Y-105327447D02*
X133775504Y-105327447D01*
X133889790Y-105251257D01*
X133965980Y-105175066D01*
X134004076Y-105098876D01*
X133775504Y-105822685D02*
X133775504Y-106356019D01*
X134575504Y-106013161D01*
X134600904Y-110178914D02*
X134219952Y-109912247D01*
X134600904Y-109721771D02*
X133800904Y-109721771D01*
X133800904Y-110026533D01*
X133839000Y-110102723D01*
X133877095Y-110140819D01*
X133953285Y-110178914D01*
X134067571Y-110178914D01*
X134143761Y-110140819D01*
X134181857Y-110102723D01*
X134219952Y-110026533D01*
X134219952Y-109721771D01*
X134600904Y-110940819D02*
X134600904Y-110483676D01*
X134600904Y-110712247D02*
X133800904Y-110712247D01*
X133915190Y-110636057D01*
X133991380Y-110559866D01*
X134029476Y-110483676D01*
X134143761Y-111397961D02*
X134105666Y-111321771D01*
X134067571Y-111283676D01*
X133991380Y-111245580D01*
X133953285Y-111245580D01*
X133877095Y-111283676D01*
X133839000Y-111321771D01*
X133800904Y-111397961D01*
X133800904Y-111550342D01*
X133839000Y-111626533D01*
X133877095Y-111664628D01*
X133953285Y-111702723D01*
X133991380Y-111702723D01*
X134067571Y-111664628D01*
X134105666Y-111626533D01*
X134143761Y-111550342D01*
X134143761Y-111397961D01*
X134181857Y-111321771D01*
X134219952Y-111283676D01*
X134296142Y-111245580D01*
X134448523Y-111245580D01*
X134524714Y-111283676D01*
X134562809Y-111321771D01*
X134600904Y-111397961D01*
X134600904Y-111550342D01*
X134562809Y-111626533D01*
X134524714Y-111664628D01*
X134448523Y-111702723D01*
X134296142Y-111702723D01*
X134219952Y-111664628D01*
X134181857Y-111626533D01*
X134143761Y-111550342D01*
D11*
X146591257Y-97277180D02*
X146924590Y-96800990D01*
X147162685Y-97277180D02*
X147162685Y-96277180D01*
X146781733Y-96277180D01*
X146686495Y-96324800D01*
X146638876Y-96372419D01*
X146591257Y-96467657D01*
X146591257Y-96610514D01*
X146638876Y-96705752D01*
X146686495Y-96753371D01*
X146781733Y-96800990D01*
X147162685Y-96800990D01*
X145638876Y-97277180D02*
X146210304Y-97277180D01*
X145924590Y-97277180D02*
X145924590Y-96277180D01*
X146019828Y-96420038D01*
X146115066Y-96515276D01*
X146210304Y-96562895D01*
X145162685Y-97277180D02*
X144972209Y-97277180D01*
X144876971Y-97229561D01*
X144829352Y-97181942D01*
X144734114Y-97039085D01*
X144686495Y-96848609D01*
X144686495Y-96467657D01*
X144734114Y-96372419D01*
X144781733Y-96324800D01*
X144876971Y-96277180D01*
X145067447Y-96277180D01*
X145162685Y-96324800D01*
X145210304Y-96372419D01*
X145257923Y-96467657D01*
X145257923Y-96705752D01*
X145210304Y-96800990D01*
X145162685Y-96848609D01*
X145067447Y-96896228D01*
X144876971Y-96896228D01*
X144781733Y-96848609D01*
X144734114Y-96800990D01*
X144686495Y-96705752D01*
X146642057Y-107487980D02*
X146975390Y-107011790D01*
X147213485Y-107487980D02*
X147213485Y-106487980D01*
X146832533Y-106487980D01*
X146737295Y-106535600D01*
X146689676Y-106583219D01*
X146642057Y-106678457D01*
X146642057Y-106821314D01*
X146689676Y-106916552D01*
X146737295Y-106964171D01*
X146832533Y-107011790D01*
X147213485Y-107011790D01*
X146261104Y-106583219D02*
X146213485Y-106535600D01*
X146118247Y-106487980D01*
X145880152Y-106487980D01*
X145784914Y-106535600D01*
X145737295Y-106583219D01*
X145689676Y-106678457D01*
X145689676Y-106773695D01*
X145737295Y-106916552D01*
X146308723Y-107487980D01*
X145689676Y-107487980D01*
X145070628Y-106487980D02*
X144975390Y-106487980D01*
X144880152Y-106535600D01*
X144832533Y-106583219D01*
X144784914Y-106678457D01*
X144737295Y-106868933D01*
X144737295Y-107107028D01*
X144784914Y-107297504D01*
X144832533Y-107392742D01*
X144880152Y-107440361D01*
X144975390Y-107487980D01*
X145070628Y-107487980D01*
X145165866Y-107440361D01*
X145213485Y-107392742D01*
X145261104Y-107297504D01*
X145308723Y-107107028D01*
X145308723Y-106868933D01*
X145261104Y-106678457D01*
X145213485Y-106583219D01*
X145165866Y-106535600D01*
X145070628Y-106487980D01*
X146591257Y-109926380D02*
X146924590Y-109450190D01*
X147162685Y-109926380D02*
X147162685Y-108926380D01*
X146781733Y-108926380D01*
X146686495Y-108974000D01*
X146638876Y-109021619D01*
X146591257Y-109116857D01*
X146591257Y-109259714D01*
X146638876Y-109354952D01*
X146686495Y-109402571D01*
X146781733Y-109450190D01*
X147162685Y-109450190D01*
X146210304Y-109021619D02*
X146162685Y-108974000D01*
X146067447Y-108926380D01*
X145829352Y-108926380D01*
X145734114Y-108974000D01*
X145686495Y-109021619D01*
X145638876Y-109116857D01*
X145638876Y-109212095D01*
X145686495Y-109354952D01*
X146257923Y-109926380D01*
X145638876Y-109926380D01*
X144686495Y-109926380D02*
X145257923Y-109926380D01*
X144972209Y-109926380D02*
X144972209Y-108926380D01*
X145067447Y-109069238D01*
X145162685Y-109164476D01*
X145257923Y-109212095D01*
X146591257Y-113279180D02*
X146924590Y-112802990D01*
X147162685Y-113279180D02*
X147162685Y-112279180D01*
X146781733Y-112279180D01*
X146686495Y-112326800D01*
X146638876Y-112374419D01*
X146591257Y-112469657D01*
X146591257Y-112612514D01*
X146638876Y-112707752D01*
X146686495Y-112755371D01*
X146781733Y-112802990D01*
X147162685Y-112802990D01*
X146210304Y-112374419D02*
X146162685Y-112326800D01*
X146067447Y-112279180D01*
X145829352Y-112279180D01*
X145734114Y-112326800D01*
X145686495Y-112374419D01*
X145638876Y-112469657D01*
X145638876Y-112564895D01*
X145686495Y-112707752D01*
X146257923Y-113279180D01*
X145638876Y-113279180D01*
X145257923Y-112374419D02*
X145210304Y-112326800D01*
X145115066Y-112279180D01*
X144876971Y-112279180D01*
X144781733Y-112326800D01*
X144734114Y-112374419D01*
X144686495Y-112469657D01*
X144686495Y-112564895D01*
X144734114Y-112707752D01*
X145305542Y-113279180D01*
X144686495Y-113279180D01*
X146540457Y-116835180D02*
X146873790Y-116358990D01*
X147111885Y-116835180D02*
X147111885Y-115835180D01*
X146730933Y-115835180D01*
X146635695Y-115882800D01*
X146588076Y-115930419D01*
X146540457Y-116025657D01*
X146540457Y-116168514D01*
X146588076Y-116263752D01*
X146635695Y-116311371D01*
X146730933Y-116358990D01*
X147111885Y-116358990D01*
X146159504Y-115930419D02*
X146111885Y-115882800D01*
X146016647Y-115835180D01*
X145778552Y-115835180D01*
X145683314Y-115882800D01*
X145635695Y-115930419D01*
X145588076Y-116025657D01*
X145588076Y-116120895D01*
X145635695Y-116263752D01*
X146207123Y-116835180D01*
X145588076Y-116835180D01*
X145254742Y-115835180D02*
X144635695Y-115835180D01*
X144969028Y-116216133D01*
X144826171Y-116216133D01*
X144730933Y-116263752D01*
X144683314Y-116311371D01*
X144635695Y-116406609D01*
X144635695Y-116644704D01*
X144683314Y-116739942D01*
X144730933Y-116787561D01*
X144826171Y-116835180D01*
X145111885Y-116835180D01*
X145207123Y-116787561D01*
X145254742Y-116739942D01*
X146591257Y-120137180D02*
X146924590Y-119660990D01*
X147162685Y-120137180D02*
X147162685Y-119137180D01*
X146781733Y-119137180D01*
X146686495Y-119184800D01*
X146638876Y-119232419D01*
X146591257Y-119327657D01*
X146591257Y-119470514D01*
X146638876Y-119565752D01*
X146686495Y-119613371D01*
X146781733Y-119660990D01*
X147162685Y-119660990D01*
X146210304Y-119232419D02*
X146162685Y-119184800D01*
X146067447Y-119137180D01*
X145829352Y-119137180D01*
X145734114Y-119184800D01*
X145686495Y-119232419D01*
X145638876Y-119327657D01*
X145638876Y-119422895D01*
X145686495Y-119565752D01*
X146257923Y-120137180D01*
X145638876Y-120137180D01*
X144781733Y-119470514D02*
X144781733Y-120137180D01*
X145019828Y-119089561D02*
X145257923Y-119803847D01*
X144638876Y-119803847D01*
X172092857Y-122626380D02*
X172426190Y-122150190D01*
X172664285Y-122626380D02*
X172664285Y-121626380D01*
X172283333Y-121626380D01*
X172188095Y-121674000D01*
X172140476Y-121721619D01*
X172092857Y-121816857D01*
X172092857Y-121959714D01*
X172140476Y-122054952D01*
X172188095Y-122102571D01*
X172283333Y-122150190D01*
X172664285Y-122150190D01*
X171711904Y-121721619D02*
X171664285Y-121674000D01*
X171569047Y-121626380D01*
X171330952Y-121626380D01*
X171235714Y-121674000D01*
X171188095Y-121721619D01*
X171140476Y-121816857D01*
X171140476Y-121912095D01*
X171188095Y-122054952D01*
X171759523Y-122626380D01*
X171140476Y-122626380D01*
X170235714Y-121626380D02*
X170711904Y-121626380D01*
X170759523Y-122102571D01*
X170711904Y-122054952D01*
X170616666Y-122007333D01*
X170378571Y-122007333D01*
X170283333Y-122054952D01*
X170235714Y-122102571D01*
X170188095Y-122197809D01*
X170188095Y-122435904D01*
X170235714Y-122531142D01*
X170283333Y-122578761D01*
X170378571Y-122626380D01*
X170616666Y-122626380D01*
X170711904Y-122578761D01*
X170759523Y-122531142D01*
X172029357Y-120149880D02*
X172362690Y-119673690D01*
X172600785Y-120149880D02*
X172600785Y-119149880D01*
X172219833Y-119149880D01*
X172124595Y-119197500D01*
X172076976Y-119245119D01*
X172029357Y-119340357D01*
X172029357Y-119483214D01*
X172076976Y-119578452D01*
X172124595Y-119626071D01*
X172219833Y-119673690D01*
X172600785Y-119673690D01*
X171648404Y-119245119D02*
X171600785Y-119197500D01*
X171505547Y-119149880D01*
X171267452Y-119149880D01*
X171172214Y-119197500D01*
X171124595Y-119245119D01*
X171076976Y-119340357D01*
X171076976Y-119435595D01*
X171124595Y-119578452D01*
X171696023Y-120149880D01*
X171076976Y-120149880D01*
X170219833Y-119149880D02*
X170410309Y-119149880D01*
X170505547Y-119197500D01*
X170553166Y-119245119D01*
X170648404Y-119387976D01*
X170696023Y-119578452D01*
X170696023Y-119959404D01*
X170648404Y-120054642D01*
X170600785Y-120102261D01*
X170505547Y-120149880D01*
X170315071Y-120149880D01*
X170219833Y-120102261D01*
X170172214Y-120054642D01*
X170124595Y-119959404D01*
X170124595Y-119721309D01*
X170172214Y-119626071D01*
X170219833Y-119578452D01*
X170315071Y-119530833D01*
X170505547Y-119530833D01*
X170600785Y-119578452D01*
X170648404Y-119626071D01*
X170696023Y-119721309D01*
D12*
X134626304Y-96259714D02*
X134245352Y-95993047D01*
X134626304Y-95802571D02*
X133826304Y-95802571D01*
X133826304Y-96107333D01*
X133864400Y-96183523D01*
X133902495Y-96221619D01*
X133978685Y-96259714D01*
X134092971Y-96259714D01*
X134169161Y-96221619D01*
X134207257Y-96183523D01*
X134245352Y-96107333D01*
X134245352Y-95802571D01*
X133902495Y-96564476D02*
X133864400Y-96602571D01*
X133826304Y-96678761D01*
X133826304Y-96869238D01*
X133864400Y-96945428D01*
X133902495Y-96983523D01*
X133978685Y-97021619D01*
X134054876Y-97021619D01*
X134169161Y-96983523D01*
X134626304Y-96526380D01*
X134626304Y-97021619D01*
X133826304Y-97288285D02*
X133826304Y-97821619D01*
X134626304Y-97478761D01*
X134664404Y-118484714D02*
X134283452Y-118218047D01*
X134664404Y-118027571D02*
X133864404Y-118027571D01*
X133864404Y-118332333D01*
X133902500Y-118408523D01*
X133940595Y-118446619D01*
X134016785Y-118484714D01*
X134131071Y-118484714D01*
X134207261Y-118446619D01*
X134245357Y-118408523D01*
X134283452Y-118332333D01*
X134283452Y-118027571D01*
X133940595Y-118789476D02*
X133902500Y-118827571D01*
X133864404Y-118903761D01*
X133864404Y-119094238D01*
X133902500Y-119170428D01*
X133940595Y-119208523D01*
X134016785Y-119246619D01*
X134092976Y-119246619D01*
X134207261Y-119208523D01*
X134664404Y-118751380D01*
X134664404Y-119246619D01*
X134207261Y-119703761D02*
X134169166Y-119627571D01*
X134131071Y-119589476D01*
X134054880Y-119551380D01*
X134016785Y-119551380D01*
X133940595Y-119589476D01*
X133902500Y-119627571D01*
X133864404Y-119703761D01*
X133864404Y-119856142D01*
X133902500Y-119932333D01*
X133940595Y-119970428D01*
X134016785Y-120008523D01*
X134054880Y-120008523D01*
X134131071Y-119970428D01*
X134169166Y-119932333D01*
X134207261Y-119856142D01*
X134207261Y-119703761D01*
X134245357Y-119627571D01*
X134283452Y-119589476D01*
X134359642Y-119551380D01*
X134512023Y-119551380D01*
X134588214Y-119589476D01*
X134626309Y-119627571D01*
X134664404Y-119703761D01*
X134664404Y-119856142D01*
X134626309Y-119932333D01*
X134588214Y-119970428D01*
X134512023Y-120008523D01*
X134359642Y-120008523D01*
X134283452Y-119970428D01*
X134245357Y-119932333D01*
X134207261Y-119856142D01*
D11*
X134500880Y-70032642D02*
X134024690Y-69699309D01*
X134500880Y-69461214D02*
X133500880Y-69461214D01*
X133500880Y-69842166D01*
X133548500Y-69937404D01*
X133596119Y-69985023D01*
X133691357Y-70032642D01*
X133834214Y-70032642D01*
X133929452Y-69985023D01*
X133977071Y-69937404D01*
X134024690Y-69842166D01*
X134024690Y-69461214D01*
X133596119Y-70413595D02*
X133548500Y-70461214D01*
X133500880Y-70556452D01*
X133500880Y-70794547D01*
X133548500Y-70889785D01*
X133596119Y-70937404D01*
X133691357Y-70985023D01*
X133786595Y-70985023D01*
X133929452Y-70937404D01*
X134500880Y-70365976D01*
X134500880Y-70985023D01*
X134500880Y-71461214D02*
X134500880Y-71651690D01*
X134453261Y-71746928D01*
X134405642Y-71794547D01*
X134262785Y-71889785D01*
X134072309Y-71937404D01*
X133691357Y-71937404D01*
X133596119Y-71889785D01*
X133548500Y-71842166D01*
X133500880Y-71746928D01*
X133500880Y-71556452D01*
X133548500Y-71461214D01*
X133596119Y-71413595D01*
X133691357Y-71365976D01*
X133929452Y-71365976D01*
X134024690Y-71413595D01*
X134072309Y-71461214D01*
X134119928Y-71556452D01*
X134119928Y-71746928D01*
X134072309Y-71842166D01*
X134024690Y-71889785D01*
X133929452Y-71937404D01*
X138120380Y-58856642D02*
X137644190Y-58523309D01*
X138120380Y-58285214D02*
X137120380Y-58285214D01*
X137120380Y-58666166D01*
X137168000Y-58761404D01*
X137215619Y-58809023D01*
X137310857Y-58856642D01*
X137453714Y-58856642D01*
X137548952Y-58809023D01*
X137596571Y-58761404D01*
X137644190Y-58666166D01*
X137644190Y-58285214D01*
X137120380Y-59189976D02*
X137120380Y-59809023D01*
X137501333Y-59475690D01*
X137501333Y-59618547D01*
X137548952Y-59713785D01*
X137596571Y-59761404D01*
X137691809Y-59809023D01*
X137929904Y-59809023D01*
X138025142Y-59761404D01*
X138072761Y-59713785D01*
X138120380Y-59618547D01*
X138120380Y-59332833D01*
X138072761Y-59237595D01*
X138025142Y-59189976D01*
X137120380Y-60428071D02*
X137120380Y-60523309D01*
X137168000Y-60618547D01*
X137215619Y-60666166D01*
X137310857Y-60713785D01*
X137501333Y-60761404D01*
X137739428Y-60761404D01*
X137929904Y-60713785D01*
X138025142Y-60666166D01*
X138072761Y-60618547D01*
X138120380Y-60523309D01*
X138120380Y-60428071D01*
X138072761Y-60332833D01*
X138025142Y-60285214D01*
X137929904Y-60237595D01*
X137739428Y-60189976D01*
X137501333Y-60189976D01*
X137310857Y-60237595D01*
X137215619Y-60285214D01*
X137168000Y-60332833D01*
X137120380Y-60428071D01*
X141676380Y-70477142D02*
X141200190Y-70143809D01*
X141676380Y-69905714D02*
X140676380Y-69905714D01*
X140676380Y-70286666D01*
X140724000Y-70381904D01*
X140771619Y-70429523D01*
X140866857Y-70477142D01*
X141009714Y-70477142D01*
X141104952Y-70429523D01*
X141152571Y-70381904D01*
X141200190Y-70286666D01*
X141200190Y-69905714D01*
X140676380Y-70810476D02*
X140676380Y-71429523D01*
X141057333Y-71096190D01*
X141057333Y-71239047D01*
X141104952Y-71334285D01*
X141152571Y-71381904D01*
X141247809Y-71429523D01*
X141485904Y-71429523D01*
X141581142Y-71381904D01*
X141628761Y-71334285D01*
X141676380Y-71239047D01*
X141676380Y-70953333D01*
X141628761Y-70858095D01*
X141581142Y-70810476D01*
X141676380Y-72381904D02*
X141676380Y-71810476D01*
X141676380Y-72096190D02*
X140676380Y-72096190D01*
X140819238Y-72000952D01*
X140914476Y-71905714D01*
X140962095Y-71810476D01*
X145232380Y-57015142D02*
X144756190Y-56681809D01*
X145232380Y-56443714D02*
X144232380Y-56443714D01*
X144232380Y-56824666D01*
X144280000Y-56919904D01*
X144327619Y-56967523D01*
X144422857Y-57015142D01*
X144565714Y-57015142D01*
X144660952Y-56967523D01*
X144708571Y-56919904D01*
X144756190Y-56824666D01*
X144756190Y-56443714D01*
X144232380Y-57348476D02*
X144232380Y-57967523D01*
X144613333Y-57634190D01*
X144613333Y-57777047D01*
X144660952Y-57872285D01*
X144708571Y-57919904D01*
X144803809Y-57967523D01*
X145041904Y-57967523D01*
X145137142Y-57919904D01*
X145184761Y-57872285D01*
X145232380Y-57777047D01*
X145232380Y-57491333D01*
X145184761Y-57396095D01*
X145137142Y-57348476D01*
X144327619Y-58348476D02*
X144280000Y-58396095D01*
X144232380Y-58491333D01*
X144232380Y-58729428D01*
X144280000Y-58824666D01*
X144327619Y-58872285D01*
X144422857Y-58919904D01*
X144518095Y-58919904D01*
X144660952Y-58872285D01*
X145232380Y-58300857D01*
X145232380Y-58919904D01*
X148839180Y-70375542D02*
X148362990Y-70042209D01*
X148839180Y-69804114D02*
X147839180Y-69804114D01*
X147839180Y-70185066D01*
X147886800Y-70280304D01*
X147934419Y-70327923D01*
X148029657Y-70375542D01*
X148172514Y-70375542D01*
X148267752Y-70327923D01*
X148315371Y-70280304D01*
X148362990Y-70185066D01*
X148362990Y-69804114D01*
X147839180Y-70708876D02*
X147839180Y-71327923D01*
X148220133Y-70994590D01*
X148220133Y-71137447D01*
X148267752Y-71232685D01*
X148315371Y-71280304D01*
X148410609Y-71327923D01*
X148648704Y-71327923D01*
X148743942Y-71280304D01*
X148791561Y-71232685D01*
X148839180Y-71137447D01*
X148839180Y-70851733D01*
X148791561Y-70756495D01*
X148743942Y-70708876D01*
X147839180Y-71661257D02*
X147839180Y-72280304D01*
X148220133Y-71946971D01*
X148220133Y-72089828D01*
X148267752Y-72185066D01*
X148315371Y-72232685D01*
X148410609Y-72280304D01*
X148648704Y-72280304D01*
X148743942Y-72232685D01*
X148791561Y-72185066D01*
X148839180Y-72089828D01*
X148839180Y-71804114D01*
X148791561Y-71708876D01*
X148743942Y-71661257D01*
X152407880Y-57205642D02*
X151931690Y-56872309D01*
X152407880Y-56634214D02*
X151407880Y-56634214D01*
X151407880Y-57015166D01*
X151455500Y-57110404D01*
X151503119Y-57158023D01*
X151598357Y-57205642D01*
X151741214Y-57205642D01*
X151836452Y-57158023D01*
X151884071Y-57110404D01*
X151931690Y-57015166D01*
X151931690Y-56634214D01*
X151407880Y-57538976D02*
X151407880Y-58158023D01*
X151788833Y-57824690D01*
X151788833Y-57967547D01*
X151836452Y-58062785D01*
X151884071Y-58110404D01*
X151979309Y-58158023D01*
X152217404Y-58158023D01*
X152312642Y-58110404D01*
X152360261Y-58062785D01*
X152407880Y-57967547D01*
X152407880Y-57681833D01*
X152360261Y-57586595D01*
X152312642Y-57538976D01*
X151741214Y-59015166D02*
X152407880Y-59015166D01*
X151360261Y-58777071D02*
X152074547Y-58538976D01*
X152074547Y-59158023D01*
D12*
X134677104Y-93414914D02*
X134296152Y-93148247D01*
X134677104Y-92957771D02*
X133877104Y-92957771D01*
X133877104Y-93262533D01*
X133915200Y-93338723D01*
X133953295Y-93376819D01*
X134029485Y-93414914D01*
X134143771Y-93414914D01*
X134219961Y-93376819D01*
X134258057Y-93338723D01*
X134296152Y-93262533D01*
X134296152Y-92957771D01*
X133877104Y-93681580D02*
X133877104Y-94176819D01*
X134181866Y-93910152D01*
X134181866Y-94024438D01*
X134219961Y-94100628D01*
X134258057Y-94138723D01*
X134334247Y-94176819D01*
X134524723Y-94176819D01*
X134600914Y-94138723D01*
X134639009Y-94100628D01*
X134677104Y-94024438D01*
X134677104Y-93795866D01*
X134639009Y-93719676D01*
X134600914Y-93681580D01*
X133877104Y-94900628D02*
X133877104Y-94519676D01*
X134258057Y-94481580D01*
X134219961Y-94519676D01*
X134181866Y-94595866D01*
X134181866Y-94786342D01*
X134219961Y-94862533D01*
X134258057Y-94900628D01*
X134334247Y-94938723D01*
X134524723Y-94938723D01*
X134600914Y-94900628D01*
X134639009Y-94862533D01*
X134677104Y-94786342D01*
X134677104Y-94595866D01*
X134639009Y-94519676D01*
X134600914Y-94481580D01*
X134600904Y-115754214D02*
X134219952Y-115487547D01*
X134600904Y-115297071D02*
X133800904Y-115297071D01*
X133800904Y-115601833D01*
X133839000Y-115678023D01*
X133877095Y-115716119D01*
X133953285Y-115754214D01*
X134067571Y-115754214D01*
X134143761Y-115716119D01*
X134181857Y-115678023D01*
X134219952Y-115601833D01*
X134219952Y-115297071D01*
X133800904Y-116020880D02*
X133800904Y-116516119D01*
X134105666Y-116249452D01*
X134105666Y-116363738D01*
X134143761Y-116439928D01*
X134181857Y-116478023D01*
X134258047Y-116516119D01*
X134448523Y-116516119D01*
X134524714Y-116478023D01*
X134562809Y-116439928D01*
X134600904Y-116363738D01*
X134600904Y-116135166D01*
X134562809Y-116058976D01*
X134524714Y-116020880D01*
X133800904Y-117201833D02*
X133800904Y-117049452D01*
X133839000Y-116973261D01*
X133877095Y-116935166D01*
X133991380Y-116858976D01*
X134143761Y-116820880D01*
X134448523Y-116820880D01*
X134524714Y-116858976D01*
X134562809Y-116897071D01*
X134600904Y-116973261D01*
X134600904Y-117125642D01*
X134562809Y-117201833D01*
X134524714Y-117239928D01*
X134448523Y-117278023D01*
X134258047Y-117278023D01*
X134181857Y-117239928D01*
X134143761Y-117201833D01*
X134105666Y-117125642D01*
X134105666Y-116973261D01*
X134143761Y-116897071D01*
X134181857Y-116858976D01*
X134258047Y-116820880D01*
D11*
X140977880Y-67556142D02*
X140501690Y-67222809D01*
X140977880Y-66984714D02*
X139977880Y-66984714D01*
X139977880Y-67365666D01*
X140025500Y-67460904D01*
X140073119Y-67508523D01*
X140168357Y-67556142D01*
X140311214Y-67556142D01*
X140406452Y-67508523D01*
X140454071Y-67460904D01*
X140501690Y-67365666D01*
X140501690Y-66984714D01*
X139977880Y-67889476D02*
X139977880Y-68508523D01*
X140358833Y-68175190D01*
X140358833Y-68318047D01*
X140406452Y-68413285D01*
X140454071Y-68460904D01*
X140549309Y-68508523D01*
X140787404Y-68508523D01*
X140882642Y-68460904D01*
X140930261Y-68413285D01*
X140977880Y-68318047D01*
X140977880Y-68032333D01*
X140930261Y-67937095D01*
X140882642Y-67889476D01*
X139977880Y-68841857D02*
X139977880Y-69508523D01*
X140977880Y-69079952D01*
X144343380Y-60317142D02*
X143867190Y-59983809D01*
X144343380Y-59745714D02*
X143343380Y-59745714D01*
X143343380Y-60126666D01*
X143391000Y-60221904D01*
X143438619Y-60269523D01*
X143533857Y-60317142D01*
X143676714Y-60317142D01*
X143771952Y-60269523D01*
X143819571Y-60221904D01*
X143867190Y-60126666D01*
X143867190Y-59745714D01*
X143343380Y-60650476D02*
X143343380Y-61269523D01*
X143724333Y-60936190D01*
X143724333Y-61079047D01*
X143771952Y-61174285D01*
X143819571Y-61221904D01*
X143914809Y-61269523D01*
X144152904Y-61269523D01*
X144248142Y-61221904D01*
X144295761Y-61174285D01*
X144343380Y-61079047D01*
X144343380Y-60793333D01*
X144295761Y-60698095D01*
X144248142Y-60650476D01*
X143771952Y-61840952D02*
X143724333Y-61745714D01*
X143676714Y-61698095D01*
X143581476Y-61650476D01*
X143533857Y-61650476D01*
X143438619Y-61698095D01*
X143391000Y-61745714D01*
X143343380Y-61840952D01*
X143343380Y-62031428D01*
X143391000Y-62126666D01*
X143438619Y-62174285D01*
X143533857Y-62221904D01*
X143581476Y-62221904D01*
X143676714Y-62174285D01*
X143724333Y-62126666D01*
X143771952Y-62031428D01*
X143771952Y-61840952D01*
X143819571Y-61745714D01*
X143867190Y-61698095D01*
X143962428Y-61650476D01*
X144152904Y-61650476D01*
X144248142Y-61698095D01*
X144295761Y-61745714D01*
X144343380Y-61840952D01*
X144343380Y-62031428D01*
X144295761Y-62126666D01*
X144248142Y-62174285D01*
X144152904Y-62221904D01*
X143962428Y-62221904D01*
X143867190Y-62174285D01*
X143819571Y-62126666D01*
X143771952Y-62031428D01*
X147975580Y-67479942D02*
X147499390Y-67146609D01*
X147975580Y-66908514D02*
X146975580Y-66908514D01*
X146975580Y-67289466D01*
X147023200Y-67384704D01*
X147070819Y-67432323D01*
X147166057Y-67479942D01*
X147308914Y-67479942D01*
X147404152Y-67432323D01*
X147451771Y-67384704D01*
X147499390Y-67289466D01*
X147499390Y-66908514D01*
X146975580Y-67813276D02*
X146975580Y-68432323D01*
X147356533Y-68098990D01*
X147356533Y-68241847D01*
X147404152Y-68337085D01*
X147451771Y-68384704D01*
X147547009Y-68432323D01*
X147785104Y-68432323D01*
X147880342Y-68384704D01*
X147927961Y-68337085D01*
X147975580Y-68241847D01*
X147975580Y-67956133D01*
X147927961Y-67860895D01*
X147880342Y-67813276D01*
X147975580Y-68908514D02*
X147975580Y-69098990D01*
X147927961Y-69194228D01*
X147880342Y-69241847D01*
X147737485Y-69337085D01*
X147547009Y-69384704D01*
X147166057Y-69384704D01*
X147070819Y-69337085D01*
X147023200Y-69289466D01*
X146975580Y-69194228D01*
X146975580Y-69003752D01*
X147023200Y-68908514D01*
X147070819Y-68860895D01*
X147166057Y-68813276D01*
X147404152Y-68813276D01*
X147499390Y-68860895D01*
X147547009Y-68908514D01*
X147594628Y-69003752D01*
X147594628Y-69194228D01*
X147547009Y-69289466D01*
X147499390Y-69337085D01*
X147404152Y-69384704D01*
X151518880Y-60380642D02*
X151042690Y-60047309D01*
X151518880Y-59809214D02*
X150518880Y-59809214D01*
X150518880Y-60190166D01*
X150566500Y-60285404D01*
X150614119Y-60333023D01*
X150709357Y-60380642D01*
X150852214Y-60380642D01*
X150947452Y-60333023D01*
X150995071Y-60285404D01*
X151042690Y-60190166D01*
X151042690Y-59809214D01*
X150852214Y-61237785D02*
X151518880Y-61237785D01*
X150471261Y-60999690D02*
X151185547Y-60761595D01*
X151185547Y-61380642D01*
X150518880Y-61952071D02*
X150518880Y-62047309D01*
X150566500Y-62142547D01*
X150614119Y-62190166D01*
X150709357Y-62237785D01*
X150899833Y-62285404D01*
X151137928Y-62285404D01*
X151328404Y-62237785D01*
X151423642Y-62190166D01*
X151471261Y-62142547D01*
X151518880Y-62047309D01*
X151518880Y-61952071D01*
X151471261Y-61856833D01*
X151423642Y-61809214D01*
X151328404Y-61761595D01*
X151137928Y-61713976D01*
X150899833Y-61713976D01*
X150709357Y-61761595D01*
X150614119Y-61809214D01*
X150566500Y-61856833D01*
X150518880Y-61952071D01*
X155189180Y-67632342D02*
X154712990Y-67299009D01*
X155189180Y-67060914D02*
X154189180Y-67060914D01*
X154189180Y-67441866D01*
X154236800Y-67537104D01*
X154284419Y-67584723D01*
X154379657Y-67632342D01*
X154522514Y-67632342D01*
X154617752Y-67584723D01*
X154665371Y-67537104D01*
X154712990Y-67441866D01*
X154712990Y-67060914D01*
X154522514Y-68489485D02*
X155189180Y-68489485D01*
X154141561Y-68251390D02*
X154855847Y-68013295D01*
X154855847Y-68632342D01*
X155189180Y-69537104D02*
X155189180Y-68965676D01*
X155189180Y-69251390D02*
X154189180Y-69251390D01*
X154332038Y-69156152D01*
X154427276Y-69060914D01*
X154474895Y-68965676D01*
X158694380Y-58856642D02*
X158218190Y-58523309D01*
X158694380Y-58285214D02*
X157694380Y-58285214D01*
X157694380Y-58666166D01*
X157742000Y-58761404D01*
X157789619Y-58809023D01*
X157884857Y-58856642D01*
X158027714Y-58856642D01*
X158122952Y-58809023D01*
X158170571Y-58761404D01*
X158218190Y-58666166D01*
X158218190Y-58285214D01*
X158027714Y-59713785D02*
X158694380Y-59713785D01*
X157646761Y-59475690D02*
X158361047Y-59237595D01*
X158361047Y-59856642D01*
X157789619Y-60189976D02*
X157742000Y-60237595D01*
X157694380Y-60332833D01*
X157694380Y-60570928D01*
X157742000Y-60666166D01*
X157789619Y-60713785D01*
X157884857Y-60761404D01*
X157980095Y-60761404D01*
X158122952Y-60713785D01*
X158694380Y-60142357D01*
X158694380Y-60761404D01*
X172029357Y-117673380D02*
X172362690Y-117197190D01*
X172600785Y-117673380D02*
X172600785Y-116673380D01*
X172219833Y-116673380D01*
X172124595Y-116721000D01*
X172076976Y-116768619D01*
X172029357Y-116863857D01*
X172029357Y-117006714D01*
X172076976Y-117101952D01*
X172124595Y-117149571D01*
X172219833Y-117197190D01*
X172600785Y-117197190D01*
X171172214Y-117006714D02*
X171172214Y-117673380D01*
X171410309Y-116625761D02*
X171648404Y-117340047D01*
X171029357Y-117340047D01*
X170743642Y-116673380D02*
X170124595Y-116673380D01*
X170457928Y-117054333D01*
X170315071Y-117054333D01*
X170219833Y-117101952D01*
X170172214Y-117149571D01*
X170124595Y-117244809D01*
X170124595Y-117482904D01*
X170172214Y-117578142D01*
X170219833Y-117625761D01*
X170315071Y-117673380D01*
X170600785Y-117673380D01*
X170696023Y-117625761D01*
X170743642Y-117578142D01*
X155836880Y-70578742D02*
X155360690Y-70245409D01*
X155836880Y-70007314D02*
X154836880Y-70007314D01*
X154836880Y-70388266D01*
X154884500Y-70483504D01*
X154932119Y-70531123D01*
X155027357Y-70578742D01*
X155170214Y-70578742D01*
X155265452Y-70531123D01*
X155313071Y-70483504D01*
X155360690Y-70388266D01*
X155360690Y-70007314D01*
X154836880Y-71483504D02*
X154836880Y-71007314D01*
X155313071Y-70959695D01*
X155265452Y-71007314D01*
X155217833Y-71102552D01*
X155217833Y-71340647D01*
X155265452Y-71435885D01*
X155313071Y-71483504D01*
X155408309Y-71531123D01*
X155646404Y-71531123D01*
X155741642Y-71483504D01*
X155789261Y-71435885D01*
X155836880Y-71340647D01*
X155836880Y-71102552D01*
X155789261Y-71007314D01*
X155741642Y-70959695D01*
X155836880Y-72483504D02*
X155836880Y-71912076D01*
X155836880Y-72197790D02*
X154836880Y-72197790D01*
X154979738Y-72102552D01*
X155074976Y-72007314D01*
X155122595Y-71912076D01*
X162186880Y-68000642D02*
X161710690Y-67667309D01*
X162186880Y-67429214D02*
X161186880Y-67429214D01*
X161186880Y-67810166D01*
X161234500Y-67905404D01*
X161282119Y-67953023D01*
X161377357Y-68000642D01*
X161520214Y-68000642D01*
X161615452Y-67953023D01*
X161663071Y-67905404D01*
X161710690Y-67810166D01*
X161710690Y-67429214D01*
X161186880Y-68905404D02*
X161186880Y-68429214D01*
X161663071Y-68381595D01*
X161615452Y-68429214D01*
X161567833Y-68524452D01*
X161567833Y-68762547D01*
X161615452Y-68857785D01*
X161663071Y-68905404D01*
X161758309Y-68953023D01*
X161996404Y-68953023D01*
X162091642Y-68905404D01*
X162139261Y-68857785D01*
X162186880Y-68762547D01*
X162186880Y-68524452D01*
X162139261Y-68429214D01*
X162091642Y-68381595D01*
X162186880Y-69429214D02*
X162186880Y-69619690D01*
X162139261Y-69714928D01*
X162091642Y-69762547D01*
X161948785Y-69857785D01*
X161758309Y-69905404D01*
X161377357Y-69905404D01*
X161282119Y-69857785D01*
X161234500Y-69810166D01*
X161186880Y-69714928D01*
X161186880Y-69524452D01*
X161234500Y-69429214D01*
X161282119Y-69381595D01*
X161377357Y-69333976D01*
X161615452Y-69333976D01*
X161710690Y-69381595D01*
X161758309Y-69429214D01*
X161805928Y-69524452D01*
X161805928Y-69714928D01*
X161758309Y-69810166D01*
X161710690Y-69857785D01*
X161615452Y-69905404D01*
X156789333Y-85558380D02*
X156789333Y-86272666D01*
X156836952Y-86415523D01*
X156932190Y-86510761D01*
X157075047Y-86558380D01*
X157170285Y-86558380D01*
X156313142Y-86558380D02*
X156313142Y-85558380D01*
X155932190Y-85558380D01*
X155836952Y-85606000D01*
X155789333Y-85653619D01*
X155741714Y-85748857D01*
X155741714Y-85891714D01*
X155789333Y-85986952D01*
X155836952Y-86034571D01*
X155932190Y-86082190D01*
X156313142Y-86082190D01*
X154789333Y-86558380D02*
X155360761Y-86558380D01*
X155075047Y-86558380D02*
X155075047Y-85558380D01*
X155170285Y-85701238D01*
X155265523Y-85796476D01*
X155360761Y-85844095D01*
X156484533Y-100747580D02*
X156484533Y-101461866D01*
X156532152Y-101604723D01*
X156627390Y-101699961D01*
X156770247Y-101747580D01*
X156865485Y-101747580D01*
X156008342Y-101747580D02*
X156008342Y-100747580D01*
X155627390Y-100747580D01*
X155532152Y-100795200D01*
X155484533Y-100842819D01*
X155436914Y-100938057D01*
X155436914Y-101080914D01*
X155484533Y-101176152D01*
X155532152Y-101223771D01*
X155627390Y-101271390D01*
X156008342Y-101271390D01*
X155055961Y-100842819D02*
X155008342Y-100795200D01*
X154913104Y-100747580D01*
X154675009Y-100747580D01*
X154579771Y-100795200D01*
X154532152Y-100842819D01*
X154484533Y-100938057D01*
X154484533Y-101033295D01*
X154532152Y-101176152D01*
X155103580Y-101747580D01*
X154484533Y-101747580D01*
X156586133Y-103401880D02*
X156586133Y-104116166D01*
X156633752Y-104259023D01*
X156728990Y-104354261D01*
X156871847Y-104401880D01*
X156967085Y-104401880D01*
X156109942Y-104401880D02*
X156109942Y-103401880D01*
X155728990Y-103401880D01*
X155633752Y-103449500D01*
X155586133Y-103497119D01*
X155538514Y-103592357D01*
X155538514Y-103735214D01*
X155586133Y-103830452D01*
X155633752Y-103878071D01*
X155728990Y-103925690D01*
X156109942Y-103925690D01*
X155205180Y-103401880D02*
X154586133Y-103401880D01*
X154919466Y-103782833D01*
X154776609Y-103782833D01*
X154681371Y-103830452D01*
X154633752Y-103878071D01*
X154586133Y-103973309D01*
X154586133Y-104211404D01*
X154633752Y-104306642D01*
X154681371Y-104354261D01*
X154776609Y-104401880D01*
X155062323Y-104401880D01*
X155157561Y-104354261D01*
X155205180Y-104306642D01*
X156586133Y-106183180D02*
X156586133Y-106897466D01*
X156633752Y-107040323D01*
X156728990Y-107135561D01*
X156871847Y-107183180D01*
X156967085Y-107183180D01*
X156109942Y-107183180D02*
X156109942Y-106183180D01*
X155728990Y-106183180D01*
X155633752Y-106230800D01*
X155586133Y-106278419D01*
X155538514Y-106373657D01*
X155538514Y-106516514D01*
X155586133Y-106611752D01*
X155633752Y-106659371D01*
X155728990Y-106706990D01*
X156109942Y-106706990D01*
X154681371Y-106516514D02*
X154681371Y-107183180D01*
X154919466Y-106135561D02*
X155157561Y-106849847D01*
X154538514Y-106849847D01*
X156586133Y-113447580D02*
X156586133Y-114161866D01*
X156633752Y-114304723D01*
X156728990Y-114399961D01*
X156871847Y-114447580D01*
X156967085Y-114447580D01*
X156109942Y-114447580D02*
X156109942Y-113447580D01*
X155728990Y-113447580D01*
X155633752Y-113495200D01*
X155586133Y-113542819D01*
X155538514Y-113638057D01*
X155538514Y-113780914D01*
X155586133Y-113876152D01*
X155633752Y-113923771D01*
X155728990Y-113971390D01*
X156109942Y-113971390D01*
X155205180Y-113447580D02*
X154538514Y-113447580D01*
X154967085Y-114447580D01*
M02*
